<svg version="1.1" id="Layer_1" xmlns="http://www.w3.org/2000/svg" x="0" y="0" viewBox="0 0 360 171" xml:space="preserve" enable-background="new 0 0 360 171"><style>.st0,.st2,.st3,.st5{fill-rule:evenodd;clip-rule:evenodd;fill:#00a696}.st2,.st3,.st5{fill:#eaeaea}.st3,.st5{fill:#17171c}.st5{fill:#fff}</style><g id="Page-1"><g id="galaxion-v2.png" transform="translate(-725 -1017)"><g id="Group-10" transform="translate(725 993)"><path id="Fill-1" class="st0" d="M53.5 138.8l72.8 40.3 88.7-49.9-72.5-40.8z"/><path id="Stroke-154" d="M170.3 95.5l33.8 19.6-33.8-19.6zm-8.5 4.9l42.4 24.6-42.4-24.6zm-8.5 4.9l42.4 24.6-42.4-24.6zm-8.5 5l33.9 19.6-33.9-19.6zm-8.5 4.9l33.9 19.6-33.9-19.6zm-8.5 4.9l33.8 19.6-33.8-19.6zm-8.5 4.9l33.9 19.6-33.9-19.6zm-8.5 4.9l42.4 24.6-42.4-24.6zm-8.5 4.9l42.4 24.6-42.4-24.6zm-8.5 4.9l42.4 24.6-42.4-24.6zm25.5 24.6l93.3-54.1-93.3 54.1zm-8.5-4.9l93.3-54.1-93.3 54.1zm-8.5-4.9l93.3-54.1-93.3 54.1zm-8.5-4.9l93.3-54.1-93.3 54.1zm-8.4-5l93.3-54.1 42.4 24.6-93.3 54.1-42.4-24.6z" fill="none" stroke="#007068" stroke-width=".5"/><path id="Rectangle" class="st2" d="M127.4 77.8l96.4-52.5v101.1l-96.4 52.5z"/><g id="galaxion-logo-isometric-copy" transform="translate(92 74)"><g id="Group-73" transform="translate(0 -.398)"><path class="st3" d="M84.8 47.8c-.1 0-.1.1-.2.1v1.6h.2l.2-.2v-1.6c-.1 0-.1.1-.2.1"/><path id="Fill-3" class="st3" d="M84.6 45.1v-11c-.8.4-1.5.5-2.1.2l-2.8 4.8 4.7 6.1s.1 0 .2-.1"/><g id="Group-7" transform="translate(23.111 12.525)"><defs><filter id="Adobe_OpacityMaskFilter" filterUnits="userSpaceOnUse" x="73.7" y="12.6" width="3.3" height="5.7"><feColorMatrix values="1 0 0 0 0 0 1 0 0 0 0 0 1 0 0 0 0 0 1 0"/></filter></defs><mask maskUnits="userSpaceOnUse" x="73.7" y="12.6" width="3.3" height="5.7" id="mask-2_1_"><g filter="url(#Adobe_OpacityMaskFilter)"><path id="path-1_1_" class="st5" d="M73.7 12.6H77v5.7h-3.3z"/></g></mask><path id="Fill-5" d="M73.8 17.8c0 .1 0 .3-.1.5h3.2v-5.6l-3.3 4.7c.1 0 .2.2.2.4" mask="url(#mask-2_1_)" fill-rule="evenodd" clip-rule="evenodd" fill="#17171c"/></g><path id="Fill-8" class="st3" d="M96.2 21l-2.6 2.3 1.9 6.4.1-.1 1.3-8.2c-.3 0-.5-.1-.7-.4"/><path id="Fill-10" class="st3" d="M88.4 27.7v.3c0 .9-.3 1.9-.7 2.8h6.9c.1-.3.3-.5.5-.7l-1.9-6.4-4.8 4z"/><path id="Fill-12" class="st3" d="M93.5 22.9l2.6-2.3v-.1c0-.3.1-.5.2-.8l-3.6-1.2c-.1.1-.2.3-.3.4l1.1 4z"/><path id="Fill-14" class="st3" d="M92.5 16.4l2.9-5-4.3-.4.7 5.5c.3-.1.5-.1.7-.1"/><path id="Fill-16" class="st3" d="M81.3 30.9c.3-1.3 1-2.7 2-3.7l-1-2.3-8 5.7c0 .1 0 .2-.1.3h7.1z"/><g id="Group-20" transform="translate(12.794 .2)"><defs><filter id="Adobe_OpacityMaskFilter_1_" filterUnits="userSpaceOnUse" x="72.2" y="10.3" width="6.4" height="8.1"><feColorMatrix values="1 0 0 0 0 0 1 0 0 0 0 0 1 0 0 0 0 0 1 0"/></filter></defs><mask maskUnits="userSpaceOnUse" x="72.2" y="10.3" width="6.4" height="8.1" id="mask-4_1_"><g filter="url(#Adobe_OpacityMaskFilter_1_)"><path id="path-3_1_" class="st5" d="M72.2 10.3h6.4v8.1h-6.4z"/></g></mask><path id="Fill-18" d="M77.9 17.7c.2-.4.4-.8.7-1.1l-.8-5.9-5.6-.5v8.1l5.7-.6z" mask="url(#mask-4_1_)" fill-rule="evenodd" clip-rule="evenodd" fill="#17171c"/></g><path id="Fill-21" class="st3" d="M92.8 16.5c.2.1.3.4.3.7 0 .3-.1.5-.2.8l3.6 1.2c.2-.4.5-.7.9-.9.5-.3 1-.2 1.2.2l1.5-1.3v-5.5l-4.3-.3-3 5.1z"/><g id="Group-25" transform="translate(22.286 6.164)"><defs><filter id="Adobe_OpacityMaskFilter_2_" filterUnits="userSpaceOnUse" x="73.8" y="11.6" width="4" height="11.8"><feColorMatrix values="1 0 0 0 0 0 1 0 0 0 0 0 1 0 0 0 0 0 1 0"/></filter></defs><mask maskUnits="userSpaceOnUse" x="73.8" y="11.6" width="4" height="11.8" id="mask-6_1_"><g filter="url(#Adobe_OpacityMaskFilter_2_)"><path id="path-5_1_" class="st5" d="M73.8 11.6h4v11.8h-4z"/></g></mask><path id="Fill-23" d="M76.4 12.9c0 .8-.6 1.8-1.3 2.2l-1.3 8.2c.2 0 .3 0 .5.1l3.5-5v-6.8l-1.4 1.2v.1" mask="url(#mask-6_1_)" fill-rule="evenodd" clip-rule="evenodd" fill="#17171c"/></g><path id="Fill-26" class="st3" d="M85 33.9v11c.3-.1.5-.1.7 0l3.2-4.6-3-7.1c-.3.3-.6.5-.9.7"/><path id="Fill-28" class="st3" d="M79.4 39.7l-2.1 3.7 6.7 2.4-4.6-6.1z"/><path id="Fill-30" class="st3" d="M90.5 18.7v-.3l-5.5.7v3.4l5.5-3.8z"/><path id="Fill-32" class="st3" d="M91.9 19.3l-.1.1c-.3.1-.5.2-.7.2l-3.6 6.2c.5.3.8.8.9 1.5l4.7-4-1.2-4z"/><path id="Fill-34" class="st3" d="M77.4 37.1L73 40.9v.1c0 .3-.1.5-.2.8l4.1 1.4 2.2-3.9-1.7-2.2z"/><path id="Fill-36" class="st3" d="M94.4 31.3h-7c-.3.5-.7 1-1.1 1.5l3 7 5.2-7.4c-.1-.1-.2-.4-.2-.6 0-.2 0-.3.1-.5"/><path id="Fill-38" class="st3" d="M81.3 18.8v.3l3.3-.4v-7.9l-2.1 2.5-1.7 4.7c.3 0 .5.3.5.8"/><path id="Fill-40" class="st3" d="M80.9 20.2l1.7 4.1 2-1.4v-3.7l-3.4.4-.3.6"/><path id="Fill-42" class="st3" d="M82.2 24.6l-1.7-4c-.1.1-.3.3-.5.3-.3.2-.5.2-.7.2L74 29.7c.1.1.2.3.3.5l7.9-5.6z"/><path id="Fill-44" class="st3" d="M80.1 18.1c.1-.1.3-.1.4-.1l1.4-3.9-2.4 2.8.6 1.2c-.1 0-.1 0 0 0"/><path id="Fill-46" class="st3" d="M72.9 40.5l4.3-3.7-3.6-4.7c-.2.2-.4.3-.6.4h-.1l-.8 7.6c.4 0 .7.1.8.4"/><path id="Fill-48" class="st3" d="M85 25.9c.8-.4 1.5-.5 2.1-.2l3.6-6.2c-.1-.1-.2-.2-.2-.3L85 23v2.9z"/><path id="Fill-50" class="st3" d="M82.2 34.2l-.6-.6-3.7 3.2 1.6 2.1 2.7-4.7z"/><path id="Fill-52" class="st3" d="M71.7 31.8v-.4h-2.3v4.9l2.4-3.9c0-.1-.1-.3-.1-.6"/><path id="Fill-54" class="st3" d="M81.4 33.2c-.1-.3-.2-.7-.2-1.2v-.6H74c0 .1-.1.1-.1.2l3.7 4.8 3.8-3.2z"/><path id="Fill-56" class="st3" d="M72.6 42.3c-.2.3-.5.6-.8.8-.5.3-1 .2-1.2-.2l-1 .9v4.4l4.3.4 2.8-4.8-4.1-1.5z"/><path id="Fill-58" class="st3" d="M79.6 18.5l-.5-1.2-2 2.4 1.8-.2c.2-.4.4-.8.7-1"/><path id="Fill-60" class="st3" d="M70.4 42.5c0-.8.6-1.7 1.3-2.1l.8-7.6h-.3L69.5 37V43.3l.9-.8c0 .1 0 0 0 0"/><path id="Fill-62" class="st3" d="M85.9 45.1c.1.1.2.3.2.6 0 .7-.5 1.6-1.1 2v1.6l5.1-6.1-1.1-2.5-3.1 4.4z"/><path id="Fill-64" class="st3" d="M83.7 26.8c.3-.3.6-.5.9-.7v-2.8l-1.8 1.3.9 2.2z"/><g id="Group-68" transform="translate(0 8.152)"><defs><filter id="Adobe_OpacityMaskFilter_3_" filterUnits="userSpaceOnUse" x="69.5" y="11.8" width="9.5" height="11"><feColorMatrix values="1 0 0 0 0 0 1 0 0 0 0 0 1 0 0 0 0 0 1 0"/></filter></defs><mask maskUnits="userSpaceOnUse" x="69.5" y="11.8" width="9.5" height="11" id="mask-8_1_"><g filter="url(#Adobe_OpacityMaskFilter_3_)"><path id="path-7_1_" class="st5" d="M69.5 11.8H79v11h-9.5z"/></g></mask><path id="Fill-66" d="M73 21.5c.3-.1.5-.2.7-.2l5.3-8.6c-.2-.1-.3-.4-.3-.7v-.3l-2.1.3-7.1 8.5v2.2h2.4c.3-.4.7-.9 1.1-1.2" mask="url(#mask-8_1_)" fill-rule="evenodd" clip-rule="evenodd" fill="#17171c"/></g><path id="Fill-69" class="st3" d="M95.6 32.5c-.3.2-.6.2-.8.1l-5.4 7.6 1.1 2.5 9.6-11.4h-3.4c-.3.5-.7.9-1.1 1.2"/><path id="Fill-71" class="st3" d="M83.5 47.1c0-.3.1-.5.2-.8L77 43.9l-2.8 4.7 10.4.9v-1.6c-.6.2-1.1-.1-1.1-.8"/></g></g><g id="Group-6" transform="translate(105 102.5)"><path class="st0" d="M161.9 21.9c-1.2 1.8-.6 3.7 1.8 5.1l19.8 11.5c2.3 1.4 5.8 1.7 8.8 1h.2l1.2.7c.8.5.8 1.2 0 1.6L116 86.7c-.8.5-2 .5-2.8 0L79.7 67.4c-.8-.5-.8-1.2 0-1.6l77.8-44.9c.8-.5 2-.5 2.8 0l1.6.9v.1zM150.4 55l2.6-1.5c.6-.4.6-.9 0-1.3s-1.6-.4-2.2 0l-2.6 1.5c-.6.4-.6.9 0 1.3.6.3 1.6.3 2.2 0zm-10.9 4.3c.6 0 1.2-.3 1.2-.7 0-.4-.6-.7-1.2-.7-2.6 0-5-.5-6.8-1.6l-.3-.2c-1.7-1-2.8-2.4-2.8-3.9 0-.4-.6-.7-1.2-.7s-1.2.3-1.2.7c0 1.9 1.2 3.6 3.5 4.9l.3.2c2.2 1.3 5.3 2 8.5 2zm1.4-6.6l5.5-3.2c.5-.3.5-.8 0-1.1-.5-.3-1.3-.3-1.8 0l-5.5 3.2c-.7.4-1.7.4-2.4 0l-.2-.1c-.5-.3-1.3-.3-1.8 0s-.5.8 0 1.1l.2.1c1.6 1 4.3 1 6 0zm-4.6-5.9l2.6-1.5c.6-.4.6-.9 0-1.3s-1.6-.4-2.2 0l-2.6 1.5c-.6.4-.6.9 0 1.3.6.3 1.6.3 2.2 0z"/><path class="st2" d="M77.3 68l33.3 19.2c2.1 1.2 5.6 1.2 7.7 0L196 42.4c2.1-1.2 2.1-3.2 0-4.5l-2.8-1.6c-.3-.2-.7-.2-1 0-1.8 1.1-4.7 1-6.5 0L166 24.9c-1.8-1.1-1.8-2.7 0-3.7.3-.2.3-.4 0-.6l-3.3-1.9c-2.1-1.2-5.6-1.2-7.7 0L77.2 63.6c-2 1.2-2.1 3.2.1 4.4zm121.5-24L121 88.9c-3.6 2.1-9.5 2.1-13.2 0L74.5 69.6c-3.7-2.1-3.7-5.5 0-7.6l77.8-44.9c3.6-2.1 9.5-2.1 13.2 0l33.3 19.2c3.6 2.2 3.6 5.6 0 7.7z" transform="translate(0 .731)" id="Group-5"/></g></g></g></g></svg>