<svg version="1.1" id="Layer_1" xmlns="http://www.w3.org/2000/svg" x="0" y="0" viewBox="0 0 208.3 171" xml:space="preserve"><style>.st0{opacity:.4;enable-background:new}.st1{fill:#007068}.st2,.st3{fill-rule:evenodd;clip-rule:evenodd;fill:#00a696}.st3{fill:#006e64}</style><g id="Stroke-26" class="st0"><path class="st1" d="M46.7 119c-.2 0-.4-.1-.5-.3-.1-.3-.1-.6.2-.7l113.9-65.6c.3-.1.6-.1.7.2.1.3.1.6-.2.7L47 118.9c-.1.1-.2.1-.3.1z"/></g><g id="Stroke-28" class="st0"><path class="st1" d="M161.1 118.8c-.1 0-.2 0-.3-.1l-115-66.5c-.3-.1-.3-.5-.2-.7.1-.3.5-.3.7-.2l115 66.5c.3.1.3.5.2.7 0 .2-.2.3-.4.3z"/></g><g id="chainspace-v2.png" transform="translate(-1121 -1032)"><g id="Group-30" transform="translate(1121 1032)"><g id="Group-3"><path id="Fill-1" class="st2" d="M44.4 29.1c9.9 5.7 9.9 15-.1 20.7S18 55.5 8 49.8c-10-5.6-9.9-14.9.1-20.7 10.1-5.7 26.2-5.7 36.3 0"/></g><path id="Fill-4" class="st3" d="M29.4 33.5c4 2.3 4 6 0 8.4-4 2.4-10.5 2.4-14.5 0s-4-6 0-8.4c4-2.2 10.5-2.2 14.5 0"/><path id="Fill-6" class="st3" d="M51.8 38.4v-1.2h-.2c-11.3 0-19.3 2.7-24 7.9-3.8 4.1-3.9 8.5-3.9 9.3v.1l1.1-.1c7 .3 14.1-1.2 19.5-4.4s7.8-7.5 7.5-11.6"/><path id="Fill-8" class="st2" d="M200.9 120.2c9.8 5.7 9.8 14.9-.1 20.6-9.9 5.7-26 5.7-35.8.1-9.8-5.7-9.8-14.9.1-20.6 9.8-5.7 25.9-5.7 35.8-.1"/><path id="Fill-10" class="st3" d="M185.8 124.2c4 2.3 4 6 0 8.4-4 2.4-10.5 2.4-14.5 0-4-2.3-4-6 0-8.4 4.1-2.3 10.5-2.3 14.5 0"/><path id="Fill-12" class="st3" d="M208.3 130.1v-1.2h-.2c-11.3 0-19.3 2.7-24 7.9-3.8 4.1-3.9 8.5-3.9 9.3v.1l1.1-.1c7 .3 14.1-1.2 19.5-4.4 5.3-3.2 7.8-7.5 7.5-11.6"/><path id="Fill-14" class="st2" d="M199.9 50.3C190 56 174 55.9 164 50.2s-10-14.9-.1-20.6c9.8-5.7 25.9-5.6 35.8.1 10 5.7 10 14.8.2 20.6"/><path id="Fill-16" class="st3" d="M193.4 42c-4 2.3-10.5 2.3-14.5 0-4-2.4-4-6 0-8.4 4-2.3 10.5-2.3 14.5 0s4 6.1 0 8.4"/><path id="Fill-18" class="st3" d="M184.5 54.4c0-3.6-1.3-6.6-3.9-9-7.2-6.9-22-7.1-24-7.1h-.2v1.1c-.3 3.9 2.2 7.9 7.4 10.9 5.4 3 12.5 4.4 19.5 4.2l1.2-.1c0 .1 0 0 0 0"/><path id="Fill-20" class="st2" d="M43.4 140.9c-9.8 5.7-25.9 5.6-35.8-.1s-10-14.9-.1-20.6c9.8-5.7 25.9-5.6 35.8.1s9.9 14.9.1 20.6"/><path id="Fill-22" class="st3" d="M36.9 132.6c-4 2.3-10.5 2.3-14.5 0-4-2.4-4-6 0-8.4 4-2.3 10.5-2.3 14.5 0s4 6.1 0 8.4"/><path id="Fill-24" class="st3" d="M28.1 145c0-3.6-1.3-6.6-3.9-9-7.2-7-22-7.1-24-7.1H0v1.1c-.3 3.9 2.2 7.9 7.4 10.9 5.4 3 12.5 4.4 19.5 4.2l1.2-.1c0 .1 0 0 0 0"/></g></g></svg>