<svg xmlns="http://www.w3.org/2000/svg"><defs><font id="icomoon" horiz-adv-x="1024"><font-face units-per-em="1024" ascent="960" descent="-64"/><glyph horiz-adv-x="512"/><glyph unicode="" glyph-name="weather_aquarius" d="M647.92 538.832l-63.76 191.296-256-192-64 192L-9.6 524.8l19.2-25.6 238.24 178.672 64-192 256 192 64.24-192.704 244.288 195.44 118.32-177.488 26.624 17.76-137.68 206.512zm0-320l-63.76 191.296-256-192-64 192L-9.6 204.8l19.2-25.6 238.24 178.672 64-192 256 192 64.24-192.704 244.288 195.44 118.32-177.488 26.624 17.76-137.68 206.512z"/><glyph unicode="" glyph-name="weather_aries" d="M816 960c-168.688 0-267.68-194.48-304-605.072C475.68 765.52 376.688 960 208 960 71.92 960 0 882.544 0 736c0-101.456 81.232-183.856 84.688-187.312l22.624 22.624C106.56 572.064 32 647.664 32 736c0 129.2 57.568 192 176 192 193.792 0 288-324.48 288-992h32c0 667.52 94.208 992 288 992 118.432 0 176-62.8 176-192 0-88.032-74.576-163.936-75.328-164.704l22.64-22.608C942.768 552.144 1024 634.544 1024 736c0 146.544-71.92 224-208 224z"/><glyph unicode="" glyph-name="weather_cancer" d="M69.584 668.144l.144-.176C27.456 635.792 0 585.104 0 528c0-97.04 78.96-176 176-176s176 78.96 176 176c0 83.2-58.096 152.944-135.808 171.184C285.152 718.752 386.144 736 528 736c232.496 0 484.992-156 487.52-157.568l16.96 27.12C1021.872 612.208 769.808 768 528 768c-338.032 0-453.664-95.776-458.416-99.856zM320 528c0-79.408-64.608-144-144-144S32 448.592 32 528s64.608 144 144 144 144-64.592 144-144zm528 16c-97.04 0-176-78.96-176-176 0-83.2 58.096-152.944 135.808-171.184C738.848 177.248 637.856 160 496 160 263.504 160 11.008 316 8.48 317.568l-16.96-27.12C2.128 283.792 254.192 128 496 128c338.032 0 453.664 95.776 458.416 99.856l-.144.176C996.544 260.208 1024 310.896 1024 368c0 97.04-78.96 176-176 176zm0-320c-79.392 0-144 64.592-144 144s64.608 144 144 144 144-64.592 144-144-64.608-144-144-144z"/><glyph unicode="" glyph-name="weather_capricorn" d="M768 336c-81.088 0-166.608-35.648-196.688-129.872-30.72 54-27.392 112.24-27.312 113.872v464c0 60.88-26.752 176-128 176-52.048 0-84.32-30.464-103.472-68.32-4.896 17.664-12.24 34.192-23.408 46.528C276.24 952.464 259.248 960 240 960c-110.72 0-112-79.2-112-80l32-.208c.128 4.944 3.504 48.208 80 48.208 10.368 0 18.432-3.584 25.392-11.232 20.752-22.912 24.496-74.384 23.856-109.072C288.4 799.232 288 791.216 288 784V320h32l-.08 462.4c.272 2.56.896 9.904 1.264 20C325.008 841.12 341.808 928 416 928c94.608 0 95.984-138.144 96-144l.048-462.864c-.288-3.792-5.536-89.536 50.208-158.352C560.928 151.728 560 140.304 560 128l.096-3.84c1.584-46.752-10.544-83.808-36.016-110.176C494.576-16.528 447.44-32 384-32v-32c72.448 0 127.312 18.752 163.072 55.744 31.728 32.832 46.88 77.728 44.992 133.488L592 128c0 1.744.224 3.232.256 4.96C635.712 97.888 694.576 80 768 80c70.576 0 128 57.424 128 128s-57.424 128-128 128zm0-224c-75.808 0-133.632 20.464-171.952 60.72C617.088 289.872 720.576 304 768 304c52.944 0 96-43.056 96-96s-43.056-96-96-96z"/><glyph unicode="" glyph-name="weather_cloud_drop" d="M895.664 607.072C887.68 788.224 736.096 928 544 928c-169.584 0-314.08-106.88-348.976-256H176C80.608 672 0 584.08 0 480c0-100.336 75.664-176 176-176h112v32H176c-82.096 0-144 61.904-144 144 0 86.72 65.952 160 144 160h45.28l2.448 13.04C250.192 793.824 384.88 896 544 896c179.44 0 320-133.536 320-304v-16h16c66 0 112-67.456 112-128 0-63.856-48.144-112-112-112H720v-32h160c82.096 0 144 61.904 144 144 0 72.48-50.912 149.776-128.336 159.072zM656 288c0 116.272-126.128 275.28-131.504 282l-11.776 14.72-12.608-14.016C494.064 563.984 352 404.8 352 288c0-83.44 67.296-144 160-144 87.472 0 144 56.528 144 144zM512 176c-61.648 0-128 35.04-128 112 0 85.584 92.832 205.136 127.264 246.528C542.304 492.48 624 373.632 624 288c0-70.128-41.872-112-112-112z"/><glyph unicode="" glyph-name="weather_cloud_lightning" d="M579.12 601.488l-224-304L368 272h77.344L416.176 82.432l28.688-11.92 224 304L656 400h-77.344l29.168 189.568-28.704 11.92zM624.336 368l-166.64-226.144 22.112 143.712L464 304h-64.336l166.64 226.144-22.112-143.712L560 368h64.336zm271.328 239.072C887.68 788.224 736.096 928 544 928c-169.584 0-314.08-106.88-348.976-256H176C80.608 672 0 584.08 0 480c0-100.336 75.664-176 176-176h112v32H176c-82.096 0-144 61.904-144 144 0 86.72 65.952 160 144 160h45.28l2.448 13.04C250.192 793.824 384.88 896 544 896c179.44 0 320-133.536 320-304v-16h16c66 0 112-67.456 112-128 0-63.856-48.144-112-112-112H736v-32h144c82.096 0 144 61.904 144 144 0 72.48-50.912 149.776-128.336 159.072z"/><glyph unicode="" glyph-name="weather_cloud_snowflake" d="M176 304h112v32H176c-82.096 0-144 61.904-144 144 0 86.72 65.952 160 144 160h45.28l2.448 13.04C250.192 793.824 384.88 896 544 896c179.44 0 320-133.536 320-304v-16h16c66 0 112-67.456 112-128 0-63.856-48.144-112-112-112H736v-32h144c82.096 0 144 61.904 144 144 0 72.48-50.912 149.776-128.336 159.072C887.68 788.224 736.096 928 544 928c-169.584 0-314.08-106.88-348.976-256H176C80.608 672 0 584.08 0 480c0-100.336 75.664-176 176-176zm173.312-40.88L376.56 304H480v32H376.56l-27.248 40.88-26.624-17.76 26.08-39.12-26.08-39.12zm325.376 113.76L647.44 336H544v-32h103.44l27.248-40.88 26.624 17.76-26.08 39.12 26.08 39.12zM512 156.768l39.12-26.08 17.76 26.624L528 184.56V288h-32V184.56l-40.88-27.248 17.76-26.624zm0 326.464l-39.12 26.08-17.76-26.624L496 455.44V352h32v103.44l40.88 27.248-17.76 26.624zm-106.192-1.696l-9.216-46.112-46.128-9.232 6.288-31.376 48.176 9.648 63.76-63.776 22.624 22.624-63.76 63.776 9.632 48.16zm212.384-323.072l9.232 46.112 46.112 9.232-6.288 31.376-48.176-9.632-63.76 63.76-22.624-22.624 63.76-63.76-9.632-48.176zM468.688 299.312l-63.776-63.76-48.16 9.632-6.288-31.376 46.112-9.216 9.232-46.128 31.376 6.288-9.648 48.176 63.776 63.76zm86.624 41.376l63.76 63.76 48.176-9.632 6.288 31.376-46.112 9.232-9.232 46.112-31.376-6.288 9.632-48.176-63.76-63.76z"/><glyph unicode="" glyph-name="weather_cloud" d="M176 144h704c82.096 0 144 61.904 144 144 0 72.48-50.912 149.776-128.336 159.072C887.68 628.224 736.096 768 544 768c-169.584 0-314.08-106.88-348.976-256H176C80.608 512 0 424.08 0 320c0-100.336 75.664-176 176-176zm0 336h45.28l2.448 13.04C250.192 633.824 384.88 736 544 736c179.44 0 320-133.536 320-304v-16h16c66 0 112-67.456 112-128 0-63.856-48.144-112-112-112H176c-82.096 0-144 61.904-144 144 0 86.72 65.952 160 144 160z"/><glyph unicode="" glyph-name="weather_downpour_fullmoon" d="M911.616 510.832C903.024 671.6 755.776 800 576 800c-65.552 0-127.008-18.496-178.496-50.512C355.152 801.504 292.064 832 224 832 100.48 832 0 731.52 0 608c0-42.912 12.176-84.608 35.216-120.608 13.6-21.232 31.008-40.144 50.912-55.744C82.24 416.464 80 400.528 80 384c0-92.704 67.296-160 160-160h656c75.36 0 128 52.64 128 128 0 71.888-44.528 148.512-112.384 158.832zm-849.44-6.192C42.432 535.472 32 571.216 32 608c0 105.872 86.128 192 192 192 57.456 0 110.864-25.296 147.152-68.656-55.312-42.448-95.824-102-112.128-171.344H240c-62.08 0-115.872-39.168-142.4-96.144-13.584 11.936-25.728 25.6-35.424 40.784zM896 256H240c-75.36 0-128 52.64-128 128 0 79.392 57.424 144 128 144h45.264l2.448 13.04C312.448 672.56 433.68 768 576 768c167.632 0 304-122.016 304-272v-16h16c56.576 0 96-67.456 96-128 0-58.32-37.68-96-96-96zM178.068-24.029l127.994 223.996 27.782-15.875L205.85-39.904l-27.782 15.875zm159.993-.008l127.994 223.996 27.782-15.875L365.843-39.912l-27.782 15.875zm159.994-.007l127.994 223.996 27.782-15.875L525.837-39.919l-27.782 15.875zm159.994-.006l127.994 223.996 27.782-15.875L685.831-39.925 658.049-24.05z"/><glyph unicode="" glyph-name="weather_downpour_halfmoon" d="M35.216 487.392c13.6-21.232 31.008-40.144 50.912-55.744C82.24 416.464 80 400.528 80 384c0-92.704 67.296-160 160-160h656c75.36 0 128 52.64 128 128 0 71.888-44.528 148.512-112.384 158.832C903.024 671.6 755.776 800 576 800c-65.552 0-127.008-18.496-178.496-50.512C355.152 801.504 292.064 832 224 832c-13.488 0-27.488-1.344-41.584-4l-23.264-4.384 12.736-19.952C185.04 783.04 192 759.296 192 735.008c0-70.576-57.424-128-128-128-14.24 0-28.496 2.464-42.384 7.344l-22.272 7.824.992-23.584c1.648-39.68 13.712-78.128 34.88-111.2zM880 496v-16h16c56.576 0 96-67.456 96-128 0-58.32-37.68-96-96-96H240c-75.36 0-128 52.64-128 128 0 79.392 57.424 144 128 144h45.264l2.448 13.04C312.448 672.56 433.68 768 576 768c167.632 0 304-122.016 304-272zM64 575.008c88.224 0 160 71.776 160 160 0 22.304-4.672 44.208-13.648 64.48 4.624.336 9.168.512 13.648.512 57.456 0 110.864-25.296 147.152-68.656-55.312-42.448-95.824-102-112.128-171.344H240c-62.08 0-115.872-39.168-142.4-96.144-13.6 11.952-25.712 25.616-35.44 40.784-14.16 22.128-23.568 47.072-27.68 73.168a156.983 156.983 0 0 1 29.52-2.8zm269.932-390.979L205.938-39.967l-27.782 15.875L306.15 199.904l27.782-15.875zm160.007.008L365.945-39.959l-27.782 15.875 127.994 223.996 27.782-15.875zm160.006.007L525.951-39.952l-27.782 15.875 127.994 223.996 27.782-15.875zm160.006.006L685.957-39.946l-27.782 15.875 127.994 223.996 27.782-15.875z"/><glyph unicode="" glyph-name="weather_downpour_sun" d="M911.616 510.832C903.024 671.6 755.776 800 576 800c-31.344 0-61.664-4.4-90.512-12.304C446.656 816.608 400.672 832 352 832c-123.52 0-224-100.48-224-224 0-34.624 7.792-57.84 19.952-80.288C106.928 495.808 80 443.344 80 384c0-92.704 67.296-160 160-160h656c75.36 0 128 52.64 128 128 0 71.888-44.528 148.512-112.384 158.832zM160 608c0 105.872 86.128 192 192 192 33.904 0 66.288-8.752 95.088-25.28-93.44-38.144-164.976-116.576-188.064-214.72H240c-23.072 0-44.976-5.504-64.8-15.216C164.672 564.8 160 582.112 160 608zm736-352H240c-75.36 0-128 52.64-128 128 0 79.392 57.424 144 128 144h45.264l2.448 13.04C312.448 672.56 433.68 768 576 768c167.632 0 304-122.016 304-272v-16h16c56.576 0 96-67.456 96-128 0-58.32-37.68-96-96-96zM0 624h96v-32H0v32zm336 336h32v-96h-32v96zM75.31 907.319l95.996-95.996-22.627-22.627-95.996 95.996 22.627 22.627zm230.814-707.343l27.782-15.875L205.912-39.895 178.13-24.02l127.994 223.996zm31.937-224.013l127.994 223.996 27.782-15.875L365.843-39.912l-27.782 15.875zm159.994-.007l127.994 223.996 27.782-15.875L525.837-39.919l-27.782 15.875zm159.994-.006l127.994 223.996 27.782-15.875L685.831-39.925 658.049-24.05z"/><glyph unicode="" glyph-name="weather_drop" d="M512-64c194.096 0 352 163.184 352 363.76C864 551.296 538.624 938 524.768 954.336l-12.16 14.352-12.208-14.32c-13.952-16.32-341.52-403.056-340.4-654.672C160.864 99.152 318.768-64 512-64zm.528 982.88C572.352 845.216 832 513.12 832 299.76 832 116.832 688.448-32 512-32c-175.664 0-319.216 148.864-320 331.84-.96 213.248 260.384 545.456 320.528 619.04z"/><glyph unicode="" glyph-name="weather_first_quarter" d="M512-64c282.32 0 512 229.68 512 512S794.32 960 512 960 0 730.32 0 448 229.68-64 512-64zM32 448c0 10.768.48 21.408 1.184 32H496v-64H33.184C32.48 426.592 32 437.232 32 448zM496-31.6C441.184-29.792 388.688-18.768 339.984 0H496v-31.6zm0 927.6H339.984c48.704 18.768 101.2 29.776 156.016 31.6V896zm0-32v-64H186.112c26.384 24.448 55.536 45.92 86.88 64H496zm0-96v-64H106.272c14.352 22.672 30.512 44.096 48.352 64H496zm0-96v-64H59.52a476.267 476.267 0 0 0 28.128 64H496zm0-96v-64H36.384a478.398 478.398 0 0 0 13.072 64H496zm0-192v-64H49.472A478.398 478.398 0 0 0 36.4 384H496zm0-96v-64H87.664a476.267 476.267 0 0 0-28.128 64H496zm0-96v-64H154.624c-17.84 19.904-34 41.328-48.352 64H496zm0-96V32H272.992c-31.344 18.08-60.496 39.552-86.88 64H496zm496 352c0-259.312-206.72-471.104-464-479.6v959.2c257.28-8.496 464-220.288 464-479.6z"/><glyph unicode="" glyph-name="weather_fog_fullmoon" d="M86.128 431.648C82.24 416.464 80 400.528 80 384c0-92.704 67.296-160 160-160v32c-75.36 0-128 52.64-128 128 0 79.392 57.424 144 128 144h45.264l2.448 13.04C312.448 672.56 433.68 768 576 768c167.632 0 304-122.016 304-272v-16h16c56.576 0 96-67.456 96-128 0-58.32-37.68-96-96-96v-32c75.36 0 128 52.64 128 128 0 71.888-44.528 148.512-112.384 158.832C903.024 671.6 755.776 800 576 800c-65.552 0-127.008-18.496-178.496-50.512C355.152 801.504 292.064 832 224 832 100.48 832 0 731.52 0 608c0-42.912 12.176-84.608 35.216-120.608 13.6-21.232 31.024-40.144 50.912-55.744zM224 800c57.456 0 110.864-25.296 147.152-68.656-55.312-42.448-95.824-102-112.128-171.344H240c-62.08 0-115.872-39.168-142.4-96.144-13.584 11.952-25.696 25.616-35.424 40.784C42.432 535.472 32 571.216 32 608c0 105.872 86.128 192 192 192zm48-544h592v-32H272v32zm0-96h592v-32H272v32zm0-96h592V32H272v32z"/><glyph unicode="" glyph-name="weather_fog_halfmoon" d="M911.616 510.832C903.024 671.6 755.776 800 576 800c-65.552 0-127.008-18.496-178.496-50.512C355.152 801.504 292.064 832 224 832c-13.488 0-27.488-1.344-41.584-4l-23.264-4.384 12.736-19.952C185.04 783.04 192 759.296 192 735.008c0-70.576-57.424-128-128-128-14.24 0-28.496 2.464-42.384 7.344l-22.272 7.824.992-23.584c1.664-39.664 13.712-78.128 34.896-111.2 13.6-21.232 31.008-40.144 50.912-55.744C82.24 416.464 80 400.528 80 384c0-92.704 67.296-160 160-160v32c-75.36 0-128 52.64-128 128 0 79.392 57.424 144 128 144h45.264l2.448 13.04C312.448 672.56 433.68 768 576 768c167.632 0 304-122.016 304-272v-16h16c56.576 0 96-67.456 96-128 0-58.32-37.68-96-96-96v-32c75.36 0 128 52.64 128 128 0 71.888-44.528 148.512-112.384 158.832zM259.024 560H240c-62.08 0-115.888-39.168-142.4-96.144-13.584 11.952-25.712 25.616-35.44 40.784-14.16 22.128-23.568 47.072-27.68 73.168a156.983 156.983 0 0 1 29.52-2.8c88.224 0 160 71.776 160 160 0 22.304-4.672 44.208-13.648 64.48 4.624.336 9.168.512 13.648.512 57.456 0 110.864-25.296 147.152-68.656-55.312-42.448-95.824-102-112.128-171.344zM272 256h592v-32H272v32zm0-96h592v-32H272v32zm0-96h592V32H272v32z"/><glyph unicode="" glyph-name="weather_fog_sun" d="M911.6 510.832C903.024 671.6 755.776 800 576 800c-31.344 0-61.664-4.4-90.528-12.304C446.672 816.608 400.672 832 352 832c-123.52 0-224-100.48-224-224 0-34.624 7.792-57.84 19.952-80.288C106.928 495.824 80 443.344 80 384c0-92.704 67.296-160 160-160v32c-75.36 0-128 52.64-128 128 0 79.392 57.424 144 128 144h45.28l2.448 13.04C312.448 672.56 433.68 768 576 768c167.632 0 304-122.016 304-272v-16h16c56.576 0 96-67.456 96-128 0-58.32-37.68-96-96-96v-32c75.36 0 128 52.64 128 128 0 71.888-44.528 148.512-112.4 158.832zM259.024 560H240c-23.072 0-44.976-5.504-64.8-15.216C164.672 564.8 160 582.112 160 608c0 105.872 86.128 192 192 192 33.92 0 66.288-8.752 95.088-25.28C353.664 736.576 282.096 658.144 259.024 560zM0 624h96v-32H0v32zm336 336h32v-96h-32v96zM75.31 907.319l95.996-95.996-22.627-22.627-95.996 95.996 22.627 22.627zM272 256h592v-32H272v32zm0-96h592v-32H272v32zm0-96h592V32H272v32z"/><glyph unicode="" glyph-name="weather_fog" d="M895.664 607.072C887.68 788.224 736.096 928 544 928c-169.584 0-314.08-106.88-348.976-256H176C80.608 672 0 584.08 0 480c0-100.336 75.664-176 176-176v32c-82.096 0-144 61.904-144 144 0 86.72 65.952 160 144 160h45.28l2.448 13.04C250.192 793.824 384.88 896 544 896c179.44 0 320-133.536 320-304v-16h16c66 0 112-67.456 112-128 0-63.856-48.144-112-112-112v-32c82.096 0 144 61.904 144 144 0 72.48-50.912 149.776-128.336 159.072zM208 336h640v-32H208v32zm0-128h640v-32H208v32zm0-128h640V48H208v32z"/><glyph unicode="" glyph-name="weather_fullmoon" d="M512 960C229.68 960 0 730.32 0 448S229.68-64 512-64s512 229.68 512 512-229.68 512-512 512zm0-992C247.328-32 32 183.328 32 448s215.328 480 480 480 480-215.328 480-480S776.672-32 512-32z"/><glyph unicode="" glyph-name="weather_gemini" d="M1027.888 816.48l-7.776 31.04C1017.584 846.896 763.12 784 512 784 261.024 784 6.416 846.896 3.888 847.52l-7.776-31.04C-1.968 816 141.6 780.528 320 762.416V133.568C141.6 115.472-1.968 80-3.888 79.52l7.76-31.024C6.416 49.104 260.88 112 512 112c250.976 0 505.584-62.896 508.112-63.52l7.76 31.024C1025.968 80 882.4 115.472 704 133.584v628.832c178.4 18.112 321.968 53.584 323.888 54.064zM672 136.592C620.16 141.12 566.016 144 512 144s-108.16-2.88-160-7.408v622.816C403.84 754.88 457.984 752 512 752s108.16 2.88 160 7.408V136.592z"/><glyph unicode="" glyph-name="weather_hail_fullmoon" d="M911.616 510.832C903.024 671.6 755.776 800 576 800c-65.552 0-127.008-18.496-178.496-50.512C355.152 801.504 292.064 832 224 832 100.48 832 0 731.52 0 608c0-42.912 12.176-84.608 35.216-120.608 13.6-21.232 31.008-40.144 50.912-55.744C82.24 416.464 80 400.528 80 384c0-92.704 67.296-160 160-160h656c75.36 0 128 52.64 128 128 0 71.888-44.528 148.512-112.384 158.832zm-849.44-6.192C42.432 535.472 32 571.216 32 608c0 105.872 86.128 192 192 192 57.456 0 110.864-25.296 147.152-68.656-55.312-42.448-95.824-102-112.128-171.344H240c-62.08 0-115.872-39.168-142.4-96.144-13.584 11.936-25.728 25.6-35.424 40.784zM896 256H240c-75.36 0-128 52.64-128 128 0 79.392 57.424 144 128 144h45.264l2.448 13.04C312.448 672.56 433.68 768 576 768c167.632 0 304-122.016 304-272v-16h16c56.576 0 96-67.456 96-128 0-58.32-37.68-96-96-96zm-590.597-57.489l29.256-13.002-63.995-144-29.256 13.002 63.995 144zm159.997.007l29.256-13.002-63.995-144-29.256 13.002 63.995 144zm159.998.006l29.256-13.002-63.995-144-29.256 13.002 63.995 144zm159.999.006l29.256-13.002-63.995-144-29.256 13.002 63.995 144zM238.304-39.185l-28.621 14.31 15.999 31.998 28.621-14.31-15.999-31.998zm160.004-.001l-28.621 14.31 15.999 31.998 28.621-14.31-15.999-31.998zm160.004-.002l-28.621 14.31L545.69 7.12l28.621-14.31-15.999-31.998zm160.005-.003l-28.621 14.31 15.999 31.998 28.621-14.31-15.999-31.998z"/><glyph unicode="" glyph-name="weather_hail_halfmoon" d="M911.616 510.832C903.024 671.6 755.776 800 576 800c-65.552 0-127.008-18.496-178.496-50.512C355.152 801.504 292.064 832 224 832c-13.488 0-27.488-1.344-41.584-4l-23.264-4.384 12.736-19.952C185.04 783.04 192 759.296 192 735.008c0-70.576-57.424-128-128-128-14.24 0-28.496 2.464-42.384 7.344l-22.272 7.824.992-23.584c1.664-39.664 13.712-78.128 34.896-111.2 13.6-21.232 31.008-40.144 50.912-55.744C82.24 416.464 80 400.528 80 384c0-92.704 67.296-160 160-160h656c75.36 0 128 52.64 128 128 0 71.888-44.528 148.512-112.384 158.832zM62.16 504.64C48 526.768 38.592 551.712 34.48 577.808a156.983 156.983 0 0 1 29.52-2.8c88.224 0 160 71.776 160 160 0 22.304-4.672 44.208-13.648 64.48 4.624.336 9.168.512 13.648.512 57.456 0 110.864-25.296 147.152-68.656-55.312-42.448-95.824-102-112.128-171.344H240c-62.08 0-115.872-39.168-142.4-96.144-13.6 11.936-25.728 25.6-35.44 40.784zM896 256H240c-75.36 0-128 52.64-128 128 0 79.392 57.424 144 128 144h45.264l2.448 13.04C312.448 672.56 433.68 768 576 768c167.632 0 304-122.016 304-272v-16h16c56.576 0 96-67.456 96-128 0-58.32-37.68-96-96-96zm-590.597-57.489l29.256-13.002-63.995-144-29.256 13.002 63.995 144zm159.997.007l29.256-13.002-63.995-144-29.256 13.002 63.995 144zm159.998.006l29.256-13.002-63.995-144-29.256 13.002 63.995 144zm159.999.006l29.256-13.002-63.995-144-29.256 13.002 63.995 144zM238.304-39.185l-28.621 14.31 15.999 31.998 28.621-14.31-15.999-31.998zm160.004-.001l-28.621 14.31 15.999 31.998 28.621-14.31-15.999-31.998zm160.004-.002l-28.621 14.31L545.69 7.12l28.621-14.31-15.999-31.998zm160.005-.003l-28.621 14.31 15.999 31.998 28.621-14.31-15.999-31.998z"/><glyph unicode="" glyph-name="weather_hail_sun" d="M911.616 510.832C903.024 671.6 755.776 800 576 800c-31.344 0-61.664-4.4-90.512-12.304C446.656 816.608 400.672 832 352 832c-123.52 0-224-100.48-224-224 0-34.624 7.792-57.84 19.952-80.288C106.928 495.808 80 443.344 80 384c0-92.704 67.296-160 160-160h656c75.36 0 128 52.64 128 128 0 71.888-44.528 148.512-112.384 158.832zM160 608c0 105.872 86.128 192 192 192 33.904 0 66.288-8.752 95.088-25.28-93.44-38.144-164.976-116.576-188.064-214.72H240c-23.072 0-44.976-5.504-64.8-15.216C164.672 564.8 160 582.112 160 608zm736-352H240c-75.36 0-128 52.64-128 128 0 79.392 57.424 144 128 144h45.264l2.448 13.04C312.448 672.56 433.68 768 576 768c167.632 0 304-122.016 304-272v-16h16c56.576 0 96-67.456 96-128 0-58.32-37.68-96-96-96zM0 624h96v-32H0v32zm336 336h32v-96h-32v96zM75.31 907.319l95.996-95.996-22.627-22.627-95.996 95.996 22.627 22.627zm230.093-708.808l29.256-13.002-63.995-144-29.256 13.002 63.995 144zm159.997.007l29.256-13.002-63.995-144-29.256 13.002 63.995 144zm159.998.006l29.256-13.002-63.995-144-29.256 13.002 63.995 144zm159.999.006l29.256-13.002-63.995-144-29.256 13.002 63.995 144zM238.304-39.185l-28.621 14.31 15.999 31.998 28.621-14.31-15.999-31.998zm160.004-.001l-28.621 14.31 15.999 31.998 28.621-14.31-15.999-31.998zm160.004-.002l-28.621 14.31L545.69 7.12l28.621-14.31-15.999-31.998zm160.005-.003l-28.621 14.31 15.999 31.998 28.621-14.31-15.999-31.998z"/><glyph unicode="" glyph-name="weather_hail" d="M895.664 607.072C887.68 788.224 736.096 928 544 928c-169.584 0-314.08-106.88-348.976-256H176C80.608 672 0 584.08 0 480c0-100.336 75.664-176 176-176h704c82.096 0 144 61.904 144 144 0 72.48-50.912 149.776-128.336 159.072zM880 336H176c-82.096 0-144 61.904-144 144 0 86.72 65.952 160 144 160h45.28l2.448 13.04C250.192 793.824 384.88 896 544 896c179.44 0 320-133.536 320-304v-16h16c66 0 112-67.456 112-128 0-63.856-48.144-112-112-112zM289.456 70.625l79.999 176.006 29.118-13.235L318.574 57.39l-29.118 13.235zm-159.998-.006l79.999 176.006 29.118-13.235-79.999-176.006-29.118 13.235zm319.998.011l79.999 176.006 29.118-13.235-79.999-176.006-29.118 13.235zm160 .005l79.999 176.006 29.118-13.235L638.574 57.4l-29.118 13.235zm239.951 176.002l29.118-13.232-79.98-176.006-29.118 13.232 79.98 176.006zM241.66-8.837l15.999 31.998 28.621-14.31-15.999-31.998-28.621 14.31zm-159.997.003l15.999 31.998 28.621-14.31-15.999-31.998-28.621 14.31zm319.995-.008l15.999 31.998 28.621-14.31-15.999-31.998-28.621 14.31zm159.998-.005l15.999 31.998 28.621-14.31-15.999-31.998-28.621 14.31zm159.997-.005l15.999 31.998 28.621-14.31-15.999-31.998-28.621 14.31z"/><glyph unicode="" glyph-name="weather_last_quarter" d="M512 960C229.68 960 0 730.32 0 448S229.68-64 512-64s512 229.68 512 512-229.68 512-512 512zm480-512c0-10.768-.48-21.408-1.184-32H528v64h462.816c.704-10.592 1.184-21.232 1.184-32zM528 927.6c54.816-1.824 107.312-12.832 156.032-31.6H528v31.6zM528 0h156.032C635.312-18.768 582.816-29.776 528-31.6V0zm0 32v64h309.872c-26.368-24.448-55.52-45.92-86.88-64H528zm0 96v64h389.728c-14.352-22.672-30.512-44.096-48.336-64H528zm0 96v64h436.48a476.347 476.347 0 0 0-28.144-64H528zm0 96v64h459.616a478.398 478.398 0 0 0-13.072-64H528zm0 192v64h446.528a475.898 475.898 0 0 0 13.072-64H528zm0 96v64h408.336a476.347 476.347 0 0 0 28.144-64H528zm0 96v64h341.392c17.824-19.904 33.984-41.328 48.336-64H528zm0 96v64h223.008c31.36-18.08 60.496-39.552 86.88-64H528zM32 448c0 259.312 206.72 471.104 464 479.6V-31.584C238.72-23.104 32 188.688 32 448z"/><glyph unicode="" glyph-name="weather_leo" d="M720-32c-70.576 0-128 57.424-128 128 0 122.32 165.776 415.568 167.344 418.32 82.528 140.8 35.136 322.496-105.664 405.024-68.208 40.016-147.904 50.992-224.4 31.072-76.496-19.968-140.656-68.512-180.64-136.736-71.232-121.536-45.504-273.392 53.36-365.776-87.296-1.088-158-72.352-158-159.904 0-88.224 71.776-160 160-160s160 71.776 160 160c0 64.992-39.024 120.992-94.848 146l1.328 2.256c-125.584 73.632-167.856 235.664-94.24 361.248 35.664 60.848 92.88 104.16 161.104 121.952 68.24 17.824 139.328 7.936 200.16-27.696 125.584-73.632 167.856-235.664 94.128-361.44C724.624 517.968 560 226.72 560 96c0-88.224 71.776-160 160-160 61.184 0 116.112 34.064 143.36 88.88l-28.656 14.256C812.896-4.752 768.944-32 720-32zM432 288c0-70.576-57.424-128-128-128s-128 57.424-128 128 57.424 128 128 128 128-57.424 128-128z"/><glyph unicode="" glyph-name="weather_libra" d="M785.776 558.224C785.776 709.184 662.976 832 512 832S238.224 709.184 238.224 558.224c0-72.224 27.648-139.504 76.912-190.224H0v-32h368v32h-4.896c-58.992 46.192-92.896 115.152-92.896 190.224C270.224 691.536 378.688 800 512 800s241.776-108.464 241.776-241.776c0-75.072-33.904-144.032-92.896-190.224H656v-32h368v32H708.896c49.248 50.704 76.88 117.968 76.88 190.224zM0 96h1024V64H0v32z"/><glyph unicode="" glyph-name="weather_lightning" d="M475.12 352L368.544-43.84l28.416-13.52 416 576L800 544H594.656l61.168 397.568-29.296 11.04-368-576L272 352h203.12zm137.536 519.488l-52.464-341.056L576 512h192.704L422.144 32.144l89.312 331.696L496 384H301.216l311.44 487.488z"/><glyph unicode="" glyph-name="weather_mistyrain_fullmoon" d="M911.616 510.832C903.024 671.6 755.776 800 576 800c-65.552 0-127.008-18.496-178.496-50.512C355.152 801.504 292.064 832 224 832 100.48 832 0 731.52 0 608c0-42.912 12.176-84.608 35.216-120.608 13.6-21.232 31.008-40.144 50.912-55.744C82.24 416.464 80 400.528 80 384c0-92.704 67.296-160 160-160h656c75.36 0 128 52.64 128 128 0 71.888-44.528 148.512-112.384 158.832zm-849.44-6.192C42.432 535.472 32 571.216 32 608c0 105.872 86.128 192 192 192 57.456 0 110.864-25.296 147.152-68.656-55.312-42.448-95.824-102-112.128-171.344H240c-62.08 0-115.872-39.168-142.4-96.144-13.584 11.936-25.728 25.6-35.424 40.784zM896 256H240c-75.36 0-128 52.64-128 128 0 79.392 57.424 144 128 144h45.264l2.448 13.04C312.448 672.56 433.68 768 576 768c167.632 0 304-122.016 304-272v-16h16c56.576 0 96-67.456 96-128 0-58.32-37.68-96-96-96zM225.696 7.185l28.621-14.31-15.999-31.998-28.621 14.31 15.999 31.998zm159.996.001l28.621-14.31-15.999-31.998-28.621 14.31 15.999 31.998zm143.964-32.031l15.999 31.998 28.621-14.31-15.999-31.998-28.621 14.31zm159.997-.005l15.999 31.998 28.621-14.31-15.999-31.998-28.621 14.31zM302.308 152.82l-28.621 14.31 15.999 31.998 28.621-14.31-15.999-31.998zm160.004-.001l-28.621 14.31 15.999 31.998 28.621-14.31-15.999-31.998zm160.005-.004l-28.621 14.31 15.999 31.998 28.621-14.31-15.999-31.998zm131.341 14.33l15.999 31.998 28.621-14.31-15.999-31.998-28.621 14.31zM145.664 71.164l15.999 31.998 28.621-14.31-15.999-31.998-28.621 14.31zm176.028 32.019l28.621-14.31-15.999-31.998-28.621 14.31 15.999 31.998zm159.996.002l28.621-14.31-15.999-31.998-28.621 14.31 15.999 31.998zm159.995.001l28.621-14.31-15.999-31.998-28.621 14.31 15.999 31.998z"/><glyph unicode="" glyph-name="weather_mistyrain_halfmoon" d="M911.616 510.832C903.024 671.6 755.776 800 576 800c-65.552 0-127.008-18.496-178.496-50.512C355.152 801.504 292.064 832 224 832c-13.488 0-27.488-1.344-41.584-4l-23.264-4.384 12.736-19.952C185.04 783.04 192 759.296 192 735.008c0-70.576-57.424-128-128-128-14.24 0-28.496 2.464-42.384 7.344l-22.272 7.824.992-23.584c1.664-39.664 13.712-78.128 34.896-111.2 13.6-21.232 31.008-40.144 50.912-55.744C82.24 416.464 80 400.528 80 384c0-92.704 67.296-160 160-160h656c75.36 0 128 52.64 128 128 0 71.888-44.528 148.512-112.384 158.832zM62.16 504.64C48 526.768 38.592 551.712 34.48 577.808a156.983 156.983 0 0 1 29.52-2.8c88.224 0 160 71.776 160 160 0 22.304-4.672 44.208-13.648 64.48 4.624.336 9.168.512 13.648.512 57.456 0 110.864-25.296 147.152-68.656-55.312-42.448-95.824-102-112.128-171.344H240c-62.08 0-115.872-39.168-142.4-96.144-13.6 11.936-25.728 25.6-35.44 40.784zM896 256H240c-75.36 0-128 52.64-128 128 0 79.392 57.424 144 128 144h45.264l2.448 13.04C312.448 672.56 433.68 768 576 768c167.632 0 304-122.016 304-272v-16h16c56.576 0 96-67.456 96-128 0-58.32-37.68-96-96-96zM225.696 7.185l28.621-14.31-15.999-31.998-28.621 14.31 15.999 31.998zm159.996.001l28.621-14.31-15.999-31.998-28.621 14.31 15.999 31.998zm143.964-32.031l15.999 31.998 28.621-14.31-15.999-31.998-28.621 14.31zm159.997-.005l15.999 31.998 28.621-14.31-15.999-31.998-28.621 14.31zM302.308 152.82l-28.621 14.31 15.999 31.998 28.621-14.31-15.999-31.998zm160.004-.001l-28.621 14.31 15.999 31.998 28.621-14.31-15.999-31.998zm160.005-.004l-28.621 14.31 15.999 31.998 28.621-14.31-15.999-31.998zm131.341 14.33l15.999 31.998 28.621-14.31-15.999-31.998-28.621 14.31zM161.697 103.18l28.621-14.31-15.999-31.998-28.621 14.31 15.999 31.998zm159.995.003l28.621-14.31-15.999-31.998-28.621 14.31 15.999 31.998zm159.996.002l28.621-14.31-15.999-31.998-28.621 14.31 15.999 31.998zm159.995.001l28.621-14.31-15.999-31.998-28.621 14.31 15.999 31.998z"/><glyph unicode="" glyph-name="weather_mistyrain_sun" d="M911.616 510.832C903.024 671.6 755.776 800 576 800c-31.344 0-61.664-4.4-90.512-12.304C446.656 816.608 400.672 832 352 832c-123.52 0-224-100.48-224-224 0-34.624 7.792-57.84 19.952-80.288C106.928 495.808 80 443.344 80 384c0-92.704 67.296-160 160-160h656c75.36 0 128 52.64 128 128 0 71.888-44.528 148.512-112.384 158.832zM160 608c0 105.872 86.128 192 192 192 33.904 0 66.288-8.752 95.088-25.28-93.44-38.144-164.976-116.576-188.064-214.72H240c-23.072 0-44.976-5.504-64.8-15.216C164.672 564.8 160 582.112 160 608zm736-352H240c-75.36 0-128 52.64-128 128 0 79.392 57.424 144 128 144h45.264l2.448 13.04C312.448 672.56 433.68 768 576 768c167.632 0 304-122.016 304-272v-16h16c56.576 0 96-67.456 96-128 0-58.32-37.68-96-96-96zM0 624h96v-32H0v32zm336 336h32v-96h-32v96zM75.31 907.319l95.996-95.996-22.627-22.627-95.996 95.996 22.627 22.627zM209.66-24.837l15.999 31.998 28.621-14.31-15.999-31.998-28.621 14.31zm159.998-.004l15.999 31.998 28.621-14.31-15.999-31.998-28.621 14.31zm159.998-.004l15.999 31.998 28.621-14.31-15.999-31.998-28.621 14.31zm159.997-.005l15.999 31.998 28.621-14.31-15.999-31.998-28.621 14.31zM302.308 152.82l-28.621 14.31 15.999 31.998 28.621-14.31-15.999-31.998zm160.004-.001l-28.621 14.31 15.999 31.998 28.621-14.31-15.999-31.998zm160.005-.004l-28.621 14.31 15.999 31.998 28.621-14.31-15.999-31.998zm131.341 14.33l15.999 31.998 28.621-14.31-15.999-31.998-28.621 14.31zM161.697 103.18l28.621-14.31-15.999-31.998-28.621 14.31 15.999 31.998zm172.611-46.363l-28.621 14.31 15.999 31.998 28.621-14.31-15.999-31.998zm147.38 46.368l28.621-14.31-15.999-31.998-28.621 14.31 15.999 31.998zm159.995.001l28.621-14.31-15.999-31.998-28.621 14.31 15.999 31.998z"/><glyph unicode="" glyph-name="weather_mistyrain" d="M895.664 607.072C887.68 788.224 736.096 928 544 928c-169.584 0-314.08-106.88-348.976-256H176C80.608 672 0 584.08 0 480c0-100.336 75.664-176 176-176h704c82.096 0 144 61.904 144 144 0 72.48-50.912 149.776-128.336 159.072zM880 336H176c-82.096 0-144 61.904-144 144 0 86.72 65.952 160 144 160h45.28l2.448 13.04C250.192 793.824 384.88 896 544 896c179.44 0 320-133.536 320-304v-16h16c66 0 112-67.456 112-128 0-63.856-48.144-112-112-112zM270.304-23.185l-28.621 14.31 15.999 31.998 28.621-14.31-15.999-31.998zm-160.003.004L81.68-8.871l15.999 31.998L126.3 8.817l-15.999-31.998zm320.008-.005l-28.621 14.31 15.999 31.998 28.621-14.31-15.999-31.998zm160.005-.002l-28.621 14.31 15.999 31.998 28.621-14.31-15.999-31.998zm160.005-.003l-28.621 14.31 15.999 31.998 28.621-14.31-15.999-31.998zM353.661 103.158l15.999 31.998 28.621-14.31-15.999-31.998-28.621 14.31zM209.696 135.18l28.621-14.31-15.999-31.998-28.621 14.31 15.999 31.998zm303.964-32.027l15.999 31.998 28.621-14.31-15.999-31.998-28.621 14.31zm159.998-.005l15.999 31.998 28.621-14.31-15.999-31.998-28.621 14.31zm159.997-.003l15.999 31.998 28.621-14.31-15.999-31.998-28.621 14.31zM289.691 263.178l28.621-14.31-15.999-31.998-28.621 14.31 15.999 31.998zm-159.995-.003l28.621-14.31-15.999-31.998-28.621 14.31 15.999 31.998zm319.99.005l28.621-14.31-15.999-31.998-28.621 14.31 15.999 31.998zm159.997.001l28.621-14.31-15.999-31.998-28.621 14.31 15.999 31.998zm159.995.004l28.621-14.31-15.999-31.998-28.621 14.31 15.999 31.998z"/><glyph unicode="" glyph-name="weather_moon" d="M464-64c282.32 0 512 229.68 512 512S746.32 960 464 960c-66.72 0-144.304-12.96-197.632-33.024l-33.344-12.544 31.536-16.592C405.152 823.856 496 684.976 496 544c0-220.56-179.44-400-400-400l-11.04-.032-40.176.944 22.992-27.216C163.824 3.92 311.952-64 464-64zm64 608c0 141.648-83.952 280.976-216.608 363.808C357.536 920.352 413.904 928 464 928c264.672 0 480-215.328 480-480S728.672-32 464-32c-130.8 0-258.432 53.456-348.16 144.448C344.88 122.848 528 312.432 528 544z"/><glyph unicode="" glyph-name="weather_moondown_full" d="M0 192h1024v32H797.664C820.112 268.464 832 317.68 832 368c0 176.448-143.552 320-320 320S192 544.448 192 368c0-50.32 11.888-99.536 34.336-144H0v-32zm224 176c0 158.8 129.2 288 288 288s288-129.2 288-288c0-50.816-13.472-100.352-38.72-144H262.736C237.472 267.648 224 317.2 224 368zm187.312-244.688l-22.624-24.976L500.688-16h22.624l112 114.336-22.624 23.808L512 22.032z"/><glyph unicode="" glyph-name="weather_moondown_half" d="M1024 224H797.664C820.112 268.464 832 317.68 832 368c0 176.448-143.552 320-320 320-.896 0-1.744-.048-3.056-.144l-24.224-.4 9.872-22.112C506.144 639.456 512 612.08 512 584c0-110.288-89.712-200-200-200-33.184 0-66.064 8.304-95.056 24l-21.52 11.664-2.048-24.368c-.72-8.48-1.376-17.648-1.376-27.296 0-50.32 11.888-99.536 34.336-144H0v-32h1024v32zM224 368v1.312A232.756 232.756 0 0 1 312 352c127.92 0 232 104.08 232 232 0 24.352-3.776 48.24-11.28 71.264C681.872 644.608 800 519.824 800 368c0-50.816-13.472-100.352-38.736-144H262.736C237.472 267.632 224 317.184 224 368zm187.312-244.688l-22.624-24.976L500.688-16h22.624l112 114.336-22.624 23.808L512 22.032z"/><glyph unicode="" glyph-name="weather_moonset_full" d="M1024 224H797.664C820.112 268.464 832 317.68 832 368c0 176.448-143.552 320-320 320S192 544.448 192 368c0-50.32 11.888-99.536 34.336-144H0v-32h1024v32zM224 368c0 158.8 129.2 288 288 288s288-129.2 288-288c0-50.816-13.472-100.352-38.72-144H262.736C237.472 267.648 224 317.2 224 368zM388.688 13.664l22.624-23.808L512 89.968 612.688-11.008l22.624 24.8-112 114.208h-22.624z"/><glyph unicode="" glyph-name="weather_moonset_half" d="M832 368c0 176.448-143.552 320-320 320-.896 0-1.76-.048-3.056-.144l-24.224-.4 9.872-22.112C506.144 639.472 512 612.096 512 584c0-110.288-89.712-200-200-200-33.184 0-66.048 8.304-95.072 24.016l-21.488 11.632-2.064-24.336c-.688-8-1.376-17.488-1.376-27.312 0-50.32 11.888-99.536 34.336-144H0v-32h1024v32H797.664C820.112 268.464 832 317.68 832 368zm-608 0v1.312A232.756 232.756 0 0 1 312 352c127.92 0 232 104.08 232 232 0 24.352-3.792 48.24-11.28 71.264C681.888 644.608 800 519.824 800 368c0-50.816-13.472-100.352-38.72-144H262.736C237.472 267.648 224 317.2 224 368zM612.688-11.312l22.624 24.976-112 114.336h-22.624l-112-114.336 22.624-23.808L512 89.968z"/><glyph unicode="" glyph-name="weather_move2" d="M512-64c282.32 0 512 229.68 512 512S794.32 960 512 960 0 730.32 0 448 229.68-64 512-64zM32 448c0 10.768.48 21.408 1.184 32H496v-64H33.184C32.48 426.592 32 437.232 32 448zM496-31.6C441.184-29.792 388.688-18.768 339.984 0H496v-31.6zm0 927.6H339.984c48.704 18.768 101.2 29.776 156.016 31.6V896zm0-32v-64H186.112c26.384 24.448 55.536 45.92 86.88 64H496zm0-96v-64H106.272c14.352 22.672 30.512 44.096 48.352 64H496zm0-96v-64H59.52a476.267 476.267 0 0 0 28.128 64H496zm0-96v-64H36.384a478.398 478.398 0 0 0 13.072 64H496zm0-192v-64H49.472A478.398 478.398 0 0 0 36.4 384H496zm0-96v-64H87.664a476.267 476.267 0 0 0-28.128 64H496zm0-96v-64H154.624c-17.84 19.904-34 41.328-48.352 64H496zm0-96V32H272.992c-31.344 18.08-60.496 39.552-86.88 64H496zm496 352c0-259.312-206.72-471.104-464-479.6v959.2c257.28-8.496 464-220.288 464-479.6z"/><glyph unicode="" glyph-name="weather_newmoon" d="M512 960C229.68 960 0 730.32 0 448S229.68-64 512-64s512 229.68 512 512-229.68 512-512 512zm480-512c0-10.768-.48-21.408-1.184-32H33.184C32.48 426.592 32 437.232 32 448s.48 21.408 1.184 32h957.632c.704-10.592 1.184-21.232 1.184-32zM186.112 96h651.76c-26.384-24.448-55.536-45.92-86.88-64h-478c-31.344 18.08-60.496 39.552-86.88 64zm-31.488 32c-17.84 19.904-34 41.328-48.352 64h811.472c-14.352-22.672-30.512-44.096-48.352-64H154.624zm-66.96 96a476.267 476.267 0 0 0-28.128 64h904.96a476.267 476.267 0 0 0-28.128-64H87.664zm-38.192 96A478.398 478.398 0 0 0 36.4 384h951.216a478.398 478.398 0 0 0-13.072-64H49.472zM36.384 512a478.398 478.398 0 0 0 13.072 64h925.056a478.398 478.398 0 0 0 13.072-64h-951.2zm23.136 96a476.267 476.267 0 0 0 28.128 64h848.688a476.267 476.267 0 0 0 28.128-64H59.52zm46.752 96c14.352 22.672 30.512 44.096 48.352 64h714.768c17.84-19.904 34-41.328 48.352-64H106.272zm79.84 96c26.384 24.448 55.536 45.92 86.88 64h478c31.344-18.08 60.496-39.552 86.88-64h-651.76zm497.904 96H339.984c53.44 20.592 111.408 32 172.016 32s118.576-11.408 172.016-32zM339.984 0h344.048c-53.44-20.592-111.408-32-172.016-32S393.424-20.592 339.984 0z"/><glyph unicode="" glyph-name="weather_pisces" d="M877.568 951.52l-27.136 16.96C843.936 958.096 694.496 715.968 688.304 464H335.696c-6.192 251.968-155.632 494.096-162.128 504.48l-27.136-16.96c1.552-2.464 150.848-244.272 157.264-487.52H112v-32h191.696C297.28 188.992 147.984-53.056 146.432-55.52l27.136-16.976c6.496 10.384 155.936 252.512 162.128 504.48h352.592c6.192-251.968 155.648-494.096 162.128-504.48l27.136 16.976C876.016-53.056 726.72 188.752 720.304 432H912v32H720.304c6.416 243.008 155.712 485.056 157.264 487.52z"/><glyph unicode="" glyph-name="weather_rain_fullmoon" d="M86.128 431.648C82.24 416.464 80 400.528 80 384c0-92.704 67.296-160 160-160h656c75.36 0 128 52.64 128 128 0 71.888-44.528 148.512-112.384 158.832C903.024 671.6 755.776 800 576 800c-65.552 0-127.008-18.496-178.496-50.512C355.152 801.504 292.064 832 224 832 100.48 832 0 731.52 0 608c0-42.912 12.176-84.608 35.216-120.608 13.6-21.232 31.024-40.144 50.912-55.744zM880 496v-16h16c56.576 0 96-67.456 96-128 0-58.32-37.68-96-96-96H240c-75.36 0-128 52.64-128 128 0 79.392 57.424 144 128 144h45.264l2.448 13.04C312.448 672.56 433.68 768 576 768c167.632 0 304-122.016 304-272zM224 800c57.456 0 110.864-25.296 147.152-68.656-55.312-42.448-95.824-102-112.128-171.344H240c-62.08 0-115.872-39.168-142.4-96.144-13.584 11.952-25.696 25.616-35.424 40.784C42.432 535.472 32 571.216 32 608c0 105.872 86.128 192 192 192zm80-608h32V-32h-32v224zm160 0h32V-32h-32v224zm160 0h32V-32h-32v224zm160 0h32V-32h-32v224z"/><glyph unicode="" glyph-name="weather_rain_halfmoon" d="M911.616 510.832C903.024 671.6 755.776 800 576 800c-65.552 0-127.008-18.496-178.496-50.512C355.152 801.504 292.064 832 224 832c-13.488 0-27.488-1.344-41.584-4l-23.264-4.384 12.736-19.952C185.04 783.04 192 759.296 192 735.008c0-70.576-57.424-128-128-128-14.24 0-28.496 2.464-42.384 7.344l-22.272 7.824.992-23.584c1.664-39.664 13.712-78.128 34.896-111.2 13.6-21.232 31.008-40.144 50.912-55.744C82.24 416.464 80 400.528 80 384c0-92.704 67.296-160 160-160h656c75.36 0 128 52.64 128 128 0 71.888-44.528 148.512-112.384 158.832zM62.16 504.64C48 526.768 38.592 551.712 34.48 577.808a156.983 156.983 0 0 1 29.52-2.8c88.224 0 160 71.776 160 160 0 22.304-4.672 44.208-13.648 64.48 4.624.336 9.168.512 13.648.512 57.456 0 110.864-25.296 147.152-68.656-55.312-42.448-95.824-102-112.128-171.344H240c-62.08 0-115.888-39.168-142.4-96.144-13.584 11.936-25.728 25.6-35.44 40.784zM896 256H240c-75.36 0-128 52.64-128 128 0 79.392 57.424 144 128 144h45.264l2.448 13.04C312.448 672.56 433.68 768 576 768c167.632 0 304-122.016 304-272v-16h16c56.576 0 96-67.456 96-128 0-58.32-37.68-96-96-96zm-592-64h32V-32h-32v224zm160 0h32V-32h-32v224zm160 0h32V-32h-32v224zm160 0h32V-32h-32v224z"/><glyph unicode="" glyph-name="weather_rain_sun" d="M911.6 510.832C903.024 671.6 755.776 800 576 800c-31.344 0-61.664-4.4-90.528-12.304C446.672 816.608 400.672 832 352 832c-123.52 0-224-100.48-224-224 0-34.624 7.792-57.84 19.952-80.288C106.928 495.824 80 443.344 80 384c0-92.704 67.296-160 160-160h656c75.36 0 128 52.64 128 128 0 71.888-44.528 148.512-112.4 158.832zM160 608c0 105.872 86.128 192 192 192 33.92 0 66.288-8.752 95.088-25.28-93.44-38.144-164.992-116.576-188.064-214.72H240c-23.072 0-44.976-5.504-64.8-15.216C164.672 564.8 160 582.112 160 608zm736-352H240c-75.36 0-128 52.64-128 128 0 79.392 57.424 144 128 144h45.28l2.448 13.04C312.448 672.56 433.68 768 576 768c167.632 0 304-122.016 304-272v-16h16c56.576 0 96-67.456 96-128 0-58.32-37.68-96-96-96zM0 624h96v-32H0v32zm336 336h32v-96h-32v96zM75.31 907.319l95.996-95.996-22.627-22.627-95.996 95.996 22.627 22.627zM304 192h32V-32h-32v224zm160 0h32V-32h-32v224zm160 0h32V-32h-32v224zm160 0h32V-32h-32v224z"/><glyph unicode="" glyph-name="weather_rain" d="M176 304h704c82.096 0 144 61.904 144 144 0 72.48-50.912 149.776-128.336 159.072C887.68 788.224 736.096 928 544 928c-169.584 0-314.08-106.88-348.976-256H176C80.608 672 0 584.08 0 480c0-100.336 75.664-176 176-176zm0 336h45.28l2.448 13.04C250.192 793.824 384.88 896 544 896c179.44 0 320-133.536 320-304v-16h16c66 0 112-67.456 112-128 0-63.856-48.144-112-112-112H176c-82.096 0-144 61.904-144 144 0 86.72 65.952 160 144 160zm160-416h32V0h-32v224zm-160 0h32V0h-32v224zm320 0h32V0h-32v224zm160 0h32V0h-32v224zm160 0h32V0h-32v224z"/><glyph unicode="" glyph-name="weather_sagittarius" d="M576 928h393.376L296 254.624 27.312 523.312 4.688 500.688 273.376 232-11.312-52.688l22.624-22.624L296 209.376 564.688-59.312l22.624 22.624L318.624 232 992 905.376V512h32v448H576z"/><glyph unicode="" glyph-name="weather_scorpio" d="M820.688 100.688L873.376 48H832c-77.184 0-79.936 71.856-80 80v640c0 66.4-30.096 192-144 192-70.944 0-109.344-48.72-128.256-101.504C460.656 911.28 422.256 960 352 960c-72.144 0-110.608-51.376-129.152-105.792C203.504 901.312 165.328 944 96 944v-32c110.336 0 111.984-138.144 112-144.016V128h32v639.856C240.064 774.4 242.784 928 352 928s111.936-153.6 112-160.144V128h32v639.984C496.016 774.512 497.6 928 608 928s111.984-153.488 112-160V128c0-38.736 23.408-112 112-112h41.376l-52.688-52.688 24.976-22.624 82.336 80v22.624l-82.336 80-24.976-22.624z"/><glyph unicode="" glyph-name="weather_snow_fullmoon" d="M86.128 431.648C82.24 416.464 80 400.528 80 384c0-92.704 67.296-160 160-160h656c75.36 0 128 52.64 128 128 0 71.888-44.528 148.512-112.384 158.832C903.024 671.6 755.776 800 576 800c-65.552 0-127.008-18.496-178.496-50.512C355.152 801.504 292.064 832 224 832 100.48 832 0 731.52 0 608c0-42.912 12.176-84.608 35.216-120.608 13.6-21.232 31.024-40.144 50.912-55.744zM880 496v-16h16c56.576 0 96-67.456 96-128 0-58.32-37.68-96-96-96H240c-75.36 0-128 52.64-128 128 0 79.392 57.424 144 128 144h45.264l2.448 13.04C312.448 672.56 433.68 768 576 768c167.632 0 304-122.016 304-272zM224 800c57.456 0 110.864-25.296 147.152-68.656-55.312-42.448-95.824-102-112.128-171.344H240c-62.08 0-115.872-39.168-142.4-96.144-13.584 11.952-25.696 25.616-35.424 40.784C42.432 535.472 32 571.216 32 608c0 105.872 86.128 192 192 192zm144-608h32v-64h-32v64zm0-128h32V0h-32v64zm68.687 107.319l22.627-22.627-31.995-31.995-22.627 22.627 31.995 31.995zm-96-96l22.627-22.627-31.995-31.995-22.627 22.627 31.995 31.995zm118.634-32.006l-22.627-22.627-31.995 31.995 22.627 22.627 31.995-31.995zm-150.64 105.374l22.627 22.627 31.995-31.995-22.627-22.627-31.995 31.995zM416 112h64V80h-64v32zm-128 0h64V80h-64v32zm400 48h32V96h-32v64zm0-128h32v-64h-32v64zm68.684 107.322l22.627-22.627L747.316 84.7l-22.627 22.627 31.995 31.995zm-95.999-96l22.627-22.627L651.317-11.3 628.69 11.327l31.995 31.995zm118.637-32.007l-22.627-22.627L724.7 20.683l22.627 22.627 31.995-31.995zm-150.643 105.37l22.627 22.627 31.995-31.995-22.627-22.627-31.995 31.995zM736 80h64V48h-64v32zm-128 0h64V48h-64v32z"/><glyph unicode="" glyph-name="weather_snow_halfmoon" d="M911.616 510.832C903.024 671.6 755.776 800 576 800c-65.552 0-127.008-18.496-178.496-50.512C355.152 801.504 292.064 832 224 832c-13.488 0-27.488-1.344-41.584-4l-23.264-4.384 12.736-19.952C185.04 783.04 192 759.296 192 735.008c0-70.576-57.424-128-128-128-14.24 0-28.496 2.464-42.384 7.344l-22.272 7.824.992-23.584c1.664-39.664 13.712-78.128 34.896-111.2 13.6-21.232 31.008-40.144 50.912-55.744C82.24 416.464 80 400.528 80 384c0-92.704 67.296-160 160-160h656c75.36 0 128 52.64 128 128 0 71.888-44.528 148.512-112.384 158.832zM62.16 504.64C48 526.768 38.592 551.712 34.48 577.808a156.983 156.983 0 0 1 29.52-2.8c88.224 0 160 71.776 160 160 0 22.304-4.672 44.208-13.648 64.48 4.624.336 9.168.512 13.648.512 57.456 0 110.864-25.296 147.152-68.656-55.312-42.448-95.824-102-112.128-171.344H240c-62.08 0-115.888-39.168-142.4-96.144-13.584 11.936-25.728 25.6-35.44 40.784zM896 256H240c-75.36 0-128 52.64-128 128 0 79.392 57.424 144 128 144h45.264l2.448 13.04C312.448 672.56 433.68 768 576 768c167.632 0 304-122.016 304-272v-16h16c56.576 0 96-67.456 96-128 0-58.32-37.68-96-96-96zm-528-64h32v-64h-32v64zm0-128h32V0h-32v64zm59.313 52.681l-22.627 22.627 31.995 31.995 22.627-22.627-31.995-31.995zm-96-96l-22.627 22.627 31.995 31.995 22.627-22.627-31.995-31.995zm128.008 22.632l-22.627-22.627-31.995 31.995 22.627 22.627 31.995-31.995zm-150.64 105.374l22.627 22.627 31.995-31.995-22.627-22.627-31.995 31.995zM416 112h64V80h-64v32zm-128 0h64V80h-64v32zm400 48h32V96h-32v64zm0-128h32v-64h-32v64zm59.316 52.678l-22.627 22.627 31.995 31.995 22.627-22.627-31.995-31.995zm-96.001-96l-22.627 22.627L660.683 43.3l22.627-22.627-31.995-31.995zm128.007 22.637l-22.627-22.627L724.7 20.683l22.627 22.627 31.995-31.995zm-150.643 105.37l22.627 22.627 31.995-31.995-22.627-22.627-31.995 31.995zM736 80h64V48h-64v32zm-128 0h64V48h-64v32z"/><glyph unicode="" glyph-name="weather_snow_sun" d="M911.6 510.832C903.024 671.6 755.776 800 576 800c-31.344 0-61.664-4.4-90.528-12.304C446.656 816.608 400.672 832 352 832c-123.52 0-224-100.48-224-224 0-34.624 7.792-57.84 19.952-80.288C106.928 495.824 80 443.344 80 384c0-92.704 67.296-160 160-160h656c75.36 0 128 52.64 128 128 0 71.888-44.528 148.512-112.4 158.832zM160 608c0 105.872 86.128 192 192 192 33.904 0 66.288-8.752 95.088-25.28-93.44-38.144-164.992-116.576-188.064-214.72H240c-23.072 0-44.976-5.504-64.8-15.216C164.672 564.8 160 582.112 160 608zm736-352H240c-75.36 0-128 52.64-128 128 0 79.392 57.424 144 128 144h45.28l2.448 13.04C312.448 672.56 433.68 768 576 768c167.632 0 304-122.016 304-272v-16h16c56.576 0 96-67.456 96-128 0-58.32-37.68-96-96-96zM0 624h96v-32H0v32zm336 336h32v-96h-32v96zM75.31 907.319l95.996-95.996-22.627-22.627-95.996 95.996 22.627 22.627zM368 192h32v-64h-32v64zm0-128h32V0h-32v64zm59.313 52.681l-22.627 22.627 31.995 31.995 22.627-22.627-31.995-31.995zm-96-96l-22.627 22.627 31.995 31.995 22.627-22.627-31.995-31.995zm128.008 22.632l-22.627-22.627-31.995 31.995 22.627 22.627 31.995-31.995zm-150.64 105.374l22.627 22.627 31.995-31.995-22.627-22.627-31.995 31.995zM416 112h64V80h-64v32zm-128 0h64V80h-64v32zm400 48h32V96h-32v64zm0-128h32v-64h-32v64zm59.316 52.678l-22.627 22.627 31.995 31.995 22.627-22.627-31.995-31.995zm-96.001-96l-22.627 22.627L660.683 43.3l22.627-22.627-31.995-31.995zm128.007 22.637l-22.627-22.627L724.7 20.683l22.627 22.627 31.995-31.995zm-150.643 105.37l22.627 22.627 31.995-31.995-22.627-22.627-31.995 31.995zM736 80h64V48h-64v32zm-128 0h64V48h-64v32z"/><glyph unicode="" glyph-name="weather_snow" d="M176 304h704c82.096 0 144 61.904 144 144 0 72.48-50.912 149.776-128.336 159.072C887.68 788.224 736.096 928 544 928c-169.584 0-314.08-106.88-348.976-256H176C80.608 672 0 584.08 0 480c0-100.336 75.664-176 176-176zm0 336h45.28l2.448 13.04C250.192 793.824 384.88 896 544 896c179.44 0 320-133.536 320-304v-16h16c66 0 112-67.456 112-128 0-63.856-48.144-112-112-112H176c-82.096 0-144 61.904-144 144 0 86.72 65.952 160 144 160zm160-368h32v-80h-32v80zm0-144h32V48h-32v80zm84.684 123.318l22.627-22.627-48.004-48.004-22.627 22.627 48.004 48.004zm-111.998-112l22.627-22.627-48.004-48.004-22.627 22.627 48.004 48.004zm134.632-48.004l-22.627-22.627-48.004 48.004 22.627 22.627 48.004-48.004zM260.684 228.686l22.627 22.627 48.004-48.004-22.627-22.627-48.004 48.004zM384 176h80v-32h-80v32zm-144 0h80v-32h-80v32zm416 16h32v-80h-32v80zm0-144h32v-80h-32v80zm84.683 123.321l22.627-22.627-48.004-48.004-22.627 22.627 48.004 48.004zm-111.999-112l22.627-22.627-48.004-48.004-22.627 22.627 48.004 48.004zm134.637-48.005l-22.627-22.627-48.004 48.004 22.627 22.627 48.004-48.004zm-182.64 137.368l22.627 22.627 48.004-48.004-22.627-22.627-48.004 48.004zM704 96h80V64h-80v32zm-144 0h80V64h-80v32z"/><glyph unicode="" glyph-name="weather_snowflake" d="M27.312 308.688L150.624 432h218.32c3.072-27.712 14.08-53.056 30.656-73.776L233.376 192H80v-32h144V16h32v153.376L422.224 335.6c20.704-16.576 46.048-27.584 73.776-30.656V86.624L372.688-36.688l22.624-22.624L512 57.376 628.688-59.312l22.624 22.624L528 86.624v218.32c27.712 3.072 53.056 14.08 73.776 30.656L768 169.376V16h32v144h144v32H790.624L624.4 358.224c16.576 20.704 27.584 46.048 30.656 73.776h218.32l123.312-123.312 22.624 22.624L902.624 448l116.688 116.688-22.624 22.624L873.376 464h-218.32c-3.072 27.712-14.08 53.056-30.656 73.776L790.624 704H944v32H800v144h-32V726.624L601.776 560.4c-20.704 16.576-46.048 27.584-73.776 30.656v218.32l123.312 123.312-22.624 22.624L512 838.624 395.312 955.312l-22.624-22.624L496 809.376v-218.32c-27.712-3.072-53.056-14.08-73.776-30.656L256 726.624V880h-32V736H80v-32h153.376L399.6 537.776c-16.576-20.704-27.584-46.048-30.656-73.776h-218.32L27.312 587.312 4.688 564.688 121.376 448 4.688 331.312l22.624-22.624zM512 560c61.76 0 112-50.24 112-112s-50.24-112-112-112-112 50.24-112 112 50.24 112 112 112z"/><glyph unicode="" glyph-name="weather_star" d="M512 992.704L372.624 592H-14.64l315.872-245.68L160.608-75.536 512 188 863.376-75.536 722.752 346.32 1038.64 592H651.376L512 992.704zM685.248 357.68L800.624 11.536 512 228 223.376 11.536 338.752 357.68 78.64 560h316.736L512 895.296 628.624 560H945.36L685.248 357.68z"/><glyph unicode="" glyph-name="weather_storm_fullmoon" d="M86.128 431.648C82.24 416.464 80 400.528 80 384c0-92.704 67.296-160 160-160h656c75.36 0 128 52.64 128 128 0 71.888-44.528 148.512-112.384 158.832C903.024 671.6 755.776 800 576 800c-65.552 0-127.008-18.496-178.496-50.512C355.152 801.504 292.064 832 224 832 100.48 832 0 731.52 0 608c0-42.912 12.176-84.608 35.216-120.608 13.6-21.232 31.024-40.144 50.912-55.744zM880 496v-16h16c56.576 0 96-67.456 96-128 0-58.32-37.68-96-96-96H240c-75.36 0-128 52.64-128 128 0 79.392 57.424 144 128 144h45.264l2.448 13.04C312.448 672.56 433.68 768 576 768c167.632 0 304-122.016 304-272zM224 800c57.456 0 110.864-25.296 147.152-68.656-55.312-42.448-95.824-102-112.128-171.344H240c-62.08 0-115.872-39.168-142.4-96.144-13.584 11.952-25.696 25.616-35.424 40.784C42.432 535.472 32 571.216 32 608c0 105.872 86.128 192 192 192zM493.888-39.936L571.584 96h-83.312l38.432 89.696-29.408 12.608L439.728 64h76.688l-50.304-88.064zm160 0L731.584 96h-83.312l38.432 89.696-29.408 12.608L599.728 64h76.688l-50.304-88.064zm-320 0L411.584 96h-83.312l38.432 89.696-29.408 12.608L279.728 64h76.688l-50.304-88.064z"/><glyph unicode="" glyph-name="weather_storm_halfmoon" d="M911.616 510.832C903.024 671.6 755.776 800 576 800c-65.552 0-127.008-18.496-178.496-50.512C355.152 801.504 292.064 832 224 832c-13.488 0-27.488-1.344-41.584-4l-23.264-4.384 12.736-19.952C185.04 783.04 192 759.296 192 735.008c0-70.576-57.424-128-128-128-14.24 0-28.496 2.464-42.384 7.344l-22.272 7.824.992-23.584c1.664-39.664 13.712-78.128 34.896-111.2 13.6-21.232 31.008-40.144 50.912-55.744C82.24 416.464 80 400.528 80 384c0-92.704 67.296-160 160-160h656c75.36 0 128 52.64 128 128 0 71.888-44.528 148.512-112.384 158.832zM62.16 504.64C48 526.768 38.592 551.712 34.48 577.808a156.983 156.983 0 0 1 29.52-2.8c88.224 0 160 71.776 160 160 0 22.304-4.672 44.208-13.648 64.48 4.624.336 9.168.512 13.648.512 57.456 0 110.864-25.296 147.152-68.656-55.312-42.448-95.824-102-112.128-171.344H240c-62.08 0-115.888-39.168-142.4-96.144-13.584 11.936-25.728 25.6-35.44 40.784zM896 256H240c-75.36 0-128 52.64-128 128 0 79.392 57.424 144 128 144h45.264l2.448 13.04C312.448 672.56 433.68 768 576 768c167.632 0 304-122.016 304-272v-16h16c56.576 0 96-67.456 96-128 0-58.32-37.68-96-96-96zm-398.704-57.696L439.728 64h76.688l-50.304-88.064 27.776-15.872L571.584 96h-83.312l38.432 89.696zm160 0L599.728 64h76.688l-50.304-88.064 27.776-15.872L731.584 96h-83.312l38.432 89.696zm-320 0L279.728 64h76.688l-50.304-88.064 27.776-15.872L411.584 96h-83.312l38.432 89.696z"/><glyph unicode="" glyph-name="weather_storm_sun" d="M911.6 510.832C903.024 671.6 755.776 800 576 800c-31.344 0-61.664-4.4-90.528-12.304C446.656 816.608 400.672 832 352 832c-123.52 0-224-100.48-224-224 0-34.624 7.792-57.84 19.952-80.288C106.928 495.824 80 443.344 80 384c0-92.704 67.296-160 160-160h656c75.36 0 128 52.64 128 128 0 71.888-44.528 148.512-112.4 158.832zM160 608c0 105.872 86.128 192 192 192 33.904 0 66.288-8.752 95.088-25.28-93.44-38.144-164.992-116.576-188.064-214.72H240c-23.072 0-44.976-5.504-64.8-15.216C164.672 564.8 160 582.112 160 608zm736-352H240c-75.36 0-128 52.64-128 128 0 79.392 57.424 144 128 144h45.28l2.448 13.04C312.448 672.56 433.68 768 576 768c167.632 0 304-122.016 304-272v-16h16c56.576 0 96-67.456 96-128 0-58.32-37.68-96-96-96zM0 624h96v-32H0v32zm336 336h32v-96h-32v96zM75.31 907.319l95.996-95.996-22.627-22.627-95.996 95.996 22.627 22.627zm421.986-709.015L439.728 64h76.704l-50.32-88.064 27.776-15.872L571.568 96h-83.296l38.432 89.696zm160 0L599.728 64h76.704l-50.32-88.064 27.776-15.872L731.568 96h-83.296l38.432 89.696zm-320 0L279.728 64h76.704l-50.32-88.064 27.776-15.872L411.568 96h-83.296l38.432 89.696z"/><glyph unicode="" glyph-name="weather_storm-11" d="M895.664 607.072C887.68 788.224 736.096 928 544 928c-169.584 0-314.08-106.88-348.976-256H176C80.608 672 0 584.08 0 480c0-100.336 75.664-176 176-176h704c82.096 0 144 61.904 144 144 0 72.48-50.912 149.776-128.336 159.072zM880 336H176c-82.096 0-144 61.904-144 144 0 86.72 65.952 160 144 160h45.28l2.448 13.04C250.192 793.824 384.88 896 544 896c179.44 0 320-133.536 320-304v-16h16c66 0 112-67.456 112-128 0-63.856-48.144-112-112-112zM226.068 7.966l127.994 223.996 27.782-15.875L253.85-7.909 226.068 7.966zm-159.994.008L194.068 231.97l27.782-15.875L93.856-7.901 66.074 7.974zm319.987-.014l127.994 223.996 27.782-15.875L413.843-7.915 386.061 7.96zm159.994-.007l127.994 223.996 27.782-15.875L573.837-7.922 546.055 7.953zm159.994-.006l127.994 223.996 27.782-15.875L733.831-7.928 706.049 7.947z"/><glyph unicode="" glyph-name="weather_storm-32" d="M895.664 607.072C887.68 788.224 736.096 928 544 928c-169.584 0-314.08-106.88-348.976-256H176C80.608 672 0 584.08 0 480c0-100.336 75.664-176 176-176h704c82.096 0 144 61.904 144 144 0 72.48-50.912 149.776-128.336 159.072zM880 336H176c-82.096 0-144 61.904-144 144 0 86.72 65.952 160 144 160h45.28l2.448 13.04C250.192 793.824 384.88 896 544 896c179.44 0 320-133.536 320-304v-16h16c66 0 112-67.456 112-128 0-63.856-48.144-112-112-112zM497.296 230.304L439.728 96h60.704l-50.32-88.064 27.776-15.872L555.568 128h-67.296l38.432 89.696zm160 0L599.728 96h60.704l-50.32-88.064 27.776-15.872L715.568 128h-67.296l38.432 89.696zm-320 0L279.728 96h60.704l-50.32-88.064 27.776-15.872L395.568 128h-67.296l38.432 89.696z"/><glyph unicode="" glyph-name="weather_sun" d="M512 176c149.984 0 272 122.016 272 272S661.984 720 512 720 240 597.984 240 448s122.016-272 272-272zm0 512c132.336 0 240-107.664 240-240S644.336 208 512 208 272 315.664 272 448s107.664 240 240 240zm-16 272h32V800h-32v160zm0-864h32V-64h-32V96zm368 368h160v-32H864v32zM0 464h160v-32H0v32zm836.686 331.325l22.627-22.627-79.998-79.998-22.627 22.627 79.998 79.998zm-591.99-592l22.627-22.627-79.998-79.998-22.627 22.627 79.998 79.998zM836.691 100.67l-79.998 79.998 22.627 22.627 79.998-79.998-22.627-22.627zM187.309 795.322l79.998-79.998-22.627-22.627-79.998 79.998 22.627 22.627z"/><glyph unicode="" glyph-name="weather_sundown" d="M0 384h160v-32H0v32zm864 0h160v-32H864v32zM496 896h32V720h-32v176zM107.314 731.318l128.002-128.002-22.627-22.627L84.687 708.691l22.627 22.627zm681.363-128.009l128.002 128.002 22.627-22.627-128.002-128.002-22.627 22.627zM635.312 98.336l-22.624 23.808L512 22.032 411.312 123.008l-22.624-24.8L500.688-16h22.624zM832 368c0 176.448-143.552 320-320 320S192 544.448 192 368c0-50.32 11.888-99.536 34.336-144H0v-32h1024v32H797.664C820.112 268.464 832 317.68 832 368zm-608 0c0 158.8 129.2 288 288 288s288-129.2 288-288c0-50.816-13.472-100.352-38.72-144H262.736C237.472 267.648 224 317.2 224 368z"/><glyph unicode="" glyph-name="weather_sunset" d="M0 384h160v-32H0v32zm864 0h160v-32H864v32zM496 896h32V720h-32v176zM107.314 731.318l128.002-128.002-22.627-22.627L84.687 708.691l22.627 22.627zm681.363-128.009l128.002 128.002 22.627-22.627-128.002-128.002-22.627 22.627zM612.688-11.312l22.624 24.976-112 114.336h-22.624l-112-114.336 22.624-23.808L512 89.968zM832 368c0 176.448-143.552 320-320 320S192 544.448 192 368c0-50.32 11.888-99.536 34.336-144H0v-32h1024v32H797.664C820.112 268.464 832 317.68 832 368zm-608 0c0 158.8 129.2 288 288 288s288-129.2 288-288c0-50.816-13.472-100.352-38.72-144H262.736C237.472 267.648 224 317.2 224 368z"/><glyph unicode="" glyph-name="weather_taurus" d="M768 720c0-1.44-2.928-144-256-144-251.28 0-255.92 138.224-256.048 145.328C249.984 792.816 188.832 928 0 928v-32c206.048 0 223.424-170.128 224-176 0-1.872.432-46.384 37.808-90.352 31.392-36.96 78.224-61.824 139.312-74.88C288.24 510.336 208 400.464 208 272c0-167.632 136.368-304 304-304s304 136.368 304 304c0 128.464-80.24 238.336-193.12 282.768 61.088 13.04 107.904 37.92 139.312 74.88 37.376 43.968 37.808 88.48 37.76 89.024.032.432 4 44.384 33.36 88.448C872.624 866.096 936.784 896 1024 896v32c-188.832 0-249.984-135.184-256-208zm16-448C784 122.016 661.984 0 512 0S240 122.016 240 272s122.016 272 272 272 272-122.016 272-272z"/><glyph unicode="" glyph-name="weather_tempest_fullmoon" d="M911.616 510.832C903.024 671.6 755.776 800 576 800c-65.552 0-127.008-18.496-178.496-50.512C355.152 801.504 292.064 832 224 832 100.48 832 0 731.52 0 608c0-42.912 12.176-84.608 35.216-120.608 13.6-21.232 31.008-40.144 50.912-55.744C82.24 416.464 80 400.528 80 384c0-92.704 67.296-160 160-160h656c75.36 0 128 52.64 128 128 0 71.888-44.528 148.512-112.384 158.832zm-849.44-6.192C42.432 535.472 32 571.216 32 608c0 105.872 86.128 192 192 192 57.456 0 110.864-25.296 147.152-68.656-55.312-42.448-95.824-102-112.128-171.344H240c-62.08 0-115.872-39.168-142.4-96.144-13.584 11.936-25.728 25.6-35.424 40.784zM896 256H240c-75.36 0-128 52.64-128 128 0 79.392 57.424 144 128 144h45.264l2.448 13.04C312.448 672.56 433.68 768 576 768c167.632 0 304-122.016 304-272v-16h16c56.576 0 96-67.456 96-128 0-58.32-37.68-96-96-96zm-398.704-57.696L439.728 64h60.688l-50.304-88.064 27.776-15.872L555.584 96h-67.312l38.432 89.696zM226.066-24.032L354.06 199.964l27.782-15.875L253.848-39.907l-27.782 15.875zm383.986-.016l127.994 223.996 27.782-15.875L637.834-39.923l-27.782 15.875z"/><glyph unicode="" glyph-name="weather_tempest_halfmoon" d="M911.616 510.832C903.024 671.6 755.776 800 576 800c-65.552 0-127.008-18.496-178.496-50.512C355.152 801.504 292.064 832 224 832c-13.488 0-27.488-1.344-41.584-4l-23.264-4.384 12.736-19.952C185.04 783.04 192 759.296 192 735.008c0-70.576-57.424-128-128-128-14.24 0-28.496 2.464-42.384 7.344l-22.272 7.824.992-23.584c1.664-39.664 13.712-78.128 34.896-111.2 13.6-21.232 31.008-40.144 50.912-55.744C82.24 416.464 80 400.528 80 384c0-92.704 67.296-160 160-160h656c75.36 0 128 52.64 128 128 0 71.888-44.528 148.512-112.384 158.832zM62.16 504.64C48 526.768 38.592 551.712 34.48 577.808a156.983 156.983 0 0 1 29.52-2.8c88.224 0 160 71.776 160 160 0 22.304-4.672 44.208-13.648 64.48 4.624.336 9.168.512 13.648.512 57.456 0 110.864-25.296 147.152-68.656-55.312-42.448-95.824-102-112.128-171.344H240c-62.08 0-115.872-39.168-142.4-96.144-13.6 11.936-25.728 25.6-35.44 40.784zM896 256H240c-75.36 0-128 52.64-128 128 0 79.392 57.424 144 128 144h45.264l2.448 13.04C312.448 672.56 433.68 768 576 768c167.632 0 304-122.016 304-272v-16h16c56.576 0 96-67.456 96-128 0-58.32-37.68-96-96-96zm-398.704-57.696L439.728 64h60.688l-50.304-88.064 27.776-15.872L555.584 96h-67.312l38.432 89.696zM226.066-24.032L354.06 199.964l27.782-15.875L253.848-39.907l-27.782 15.875zm383.986-.016l127.994 223.996 27.782-15.875L637.834-39.923l-27.782 15.875z"/><glyph unicode="" glyph-name="weather_tempest_sun" d="M911.616 510.832C903.024 671.6 755.776 800 576 800c-31.344 0-61.664-4.4-90.512-12.304C446.656 816.608 400.672 832 352 832c-123.52 0-224-100.48-224-224 0-34.624 7.792-57.84 19.952-80.288C106.928 495.808 80 443.344 80 384c0-92.704 67.296-160 160-160h656c75.36 0 128 52.64 128 128 0 71.888-44.528 148.512-112.384 158.832zM160 608c0 105.872 86.128 192 192 192 33.904 0 66.288-8.752 95.088-25.28-93.44-38.144-164.976-116.576-188.064-214.72H240c-23.072 0-44.976-5.504-64.8-15.216C164.672 564.8 160 582.112 160 608zm736-352H240c-75.36 0-128 52.64-128 128 0 79.392 57.424 144 128 144h45.264l2.448 13.04C312.448 672.56 433.68 768 576 768c167.632 0 304-122.016 304-272v-16h16c56.576 0 96-67.456 96-128 0-58.32-37.68-96-96-96zM0 624h96v-32H0v32zm336 336h32v-96h-32v96zM148.69 788.681l-95.996 95.996 22.627 22.627 95.996-95.996-22.627-22.627zm348.606-590.377L439.728 64h60.688l-50.304-88.064 27.776-15.872L555.584 96h-67.312l38.432 89.696zM226.066-24.032L354.06 199.964l27.782-15.875L253.848-39.907l-27.782 15.875zm383.986-.016l127.994 223.996 27.782-15.875L637.834-39.923l-27.782 15.875z"/><glyph unicode="" glyph-name="weather_tempest" d="M895.664 607.072C887.68 788.224 736.096 928 544 928c-169.584 0-314.08-106.88-348.976-256H176C80.608 672 0 584.08 0 480c0-100.336 75.664-176 176-176h704c82.096 0 144 61.904 144 144 0 72.48-50.912 149.776-128.336 159.072zM880 336H176c-82.096 0-144 61.904-144 144 0 86.72 65.952 160 144 160h45.28l2.448 13.04C250.192 793.824 384.88 896 544 896c179.44 0 320-133.536 320-304v-16h16c66 0 112-67.456 112-128 0-63.856-48.144-112-112-112zM497.296 230.304L439.728 96h60.704l-50.32-88.064 27.776-15.872L555.568 128h-67.296l38.432 89.696zM610.052 7.95l127.994 223.996 27.782-15.875L637.834-7.925 610.052 7.95zm-399.984.018l127.994 223.996 27.782-15.875L237.85-7.907 210.068 7.968z"/><glyph unicode="" glyph-name="weather_variable_fullmoon" d="M86.128 351.648C82.24 336.464 80 320.528 80 304c0-92.704 67.296-160 160-160h656c75.36 0 128 52.64 128 128 0 71.888-44.528 148.512-112.384 158.832C903.024 591.6 755.776 720 576 720c-65.552 0-127.008-18.496-178.496-50.512C355.152 721.504 292.064 752 224 752 100.48 752 0 651.52 0 528c0-42.912 12.176-84.608 35.216-120.608 13.6-21.232 31.024-40.144 50.912-55.744zM880 416v-16h16c56.576 0 96-67.456 96-128 0-58.32-37.68-96-96-96H240c-75.36 0-128 52.64-128 128 0 79.392 57.424 144 128 144h45.264l2.448 13.04C312.448 592.56 433.68 688 576 688c167.632 0 304-122.016 304-272zM224 720c57.456 0 110.864-25.296 147.152-68.656-55.312-42.448-95.824-102-112.128-171.344H240c-62.08 0-115.872-39.168-142.4-96.144-13.584 11.952-25.696 25.616-35.424 40.784C42.432 455.472 32 491.216 32 528c0 105.872 86.128 192 192 192z"/><glyph unicode="" glyph-name="weather_variable_halfmoon" d="M911.616 430.832C903.024 591.6 755.776 720 576 720c-65.552 0-127.008-18.496-178.496-50.512C355.152 721.504 292.064 752 224 752c-13.488 0-27.488-1.344-41.584-4l-23.264-4.384 12.736-19.952C185.04 703.04 192 679.296 192 655.008c0-70.576-57.424-128-128-128-14.24 0-28.496 2.464-42.384 7.344l-22.272 7.824.992-23.584c1.664-39.664 13.712-78.128 34.896-111.2 13.6-21.232 31.008-40.144 50.912-55.744C82.24 336.464 80 320.528 80 304c0-92.704 67.296-160 160-160h656c75.36 0 128 52.64 128 128 0 71.888-44.528 148.512-112.384 158.832zM62.16 424.64C48 446.768 38.592 471.712 34.48 497.808a156.983 156.983 0 0 1 29.52-2.8c88.224 0 160 71.776 160 160 0 22.304-4.672 44.208-13.648 64.48 4.624.336 9.168.512 13.648.512 57.456 0 110.864-25.296 147.152-68.656-55.312-42.448-95.824-102-112.128-171.344H240c-62.08 0-115.888-39.168-142.4-96.144-13.584 11.936-25.728 25.6-35.44 40.784zM896 176H240c-75.36 0-128 52.64-128 128 0 79.392 57.424 144 128 144h45.264l2.448 13.04C312.448 592.56 433.68 688 576 688c167.632 0 304-122.016 304-272v-16h16c56.576 0 96-67.456 96-128 0-58.32-37.68-96-96-96z"/><glyph unicode="" glyph-name="weather_variable_sun" d="M911.6 430.832C903.024 591.6 755.776 720 576 720c-31.344 0-61.664-4.4-90.528-12.304C446.672 736.608 400.672 752 352 752c-123.52 0-224-100.48-224-224 0-34.624 7.792-57.84 19.952-80.288C106.928 415.824 80 363.344 80 304c0-92.704 67.296-160 160-160h656c75.36 0 128 52.64 128 128 0 71.888-44.528 148.512-112.4 158.832zM160 528c0 105.872 86.128 192 192 192 33.92 0 66.288-8.752 95.088-25.28-93.44-38.144-164.992-116.576-188.064-214.72H240c-23.072 0-44.976-5.504-64.8-15.216C164.672 484.8 160 502.112 160 528zm736-352H240c-75.36 0-128 52.64-128 128 0 79.392 57.424 144 128 144h45.28l2.448 13.04C312.448 592.56 433.68 688 576 688c167.632 0 304-122.016 304-272v-16h16c56.576 0 96-67.456 96-128 0-58.32-37.68-96-96-96zM0 544h96v-32H0v32zm336 336h32v-96h-32v96zM75.31 827.319l95.996-95.996-22.627-22.627-95.996 95.996 22.627 22.627z"/><glyph unicode="" glyph-name="weather_virgo" d="M976 576c0 24.56-3.136 240-112 240-38.256 0-63.408-26.624-80-62.192V768c0 66.4-30.096 192-144 192-70.944 0-109.344-48.72-128.256-101.504C492.656 911.28 454.256 960 384 960c-72.144 0-110.608-51.376-129.152-105.792C235.504 901.312 197.328 944 128 944v-32c110.336 0 111.984-138.144 112-144.016V128h32v639.856C272.064 774.4 274.784 928 384 928s111.936-153.6 112-160.144V128h32v640c0 1.6 1.28 160 112 160 110.4 0 111.984-153.488 112-160V128c0-1.952.24-3.824.304-5.76C690.512 73.024 615.68 48 528 48V16c94.624 0 169.216 27.328 228.144 69.808C774.768-9.408 850.128-73.248 853.76-76.304l20.496 24.592c-.848.704-79.472 67.264-89.248 160.752C964.032 267.056 975.872 571.52 976 576zm-192 0c0 53.968 14.704 208 80 208 65.2 0 79.968-154.048 80-207.536-.032-1.328-4.656-135.36-59.104-267.12-26.88-65.04-60.56-118.064-100.896-158.928V576z"/><glyph unicode="" glyph-name="weather_waning_cresent" d="M652.784 940.192l-.88 3.296c-1.728-.464-3.376-1.104-5.104-1.6-42.976 11.728-88.128 18.128-134.768 18.128-282.32 0-512-229.68-512-512s229.68-512 512-512c46.656 0 91.808 6.384 134.8 18.144 1.712-.48 3.344-1.12 5.072-1.6l.88 3.28c214.064 61.328 371.248 258.672 371.248 492.176S866.848 878.864 652.784 940.192zm339.248-492.176c0-10.768-.48-21.424-1.184-32.016h-669.6c-.624 10.608-1.216 21.216-1.216 32.016 0 10.784.592 21.392 1.216 31.984h669.6c.704-10.576 1.184-21.216 1.184-31.984zM545.76 32c-30.304 18.128-58.288 39.488-83.28 64h375.408c-26.368-24.448-55.536-45.92-86.896-64H545.76zM684.016 0A473.947 473.947 0 0 0 647.2-12.464 445.613 445.613 0 0 0 611.04 0h72.976zM433.088 128c-16.736 19.904-31.76 41.312-45.072 64h529.728c-14.352-22.672-30.496-44.096-48.336-64h-436.32zm-62.272 96c-10.016 20.528-18.832 41.824-25.984 64h619.664a476.267 476.267 0 0 0-28.128-64H370.816zm-34.96 96c-5.216 20.784-8.992 42.176-11.648 64h663.424a478.398 478.398 0 0 0-13.072-64H335.856zm-11.632 192c2.624 21.824 6.416 43.216 11.632 64h638.72a475.898 475.898 0 0 0 13.072-64H324.224zm20.592 96c7.152 22.176 15.968 43.472 25.984 64h565.6a476.267 476.267 0 0 0 28.128-64H344.816zM388 704c13.296 22.688 28.336 44.096 45.056 64H869.44c17.824-19.904 33.984-41.328 48.336-64H388zm74.432 96c24.992 24.512 52.992 45.872 83.28 64h205.344a483.11 483.11 0 0 0 86.88-64H462.432zm148.544 96a447.975 447.975 0 0 0 36.256 12.496A466.764 466.764 0 0 0 684.112 896h-73.136zM512.032-31.984c-264.672 0-480 215.328-480 480s215.328 480 480 480c26.32 0 52.128-2.224 77.296-6.32-182.496-76.592-301.296-259.024-301.296-473.68 0-214.64 118.816-397.088 301.328-473.68-25.184-4.096-51.008-6.32-77.328-6.32z"/><glyph unicode="" glyph-name="weather_waning_gibbous" d="M512 960c-46.656 0-91.808-6.384-134.8-18.144-1.712.48-3.344 1.136-5.072 1.6l-.88-3.28C157.184 878.848 0 681.504 0 448S157.184 17.152 371.248-44.176l.88-3.296c1.728.464 3.376 1.104 5.104 1.6C420.208-57.616 465.36-64 512-64c282.32 0 512 229.68 512 512S794.32 960 512 960zm480-512c0-10.768-.48-21.408-1.184-32H734.784c.576 10.608 1.216 21.216 1.216 32s-.64 21.392-1.232 32h256.048c.704-10.592 1.184-21.232 1.184-32zM605.664 96h232.224c-26.368-24.448-55.52-45.92-86.88-64H535.552c25.44 19.024 48.944 40.368 70.112 64zM632 128c15.136 20.128 28.704 41.552 40.784 64h244.96c-14.352-22.672-30.512-44.096-48.336-64H632zm56.48 96c9.296 20.608 17.36 41.936 24.016 64H964.48a476.347 476.347 0 0 0-28.144-64H688.48zm32.848 96c4.88 20.8 8.224 42.256 10.672 64h255.616a478.398 478.398 0 0 0-13.072-64H721.328zM732 512c-2.448 21.744-5.792 43.2-10.688 64h253.216a475.898 475.898 0 0 0 13.072-64H732zm-19.52 96c-6.64 22.064-14.72 43.392-24.016 64h247.872a476.347 476.347 0 0 0 28.144-64h-252zm-39.712 96c-12.08 22.448-25.648 43.872-40.8 64h237.424c17.824-19.904 33.984-41.328 48.336-64h-244.96zm-67.12 96c-21.168 23.632-44.688 44.976-70.128 64h215.488c31.36-18.08 60.496-39.552 86.88-64h-232.24zM512 928c60.608 0 118.576-11.408 172.032-32H487.52c-16.88 9.68-34.64 18.048-52.848 25.68C459.856 925.776 485.664 928 512 928zM32 448c0 217.728 145.776 401.952 344.832 460.48C572.992 849.872 704 666.816 704 448c0-218.832-131.008-401.92-327.184-460.48C177.76 46.064 32 230.272 32 448zM434.704-25.68c18.208 7.648 35.968 16 52.848 25.68h196.48C630.576-20.592 572.608-32 512-32c-26.32 0-52.128 2.224-77.296 6.32z"/><glyph unicode="" glyph-name="weather_waxing_cresent" d="M371.232-44.176l.88-3.296c1.744.464 3.376 1.12 5.104 1.6C420.208-57.616 465.36-64 512-64c282.32 0 512 229.68 512 512S794.32 960 512 960c-46.656 0-91.824-6.384-134.8-18.144-1.728.48-3.36 1.136-5.088 1.6l-.88-3.28C157.168 878.848 0 681.504 0 448S157.168 17.152 371.232-44.176zM32 448c0 10.768.48 21.408 1.184 32h669.6c.624-10.592 1.216-21.216 1.216-32s-.592-21.408-1.216-32h-669.6C32.48 426.592 32 437.232 32 448zm446.304 416c30.304-18.128 58.272-39.488 83.264-64H186.112c26.384 24.448 55.536 45.92 86.88 64h205.312zm-138.32 32a481.776 481.776 0 0 0 36.848 12.496A447.249 447.249 0 0 0 413.056 896h-73.072zM590.96 768c16.736-19.904 31.76-41.312 45.072-64h-529.76c14.352 22.672 30.512 44.096 48.352 64H590.96zm62.272-96c10.016-20.528 18.832-41.824 26-64H59.52a476.267 476.267 0 0 0 28.128 64h565.584zM478.304 32H272.992c-31.344 18.08-60.496 39.552-86.88 64h375.456c-24.992-24.512-52.96-45.872-83.264-64zm-65.28-32c-11.808-4.656-23.872-8.8-36.208-12.48A472.151 472.151 0 0 0 339.984 0h73.04zM590.96 128H154.624c-17.84 19.904-34 41.328-48.352 64h529.76c-13.312-22.688-28.336-44.096-45.072-64zm62.272 96H87.664a476.267 476.267 0 0 0-28.128 64h619.696c-7.168-22.176-15.984-43.472-26-64zm34.944 352c5.216-20.784 9.008-42.176 11.632-64H36.384a478.398 478.398 0 0 0 13.072 64h638.72zm11.632-192c-2.624-21.824-6.416-43.216-11.632-64H49.472A478.398 478.398 0 0 0 36.4 384h663.408zM512 928c264.672 0 480-215.328 480-480S776.672-32 512-32c-26.32 0-52.128 2.224-77.312 6.32C617.2 50.928 736 233.36 736 448S617.2 845.088 434.672 921.68C459.856 925.776 485.664 928 512 928z"/><glyph unicode="" glyph-name="weather_waxing_gibbous" d="M652.768 940.176l-.88 3.296c-1.744-.464-3.376-1.12-5.104-1.6C603.792 953.616 558.64 960 512 960 229.68 960 0 730.32 0 448S229.68-64 512-64c46.656 0 91.824 6.384 134.8 18.144 1.728-.48 3.36-1.136 5.088-1.6l.88 3.28C866.832 17.152 1024 214.496 1024 448S866.832 878.848 652.768 940.176zm-63.456-18.496c-18.208-7.648-35.968-16-52.848-25.68h-196.48c53.44 20.592 111.408 32 172.016 32 26.32 0 52.128-2.224 77.312-6.32zM186.112 96h232.256c21.168-23.632 44.672-44.976 70.112-64H272.992c-31.344 18.08-60.496 39.552-86.88 64zm-31.488 32c-17.84 19.904-34 41.328-48.352 64h244.976c12.08-22.448 25.648-43.872 40.8-64H154.624zm-66.96 96a476.267 476.267 0 0 0-28.128 64H311.52c6.656-22.064 14.72-43.392 24.016-64H87.664zM32 448c0 10.768.48 21.408 1.184 32h256.032c-.576-10.608-1.216-21.216-1.216-32s.64-21.392 1.232-32H33.184C32.48 426.592 32 437.232 32 448zm260-64c2.448-21.744 5.792-43.2 10.672-64h-253.2A478.398 478.398 0 0 0 36.4 384H292zm0 128H36.384a478.398 478.398 0 0 0 13.072 64h253.216c-4.88-20.8-8.224-42.256-10.672-64zm19.504 96H59.52a476.267 476.267 0 0 0 28.128 64H335.52c-9.296-20.608-17.36-41.936-24.016-64zm39.728 96h-244.96c14.352 22.672 30.512 44.096 48.352 64h237.392c-15.152-20.128-28.704-41.552-40.784-64zm67.12 96h-232.24c26.384 24.448 55.536 45.92 86.88 64h215.456c-25.424-19.024-48.928-40.368-70.096-64zM512-32c-60.608 0-118.576 11.408-172.016 32H536.48c16.88-9.664 34.656-18.048 52.848-25.68C564.144-29.776 538.336-32 512-32zm135.168 19.504C451.008 46.112 320 229.184 320 448c0 218.832 131.008 401.92 327.184 460.48C846.224 849.952 992 665.728 992 448S846.224 46.032 647.168-12.496z"/><glyph unicode="" glyph-name="weather_wind_E" d="M512 960C229.68 960 0 730.32 0 448S229.68-64 512-64s512 229.68 512 512-229.68 512-512 512zm0-992C247.328-32 32 183.328 32 448s215.328 480 480 480 480-215.328 480-480S776.672-32 512-32zm-80 480c0-44.112 35.888-80 80-80s80 35.888 80 80-35.888 80-80 80-80-35.888-80-80zm128 0c0-26.464-21.536-48-48-48s-48 21.536-48 48 21.536 48 48 48 48-21.536 48-48zm-256 0c0-114.688 93.312-208 208-208 109.552 0 396.592 186.656 408.752 194.608L941.264 448l-20.512 13.392C908.592 469.344 621.552 656 512 656c-114.688 0-208-93.312-208-208zm208-176c-97.04 0-176 78.96-176 176s78.96 176 176 176c76.736 0 276.784-116.688 370.4-176-93.616-59.312-293.664-176-370.4-176z"/><glyph unicode="" glyph-name="weather_wind_fullmoon" d="M911.616 510.832C903.024 671.6 755.776 800 576 800c-65.552 0-127.008-18.496-178.496-50.512C355.152 801.504 292.064 832 224 832 100.48 832 0 731.52 0 608c0-42.912 12.176-84.608 35.216-120.608 13.6-21.232 31.008-40.144 50.912-55.744C82.24 416.464 80 400.528 80 384c0-92.704 67.296-160 160-160v32c-75.36 0-128 52.64-128 128 0 79.392 57.424 144 128 144h45.264l2.448 13.04C312.448 672.56 433.68 768 576 768c167.632 0 304-122.016 304-272v-16h16c56.576 0 96-67.456 96-128 0-58.32-37.68-96-96-96v-32c75.36 0 128 52.64 128 128 0 71.888-44.528 148.512-112.384 158.832zM259.024 560H240c-62.08 0-115.872-39.168-142.4-96.144-13.584 11.952-25.712 25.616-35.424 40.784C42.432 535.472 32 571.216 32 608c0 105.872 86.128 192 192 192 57.456 0 110.864-25.296 147.152-68.656-55.312-42.448-95.824-102-112.128-171.344zM32 96h480c35.296 0 64-28.704 64-64s-28.704-64-64-64-64 28.704-64 64h-32c0-52.944 43.056-96 96-96s96 43.056 96 96-43.056 96-96 96H32V96zm688 96H64v-32h656c52.944 0 96 43.056 96 96s-43.056 96-96 96-96-43.056-96-96h32c0 35.296 28.704 64 64 64s64-28.704 64-64-28.704-64-64-64z"/><glyph unicode="" glyph-name="weather_wind_halfmoon" d="M911.616 510.832C903.024 671.6 755.776 800 576 800c-65.552 0-127.008-18.496-178.496-50.512C355.152 801.504 292.064 832 224 832c-13.488 0-27.488-1.344-41.584-4l-23.264-4.384 12.736-19.952C185.04 783.04 192 759.296 192 735.008c0-70.576-57.424-128-128-128-14.24 0-28.496 2.464-42.384 7.344l-22.272 7.824.992-23.584c1.664-39.664 13.712-78.128 34.896-111.2 13.6-21.232 31.008-40.144 50.912-55.744C82.24 416.464 80 400.528 80 384c0-92.704 67.296-160 160-160v32c-75.36 0-128 52.64-128 128 0 79.392 57.424 144 128 144h45.264l2.448 13.04C312.448 672.56 433.68 768 576 768c167.632 0 304-122.016 304-272v-16h16c56.576 0 96-67.456 96-128 0-58.32-37.68-96-96-96v-32c75.36 0 128 52.64 128 128 0 71.888-44.528 148.512-112.384 158.832zM259.024 560H240c-62.08 0-115.872-39.168-142.4-96.144-13.6 11.952-25.712 25.616-35.44 40.784-14.16 22.128-23.568 47.072-27.68 73.168a156.983 156.983 0 0 1 29.52-2.8c88.224 0 160 71.776 160 160 0 22.304-4.672 44.208-13.648 64.48 4.624.336 9.168.512 13.648.512 57.456 0 110.864-25.296 147.152-68.656-55.312-42.448-95.824-102-112.128-171.344zM32 96h480c35.296 0 64-28.704 64-64s-28.704-64-64-64-64 28.704-64 64h-32c0-52.944 43.056-96 96-96s96 43.056 96 96-43.056 96-96 96H32V96zm688 96H64v-32h656c52.944 0 96 43.056 96 96s-43.056 96-96 96-96-43.056-96-96h32c0 35.296 28.704 64 64 64s64-28.704 64-64-28.704-64-64-64z"/><glyph unicode="" glyph-name="weather_wind_N" d="M512 960C229.68 960 0 730.32 0 448S229.68-64 512-64s512 229.68 512 512-229.68 512-512 512zm0-992C247.328-32 32 183.328 32 448s215.328 480 480 480 480-215.328 480-480S776.672-32 512-32zm-80 480c0-44.112 35.888-80 80-80s80 35.888 80 80-35.888 80-80 80-80-35.888-80-80zm128 0c0-26.464-21.536-48-48-48s-48 21.536-48 48 21.536 48 48 48 48-21.536 48-48zm-48 429.264l-13.392-20.512C490.656 844.576 304 557.552 304 448c0-114.688 93.312-208 208-208s208 93.312 208 208c0 109.552-186.656 396.576-194.608 408.752L512 877.264zM512 272c-97.04 0-176 78.96-176 176 0 76.736 116.688 276.784 176 370.4 59.312-93.616 176-293.664 176-370.4 0-97.04-78.96-176-176-176z"/><glyph unicode="" glyph-name="weather_wind_NE" d="M512 960.016c-136.752 0-265.328-53.264-362.032-149.968-199.632-199.632-199.632-524.448 0-724.08C246.672-10.736 375.248-64 512-64S777.328-10.736 874.032 85.968c199.632 199.632 199.632 524.448 0 724.08C777.328 906.752 648.752 960.016 512 960.016zm339.408-851.424C760.736 17.936 640.208-32 512-32S263.264 17.936 172.592 108.592c-187.152 187.152-187.152 491.664 0 678.832C263.264 878.08 383.792 928.016 512 928.016s248.736-49.936 339.408-140.592c187.152-187.152 187.152-491.68 0-678.832zM512 368.016c21.36 0 41.456 8.32 56.56 23.424 31.2 31.184 31.2 81.952 0 113.136C553.456 519.68 533.36 528 512 528s-41.456-8.32-56.56-23.424c-31.2-31.184-31.2-81.952 0-113.136 15.104-15.104 35.2-23.424 56.56-23.424zm-33.936 113.936C487.12 491.008 499.184 496 512 496s24.88-4.992 33.936-14.048c18.72-18.72 18.72-49.168 0-67.888-18.128-18.128-49.744-18.128-67.872 0-18.72 18.72-18.72 49.168 0 67.888zM364.928 595.088c-81.088-81.104-81.088-213.056 0-294.16C404.208 261.648 456.432 240.016 512 240c55.552 0 107.792 21.648 147.072 60.944 77.616 77.616 138.112 402.368 140.656 416.176l4.208 22.832-22.832-4.208c-13.776-2.544-338.576-63.04-416.176-140.656zm271.52-271.52C603.216 290.32 559.008 272 512 272s-91.216 18.32-124.448 51.568c-68.624 68.608-68.624 180.288 0 248.912 54.208 54.208 271.76 106.528 376.288 127.36-20.832-104.528-73.168-322.064-127.392-376.272z"/><glyph unicode="" glyph-name="weather_wind_NW" d="M511.984 960c-136.752 0-265.328-53.248-362.032-149.968C53.248 713.328-.016 584.768-.016 448.016c0-136.768 53.264-265.328 149.968-362.048 96.704-96.704 225.28-149.952 362.032-149.952 136.768 0 265.344 53.248 362.048 149.952C970.736 182.688 1024 311.248 1024 448.016c0 136.752-53.264 265.312-149.968 362.016C777.328 906.752 648.752 960 511.984 960zm339.424-851.408c-90.656-90.656-211.2-140.576-339.424-140.576-128.208 0-248.752 49.92-339.408 140.576-90.656 90.672-140.592 211.2-140.592 339.424 0 128.208 49.936 248.736 140.592 339.392C263.232 878.08 383.776 928 511.984 928c128.224 0 248.768-49.92 339.424-140.592C942.064 696.752 992 576.224 992 448.016c0-128.224-49.936-248.752-140.592-339.424zM512 528c-21.376 0-41.472-8.336-56.576-23.44C440.32 489.472 432 469.392 432 448.016s8.32-41.472 23.424-56.576S490.624 368 512 368c21.36 0 41.456 8.336 56.56 23.44s23.424 35.2 23.424 56.576-8.32 41.456-23.424 56.544C553.456 519.664 533.36 528 512 528zm33.936-113.936c-18.128-18.144-49.728-18.112-67.888 0-9.056 9.056-14.048 21.12-14.048 33.952 0 12.816 4.992 24.864 14.048 33.92C487.12 491.008 499.168 496 512 496c12.816 0 24.88-4.992 33.936-14.064s14.048-21.104 14.048-33.92c0-12.832-4.976-24.896-14.048-33.952zm-303.04 321.664l-22.832 4.208 4.208-22.832c2.528-13.792 63.024-338.576 140.64-416.176 39.28-39.28 91.52-60.928 147.072-60.928s107.792 21.648 147.072 60.928C698.352 340.224 719.984 392.448 720 448c0 55.568-21.648 107.792-60.944 147.088-77.6 77.6-402.368 138.112-416.16 140.64zm393.536-412.16c-33.248-33.248-77.44-51.552-124.448-51.552s-91.2 18.32-124.448 51.552c-54.208 54.192-106.528 271.728-127.36 376.272 104.512-20.848 322.064-73.168 376.272-127.36C669.68 539.216 688 495.008 688 448s-18.32-91.2-51.568-124.432z"/><glyph unicode="" glyph-name="weather_wind_S" d="M512-64c282.32 0 512 229.68 512 512S794.32 960 512 960 0 730.32 0 448 229.664-64 512-64zm0 992c264.672 0 480-215.328 480-480S776.672-32 512-32 32 183.328 32 448s215.328 480 480 480zm80-480c0 44.112-35.888 80-80 80s-80-35.888-80-80 35.888-80 80-80 80 35.888 80 80zm-128 0c0 26.464 21.536 48 48 48s48-21.536 48-48-21.536-48-48-48-48 21.536-48 48zm48-429.264l13.392 20.512C533.328 51.424 720 338.448 720 448c0 114.688-93.312 208-208 208s-208-93.312-208-208c0-109.552 186.656-396.576 194.608-408.752L512 18.736zM512 624c97.04 0 176-78.96 176-176 0-76.736-116.688-276.784-176-370.4-59.312 93.616-176 293.664-176 370.4 0 97.04 78.944 176 176 176z"/><glyph unicode="" glyph-name="weather_wind_SE" d="M511.984 960.016c-136.752 0-265.328-53.264-362.032-149.968-199.632-199.632-199.632-524.432 0-724.064C246.656-10.72 375.232-63.984 511.984-63.984c136.768 0 265.344 53.264 362.048 149.968 199.632 199.632 199.632 524.432 0 724.064-96.704 96.704-225.28 149.968-362.048 149.968zm339.424-851.408c-90.656-90.656-211.2-140.592-339.424-140.592-128.208 0-248.752 49.936-339.408 140.592-187.136 187.152-187.136 491.664 0 678.816 90.656 90.656 211.2 140.592 339.408 140.592 128.224 0 248.768-49.936 339.424-140.592 187.136-187.152 187.136-491.664 0-678.816zM512 528.016c-21.376 0-41.472-8.336-56.576-23.44-31.184-31.184-31.184-81.936 0-113.12 15.104-15.104 35.2-23.44 56.576-23.44 21.36 0 41.456 8.336 56.56 23.44 31.184 31.184 31.184 81.936 0 113.12-15.104 15.104-35.2 23.44-56.56 23.44zm33.936-113.936c-18.144-18.144-49.744-18.112-67.888 0-18.72 18.72-18.72 49.152 0 67.872 9.072 9.056 21.12 14.064 33.952 14.064 12.816 0 24.88-4.992 33.936-14.064 18.72-18.72 18.72-49.152 0-67.872zm113.136 181.008c-39.296 39.28-91.536 60.928-147.072 60.928-55.568 0-107.792-21.648-147.072-60.928-39.296-39.28-60.928-91.52-60.944-147.072 0-55.568 21.648-107.792 60.944-147.072 77.616-77.616 402.368-138.128 416.176-140.656l22.832-4.208-4.208 22.832c-2.544 13.792-63.04 338.576-140.656 416.176zm-271.52-271.52c-33.248 33.248-51.568 77.44-51.568 124.448s18.32 91.216 51.568 124.448c33.232 33.232 77.44 51.552 124.448 51.552s91.2-18.32 124.448-51.552c54.208-54.208 106.528-271.744 127.36-376.288-104.512 20.832-322.048 73.168-376.256 127.392z"/><glyph unicode="" glyph-name="weather_wind_sun" d="M911.616 510.832C903.024 671.6 755.776 800 576 800c-31.344 0-61.664-4.4-90.512-12.304C446.656 816.608 400.672 832 352 832c-123.52 0-224-100.48-224-224 0-34.624 7.792-57.84 19.952-80.288C106.928 495.808 80 443.344 80 384c0-92.704 67.296-160 160-160v32c-75.36 0-128 52.64-128 128 0 79.392 57.424 144 128 144h45.264l2.448 13.04C312.448 672.56 433.68 768 576 768c167.632 0 304-122.016 304-272v-16h16c56.576 0 96-67.456 96-128 0-58.32-37.68-96-96-96v-32c75.36 0 128 52.64 128 128 0 71.888-44.528 148.512-112.384 158.832zM259.024 560H240c-23.072 0-44.976-5.504-64.8-15.216C164.672 564.8 160 582.112 160 608c0 105.872 86.128 192 192 192 33.904 0 66.288-8.752 95.088-25.28-93.44-38.144-164.976-116.576-188.064-214.72zM0 624h96v-32H0v32zm336 336h32v-96h-32v96zM75.31 907.319l95.996-95.996-22.627-22.627-95.996 95.996 22.627 22.627zM512-32c-35.296 0-64 28.704-64 64h-32c0-52.944 43.056-96 96-96s96 43.056 96 96-43.056 96-96 96H32V96h480c35.296 0 64-28.704 64-64s-28.704-64-64-64zm208 224H64v-32h656c52.944 0 96 43.056 96 96s-43.056 96-96 96-96-43.056-96-96h32c0 35.296 28.704 64 64 64s64-28.704 64-64-28.704-64-64-64z"/><glyph unicode="" glyph-name="weather_wind_SW" d="M874.032 85.968c199.632 199.632 199.632 524.448 0 724.08C777.328 906.752 648.752 960.016 512 960.016s-265.328-53.264-362.032-149.968c-199.632-199.632-199.632-524.448 0-724.08C246.672-10.736 375.248-64 512-64S777.328-10.736 874.032 85.968zm-701.44 701.456C263.248 878.08 383.792 928.016 512 928.016s248.752-49.936 339.408-140.592c187.152-187.152 187.152-491.664 0-678.832C760.752 17.936 640.208-32 512-32S263.248 17.936 172.592 108.592c-187.152 187.152-187.152 491.68 0 678.832zM512 528c-21.376 0-41.456-8.32-56.56-23.424-31.184-31.184-31.184-81.952 0-113.136 15.104-15.104 35.184-23.424 56.56-23.424s41.456 8.32 56.56 23.424c31.184 31.184 31.184 81.952 0 113.136C553.456 519.68 533.376 528 512 528zm33.936-113.936c-18.128-18.128-49.744-18.128-67.872 0-18.72 18.72-18.72 49.168 0 67.888C487.12 491.008 499.168 496 512 496s24.88-4.992 33.936-14.048c18.72-18.72 18.72-49.168 0-67.888zm113.136 181.008c-39.28 39.296-91.52 60.944-147.072 60.944s-107.792-21.648-147.072-60.944C287.312 517.456 226.8 192.704 224.272 178.896l-4.208-22.832 22.832 4.208c13.792 2.528 338.576 63.024 416.192 140.64 81.088 81.12 81.088 213.072-.016 294.16zm-398.896-398.88c20.832 104.512 73.152 322.048 127.376 376.272 33.248 33.248 77.44 51.568 124.448 51.568s91.2-18.32 124.448-51.568c68.608-68.608 68.608-180.288 0-248.912-54.192-54.208-271.744-106.544-376.272-127.36z"/><glyph unicode="" glyph-name="weather_wind_W" d="M511.984-63.984c282.32 0 512 229.68 512 512s-229.68 512-512 512-512-229.68-512-512 229.68-512 512-512zm0 992c264.672 0 480-215.328 480-480s-215.328-480-480-480-480 215.328-480 480 215.328 480 480 480zm80-480c0 44.112-35.888 80-80 80s-80-35.888-80-80 35.888-80 80-80 80 35.888 80 80zm-128 0c0 26.464 21.536 48 48 48s48-21.536 48-48-21.536-48-48-48-48 21.536-48 48zm-360.752-13.392c12.16-7.952 299.2-194.608 408.752-194.608 114.688 0 208 93.312 208 208s-93.312 208-208 208c-109.552 0-396.592-186.656-408.752-194.608L82.72 448.016l20.512-13.392zm408.752 189.392c97.04 0 176-78.96 176-176s-78.96-176-176-176c-76.736 0-276.784 116.688-370.4 176 93.616 59.312 293.664 176 370.4 176z"/><glyph unicode="" glyph-name="weather_wind" d="M176 304v32c-82.096 0-144 61.904-144 144 0 86.72 65.952 160 144 160h45.28l2.448 13.04C250.192 793.824 384.88 896 544 896c179.44 0 320-133.536 320-304v-16h16c66 0 112-67.456 112-128 0-63.856-48.144-112-112-112v-32c82.096 0 144 61.904 144 144 0 72.48-50.912 149.776-128.336 159.072C887.68 788.224 736.096 928 544 928c-169.584 0-314.08-106.88-348.976-256H176C80.608 672 0 584.08 0 480c0-100.336 75.664-176 176-176zM512-32c-35.296 0-64 28.704-64 64h-32c0-52.944 43.056-96 96-96s96 43.056 96 96-43.056 96-96 96H32V96h480c35.296 0 64-28.704 64-64s-28.704-64-64-64zm304 320c0 52.944-43.056 96-96 96s-96-43.056-96-96h32c0 35.296 28.704 64 64 64s64-28.704 64-64-28.704-64-64-64H64v-32h656c52.944 0 96 43.056 96 96z"/><glyph unicode="" glyph-name="weather_windgust" d="M0 416h816c52.944 0 96-43.056 96-96s-43.056-96-96-96-96 43.056-96 96h-32c0-70.576 57.424-128 128-128s128 57.424 128 128-57.424 128-128 128H0v-32zm0 112h896c70.576 0 128 57.424 128 128s-57.424 128-128 128-128-57.424-128-128h32c0 52.944 43.056 96 96 96s96-43.056 96-96-43.056-96-96-96H0v-32zm0-224h512c35.296 0 64-28.704 64-64s-28.704-64-64-64-64 28.704-64 64h-32c0-52.944 43.056-96 96-96s96 43.056 96 96-43.056 96-96 96H0v-32z"/><glyph unicode="" glyph-name="software_add_vectorpoint" d="M192 105.376L326.624 240H352v32h-16v16h-32v-25.376L169.376 128H0V-64h192v169.376zM160-32H32V96h128V-32zm672 822.624L697.376 656H672v-32h16v-16h32v25.376L854.624 768H1024v192H832V790.624zM864 928h128V800H864v128zM384 656h64v-32h-64v32zm192 0h64v-32h-64v32zm-96 0h64v-32h-64v32zm-144-32h16v32h-48v-48h32zm-32-240h32v-64h-32v64zm0 192h32v-64h-32v64zm0-96h32v-64h-32v64zm80-208h64v-32h-64v32zm96 0h64v-32h-64v32zm96 0h64v-32h-64v32zm112 0h-16v-32h48v48h-32zm0 208h32v-64h-32v64zm0-96h32v-64h-32v64zm0 192h32v-64h-32v64zM400 432h96v-96h32v96h96v32h-96v96h-32v-96h-96z"/><glyph unicode="" glyph-name="software_box_oval" d="M512 112c282.32 0 512 150.72 512 336S794.32 784 512 784 0 633.28 0 448s229.68-336 512-336zM32.672 432H496V144.256C247.12 149.456 45.584 275.136 32.672 432zM528 144.256V432h463.328C978.416 275.136 776.88 149.456 528 144.256zM991.328 464H528v287.744c248.88-5.2 450.416-130.88 463.328-287.744zM496 751.744V464H32.672C45.584 620.864 247.12 746.544 496 751.744z"/><glyph unicode="" glyph-name="software_box_polygon" d="M766.496 0l254.288 448-254.288 448H257.504L3.216 448 257.504 0h508.992zM299.184 32L512 415.056 724.816 32H299.184zM984 448L754.72 44.048 530.304 448 754.72 851.952 984 448zm-472 32.944L299.184 864h425.632L512 480.944zM269.28 851.952L493.696 448 269.28 44.048 40 448l229.28 403.952z"/><glyph unicode="" glyph-name="software_box_rectangle" d="M0 112h1024v672H0V112zm541.52 336L992 738.64V157.36L541.52 448zm412.16-304H70.32L512 428.96 953.68 144zM512 467.04L70.32 752h883.376L512 467.04zM482.48 448L32 157.36v581.28L482.48 448z"/><glyph unicode="" glyph-name="software_box_roundedrectangle" d="M208 112h608c114.688 0 208 93.312 208 208v256c0 114.688-93.312 208-208 208H208C93.312 784 0 690.688 0 576V320c0-114.688 93.312-208 208-208zm0 32c-36.944 0-71.2 11.488-99.552 31.008L512 429.088l403.552-254.08C887.2 155.488 852.944 144 816 144H208zm784 432V320c0-48.032-19.392-91.6-50.704-123.392L542.032 448l399.264 251.392C972.608 667.6 992 624.032 992 576zM816 752c36.944 0 71.2-11.488 99.552-31.008L512 466.912l-403.552 254.08C136.8 740.512 171.056 752 208 752h608zM32 576c0 48.032 19.392 91.6 50.704 123.392L481.968 448 82.704 196.608C51.392 228.4 32 271.968 32 320v256z"/><glyph unicode="" glyph-name="software_character" d="M176.912 125.328l30.192-10.656L285.2 336h308.656l79.04-225.296 30.192 10.592L459.344 816h-38.672l-243.76-690.672zM582.624 368H296.496l143.488 406.528L582.624 368zM816 960h32V-64h-32V960z"/><glyph unicode="" glyph-name="software_crop" d="M864 777.376l155.312 155.312-22.624 22.624L841.376 800H192v160h-32V800H0v-32h160V96h672V-64h32V96h160v32H864v649.376zM809.376 768L192 150.624V768h617.376zM214.624 128L832 745.376V128H214.624z"/><glyph unicode="" glyph-name="software_eyedropper" d="M864 960h-6.576l-4.672-4.624s-41.136-40.64-64.064-64.064L608 710.624l-64 64L457.376 688l72.096-72.112L48 102.336V70.64L-6.624 16 80-70.624 134.624-16h31.696l513.568 481.472L752 393.376 838.624 480l-64 64L1024 793.376V800c0 79.248-80.752 160-160 160zM153.664 16h-32.288L80-25.376 38.624 16 80 57.376V89.68l472.112 503.6 105.152-105.152L153.664 16zM752 438.624L502.624 688 544 729.376 793.376 480 752 438.624zm0 128L630.624 688l180.8 180.816c18.08 18.448 47.36 47.52 58.912 58.96 57.088-4.24 117.168-64.304 121.424-121.376L752 566.624z"/><glyph unicode="" glyph-name="software_font_allcaps" d="M146.432 320H413.6l67.392-181.376 30 11.152L299.12 720h-38.256L48.992 149.584l30-11.152L146.432 320zM280 679.6L401.712 352H158.336L280 679.6zM610.432 320H877.6l67.392-181.376 30 11.152L763.12 720h-38.256L512.992 149.584l30-11.152L610.432 320zM744 679.6L865.712 352H622.336L744 679.6zM1024 960H0V-64h1024V960zM992-32H32v960h960V-32z"/><glyph unicode="" glyph-name="software_font_baseline_shift" d="M484.72 480l76.208-213.376 30.144 10.752L347.28 960h-38.544L64.928 277.376l30.144-10.752L171.28 480h313.44zM328 918.832L473.296 512H182.704L328 918.832zM788.624 848L656.896 469.248l30.224-10.496L722.336 560H893.68l35.216-101.248 30.224 10.496L827.376 848h-38.752zm-55.168-256L808 806.304 882.544 592H733.456zM32 224h576v-32H32v32zm608 192h352v-32H640v32zM832-64v345.376l84.688-84.688 22.624 24.976-112 114.336h-22.624l-112-114.336 22.624-23.808L800 281.376V-64z"/><glyph unicode="" glyph-name="software_font_horizontal_scale" d="M676.736 464l76.208-213.376 30.128 10.752L539.28 944h-38.56L256.944 261.376l30.128-10.752L363.264 464h313.472zM520 902.832L665.296 496H374.704L520 902.832zm-389.664-715.52L16 75.312V52.688l114.336-112 23.808 22.624L70.624 48h882.752l-84.688-84.688 24.976-22.624 114.336 112v22.624l-114.336 112-23.808-22.624L953.376 80H70.624l83.52 84.688z"/><glyph unicode="" glyph-name="software_font_kerning" d="M196.624 784L64.896 405.248l30.224-10.496L130.336 496H301.68l35.216-101.248 30.224 10.496L235.376 784h-38.752zm-55.168-256L216 742.304 290.544 528H141.456zm515.44-122.752l30.224-10.496L722.336 496H893.68l35.216-101.248 30.224 10.496L827.376 784h-38.752L656.896 405.248zM882.544 528H733.472L808 742.304 882.544 528zM496 864h32v-32h-32v32zm0-448h32v-64h-32v64zm0 192h32v-64h-32v64zm0 96h32v-64h-32v64zm0-192h32v-64h-32v64zm0 288h32v-64h-32v64zm0-480h32v-32h-32v32zM893.664-59.312l114.336 112v22.624l-114.336 112-23.808-22.624L953.376 80H70.624l84.688 84.688-24.976 22.624L16 75.312V52.688l114.336-112 23.808 22.624L70.624 48h882.752l-83.52-84.688z"/><glyph unicode="" glyph-name="software_font_leading" d="M692.624 960L560.896 581.248l30.224-10.496L626.336 672H797.68l35.216-101.248 30.224 10.496L731.376 960h-38.752zm-55.168-256L712 918.304 786.544 704H637.456zM432 528h544v-32H432v32zm365.664-384L832.88 42.752l30.224 10.496L731.376 432h-38.752L560.896 53.248l30.224-10.496L626.336 144h171.328zM712 390.304L786.544 176H637.456L712 390.304zM432 0h544v-32H432V0zM292.688 404.688l22.624 24.976-112 114.336h-22.624l-112-114.336 22.624-23.808L176 489.376V6.624L91.312 91.312 68.688 66.336 180.688-48h22.624l112 114.336-22.624 23.808L208 6.624v482.752z"/><glyph unicode="" glyph-name="software_font_size" d="M852.736 480l76.208-213.376 30.128 10.752L715.28 960h-38.56L432.944 277.376l30.128-10.752L539.264 480h313.472zM696 918.832L841.296 512H550.704L696 918.832zM301.664 368l35.216-101.248 30.224 10.496L235.376 656h-38.752L64.896 277.248l30.224-10.496L130.336 368h171.328zM216 614.304L290.544 400H141.456L216 614.304zM909.664-59.312l114.336 112v22.624l-114.336 112-23.808-22.624L969.376 80H54.624l84.688 84.688-24.976 22.624L0 75.312V52.688l114.336-112 23.808 22.624L54.624 48h914.752l-83.52-84.688z"/><glyph unicode="" glyph-name="software_font_smallcapital" d="M324.72 832L80.928 149.376l30.144-10.752L187.28 352h313.456l76.208-213.376 30.144 10.752L363.28 832h-38.56zM198.704 384L344 790.832 489.296 384H198.704zm573.92 144L640.896 149.248l30.224-10.496L706.336 240H877.68l35.216-101.248 30.224 10.496L811.376 528h-38.752zm-55.168-256L792 486.304 866.544 272H717.456zM0-64h1024V960H0V-64zm32 992h960V-32H32v960z"/><glyph unicode="" glyph-name="software_font_smallcaps" d="M340.72 832L96.928 149.376l30.144-10.752L203.28 352h313.456l76.208-213.376 30.144 10.752L379.28 832h-38.56zM214.704 384L360 790.832 505.296 384H214.704zM896 208v160c0 37.104-28.24 96-104 96-71.184 0-99.632-36.832-100.8-38.4l25.456-19.376c.848 1.04 21.2 25.776 75.344 25.776 52.832 0 72-38.288 72-64v-32h-64c-44.272 0-128-20.064-128-96 0-61.008 34.992-96 96-96 43.76 0 73.792 14.352 95.776 40.336C870.016 164.464 896 144 912 144v32c-16 0-15.952 26.72-16 32zm-128-32c-27.472 0-64 6.64-64 64 0 62.976 92.096 63.984 96 64h64v-32c0-79.344-52.208-96-96-96zM0-64h1024V960H0V-64zm32 992h960V-32H32v960z"/><glyph unicode="" glyph-name="software_font_strikethrough" d="M896 368c0 37.104-28.24 96-104 96-71.184 0-99.632-36.832-100.8-38.4l25.456-19.376c.848 1.04 21.2 25.776 75.344 25.776 52.832 0 72-38.288 72-64v-32h-64c-37.216 0-102.176-14.336-121.952-64h-98.784L379.28 832h-38.56L140.736 272H96v-32h33.296l-32.352-90.624 30.128-10.752L163.264 240h393.472l36.208-101.376 30.128 10.752L590.704 240H672c0-61.008 34.992-96 96-96 43.76 0 73.792 14.352 95.776 40.336C870.016 164.464 896 144 912 144v32c-16 0-15.936 26.72-16 32v32h32v32h-32v96zM360 790.832L493.872 416H226.128L360 790.832zM174.704 272l40 112h290.592l40-112H174.704zM768 176c-27.472 0-64 6.64-64 64h156.432c-12.32-51.888-55.344-64-92.432-64zm-53.264 96c24.336 31.216 82.208 31.984 85.264 32h64v-32H714.736zM0-64h1024V960H0V-64zm32 992h960V-32H32v960z"/><glyph unicode="" glyph-name="software_font_tracking" d="M159.104 394.752L194.336 496H365.68l35.216-101.248 30.224 10.496L299.376 784h-38.752L128.896 405.248l30.208-10.496zM280 742.304L354.544 528H205.472L280 742.304zM724.624 784L592.896 405.248l30.224-10.496L658.336 496H829.68l35.216-101.248 30.224 10.496L763.376 784h-38.752zm-55.168-256L744 742.304 818.544 528H669.456zM496 864h32v-32h-32v32zm0-256h32v-64h-32v64zm0-192h32v-64h-32v64zm0 96h32v-64h-32v64zm0 288h32v-64h-32v64zm0-96h32v-64h-32v64zm0-384h32v-32h-32v32zM48 864h32v-32H48v32zm0-352h32v-64H48v64zm0 288h32v-64H48v64zm0-384h32v-64H48v64zm0 192h32v-64H48v64zm0 96h32v-64H48v64zm0-384h32v-32H48v32zm896 544h32v-32h-32v32zm0-256h32v-64h-32v64zm0 96h32v-64h-32v64zm0-192h32v-64h-32v64zm0 288h32v-64h-32v64zm0-384h32v-64h-32v64zm0-96h32v-32h-32v32zM893.664-59.312l114.336 112v22.624l-114.336 112-23.808-22.624L953.376 80H70.624l84.688 84.688-24.976 22.624L16 75.312V52.688l114.336-112 23.808 22.624L70.624 48h882.752l-83.52-84.688z"/><glyph unicode="" glyph-name="software_font_underline" d="M214.704 384h290.592l87.648-245.376 30.128 10.752L379.28 832h-38.56L96.944 149.376l30.128-10.752L214.704 384zM360 790.832L493.872 416H226.128L360 790.832zM800 336c-44.272 0-128-20.064-128-96 0-61.008 34.992-96 96-96 43.76 0 73.792 14.352 95.776 40.336C870.016 164.464 896 144 912 144v32c-16 0-15.936 26.72-16 32v160c0 37.104-28.24 96-104 96-71.184 0-99.632-36.832-100.8-38.4l25.456-19.376c.848 1.04 21.2 25.776 75.344 25.776 52.832 0 72-38.288 72-64v-32h-64zm-32-160c-27.472 0-64 6.64-64 64 0 62.976 92.112 63.984 96 64h64v-32c0-79.344-52.208-96-96-96zm256 784H0V-64h1024V960zM992-32H32v960h960V-32zM96 96h832V64H96v32z"/><glyph unicode="" glyph-name="software_font_vertical_scale" d="M479.056 106.624L555.264 320h313.472l76.208-213.376 30.128 10.752L731.28 800h-38.56L448.944 117.376l30.112-10.752zM712 758.832L857.296 352H566.704L712 758.832zm-419.312 45.856l22.624 24.976-112 114.336h-22.624l-112-114.336 22.624-23.808L176 889.376V6.624L91.312 91.312 68.688 66.336 180.688-48h22.624l112 114.336-22.624 23.808L208 6.624v882.752z"/><glyph unicode="" glyph-name="software_horizontal_align_center" d="M80 416V128h416V-64h32v192h416v288H528v64h320v288H528v192h-32V768H176V480h320v-64H80zm128 320h608V512H208v224zm704-576H112v224h800V160z"/><glyph unicode="" glyph-name="software_horizontal_align_right" d="M992 960h32V-64h-32V960zm-64-544H64V128h864v288zm-32-256H96v224h800V160zm32 608H256V480h672v288zm-32-256H288v224h608V512z"/><glyph unicode="" glyph-name="software_horizontal_distribute_center" d="M320 880H192V16h128v-80h32v80h128v864H352v80h-32v-80zM448 48H224v800h224V48zm96 64h128V-64h32v176h128v672H704v176h-32V784H544V112zm32 640h224V144H576v608z"/><glyph unicode="" glyph-name="software_horizontal_distribute_left" d="M544 960V-64h32v176h256v672H576v176h-32zm256-208V144H576v608h224zM192 960V-64h32v80h256v864H224v80h-32zm256-112V48H224v800h224z"/><glyph unicode="" glyph-name="software_horizontal_distribute_right" d="M480-64V960h-32v-80H192V16h256v-80h32zM224 48v800h224V48H224zM832-64V960h-32V784H544V112h256V-64h32zM576 144v608h224V144H576z"/><glyph unicode="" glyph-name="software_indent_firstline" d="M480 816h544v-32H480v32zM352 656h496v-32H352v32zm0-160h672v-32H352v32zm0-160h544v-32H352v32zm0-160h672v-32H352v32zm0-160h576v-32H352v32zM244.688 699.312l24.976-22.624 114.336 112v22.624l-114.336 112-23.808-22.624L329.376 816H0v-32h329.376z"/><glyph unicode="" glyph-name="software_indent_left" d="M480 864h544v-32H480v32zm0-160h352v-32H480v32zm0-160h544v-32H480v32zm0-160h400v-32H480v32zm0-160h544v-32H480v32zm0-160h432V32H480v32zm-96 896h32V-64h-32V960zM180.688 347.312l24.976-22.624 114.336 112v22.624l-114.336 112-23.808-22.624L265.376 464H0v-32h265.376z"/><glyph unicode="" glyph-name="software_indent_right" d="M0 864h544v-32H0v32zm192-160h352v-32H192v32zM0 544h544v-32H0v32zm144-160h400v-32H144v32zM0 224h544v-32H0v32zM112 64h432V32H112v32zm496 896h32V-64h-32V960zm235.312-411.312l-24.976 22.624-114.336-112v-22.624l114.336-112 23.808 22.624L758.624 432H1024v32H758.624z"/><glyph unicode="" glyph-name="software_lasso" d="M512 880C229.68 880 0 732.864 0 552c0-126.768 112.928-236.896 277.648-291.472C245.296 246.656 224 221.456 224 192c0-44.864 49.2-80 112-80 23.328 0 44.784 4.88 62.544 13.264C405.472 118.96 416 105.328 416 80c0-29.456-13.712-31.824-16-32V16c16.608 0 48 13.376 48 64 0 31.232-11.664 51.392-22.544 63.456C439.6 156.848 448 173.584 448 192c0 12.88-4.16 24.912-11.44 35.6A793.753 793.753 0 0 1 512 224c282.32 0 512 147.136 512 328S794.32 880 512 880zM256 192c0 26.016 36.64 48 80 48s80-21.984 80-48-36.64-48-80-48-80 21.984-80 48zm256 64C247.328 256 32 388.784 32 552s215.328 296 480 296 480-132.784 480-296-215.328-296-480-296z"/><glyph unicode="" glyph-name="software_layers1" d="M512 769.44L-9.616 543.408l249.6-99.824-249.6-108.176L512 126.768l521.616 208.64L784 443.568l249.616 99.84L512 769.44zm438.384-432.848L512 161.232 73.616 336.592l208.24 90.24L512 334.768l230.144 92.048 208.24-90.224zM742.352 461.616l-.128-.288L512 369.232l-230.24 92.096-.128.304-.304-.128-207.712 83.088L512 734.56l438.384-189.968-207.744-83.104-.288.128z"/><glyph unicode="" glyph-name="software_layers2" d="M512 865.44L-9.616 639.408l249.6-99.824-249.6-108.176 249.6-99.824-249.6-108.176L512 14.768l521.616 208.64L784 331.568l249.616 99.84L784 539.568l249.616 99.84L512 865.44zm438.384-640.848L512 49.232 73.616 224.592l208.24 90.24L512 222.768l230.144 92.048 208.24-90.224zm0 208L742.64 349.488l-.288.128-.128-.288L512 257.232l-230.24 92.096-.128.304-.304-.128-207.712 83.088 208.24 90.24L512 430.768l230.144 92.048 208.24-90.224zM742.352 557.616l-.128-.288L512 465.232l-230.24 92.096-.128.304-.304-.128-207.712 83.088L512 830.56l438.384-189.968-207.744-83.104-.288.128z"/><glyph unicode="" glyph-name="software_layout_2columns" d="M496 960H0V-64h1024V960H496zm0-992H32v960h464V-32zm496 960V-32H528v960h464z"/><glyph unicode="" glyph-name="software_layout_3columns" d="M672 960H0V-64h1024V960H672zM320-32H32v960h288V-32zm352 0H352v960h320V-32zm320 960V-32H704v960h288z"/><glyph unicode="" glyph-name="software_layout_4boxes" d="M496 960H0V-64h1024V960H496zM32 928h464V464H32v464zM496-32H32v464h464V-32zm496 0H528v464h464V-32zm0 960V464H528v464h464z"/><glyph unicode="" glyph-name="software_layout_4columns" d="M736 960H0V-64h1024V960H736zM240-32H32v960h208V-32zm256 0H272v960h224V-32zm240 0H528v960h208V-32zm256 960V-32H768v960h224z"/><glyph unicode="" glyph-name="software_layout_4lines" d="M0 720V-64h1024V960H0V720zM992-32H32v224h960V-32zm0 256H32v208h960V224zm0 240H32v224h960V464zM32 928h960V720H32v208z"/><glyph unicode="" glyph-name="software_layout_header_2columns" d="M0 736V-64h1024V960H0V736zM496-32H32v736h464V-32zm496 0H528v736h464V-32zM32 928h960V736H32v192z"/></font>
</defs>
</svg>
