<svg version="1.1" id="Layer_1" xmlns="http://www.w3.org/2000/svg" xmlns:xlink="http://www.w3.org/1999/xlink" x="0" y="0" width="860.7" height="644.5" xml:space="preserve"><style>.st1{fill:#077669}.st2{opacity:.5}.st3{fill:#fff}.st4{fill:#5b5b5b}.st5{fill:#44444a}.st6{fill:#eaeaea}.st7{fill:#17171e}.st8{fill:#333}.st16{fill:#4a4a4a}</style><g id="SHADED"><path fill="#17aa9b" d="M816 408.9L408 173.4 0 408.9l408 235.6z"/><path class="st1" d="M267.2 471.4l-1.4-.4 3-11.6 1.4.4-3 11.6zm5-19.3l-1.4-.4.9-3.6 1.4.4-.9 3.6zM309.7 388.7l-.7-1.3 10.4-6 .7 1.3-10.4 6zm17.4-9.9l-.8-1.3 10.4-5.9.8 1.3-10.4 5.9zm17.4-9.9l-.8-1.3 10.4-5.9.8 1.3-10.4 5.9zm17.3-9.9l-.7-1.3 10.4-6 .7 1.3-10.4 6zm17.4-10l-.7-1.3 10.4-5.9.7 1.3-10.4 5.9zM443 487.9l-.7-1.3 10.4-5.9.7 1.3-10.4 5.9zm17.3-9.9l-.8-1.3 10.4-5.9.7 1.3-10.3 5.9zm17.4-9.9l-.8-1.3 10.4-5.9.8 1.3-10.4 5.9zm17.4-9.9l-.8-1.3 10.4-5.9.8 1.3-10.4 5.9zm17.3-10l-.7-1.3 10.4-5.9.7 1.3-10.4 5.9zm17.4-9.9l-.7-1.3 10.4-6 .7 1.3-10.4 6zM271.7 368.8l-4.1-11.3 1.4-.5 4.1 11.3-1.4.5zm-6.8-18.8l-4.1-11.3 1.4-.5 4.1 11.3-1.4.5z"/><path class="st1" d="M525.5 489.4l-12-.2v-1.5l12 .2v1.5zm-20-.3l-12-.2v-1.5l12 .2v1.5zm-20-.3l-12-.2V487l12 .2v1.6zm-20-.4l-12-.2v-1.5l12 .2v1.5zm-20-.3l-3-.1v-1.5l3 .1v1.5zM527 399.2l-10.4-6 .8-1.3 10.4 6-.8 1.3zm-17.3-10l-10.4-6 .8-1.3 10.4 6-.8 1.3zm-17.3-10l-10.4-6 .8-1.3 10.4 6-.8 1.3zm-17.3-10.1l-10.4-6 .8-1.3 10.4 6-.8 1.3zM457.9 359l-10.4-6 .8-1.3 10.4 6-.8 1.3zm-17.3-10l-10.4-6.1.8-1.3 10.4 6-.8 1.4zM374 488l-10.4-6 .8-1.3 10.4 6-.8 1.3zm-17.3-10l-10.4-6 .8-1.3 10.4 6-.8 1.3zm-17.3-10.1l-10.4-6 .8-1.3 10.4 6-.8 1.3zm-17.3-10.1l-10.4-6 .8-1.3 10.4 6-.8 1.3zm-17.2-10.1l-10.4-6.1.8-1.3 10.4 6-.8 1.4z"/><g class="st2"><ellipse transform="matrix(1 -.00541 .00541 1 -1.715 1.369)" class="st3" cx="252.1" cy="317.6" rx="36.1" ry="20.9"/><ellipse transform="matrix(1 -.00541 .00541 1 -1.697 1.338)" class="st4" cx="246.4" cy="314.3" rx="14.3" ry="8.3"/><path class="st4" d="M288.3 316.5v-1.6h-.3c-16.2.1-27.8 3.7-34.5 10.7-5.4 5.7-5.5 11.6-5.5 12.7v.2l1.6-.1c10 .4 20.3-1.6 28-6.1 7.5-4.3 11.1-10.1 10.7-15.8z"/></g><g class="st2"><ellipse transform="matrix(1 -.00541 .00541 1 -2.649 3.045)" class="st3" cx="561.5" cy="491.1" rx="36.1" ry="20.9"/><ellipse transform="matrix(1 -.00541 .00541 1 -2.63 3.014)" class="st4" cx="555.8" cy="487.7" rx="14.3" ry="8.3"/><path class="st4" d="M597.6 489.9v-1.6h-.3c-16.2.1-27.8 3.7-34.5 10.7-5.4 5.7-5.5 11.6-5.5 12.7v.2l1.6-.1c10 .4 20.3-1.6 28-6.1 7.6-4.3 11.1-10.1 10.7-15.8z"/></g><g class="st2"><ellipse transform="matrix(.00541 -1 1 .00541 250.552 883.183)" class="st3" cx="569.3" cy="315.6" rx="20.8" ry="36.1"/><ellipse transform="matrix(.00541 -1 1 .00541 259.57 885.614)" class="st4" cx="575" cy="312.3" rx="8.3" ry="14.3"/><path class="st4" d="M573.4 336.4c0-4.9-2-9.7-5.6-13.1-10.4-10.1-31.5-10.3-34.4-10.3h-.3v1.5c-.5 5.7 3 11.5 10.6 15.9s18 6.5 28.1 6.1v.1h1.5c.1-.1.1-.2.1-.2z"/></g><g class="st2"><ellipse transform="matrix(.00541 -1 1 .00541 -229.407 753.279)" class="st3" cx="264" cy="492" rx="20.8" ry="36.1"/><ellipse transform="matrix(.00541 -1 1 .00541 -220.38 755.72)" class="st4" cx="269.7" cy="488.6" rx="8.3" ry="14.3"/><path class="st4" d="M268.1 512.7c0-4.9-2-9.7-5.6-13.1-10.4-10.1-31.5-10.3-34.4-10.3h-.3v1.5c-.5 5.7 3 11.5 10.6 15.9 7.7 4.4 18 6.5 28.1 6.1v.1h1.5l.1-.2z"/></g><path class="st1" d="M562.5 359.7l-1.5-.2.2-1.3 1.5.2-.2 1.3zm1.1-9.2l-1.5-.2 1.5-11.9 1.5.2-1.5 11.9zM374.5 321.4h-12v-1.5h12v1.5zm-20 0h-12v-1.5h12v1.5zm-20 0h-12v-1.5h12v1.5zm-20 0h-12v-1.5h12v1.5zm-20 0h-6.2v-1.5h6.3l-.1 1.5zM374.5 491.5h-12V490h12v1.5zm-20 0h-12V490h12v1.5zm-20 0h-12V490h12v1.5zm-20 0h-12V490h12v1.5zM527.6 411.3h-12v-1.5h12v1.5zm-20 0h-12v-1.5h12v1.5zm-20 0h-12v-1.5h12v1.5zm-20 0h-12v-1.5h12v1.5zm-20 0h-12v-1.5h12v1.5zm-20 0h-12v-1.5h12v1.5zm-20 0h-12v-1.5h12v1.5zm-20 0h-12v-1.5h12v1.5zm-20 0h-12v-1.5h12v1.5zm-20 0h-12v-1.5h12v1.5zm-20 0h-12v-1.5h12v1.5zM409.5 442H408v-12h1.5v12zm0-20H408v-12h1.5v12zm0-20H408v-12h1.5v12zm0-20H408v-12h1.5v12zm0-20H408v-12h1.5v12zM533.2 321.4h-12v-1.5h12v1.5zm-20 0h-12v-1.5h12v1.5zm-20 0h-12v-1.5h12v1.5zm-20 0h-12v-1.5h12v1.5zm-20 0h-10.3v-1.5h10.3v1.5z"/><path class="st5" d="M272 448.3l-34.2-19.7v-39.3l34.2 19.8z"/><path class="st6" d="M306.2 389.3L272 409.1l-34-19.7 34.2-19.7z"/><path class="st7" d="M306.2 428.6L272 448.3v-39.2l34.2-19.8z"/><path class="st5" d="M408.5 526.5l-34.2-19.7v-39.2l34.2 19.7z"/><path class="st6" d="M442.6 467.6l-34.1 19.7-34-19.6 34.2-19.8z"/><path class="st7" d="M442.6 506.8l-34.1 19.7v-39.2l34.1-19.7z"/><path class="st1" d="M560.7 470.5l-1.5-.1.8-12 1.5.1-.8 12zm1.3-20l-1.5-.1.7-11.8 1.5.1-.7 11.8z"/><path class="st8" d="M421 305.9c-1.2 0-2.2-1-2.2-2.3 0-.8.4-1.5 1.1-1.9l264.4-155.1c.5-.3 1.1-.4 1.7-.2 1.2.3 1.9 1.6 1.6 2.8-.2.6-.5 1.1-1.1 1.4l-264.3 155c-.4.2-.8.3-1.2.3zm.4-1.6zM685 147.9z"/><path class="st5" d="M408.5 349.7L374.4 330v-39.3l34.1 19.8z"/><path class="st6" d="M442.7 290.7l-34.2 19.8-33.9-19.6 34.2-19.8z"/><path class="st7" d="M442.7 330l-34.2 19.7v-39.2l34.2-19.8z"/><path class="st8" d="M703.9 160.9c-.4 0-.8-.1-1.1-.3l-17-9.8c-.5-.3-.9-.8-1-1.4-.3-1.2.4-2.4 1.6-2.8.6-.2 1.2-.1 1.7.2l17 9.8c.5.3.9.8 1 1.4.3 1.2-.4 2.4-1.6 2.8-.2.1-.4.1-.6.1zm.4-2.9zM601.3 379.2c-1.2 0-2.3-1-2.3-2.2 0-.8.4-1.6 1.1-2l238.7-139.7c1.1-.7 2.4-.3 3.1.7.7 1.1.3 2.4-.7 3.1l-.1.1-238.7 139.7c-.3.2-.7.3-1.1.3zm.4-1.6zm237.9-141z"/><path class="st8" d="M839.1 238.5c-.4 0-.8-.1-1.1-.3l-31.1-18c-1.1-.6-1.4-2-.8-3.1s2-1.4 3.1-.8l31.1 18.1c.5.3.9.8 1.1 1.4.2.6.1 1.2-.2 1.7-.6.6-1.3 1-2.1 1zm-30.7-20.9z"/><defs><path id="SVGID_1_" d="M641.6 202.3l90.6 50.1 110.3-62.1-90.2-50.7z"/></defs><clipPath id="SVGID_2_"><use xlink:href="#SVGID_1_" overflow="visible"/></clipPath><g clip-path="url(#SVGID_2_)"><defs><path id="SVGID_3_" d="M-418.2-1425.4h2452.7v14697.3H-418.2z"/></defs><clipPath id="SVGID_4_"><use xlink:href="#SVGID_3_" overflow="visible"/></clipPath><g clip-path="url(#SVGID_4_)"><path fill="#00a696" d="M634.3 132.3h215.5v127.4H634.3z"/></g></g><path d="M734 240.4l-.1-.1-53.1-30.8L797.3 142l.1.1 53.1 30.8-.4.2L734 240.4zm-10-6.4l10 5.8 10-5.8-10-5.8-10 5.8zm10.5-6.1l10 5.8 10.1-5.8-10-5.8-10.1 5.8zm-21.1 0l10.1 5.8 10-5.8-10.1-5.8-10 5.8zm10.6-6.1l10 5.8 10.1-5.8-10-5.8-10.1 5.8zm21.1 0l10 5.8 10.1-5.8-10-5.8-10.1 5.8zm-42.2 0l10 5.8 10-5.8-10-5.8-10 5.8zm31.6-6.1l10.1 5.8 10.1-5.8-10.1-5.8-10.1 5.8zm-21.1 0l10 5.8 10.1-5.8-10-5.8-10.1 5.8zm-21.1 0l10.1 5.8 10-5.8-10.1-5.8-10 5.8zm63.3 0l10 5.8 52.3-30.3-10-5.8-52.3 30.3zm-52.7-6.1l10.1 5.8 10.1-5.8-10.1-5.8-10.1 5.8zm42.2 0l10.1 5.8 10.1-5.8-10.1-5.8-10.1 5.8zm-21.1 0l10 5.8 10.1-5.8-10-5.8-10.1 5.8zm-42.2 0l10 5.8 10-5.8-10-5.8-10 5.8zm31.6-6.1l10.1 5.8 10.1-5.8-10.1-5.8-10.1 5.8zm-21.1 0l10 5.8 10.1-5.8-10-5.8-10.1 5.8zm63.3 0l10.1 5.8 10.1-5.8-10.1-5.8-10.1 5.8zm-21.1 0l10 5.8 10.1-5.8-10-5.8-10.1 5.8zm-10.5-6.1l10.1 5.8 10-5.8-10-5.8-10.1 5.8zm-21.1 0l10 5.8 10.1-5.8-10-5.8-10.1 5.8zm63.3 0l10.1 5.8 10.1-5.8-10.1-5.8-10.1 5.8zm-21.1 0l10 5.8 10.1-5.8-10-5.8-10.1 5.8zm-10.6-6.2l10 5.8 10.1-5.8-10.1-5.8-10 5.8zm-21.1 0l10 5.8 10.1-5.8-10-5.8-10.1 5.8zm63.3 0l10.1 5.8 10.1-5.8-10.1-5.8-10.1 5.8zm-21 0l10 5.8 10.1-5.8-10-5.8-10.1 5.8zm-10.6-6.1l10.1 5.8 10.1-5.8-10.1-5.8-10.1 5.8zm-21.1 0l10 5.8 10.1-5.8-10-5.8-10.1 5.8zm63.3 0l10 5.8 10.1-5.8-10-5.8-10.1 5.8zm-21.1 0l10 5.8 10.1-5.8-10-5.8-10.1 5.8zm42.2 0l10 5.8 10.1-5.8-10-5.8-10.1 5.8zm-52.7-6.1l10.1 5.8 10.1-5.8-10.1-5.8-10.1 5.8zm-21.1 0l10 5.8 10.1-5.8-10-5.8-10.1 5.8zm63.3 0l10.1 5.8 10-5.8-10.1-5.8-10 5.8zm-21.1 0l10 5.8 10.1-5.8-10-5.8-10.1 5.8zm42.2 0l10 5.8 20.5-11.9-10-5.8L819 179zm-52.8-6.1l10.1 5.8 10.1-5.8-10.1-5.8-10.1 5.8zm-21.1 0l10 5.8 10.1-5.8-10-5.8-10.1 5.8zm63.3 0l10.1 5.8 10.1-5.8-10.1-5.8-10.1 5.8zm-21.1 0l10 5.8 10.1-5.8-10-5.8-10.1 5.8zm-10.5-6.1l10.1 5.8 10.1-5.8-10.1-5.8-10.1 5.8zm-21.1 0l10 5.8 10.1-5.8-10-5.8-10.1 5.8zm63.3 0l10.1 5.8 10-5.8L829 161l-10 5.8zm-21.1 0l10 5.8 10.1-5.8-10-5.8-10.1 5.8zm-10.6-6.1l10 5.8 10.1-5.8-10.1-5.8-10 5.8zm-21.1 0l10 5.8 10.1-5.8-10-5.8-10.1 5.8zm42.2 0l10 5.8 10-5.8-10-5.8-10 5.8zm-10.5-6.2l10.1 5.8 10-5.8-10.1-5.8-10 5.8zm-21.1 0l10 5.8 10.1-5.8-10-5.8-10.1 5.8zm10.6-6.1l10 5.8 10-5.8-10-5.8-10 5.8z" fill="#007068"/><defs><path id="SVGID_5_" d="M733.6 126.4l119.8-65.2v125.7l-119.8 65.2z"/></defs><use xlink:href="#SVGID_5_" overflow="visible" fill="#eaeaea"/><clipPath id="SVGID_6_"><use xlink:href="#SVGID_5_" overflow="visible"/></clipPath><g clip-path="url(#SVGID_6_)"><defs><path id="SVGID_7_" d="M-418.2-1425.4h2452.7v14697.3H-418.2z"/></defs><clipPath id="SVGID_8_"><use xlink:href="#SVGID_7_" overflow="visible"/></clipPath></g><defs><path id="SVGID_9_" d="M795 180.7l-.3.1v2h.3l.2-.3v-2l-.2.2"/></defs><clipPath id="SVGID_10_"><use xlink:href="#SVGID_9_" overflow="visible"/></clipPath><g clip-path="url(#SVGID_10_)"><defs><path id="SVGID_11_" d="M776 132.8h39.5V184H776z"/></defs><clipPath id="SVGID_12_"><use xlink:href="#SVGID_11_" overflow="visible"/></clipPath><g clip-path="url(#SVGID_12_)"><path class="st16" d="M787.4 173.2h15.1v16.9h-15.1z"/></g></g><defs><path id="SVGID_13_" d="M794.7 177.2v-13.7c-.8.5-1.7.6-2.6.3l-3.5 6 5.8 7.6c.1 0 .2-.1.3-.2"/></defs><clipPath id="SVGID_14_"><use xlink:href="#SVGID_13_" overflow="visible"/></clipPath><g clip-path="url(#SVGID_14_)"><defs><path id="SVGID_15_" d="M776 132.8h39.5V184H776z"/></defs><clipPath id="SVGID_16_"><use xlink:href="#SVGID_15_" overflow="visible"/></clipPath><g clip-path="url(#SVGID_16_)"><path class="st16" d="M781.3 156.3H802v28.6h-20.7z"/></g></g><defs><path id="SVGID_17_" d="M809.9 152.4h4.1v7.1h-4.1z"/></defs><clipPath id="SVGID_18_"><use xlink:href="#SVGID_17_" overflow="visible"/></clipPath><g clip-path="url(#SVGID_18_)"><defs><path id="SVGID_19_" d="M776 132.8h39.5V184H776z"/></defs><clipPath id="SVGID_20_"><use xlink:href="#SVGID_19_" overflow="visible"/></clipPath><g clip-path="url(#SVGID_20_)"><defs><path id="SVGID_21_" d="M809.6 151.8h5.8v8.8h-5.8z"/></defs><clipPath id="SVGID_22_"><use xlink:href="#SVGID_21_" overflow="visible"/></clipPath><g clip-path="url(#SVGID_22_)"><defs><path id="SVGID_23_" d="M810 158.9c0 .2 0 .4-.1.6h4v-7l-4.1 5.8c.2.2.2.4.2.6"/></defs><clipPath id="SVGID_24_"><use xlink:href="#SVGID_23_" overflow="visible"/></clipPath><g clip-path="url(#SVGID_24_)"><defs><path id="SVGID_25_" d="M809.6 151.8h5.8v8.8h-5.8z"/></defs><clipPath id="SVGID_26_"><use xlink:href="#SVGID_25_" overflow="visible"/></clipPath><g clip-path="url(#SVGID_26_)"><path class="st16" d="M802.6 145.1h18.7v21.7h-18.7z"/></g></g></g></g></g><defs><path id="SVGID_27_" d="M809.2 147.3l-3.3 2.8 2.4 8 .2-.1 1.6-10.2c-.4.1-.8-.1-.9-.5"/></defs><clipPath id="SVGID_28_"><use xlink:href="#SVGID_27_" overflow="visible"/></clipPath><g clip-path="url(#SVGID_28_)"><defs><path id="SVGID_29_" d="M776 132.8h39.5V184H776z"/></defs><clipPath id="SVGID_30_"><use xlink:href="#SVGID_29_" overflow="visible"/></clipPath><g clip-path="url(#SVGID_30_)"><path class="st16" d="M798.6 140h18.8v25.4h-18.8z"/></g></g><defs><path id="SVGID_31_" d="M799.4 155.7v.3c0 1.2-.4 2.4-.9 3.5h8.6l.6-.9-2.3-8-6 5.1z"/></defs><clipPath id="SVGID_32_"><use xlink:href="#SVGID_31_" overflow="visible"/></clipPath><g clip-path="url(#SVGID_32_)"><defs><path id="SVGID_33_" d="M776 132.8h39.5V184H776z"/></defs><clipPath id="SVGID_34_"><use xlink:href="#SVGID_33_" overflow="visible"/></clipPath><g clip-path="url(#SVGID_34_)"><path class="st16" d="M791.2 143.3H815v23.6h-23.8z"/></g></g><defs><path id="SVGID_35_" d="M805.8 149.7l3.3-2.8v-.2c0-.3.1-.7.2-1l-4.5-1.4c-.1.2-.3.4-.4.5l1.4 4.9z"/></defs><clipPath id="SVGID_36_"><use xlink:href="#SVGID_35_" overflow="visible"/></clipPath><g clip-path="url(#SVGID_36_)"><defs><path id="SVGID_37_" d="M776 132.8h39.5V184H776z"/></defs><clipPath id="SVGID_38_"><use xlink:href="#SVGID_37_" overflow="visible"/></clipPath><g clip-path="url(#SVGID_38_)"><path class="st16" d="M797 137h19.5v20H797z"/></g></g><defs><path id="SVGID_39_" d="M804.5 141.6l3.6-6.3-5.4-.4.9 6.9c.3-.2.6-.3.9-.2"/></defs><clipPath id="SVGID_40_"><use xlink:href="#SVGID_39_" overflow="visible"/></clipPath><g clip-path="url(#SVGID_40_)"><defs><path id="SVGID_41_" d="M776 132.8h39.5V184H776z"/></defs><clipPath id="SVGID_42_"><use xlink:href="#SVGID_41_" overflow="visible"/></clipPath><g clip-path="url(#SVGID_42_)"><path class="st16" d="M795.5 127.6h20v21.5h-20z"/></g></g><defs><path id="SVGID_43_" d="M790.6 159.6c.4-1.7 1.3-3.3 2.5-4.6l-1.2-2.8-10 7.1c0 .1 0 .2-.1.3h8.8z"/></defs><clipPath id="SVGID_44_"><use xlink:href="#SVGID_43_" overflow="visible"/></clipPath><g clip-path="url(#SVGID_44_)"><defs><path id="SVGID_45_" d="M776 132.8h39.5V184H776z"/></defs><clipPath id="SVGID_46_"><use xlink:href="#SVGID_45_" overflow="visible"/></clipPath><g clip-path="url(#SVGID_46_)"><path class="st16" d="M774.5 144.9h25.9V167h-25.9z"/></g></g><defs><path id="SVGID_47_" d="M795.2 134.2h7.9v10.1h-7.9z"/></defs><clipPath id="SVGID_48_"><use xlink:href="#SVGID_47_" overflow="visible"/></clipPath><g clip-path="url(#SVGID_48_)"><defs><path id="SVGID_49_" d="M776 132.8h39.5V184H776z"/></defs><clipPath id="SVGID_50_"><use xlink:href="#SVGID_49_" overflow="visible"/></clipPath><g clip-path="url(#SVGID_50_)"><defs><path id="SVGID_51_" d="M795 132.8h8.8v11.7H795z"/></defs><clipPath id="SVGID_52_"><use xlink:href="#SVGID_51_" overflow="visible"/></clipPath><g clip-path="url(#SVGID_52_)"><defs><path id="SVGID_53_" d="M802.3 143.4c.2-.5.5-.9.9-1.3l-1-7.3-7-.6v10.1l7.1-.9z"/></defs><clipPath id="SVGID_54_"><use xlink:href="#SVGID_53_" overflow="visible"/></clipPath><g clip-path="url(#SVGID_54_)"><defs><path id="SVGID_55_" d="M795 134.2h8.8v10.2H795z"/></defs><clipPath id="SVGID_56_"><use xlink:href="#SVGID_55_" overflow="visible"/></clipPath><g clip-path="url(#SVGID_56_)"><path class="st16" d="M787.9 126.9h22.5v24.7h-22.5z"/></g></g></g></g></g><defs><path id="SVGID_57_" d="M804.9 141.8c.2.2.4.6.3.9 0 .3-.1.7-.2 1l4.5 1.4c.3-.4.6-.8 1.1-1.1.7-.4 1.2-.2 1.5.2l1.9-1.6v-6.9l-5.3-.4-3.8 6.5z"/></defs><clipPath id="SVGID_58_"><use xlink:href="#SVGID_57_" overflow="visible"/></clipPath><g clip-path="url(#SVGID_58_)"><defs><path id="SVGID_59_" d="M776 132.8h39.5V184H776z"/></defs><clipPath id="SVGID_60_"><use xlink:href="#SVGID_59_" overflow="visible"/></clipPath><g clip-path="url(#SVGID_60_)"><path class="st16" d="M797.6 128h23.7v24.3h-23.7z"/></g></g><defs><path id="SVGID_61_" d="M809 143.2h5v14.7h-5z"/></defs><clipPath id="SVGID_62_"><use xlink:href="#SVGID_61_" overflow="visible"/></clipPath><g clip-path="url(#SVGID_62_)"><defs><path id="SVGID_63_" d="M776 132.8h39.5V184H776z"/></defs><clipPath id="SVGID_64_"><use xlink:href="#SVGID_63_" overflow="visible"/></clipPath><g clip-path="url(#SVGID_64_)"><defs><path id="SVGID_65_" d="M808.1 143h7.3v16.1h-7.3z"/></defs><clipPath id="SVGID_66_"><use xlink:href="#SVGID_65_" overflow="visible"/></clipPath><g clip-path="url(#SVGID_66_)"><defs><path id="SVGID_67_" d="M812.3 144.9c-.1 1.1-.7 2.1-1.6 2.7l-1.6 10.2c.2 0 .4 0 .6.1l4.4-6.2v-8.4l-1.7 1.5c-.1 0-.1 0-.1.1"/></defs><clipPath id="SVGID_68_"><use xlink:href="#SVGID_67_" overflow="visible"/></clipPath><g clip-path="url(#SVGID_68_)"><defs><path id="SVGID_69_" d="M808.1 143h7.3v16.1h-7.3z"/></defs><clipPath id="SVGID_70_"><use xlink:href="#SVGID_69_" overflow="visible"/></clipPath><g clip-path="url(#SVGID_70_)"><path class="st16" d="M801.7 135.9h19.6v29.3h-19.6z"/></g></g></g></g></g><defs><path id="SVGID_71_" d="M795.3 163.3V177c.3-.1.6-.1.8 0l4-5.7-3.8-8.8c-.3.3-.7.6-1 .8"/></defs><clipPath id="SVGID_72_"><use xlink:href="#SVGID_71_" overflow="visible"/></clipPath><g clip-path="url(#SVGID_72_)"><defs><path id="SVGID_73_" d="M776 132.8h39.5V184H776z"/></defs><clipPath id="SVGID_74_"><use xlink:href="#SVGID_73_" overflow="visible"/></clipPath><g clip-path="url(#SVGID_74_)"><path class="st16" d="M787.9 155.2h19.5v29.1h-19.5z"/></g></g><g><defs><path id="SVGID_75_" d="M788.3 170.6l-2.7 4.6 8.3 3z"/></defs><clipPath id="SVGID_76_"><use xlink:href="#SVGID_75_" overflow="visible"/></clipPath><g clip-path="url(#SVGID_76_)"><defs><path id="SVGID_77_" d="M776 132.8h39.5V184H776z"/></defs><clipPath id="SVGID_78_"><use xlink:href="#SVGID_77_" overflow="visible"/></clipPath><g clip-path="url(#SVGID_78_)"><path class="st16" d="M778.2 163.3h23v22.2h-23z"/></g></g></g><g><defs><path id="SVGID_79_" d="M802 144.4v-.3l-6.8.9v4.3l6.8-4.9z"/></defs><clipPath id="SVGID_80_"><use xlink:href="#SVGID_79_" overflow="visible"/></clipPath><g clip-path="url(#SVGID_80_)"><defs><path id="SVGID_81_" d="M776 132.8h39.5V184H776z"/></defs><clipPath id="SVGID_82_"><use xlink:href="#SVGID_81_" overflow="visible"/></clipPath><g clip-path="url(#SVGID_82_)"><path class="st16" d="M787.9 136.8h21.4v19.8h-21.4z"/></g></g></g><g><defs><path id="SVGID_83_" d="M803.8 145.2l-.2.1c-.3.2-.6.2-.9.2l-4.5 7.8c.6.4 1 1.1 1.1 1.8l5.9-5-1.4-4.9z"/></defs><clipPath id="SVGID_84_"><use xlink:href="#SVGID_83_" overflow="visible"/></clipPath><g clip-path="url(#SVGID_84_)"><defs><path id="SVGID_85_" d="M776 132.8h39.5V184H776z"/></defs><clipPath id="SVGID_86_"><use xlink:href="#SVGID_85_" overflow="visible"/></clipPath><g clip-path="url(#SVGID_86_)"><path class="st16" d="M790.9 137.9h21.6v24.5h-21.6z"/></g></g></g><g><defs><path id="SVGID_87_" d="M785.8 167.4l-5.5 4.7v.2c0 .3-.1.7-.2 1l5 1.8 2.8-4.8-2.1-2.9z"/></defs><clipPath id="SVGID_88_"><use xlink:href="#SVGID_87_" overflow="visible"/></clipPath><g clip-path="url(#SVGID_88_)"><defs><path id="SVGID_89_" d="M776 132.8h39.5V184H776z"/></defs><clipPath id="SVGID_90_"><use xlink:href="#SVGID_89_" overflow="visible"/></clipPath><g clip-path="url(#SVGID_90_)"><path class="st16" d="M772.8 160.1h22.4v22.3h-22.4z"/></g></g></g><g><defs><path id="SVGID_91_" d="M806.9 160.1l-8.7.1c-.4.7-.8 1.3-1.4 1.8l3.7 8.7 6.5-9.2c-.2-.2-.2-.5-.2-.8 0-.2 0-.4.1-.6"/></defs><clipPath id="SVGID_92_"><use xlink:href="#SVGID_91_" overflow="visible"/></clipPath><g clip-path="url(#SVGID_92_)"><defs><path id="SVGID_93_" d="M776 132.8h39.5V184H776z"/></defs><clipPath id="SVGID_94_"><use xlink:href="#SVGID_93_" overflow="visible"/></clipPath><g clip-path="url(#SVGID_94_)"><path class="st16" d="M789.5 152.8h24.8V178h-24.8z"/></g></g></g><g><defs><path id="SVGID_95_" d="M790.7 144.6v.4l4.1-.5v-9.9l-2.6 3.1-2.1 5.9c.4.1.7.5.6 1"/></defs><clipPath id="SVGID_96_"><use xlink:href="#SVGID_95_" overflow="visible"/></clipPath><g clip-path="url(#SVGID_96_)"><defs><path id="SVGID_97_" d="M776 132.8h39.5V184H776z"/></defs><clipPath id="SVGID_98_"><use xlink:href="#SVGID_97_" overflow="visible"/></clipPath><g clip-path="url(#SVGID_98_)"><path class="st16" d="M782.7 127.2H802v25h-19.3z"/></g></g></g><g><defs><path id="SVGID_99_" d="M790.1 146.2l2.2 5.1 2.4-1.7V145l-4.2.6c-.1.2-.3.4-.4.6"/></defs><clipPath id="SVGID_100_"><use xlink:href="#SVGID_99_" overflow="visible"/></clipPath><g clip-path="url(#SVGID_100_)"><defs><path id="SVGID_101_" d="M776 132.8h39.5V184H776z"/></defs><clipPath id="SVGID_102_"><use xlink:href="#SVGID_101_" overflow="visible"/></clipPath><g clip-path="url(#SVGID_102_)"><path class="st16" d="M782.8 137.7H802v20.9h-19.2z"/></g></g></g><g><defs><path id="SVGID_103_" d="M791.7 151.7l-2.1-4.9c-.2.2-.4.3-.6.4-.3.2-.6.2-.9.2l-6.6 10.6c.2.2.3.4.3.6l9.9-6.9z"/></defs><clipPath id="SVGID_104_"><use xlink:href="#SVGID_103_" overflow="visible"/></clipPath><g clip-path="url(#SVGID_104_)"><defs><path id="SVGID_105_" d="M776 132.8h39.5V184H776z"/></defs><clipPath id="SVGID_106_"><use xlink:href="#SVGID_105_" overflow="visible"/></clipPath><g clip-path="url(#SVGID_106_)"><path class="st16" d="M774.3 139.5h24.8V166h-24.8z"/></g></g></g><g><defs><path id="SVGID_107_" d="M789.1 143.7c.1-.1.3-.1.5-.2l1.8-4.9-3 3.5.7 1.6"/></defs><clipPath id="SVGID_108_"><use xlink:href="#SVGID_107_" overflow="visible"/></clipPath><g clip-path="url(#SVGID_108_)"><defs><path id="SVGID_109_" d="M776 132.8h39.5V184H776z"/></defs><clipPath id="SVGID_110_"><use xlink:href="#SVGID_109_" overflow="visible"/></clipPath><g clip-path="url(#SVGID_110_)"><path class="st16" d="M781 131.3h17.6V151H781z"/></g></g></g><g><defs><path id="SVGID_111_" d="M780.2 171.6l5.3-4.6-4.5-5.9c-.2.2-.4.4-.7.6h-.1l-1 9.4c.4-.1.8 0 1 .5"/></defs><clipPath id="SVGID_112_"><use xlink:href="#SVGID_111_" overflow="visible"/></clipPath><g clip-path="url(#SVGID_112_)"><defs><path id="SVGID_113_" d="M776 132.8h39.5V184H776z"/></defs><clipPath id="SVGID_114_"><use xlink:href="#SVGID_113_" overflow="visible"/></clipPath><g clip-path="url(#SVGID_114_)"><path class="st16" d="M771.9 153.8h20.9v25h-20.9z"/></g></g></g><g><defs><path id="SVGID_115_" d="M795.3 153.4c.8-.5 1.7-.6 2.6-.3l4.5-7.8c-.1-.1-.2-.2-.2-.4l-6.9 4.9v3.6z"/></defs><clipPath id="SVGID_116_"><use xlink:href="#SVGID_115_" overflow="visible"/></clipPath><g clip-path="url(#SVGID_116_)"><defs><path id="SVGID_117_" d="M776 132.8h39.5V184H776z"/></defs><clipPath id="SVGID_118_"><use xlink:href="#SVGID_117_" overflow="visible"/></clipPath><g clip-path="url(#SVGID_118_)"><path class="st16" d="M787.9 137.6h21.7v23.1h-21.7z"/></g></g></g><g><defs><path id="SVGID_119_" d="M791.7 163.7c-.3-.2-.6-.5-.8-.8l-4.7 4 2 2.6 3.5-5.8z"/></defs><clipPath id="SVGID_120_"><use xlink:href="#SVGID_119_" overflow="visible"/></clipPath><g clip-path="url(#SVGID_120_)"><defs><path id="SVGID_121_" d="M776 132.8h39.5V184H776z"/></defs><clipPath id="SVGID_122_"><use xlink:href="#SVGID_121_" overflow="visible"/></clipPath><g clip-path="url(#SVGID_122_)"><path class="st16" d="M779 155.6h20v21.2h-20z"/></g></g></g><g><defs><path id="SVGID_123_" d="M778.7 160.8c0-.2 0-.3.1-.5H776v6.1l3-4.9c-.2-.2-.3-.4-.3-.7"/></defs><clipPath id="SVGID_124_"><use xlink:href="#SVGID_123_" overflow="visible"/></clipPath><g clip-path="url(#SVGID_124_)"><defs><path id="SVGID_125_" d="M776 132.8h39.5V184H776z"/></defs><clipPath id="SVGID_126_"><use xlink:href="#SVGID_125_" overflow="visible"/></clipPath><g clip-path="url(#SVGID_126_)"><path class="st16" d="M768.7 153h17.6v20.8h-17.6z"/></g></g></g><g><defs><path id="SVGID_127_" d="M790.7 162.5c-.2-.5-.3-1-.3-1.5v-.8l-8.9.1c0 .1-.1.2-.2.3l4.6 6 4.8-4.1z"/></defs><clipPath id="SVGID_128_"><use xlink:href="#SVGID_127_" overflow="visible"/></clipPath><g clip-path="url(#SVGID_128_)"><defs><path id="SVGID_129_" d="M776 132.8h39.5V184H776z"/></defs><clipPath id="SVGID_130_"><use xlink:href="#SVGID_129_" overflow="visible"/></clipPath><g clip-path="url(#SVGID_130_)"><path class="st16" d="M774.1 152.9H798v20.9h-23.9z"/></g></g></g><g><defs><path id="SVGID_131_" d="M779.8 173.9c-.3.4-.6.8-1.1 1-.7.4-1.2.2-1.5-.2l-1.3 1.1v5.5l5.3.4 3.5-6-4.9-1.8z"/></defs><clipPath id="SVGID_132_"><use xlink:href="#SVGID_131_" overflow="visible"/></clipPath><g clip-path="url(#SVGID_132_)"><defs><path id="SVGID_133_" d="M776 132.8h39.5V184H776z"/></defs><clipPath id="SVGID_134_"><use xlink:href="#SVGID_133_" overflow="visible"/></clipPath><g clip-path="url(#SVGID_134_)"><path class="st16" d="M768.7 166.6h23.5V189h-23.5z"/></g></g></g><g><defs><path id="SVGID_135_" d="M788.5 144.1l-.6-1.4-2.5 2.9 2.3-.3c.2-.4.4-.8.8-1.2"/></defs><clipPath id="SVGID_136_"><use xlink:href="#SVGID_135_" overflow="visible"/></clipPath><g clip-path="url(#SVGID_136_)"><defs><path id="SVGID_137_" d="M776 132.8h39.5V184H776z"/></defs><clipPath id="SVGID_138_"><use xlink:href="#SVGID_137_" overflow="visible"/></clipPath><g clip-path="url(#SVGID_138_)"><path class="st16" d="M778.1 135.4h17.7V153h-17.7z"/></g></g></g><g><defs><path id="SVGID_139_" d="M777.1 174c.1-1.1.7-2.1 1.6-2.6l1.1-9.5c-.1 0-.3 0-.4-.1l-3.3 5.4v7.9l1.2-1c-.2 0-.2 0-.2-.1"/></defs><clipPath id="SVGID_140_"><use xlink:href="#SVGID_139_" overflow="visible"/></clipPath><g clip-path="url(#SVGID_140_)"><defs><path id="SVGID_141_" d="M776 132.8h39.5V184H776z"/></defs><clipPath id="SVGID_142_"><use xlink:href="#SVGID_141_" overflow="visible"/></clipPath><g clip-path="url(#SVGID_142_)"><path class="st16" d="M768.7 154.5h18.4v28h-18.4z"/></g></g></g><g><defs><path id="SVGID_143_" d="M796.4 177.2c.1.2.2.5.2.7-.1 1-.6 1.9-1.3 2.5v2l6.4-7.6-1.3-3.1-4 5.5z"/></defs><clipPath id="SVGID_144_"><use xlink:href="#SVGID_143_" overflow="visible"/></clipPath><g clip-path="url(#SVGID_144_)"><defs><path id="SVGID_145_" d="M776 132.8h39.5V184H776z"/></defs><clipPath id="SVGID_146_"><use xlink:href="#SVGID_145_" overflow="visible"/></clipPath><g clip-path="url(#SVGID_146_)"><path class="st16" d="M787.9 164.5h21v25.3h-21z"/></g></g></g><g><defs><path id="SVGID_147_" d="M793.6 154.5c.3-.3.7-.6 1.1-.8v-3.5l-2.2 1.6 1.1 2.7z"/></defs><clipPath id="SVGID_148_"><use xlink:href="#SVGID_147_" overflow="visible"/></clipPath><g clip-path="url(#SVGID_148_)"><defs><path id="SVGID_149_" d="M776 132.8h39.5V184H776z"/></defs><clipPath id="SVGID_150_"><use xlink:href="#SVGID_149_" overflow="visible"/></clipPath><g clip-path="url(#SVGID_150_)"><path class="st16" d="M785.2 142.9h16.9v18.9h-16.9z"/></g></g></g><g><defs><path id="SVGID_151_" d="M776 146h11.8v13.7H776z"/></defs><clipPath id="SVGID_152_"><use xlink:href="#SVGID_151_" overflow="visible"/></clipPath><g clip-path="url(#SVGID_152_)"><defs><path id="SVGID_153_" d="M776 132.8h39.5V184H776z"/></defs><clipPath id="SVGID_154_"><use xlink:href="#SVGID_153_" overflow="visible"/></clipPath><g clip-path="url(#SVGID_154_)"><defs><path id="SVGID_155_" d="M774.5 145.9h14.6v14.6h-14.6z"/></defs><clipPath id="SVGID_156_"><use xlink:href="#SVGID_155_" overflow="visible"/></clipPath><g clip-path="url(#SVGID_156_)"><defs><path id="SVGID_157_" d="M780.3 158.1c.3-.2.6-.2.9-.2l6.6-10.7c-.2-.2-.3-.5-.3-.9v-.4l-2.7.4-8.9 10.6v2.8h3c.3-.7.8-1.2 1.4-1.6"/></defs><clipPath id="SVGID_158_"><use xlink:href="#SVGID_157_" overflow="visible"/></clipPath><g clip-path="url(#SVGID_158_)"><defs><path id="SVGID_159_" d="M776 145.9h13.2v14.6H776z"/></defs><clipPath id="SVGID_160_"><use xlink:href="#SVGID_159_" overflow="visible"/></clipPath><g clip-path="url(#SVGID_160_)"><path class="st16" d="M768.7 138.7h26.4V167h-26.4z"/></g></g></g></g></g></g><g><defs><path id="SVGID_161_" d="M808.4 161.6c-.3.2-.7.2-1 .1l-6.7 9.4 1.3 3.2 11.9-14.2h-4.2c-.2.6-.7 1.1-1.3 1.5"/></defs><clipPath id="SVGID_162_"><use xlink:href="#SVGID_161_" overflow="visible"/></clipPath><g clip-path="url(#SVGID_162_)"><defs><path id="SVGID_163_" d="M776 132.8h39.5V184H776z"/></defs><clipPath id="SVGID_164_"><use xlink:href="#SVGID_163_" overflow="visible"/></clipPath><g clip-path="url(#SVGID_164_)"><path class="st16" d="M793.4 152.8h27.9v28.8h-27.9z"/></g></g></g><g><defs><path id="SVGID_165_" d="M793.4 179.8c0-.3.1-.7.2-1l-8.4-3-3.4 5.9 12.9 1.1v-2c-.8.2-1.3-.2-1.3-1"/></defs><clipPath id="SVGID_166_"><use xlink:href="#SVGID_165_" overflow="visible"/></clipPath><g clip-path="url(#SVGID_166_)"><defs><path id="SVGID_167_" d="M776 132.8h39.5V184H776z"/></defs><clipPath id="SVGID_168_"><use xlink:href="#SVGID_167_" overflow="visible"/></clipPath><g clip-path="url(#SVGID_168_)"><path class="st16" d="M774.5 168.5H802v21.6h-27.5z"/></g></g></g><path class="st5" d="M561.5 438.2l-34.2-19.7v-39.3l34.2 19.8z"/><path class="st6" d="M595.7 379.2L561.5 399l-34-19.7 34.2-19.7z"/><path class="st7" d="M595.7 418.5l-34.2 19.7V399l34.2-19.8z"/><path class="st8" d="M705.7 150c-1.1 0-2.1.6-2.1 1.2v8.1h-14c-.5 0-1 .1-1.5.4-.4.2-.6.5-.6.9s.3.7.6.9c.5.2 1 .4 1.5.4h16.1c.5 0 1-.1 1.5-.4.4-.1.6-.5.6-.9v-9.3c0-.8-.9-1.3-2.1-1.3zM618.3 378c0-.6-1-1.2-2.1-1.2h-14v-8.1c0-.4-.3-.7-.6-.9-.5-.3-1-.4-1.5-.4s-1 .1-1.5.4c-.3.2-.6.5-.6.9v9.3c0 .4.3.7.6.9.5.2 1 .4 1.5.4h16.1c1.2-.1 2.1-.6 2.1-1.3z"/></g></svg>