<svg xmlns="http://www.w3.org/2000/svg" xmlns:xlink="http://www.w3.org/1999/xlink" viewBox="0 0 816 471.12"><defs><style>.cls-2{fill:#077669}.cls-3{opacity:.5}.cls-4{fill:#fff}.cls-5{fill:#5b5b5b}.cls-6{fill:#44444a}.cls-7{fill:#eaeaea}.cls-8{fill:#17171e}</style><linearGradient id="linear-gradient" x1="376.8" y1="81.46" x2="440.63" y2="81.46" gradientUnits="userSpaceOnUse"><stop offset="0" stop-color="#fc8f00"/><stop offset="1" stop-color="#f75600"/></linearGradient><linearGradient id="linear-gradient-2" x1="376.8" y1="257.33" x2="440.63" y2="257.33" xlink:href="#linear-gradient"/><linearGradient id="linear-gradient-3" x1="240.74" y1="180.54" x2="304.58" y2="180.54" xlink:href="#linear-gradient"/><linearGradient id="linear-gradient-4" x1="529.05" y1="168.54" x2="592.89" y2="168.54" xlink:href="#linear-gradient"/></defs><g id="Layer_2" data-name="Layer 2"><g id="SHADED"><path fill="#17aa9b" d="M816 235.56L408 0 0 235.56l408 235.56 408-235.56z"/><path class="cls-2" d="M267.2 298.05l-1.45-.38 3-11.61 1.45.38zm5-19.35l-1.45-.38.94-3.59 1.45.38zM309.71 215.34L309 214l10.42-5.95.75 1.3zm17.37-9.92l-.74-1.3 10.42-6 .74 1.3zm17.37-9.91l-.74-1.31 10.42-5.95.74 1.31zm17.37-9.92l-.74-1.3 10.42-5.95.74 1.3zm17.37-9.92l-.75-1.3 10.42-6 .75 1.3zM443 314.54l-.75-1.3 10.42-5.95.75 1.3zm17.36-9.91l-.74-1.31 10.38-5.95.75 1.31zm17.37-9.92l-.74-1.3 10.42-6 .74 1.3zm17.37-9.92l-.74-1.3 10.42-5.95.74 1.3zm17.37-9.91l-.74-1.31 10.42-5.95.74 1.31zM529.8 265l-.75-1.3 10.42-6 .75 1.3zM271.69 195.43l-4.09-11.28 1.41-.51 4.09 11.28zm-6.82-18.79l-4.1-11.28 1.41-.52 4.1 11.28z"/><path class="cls-2" d="M525.52 316.08l-12-.2v-1.5l12 .2zm-20-.34l-12-.21v-1.5l12 .21zm-20-.35l-12-.21v-1.5l12 .21zm-20-.35l-12-.21v-1.5l12 .21zm-20-.35l-3-.05v-1.5l3 .05zM527 225.89l-10.37-6 .76-1.3 10.37 6zm-17.28-10.07l-10.37-6 .76-1.3 10.37 6zm-17.28-10.07l-10.37-6 .76-1.3 10.37 6zm-17.28-10.07l-10.37-6 .76-1.3 10.37 6zm-17.28-10.07l-10.36-6.05.75-1.29 10.37 6zm-17.28-10.07l-10.36-6 .75-1.29 10.37 6zM374 314.66l-10.37-6 .76-1.3 10.37 6.05zm-17.28-10.07l-10.37-6 .76-1.3 10.37 6zm-17.28-10.07l-10.37-6 .76-1.3 10.37 6zm-17.28-10.07l-10.36-6 .75-1.3 10.37 6zm-17.28-10.07l-10.36-6 .75-1.3 10.37 6z"/><g class="cls-3"><ellipse class="cls-4" cx="252.1" cy="144.25" rx="36.11" ry="20.85" transform="rotate(-.31 250.972 144.843)"/><ellipse class="cls-5" cx="246.36" cy="140.93" rx="14.34" ry="8.28" transform="rotate(-.31 245.437 141.132)"/><path class="cls-5" d="M288.21 143.11v-1.62h-.29c-16.22.07-27.82 3.68-34.48 10.73-5.37 5.69-5.55 11.62-5.53 12.73v.19l1.61-.09c10 .37 20.32-1.65 28-6.09s11.09-10.15 10.62-15.84z"/></g><g class="cls-3"><ellipse class="cls-4" cx="561.47" cy="317.7" rx="36.11" ry="20.85" transform="rotate(-.31 561.012 317.57)"/><ellipse class="cls-5" cx="555.73" cy="314.39" rx="14.34" ry="8.28" transform="rotate(-.31 555.477 313.859)"/><path class="cls-5" d="M597.58 316.56v-1.62h-.29c-16.22.07-27.82 3.68-34.48 10.73-5.37 5.69-5.55 11.63-5.53 12.73v.19l1.61-.09c10 .37 20.32-1.65 28-6.09s11.09-10.15 10.62-15.84z"/></g><g class="cls-3"><ellipse class="cls-4" cx="569.28" cy="142.31" rx="20.85" ry="36.11" transform="rotate(-89.69 569.278 142.31)"/><ellipse class="cls-5" cx="575.02" cy="139" rx="8.28" ry="14.34" transform="rotate(-89.69 575.015 138.996)"/><path class="cls-5" d="M573.4 163a18 18 0 0 0-5.58-13.1c-10.38-10.12-31.53-10.34-34.37-10.32h-.3v1.5c-.51 5.71 3 11.52 10.6 15.9s18 6.47 28.08 6.08v.07h1.5z"/></g><g class="cls-3"><ellipse class="cls-4" cx="264" cy="318.65" rx="20.85" ry="36.11" transform="rotate(-89.69 263.99 318.647)"/><ellipse class="cls-5" cx="269.74" cy="315.33" rx="8.28" ry="14.34" transform="rotate(-89.69 269.732 315.328)"/><path class="cls-5" d="M268.11 339.36a18 18 0 0 0-5.58-13.09c-10.37-10.13-31.53-10.34-34.36-10.33h-.3v1.5h.05c-.51 5.7 3 11.52 10.6 15.89s18 6.47 28.08 6.09v.07h1.5s.01-.08.01-.13z"/></g><path class="cls-2" d="M562.46 186.33l-1.49-.19.17-1.3 1.48.19zm1.18-9.23l-1.49-.19 1.53-11.91 1.49.2zM374.49 148h-12v-1.5h12zm-20 0h-12v-1.5h12zm-20 0h-12v-1.5h12zm-20 0h-12v-1.5h12zm-20 0h-6.28v-1.5h6.28zM374.49 318.17h-12v-1.5h12zm-20 0h-12v-1.5h12zm-20 0h-12v-1.5h12zm-20 0h-12v-1.5h12zM527.58 238h-12v-1.5h12zm-20 0h-12v-1.5h12zm-20 0h-12v-1.5h12zm-20 0h-12v-1.5h12zm-20 0h-12v-1.5h12zm-20 0h-12v-1.5h12zm-20 0h-12v-1.5h12zm-20 0h-12v-1.5h12zm-20 0h-12v-1.5h12zm-20 0h-12v-1.5h12zm-20 0h-12v-1.5h12zM409.46 268.63H408v-12h1.5zm0-20H408v-12h1.5zm0-20H408v-12h1.5zm0-20H408v-12h1.5zm0-20H408v-12h1.5zM533.16 148h-12v-1.5h12zm-20 0h-12v-1.5h12zm-20 0h-12v-1.5h12zm-20 0h-12v-1.5h12zm-20 0h-10.28v-1.5h10.28z"/><path class="cls-6" d="M272.01 274.92l-34.18-19.73v-39.23l34.18 19.73v39.23z"/><path class="cls-7" d="M306.2 215.96l-34.19 19.73-33.97-19.61 34.19-19.74 33.97 19.62z"/><path class="cls-8" d="M306.2 255.19l-34.19 19.73v-39.23l34.19-19.73v39.23z"/><path class="cls-6" d="M408.53 176.35l-34.18-19.74v-39.23l34.18 19.74v39.23z"/><path class="cls-7" d="M442.72 117.38l-34.19 19.74-33.97-19.62 34.19-19.73 33.97 19.61z"/><path class="cls-8" d="M442.72 156.61l-34.19 19.74v-39.23l34.19-19.74v39.23z"/><path class="cls-6" d="M408.47 353.16l-34.19-19.74v-39.23l34.19 19.74v39.23z"/><path class="cls-7" d="M442.65 294.19l-34.18 19.74-33.97-19.61 34.18-19.74 33.97 19.61z"/><path class="cls-8" d="M442.65 333.42l-34.18 19.74v-39.23l34.18-19.74v39.23z"/><path class="cls-6" d="M561.47 264.82l-34.19-19.73v-39.23l34.19 19.74v39.22z"/><path class="cls-7" d="M595.65 205.86l-34.18 19.74-33.97-19.62 34.18-19.74 33.97 19.62z"/><path class="cls-8" d="M595.65 245.09l-34.18 19.73V225.6l34.18-19.74v39.23z"/><path d="M408.71 49.55a31.92 31.92 0 1 0 22.57 9.35 31.88 31.88 0 0 0-22.57-9.35z" fill="url(#linear-gradient)"/><path class="cls-4" d="M421.16 69.93l-17.45 16.53-7.24-7.65A3.11 3.11 0 1 0 392 83.1l9.39 9.79a2.94 2.94 0 0 0 2.14.92 2.86 2.86 0 0 0 2.14-.81l19.7-18.68a3.07 3.07 0 0 0 .1-4.29 3 3 0 0 0-4.29-.1z"/><path d="M408.71 225.41a31.92 31.92 0 1 0 22.57 9.35 31.92 31.92 0 0 0-22.57-9.35z" fill="url(#linear-gradient-2)"/><path class="cls-4" d="M421.16 245.8l-17.45 16.53-7.24-7.65A3.1 3.1 0 0 0 392 259l9.39 9.8a2.94 2.94 0 0 0 2.14.92 2.83 2.83 0 0 0 2.14-.82l19.7-18.67a3.07 3.07 0 0 0 .1-4.29 3 3 0 0 0-4.29-.1z"/><path d="M272.66 148.62a31.92 31.92 0 1 0 22.57 9.38 31.9 31.9 0 0 0-22.57-9.38z" fill="url(#linear-gradient-3)"/><path class="cls-4" d="M285.11 169l-17.45 16.53-7.25-7.66a3.1 3.1 0 1 0-4.48 4.29l9.38 9.8a3 3 0 0 0 2.15.91 2.85 2.85 0 0 0 2.14-.81l19.69-18.68a3 3 0 0 0 .1-4.28 2.95 2.95 0 0 0-4.28-.1z"/><path d="M561 136.62a31.92 31.92 0 1 0 22.54 9.38 31.9 31.9 0 0 0-22.54-9.38z" fill="url(#linear-gradient-4)"/><path class="cls-4" d="M573.42 157L556 173.54l-7.25-7.66a3.1 3.1 0 1 0-4.48 4.29l9.38 9.8a3 3 0 0 0 2.15.91 2.85 2.85 0 0 0 2.14-.81l19.69-18.68a3 3 0 0 0 .1-4.28 3 3 0 0 0-2.12-1 2.92 2.92 0 0 0-2.16.87z"/><path class="cls-2" d="M560.69 297.09l-1.5-.1.79-12 1.5.09zm1.31-20l-1.49-.1.71-11.79 1.49.1z"/></g></g></svg>