<svg version="1.1" id="Layer_1" xmlns="http://www.w3.org/2000/svg" x="0" y="0" width="415.3" height="415.8" xml:space="preserve"><style>.st0{fill:none;stroke:#000;stroke-width:.5;stroke-miterlimit:10;stroke-dasharray:7.63,7.63}.st1{stroke-dasharray:8.44,8.44}.st1,.st2,.st5,.st6{fill:none;stroke:#000;stroke-width:.5;stroke-miterlimit:10}.st5,.st6{stroke-dasharray:5.32,5.32}.st6{stroke-dasharray:7.76,7.76}.st8{fill:#44444a}.st9{fill:#eaeaea}.st10{fill:#17171e}.st11{fill:none;stroke:#000;stroke-width:.5;stroke-miterlimit:10;stroke-dasharray:8.2,8.2}.st12{fill:#199986}.st14{fill:#fff;stroke:#000;stroke-miterlimit:10}</style><path class="st0" d="M289.8 126.5l-.1 93.5"/><path class="st1" d="M125.6 134.3l-.1 90.8M151.2 142l-.1 90.9M178.3 157.4l-.2 90.8"/><path class="st2" d="M264.2 131.6v4"/><path class="st1" d="M264.1 144l-.1 90.9"/><path class="st2" d="M264 239.1v4M235.3 147.5v4"/><path class="st1" d="M235.2 160l-.1 90.8"/><path class="st2" d="M235.1 255v4M178.3 144.9v4M178.1 252.4v4M151.2 100.5v4"/><path fill="none" stroke="#000" stroke-width=".5" stroke-miterlimit="10" stroke-dasharray="7.5,7.5" d="M151.2 112l-.1 11.3"/><path class="st2" d="M151.1 127v4M179 83.6l-.1 4"/><path fill="none" stroke="#000" stroke-width=".5" stroke-miterlimit="10" stroke-dasharray="7.02,7.02" d="M178.9 94.6l-.1 43"/><path class="st2" d="M207.9 67.8v4"/><path class="st5" d="M207.8 77.2v7.9"/><path class="st2" d="M207.8 87.8l-.1 4M234.7 83.6v4"/><path class="st6" d="M234.7 92.9l-.1 14.4"/><path class="st2" d="M264.2 99.3v4"/><path class="st5" d="M264.2 108.6l-.1 8"/><path class="st2" d="M264.1 119.3v4M234.9 116.8l-.1 4"/><path class="st5" d="M234.8 126.1l-.1 13.7"/><path fill="#17aa9b" d="M415.3 295.9L207.7 176 0 295.9l207.7 119.9z"/><path class="st8" d="M137.4 255.7l-17.4-10v-20l17.4 10.1z"/><path class="st9" d="M154.8 225.7l-17.4 10.1-17.3-10 17.4-10.1z"/><path class="st10" d="M154.8 245.7l-17.4 10v-19.9l17.4-10.1z"/><path class="st1" d="M120 248.2v4M120 260.4v27.2M120 291.7v4"/><path class="st2" d="M154.8 248.2v4"/><path class="st11" d="M154.8 260.4v27.2"/><path class="st1" d="M154.8 291.7v4"/><path class="st8" d="M207 205.6l-17.4-10.1v-20l17.4 10.1z"/><path class="st9" d="M224.4 175.5L207 185.6l-17.3-10 17.4-10z"/><path class="st10" d="M224.4 195.5L207 205.6v-20l17.4-10.1z"/><path class="st2" d="M189.6 198.1v4"/><path class="st11" d="M189.6 210.2v27.2"/><path class="st2" d="M189.6 241.5v4"/><path class="st11" d="M206.9 220.3l-.1 27.1"/><path class="st2" d="M206.8 251.5v4M224.4 198.1v4"/><path class="st11" d="M224.4 210.2v27.2"/><path class="st2" d="M224.4 241.5v4"/><path class="st8" d="M284.8 250.6l-17.4-10.1v-19.9l17.4 10z"/><path class="st9" d="M302.2 220.6l-17.4 10-17.3-10 17.4-10z"/><path class="st10" d="M302.2 240.5l-17.4 10.1v-20l17.4-10z"/><path class="st2" d="M267.4 243.1v4"/><path class="st11" d="M267.4 255.3v27.2"/><path class="st2" d="M267.4 286.5v4"/><path class="st0" d="M302.2 243.1v4M302.2 255.3v27.2M302.2 286.5v4"/><path class="st8" d="M207 295.6l-17.4-10v-20l17.4 10.1z"/><path class="st9" d="M224.4 265.6L207 275.7l-17.3-10 17.4-10z"/><path class="st12" d="M154.8 295.6l-17.4 10.1-17.3-10 17.4-10zM224.4 245.5l-17.4 10-17.3-10 17.4-10zM302.2 290.5l-17.4 10-17.3-9.9 17.4-10.1zM224.4 335.6l-17.4 10-17.3-10 17.4-10z"/><path class="st10" d="M224.4 285.6l-17.4 10v-19.9l17.4-10.1z"/><path class="st2" d="M189.6 288.1v4"/><path class="st11" d="M189.6 300.4v27.1"/><path class="st2" d="M189.6 331.6v4M207 298.2v4"/><path class="st11" d="M207 310.4l-.1 27.1"/><path class="st2" d="M206.9 341.6v4M224.4 288.1v4"/><path class="st11" d="M224.4 300.4v27.1"/><path class="st2" d="M224.4 331.6v4M137.4 258.3v4"/><path class="st11" d="M137.4 270.5l-.1 27"/><path class="st1" d="M137.3 301.6v4"/><path class="st2" d="M284.8 253.1v4"/><path class="st11" d="M284.8 265.3l-.1 27.1"/><path class="st2" d="M284.7 296.5v4M289.8 114.8v4M151.2 129.6v4M151.1 237.1v4M125.7 121.8l-.1 4"/><path class="st1" d="M125.5 229.3v4"/><path class="st2" d="M207.2 108.3v4"/><path fill="none" stroke="#000" stroke-width=".5" stroke-miterlimit="10" stroke-dasharray="7.75,7.75" d="M207.2 120.1l-.1 65.5"/><path class="st2" d="M207.1 204.1v10M179 23.5v4"/><path class="st6" d="M178.9 35.3l-.1 40.5"/><path class="st2" d="M207.9 7.8v4"/><path class="st5" d="M207.8 17.1v14.2"/><path class="st2" d="M234.9 23.5l-.1 4"/><path class="st6" d="M234.8 35.3l-.1 40.5"/><path class="st5" d="M207.2 48.2v4M207.1 57.1v4"/><circle cx="207.5" cy="161.9" r="7.8"/><circle cx="125.6" cy="114.8" r="7.8"/><circle cx="151.2" cy="129.6" r="7.8"/><circle cx="178.2" cy="145.3" r="7.8"/><circle cx="235.3" cy="147.5" r="7.8"/><circle cx="151.2" cy="99.3" r="7.8"/><circle cx="178.9" cy="115.3" r="7.8"/><circle cx="207.1" cy="131" r="7.8"/><circle cx="264.1" cy="131.6" r="7.8"/><circle cx="179" cy="83.6" r="7.8"/><circle cx="207.2" cy="99.3" r="7.8"/><circle cx="234.8" cy="115.1" r="7.8"/><circle cx="289.7" cy="115.8" r="7.8"/><circle cx="207.8" cy="68.8" r="7.8"/><circle cx="234.7" cy="83.6" r="7.8"/><circle cx="264.2" cy="99.3" r="7.8"/><circle class="st14" cx="178.9" cy="23.7" r="7.8"/><circle class="st14" cx="207.1" cy="39.5" r="7.8"/><circle class="st14" cx="207.2" cy="7.8" r="7.8"/><circle class="st14" cx="234.8" cy="23.5" r="7.8"/></svg>