<svg version="1.1" id="Layer_1" xmlns="http://www.w3.org/2000/svg" xmlns:xlink="http://www.w3.org/1999/xlink" x="0" y="0" viewBox="0 0 628 472" xml:space="preserve"><style>.st2,.st5{fill-rule:evenodd;clip-rule:evenodd;fill:#17171e}.st5{fill:#00a696}.st10{clip-path:url(#SVGID_7_)}</style><g transform="translate(94)" id="multi-language"><path id="Fill-1" fill-rule="evenodd" clip-rule="evenodd" fill="#ebebeb" d="M220 110L-94 291l314 181 314-181z"/><path id="Stroke-29" fill-rule="evenodd" clip-rule="evenodd" fill="#d6d6d6" d="M49 327.2L192.6 409 400 290.8 256.4 209z"/><g transform="translate(96)"><g id="LAPTOP---CODE-Copy-4" transform="translate(41.124)"><g id="LAPTOP---CODE"><path id="Stroke-27" class="st2" d="M120.1.1L-92.1 121.2v186.4l212.2-121.2z"/></g><g transform="translate(0 28)"><path fill-rule="evenodd" clip-rule="evenodd" fill="#17aa9b" d="M-91.6 279l146.9 83.1L267.5 242l-146.9-83.1z"/><path id="Stroke-31" d="M103.3 187.1l65 36.8-65-36.8zm-16.4 9.3l81.6 46.2-81.6-46.2zm-16.3 9.2l81.6 46.2-81.6-46.2zm-16.4 9.2l65.2 36.9-65.2-36.9zm-16.4 9.3L103 261l-65.2-36.9zm-16.3 9.2l65.2 36.9-65.2-36.9zm-16.4 9.3l65.2 36.9-65.2-36.9zm-16.3 9.2L70.3 298l-81.5-46.2zm-16.4 9.2L54 307.3-27.6 261zm-16.4 9.3l81.6 46.2-81.6-46.2zm49 46.2l179.6-101.7L5 316.5zm-16.3-9.3l179.6-101.6-179.6 101.6zm-16.3-9.2L152 196.3-27.6 298zm-16.4-9.2l179.6-101.6L-44 288.8zm-16.3-9.3l179.6-101.6 81.6 46.2L21.3 325.7l-81.6-46.2z" fill="none" stroke="#039d8e" stroke-linejoin="round"/></g></g><g id="java" transform="translate(416.72 197.434)"><g id="Group-3" transform="translate(0 54.843)"><path class="st2" d="M-45.2 16.3c-2.4.7-7.9 1.8-15.6 1.8-7.6 0-13.9-1.3-13.9-2.9 0-1 1.2-1.5 1.2-1.5l-.2-.1c-3.7.7-7.1 1.7-7 3.2 0 2.8 10.4 4.8 19.9 4.8 8.1 0 15.8-1.4 19.3-3.2l-3.7-2.1zM-71 24.8c-1.7.3-5.4 1.2-5.4 3 0 2.5 7.9 4.5 15.5 4.5 10.5 0 14.8-2.8 15-2.9l-4.4-2.6c-1.9.5-5 1.2-10.6 1.2-6.3 0-10.4-1.1-10.4-2.3 0-.3.2-.6.4-.8l-.1-.1zm42.9-17.1c-.3 5.8-5.5 9.3-10.7 12.4l.5.3c5.6-1.6 15.5-6.2 14.7-13.4C-24 3.4-27.2.9-31.4.9c-1.3 0-2.4.2-3.4.5l-.2.5c3.7-.7 7.1 2.1 6.9 5.8zM-61 41.5c14.6-.1 31-3 30.9-7.9 0-.9-.6-1.5-1.1-1.9l-.2.1c-1.4 3.8-12.8 6.6-29.7 6.8-10.9.1-26-2.6-26-5.6 0-3.1 7.1-4.8 7.1-4.8l-.5-.3c-4.8.7-13.7 3-13.6 6.4.1 4.9 20.5 7.3 33.1 7.2zm-1.5 3.5c-5.8.1-12.9-.4-18.9-1.5l-.6.3c5.9 1.8 14.2 2.9 23.3 2.8 17.9-.2 32.3-4.7 32.6-10.1l-.2-.1c-1.1 1.5-8.8 8.3-36.2 8.6zM-84.9 6.4c0-2.7 10.2-4.3 15-4.7l.5.3c-1.8.3-9.2 1.7-9.2 3.4 0 1.9 11.2 3.1 17.8 3.1 11.1 0 18.6-1.7 20.7-2.3l2.8 1.7c-1.9 1-10.3 3.5-23.5 3.5-14.7 0-24.1-2.9-24.1-5z"/></g><g id="Group-6" transform="translate(19.191)"><path id="Fill-4" class="st2" d="M-61.4 22l-.2-.1c-4.4 1.6-17.8 7.2-17.8 17.8 0 6 5.5 9.3 5.5 14.9 0 2-1.1 3.9-1.9 5l.4.3c2.3-1.6 6.3-5 6.3-9.4 0-3.7-4.8-8.2-4.8-13-.1-7.7 9.2-13.7 12.5-15.5M-68 8.2c0 15.6-20.1 21.6-20.1 32.7 0 7.8 4.8 12.7 7.5 15.8l-.2.1c-3.4-2.3-12.3-7.9-12.3-17.3C-93.1 26.3-70 20-70 5.1c0-1.8-.3-3.3-.4-4l.2-.1c.7.9 2.2 3.3 2.2 7.2"/></g></g><path class="st5" d="M-2.8 45.1c1.8 0 3.2-1.4 3.2-3.2s-1.4-3.2-3.2-3.2c-1.7 0-3.2 1.4-3.2 3.2 0 1.8 1.4 3.2 3.2 3.2zM-37.5 13c0-1.8-1.4-3.2-3.2-3.2-1.7 0-3.2 1.4-3.2 3.2s1.4 3.2 3.2 3.2c1.7 0 3.2-1.4 3.2-3.2zm-26.8 70.3c-1.8 0-3.2 1.5-3.1 3.2 0 1.7 1.5 3.1 3.2 3.1 1.7 0 3.1-1.5 3.1-3.3 0-1.6-1.4-3-3.2-3zm43.9 3.3c0 1.8 1.4 3.2 3.1 3.2s3.2-1.4 3.2-3.2c0-1.8-1.4-3.2-3.2-3.2-1.6.1-3 1.5-3.1 3.2zm-58.2-41.7c1.7 0 3.2-1.4 3.2-3.2 0-1.7-1.4-3.2-3.2-3.2-1.8 0-3.2 1.4-3.2 3.2 0 1.8 1.5 3.2 3.2 3.2zm29.2 1.9h12.7c1.1 0 2.2-.2 3.3-.7.6-.3 1.1-.6 1.5-1.2.9-1.2.7-2.9-.5-3.9-1.1-1-2.5-1.5-3.9-1.5h-13l-.1 7.3zm-23.1-7.5c0 .1.1.2.1.2.4.9.8 1.9 1.3 2.8.3.6.4 1.2.3 1.8-.2 1.1-.8 1.8-1.8 2.2-2.2 1-4.3 1.9-6.4 2.9-.2.1-.3.2-.3.4-.1 1-.2 1.9-.2 2.9-.1 3.9.4 7.7 1.4 11.5.1.2.1.3.4.3h10.9v-25h-5.7zM-9 76.7h-16.3c-.8 0-1.5-.2-2.2-.7-1.9-1.3-3.2-3.1-3.8-5.3-.5-1.9-.9-3.9-1.3-5.9-.2-1.1-.4-2.3-.9-3.3-1-2.6-3.1-4.1-5.8-4.1h-10v7.1H-40.1c.6 0 .6.1.6.6v10.7c0 .8 0 .8-.8.8H-72c0 .1 0 .1.1.1 1 1.3 2 2.6 3.2 3.8.1.1.2.1.3.1 2.1-.4 4.2-.9 6.2-1.3 1.7-.4 3.2.6 3.6 2.3.5 2.4 1 4.7 1.5 7.1 0 .1.1.2.2.3 1 .4 2 .9 3 1.2 3.1 1.1 6.3 1.8 9.7 2.2 3.7.4 7.4.2 11.1-.5 2.9-.6 5.8-1.5 8.5-2.7.2-.1.2-.2.3-.3.5-2.4 1-4.7 1.5-7.1.4-1.7 1.9-2.7 3.6-2.3 2.1.5 4.2.9 6.4 1.4.2 0 .3 0 .4-.1.3-.3.5-.6.8-.8.8-1.2 1.7-2.2 2.6-3.3zm-60.7-49.3h40.3c1.7 0 3.4.2 5 .7 3 .9 5.7 2.5 7.7 4.9 1.6 1.8 2.6 4 2.8 6.4s-.4 4.5-1.7 6.5c-1.2 1.8-2.7 3.2-4.5 4.4l-1.8 1.2c.5.4.9.7 1.4 1.1 1.3 1.1 2.5 2.3 3.2 3.8.9 1.7 1.4 3.6 1.7 5.5.1.7.4 1.1.9 1.5 1.3.9 2.8 1.1 4.3.9 1-.2 1.9-.5 2.6-1.3.9-.9 1.3-2.1 1.3-3.4v-2.5c0-.7.2-.8.8-.8h3.8c0-.3 0-.5.1-.8.1-1.9.1-3.8-.1-5.8 0-.2-.1-.3-.2-.3-1.6-.7-3.1-1.4-4.6-2.1-.7-.3-1.5-.7-2.2-1-1.7-.7-2.3-2.4-1.6-4l3.6-8.1c.1-.2.1-.3 0-.4-2-3.4-4.4-6.4-7.3-9.1-5.5-5-11.9-8.3-19.2-9.7-.1 0-.3 0-.3.1-1.7 1.7-3.5 3.3-5.2 5-1.3 1.2-3.1 1.2-4.3-.1-1.5-1.6-3.1-3.2-4.6-4.9-.1-.1-.2-.2-.4-.1-1.9.4-3.7.9-5.5 1.5-5.7 2-10.7 5.2-14.9 9.5-.2.5-.6.9-1.1 1.4zM.1 84.1c-.8 0-1.7-.1-2.5-.1-.2 0-.4 0-.5.2s-.2.3-.4.5-.3.5-.2.8c.4 1.5.7 3.1 1.1 4.6.3 1.3-.7 2.2-1.9 1.9-1.6-.4-3.2-.7-4.8-1.1-.2 0-.3 0-.5.1-.1.1-.2.2-.4.3-.4.2-.4.5-.4.9.1 1.6.1 3.1.2 4.7 0 .9-.5 1.6-1.4 1.6-.3 0-.7-.1-1-.2-1.5-.6-2.9-1.3-4.4-2-.2-.1-.3-.1-.5 0-.1 0-.1.1-.2.1-.7.2-.9.7-.9 1.3-.2 1.4-.4 2.8-.7 4.2-.2 1.2-1.5 1.7-2.5 1-1.3-1-2.7-1.9-4-2.9-.1-.1-.3-.1-.4-.1s-.2.1-.3.1c-.7.1-.9.5-1.1 1-.5 1.4-1 2.7-1.5 4.1-.4 1-1.6 1.4-2.4.7-.1-.1-.3-.2-.4-.4-1.1-1.1-2.1-2.3-3.2-3.4-.1-.1-.2-.2-.4-.2-.1 0-.2.1-.3 0-.6-.1-.9.2-1.2.7-.7 1.3-1.5 2.5-2.3 3.7-.7 1.1-2.1 1.1-2.8 0-.9-1.4-1.7-2.8-2.6-4.2-.1-.1-.2-.2-.4-.2h-.4c-.5-.2-.8.1-1.1.4-1 1.1-2 2.2-3.1 3.3-.6.6-1.3.7-2 .3-.3-.2-.6-.5-.7-.9-.6-1.5-1.1-3.1-1.7-4.6-.1-.2-.2-.3-.3-.3-.3-.1-.7-.3-1-.3-.3.1-.6.4-.9.6l-3.3 2.4c-1.1.8-2.3.3-2.5-1-.3-1.6-.5-3.2-.8-4.9 0-.2-.1-.3-.3-.4l-.6-.3c-.2-.2-.4-.1-.7 0-1.5.7-2.9 1.3-4.4 2-1 .4-2 0-2.2-1v-.5c.1-1.6.1-3.3.2-4.9 0-.2 0-.3-.2-.4-.1-.1-.2-.1-.3-.2-.3-.4-.7-.4-1.2-.3-1.4.4-2.9.7-4.3 1-1.3.3-2.2-.7-1.9-1.9.4-1.6.7-3.2 1.1-4.8 0-.2 0-.3-.1-.5-.1-.1-.2-.2-.3-.4-.2-.4-.5-.5-1-.5-1.5.1-3.1.1-4.7.2-.9 0-1.5-.5-1.6-1.4 0-.3.1-.6.2-.9.7-1.5 1.3-3 2-4.5.1-.2.1-.3 0-.4-.1-.2-.2-.4-.3-.5-.1-.4-.4-.5-.7-.5-1.6-.2-3.1-.5-4.7-.8-1.2-.2-1.7-1.4-1-2.4s1.5-2.1 2.2-3.1c.3-.4.5-.7.8-1.1.1-.1.1-.2.1-.3-.1-.3-.2-.6-.2-.8 0-.2-.1-.3-.3-.4-1.5-.6-3-1.1-4.5-1.7-1.3-.5-1.6-1.8-.6-2.7l3.6-3.3c.1-.1.2-.2.2-.4v-.3c.1-.6-.3-.9-.8-1.2-1.3-.7-2.5-1.5-3.7-2.3-1.1-.7-1.1-2 0-2.7 1.4-.9 2.8-1.7 4.2-2.6.1-.1.2-.2.2-.3 0-.2 0-.3.1-.5.1-.5-.1-.8-.4-1.1-1.1-1-2.3-2.1-3.4-3.1-.7-.7-.7-1.7.1-2.3l.6-.3c1.5-.6 3-1.1 4.6-1.7.2-.1.3-.2.3-.3s0-.1.1-.2c.3-.6.2-1-.2-1.5-.9-1.1-1.7-2.3-2.5-3.5-.8-1.1-.3-2.3 1-2.5 1.6-.3 3.3-.5 4.9-.8.1 0 .3-.1.3-.2.2-.2.3-.5.4-.8.1-.1.1-.3 0-.4l-2.1-4.5c-.4-.8-.1-1.7.6-2.1.3-.1.6-.2.9-.2 1.5 0 3 .1 4.5.2.5 0 .8-.1 1.1-.5.3-.4.4-.7.3-1.2-.4-1.5-.7-2.9-1-4.4-.3-1.3.7-2.2 1.9-1.9 1.6.4 3.2.7 4.8 1.1.2 0 .3 0 .5-.1l.3-.3c.4-.2.5-.6.5-1-.1-1.5-.1-3.1-.2-4.7 0-.8.5-1.5 1.4-1.6.3 0 .6 0 .9.2 1.5.7 3 1.4 4.5 2 .2.1.3.1.4 0 .1 0 .1-.1.2-.1.6-.2.8-.7.9-1.3.2-1.4.4-2.8.7-4.2.2-1.3 1.5-1.8 2.5-1 1.3.9 2.6 1.9 3.9 2.8.2.2.4.2.6.1.3-.1.7-.1.9-.3.2-.2.3-.6.4-.9.5-1.3 1-2.7 1.5-4 .4-1.1 1.7-1.4 2.6-.5l.1.1c1.1 1.2 2.2 2.4 3.3 3.5.1.1.2.1.4.1h.3c.6.1.9-.2 1.2-.7.8-1.3 1.6-2.6 2.4-3.8.5-.9 1.7-1 2.4-.3.1.1.2.3.3.5.8 1.4 1.7 2.7 2.5 4.1.1.2.2.2.4.2h.5c.5.1.8-.1 1.1-.4 1-1.1 2.1-2.3 3.2-3.4.7-.7 1.8-.7 2.4.2.1.2.2.3.3.5.6 1.5 1.1 3 1.7 4.5.1.2.2.3.3.3.2 0 .4.1.6.2.3.1.5.1.8-.1 1.3-.9 2.5-1.8 3.8-2.7 1.1-.8 2.3-.3 2.6 1 .3 1.6.5 3.2.8 4.8 0 .2.1.3.3.4.3.1.6.4 1 .4.3 0 .6-.3 1-.4 1.2-.6 2.5-1.1 3.7-1.7 1.2-.5 2.3.2 2.2 1.5 0 1.7-.1 3.3-.2 5 0 .2 0 .3.2.4.2.2.4.3.6.5.1.1.3.1.4.1 1.6-.4 3.2-.8 4.8-1.1 1.2-.3 2.2.7 1.9 1.9-.4 1.6-.8 3.2-1.1 4.8 0 .2 0 .3.1.4.2.2.3.4.5.6.1.1.2.2.4.2 1.7 0 3.4-.1 5-.2.9 0 1.5.5 1.6 1.3 0 .3 0 .7-.2.9-.7 1.5-1.3 3-2 4.5-.1.2-.1.3 0 .4s.1.2.1.2c.2.6.6.8 1.2.9 1.4.2 2.9.4 4.3.7 1.2.2 1.7 1.5 1 2.5-1 1.3-1.9 2.7-2.9 4-.1.2-.1.3-.1.5.1.3.1.8.4 1 .2.2.6.3 1 .4 1.3.5 2.5.9 3.8 1.4 1.2.5 1.5 1.8.5 2.7-1.2 1.1-2.4 2.2-3.6 3.4-.1.1-.2.2-.1.4 0 .4 0 .8.1 1 .2.3.5.4.8.6 1.2.7 2.4 1.5 3.6 2.2 1.1.7 1.1 2.1 0 2.7-1.4.9-2.8 1.7-4.2 2.6-.2.1-.2.2-.2.4-.1 1-.1 1 .6 1.7 1 .9 2 1.9 3 2.8 1 1 .7 2.3-.6 2.8-1.5.6-3 1.1-4.5 1.7-.2.1-.3.2-.3.3-.1.3-.3.7-.3 1 .1.3.4.6.6.9.8 1.1 1.6 2.2 2.4 3.4.7 1 .2 2.2-1 2.4-.2 0-.4.1-.6.1-1.5.2-2.9.5-4.4.7-.1 0-.2.1-.3.2-.2.3-.5.6-.5 1 0 .3.3.7.4 1 .4 1.7.9 2.9 1.5 4.2.3.8.1 1.6-.5 2-.2.2-.6.2-.9.3-.8-.1-1.7-.1-2.5-.2z" transform="translate(0 146.333)"/><g id="Group-13" transform="translate(200.135 82.264)"><path class="st5" d="M-82.5 21.9c-.6 0-.7-.3-.4-.7l1.2-1.3c.3-.4 1.1-.7 1.7-.7h29.3c.6 0 .8.3.5.7l-.9 1.2c-.3.4-1 .8-1.6.8h-29.8z"/><path id="Fill-3" class="st5" d="M-93.4 27.4c-.6 0-.7-.3-.4-.7l1.2-1.3c.3-.4 1.1-.7 1.6-.7h37.4c.6 0 .9.4.7.8l-.4 1c-.2.5-.8.8-1.3.8l-38.8.1z"/><path id="Fill-5" class="st5" d="M-71.4 35.6c-.6 0-.8-.3-.5-.8l.7-1.2c.3-.4 1-.8 1.5-.8h15.9c.6 0 1 .4.9.9l-.1 1c-.1.5-.6.9-1.1.9h-17.3z"/><g id="Group-9" transform="translate(43.865)"><path id="Fill-7" class="st5" d="M-31.4 18.2c-5.3 1.3-9 2.3-14.2 3.6-1.3.3-1.4.4-2.5-.8-1.3-1.4-2.2-2.2-4-3.1-5.3-2.5-10.5-1.8-15.3 1.2-5.7 3.6-8.7 8.8-8.7 15.5.1 6.5 4.8 11.9 11.4 12.8 5.7.8 10.6-1.2 14.4-5.3.8-.9 1.5-1.9 2.3-3h-16.3c-1.8 0-2.2-1-1.6-2.4 1.1-2.5 3.1-6.8 4.3-8.9.3-.5.9-1.3 2.1-1.3h30.8c-.1 2.2-.1 4.4-.5 6.6-.9 5.9-3.2 11.2-6.9 15.9-6.1 7.7-14 12.5-24.1 13.8-8.3 1-16-.5-22.7-5.4-6.2-4.5-9.8-10.6-10.8-18-1.1-8.9 1.6-16.8 7.2-23.8 6-7.5 13.9-12.3 23.7-14 7.9-1.4 15.5-.5 22.4 3.9 4.5 2.9 7.7 6.7 9.8 11.5.5.5.1.9-.8 1.2"/></g><g id="Group-12" transform="translate(104.18 2.742)"><path id="Fill-10" class="st5" d="M-43.2 29.5c-.1-1.1-.1-1.9-.2-2.8-1.5-8.2-9.2-12.8-17.2-11.1-7.9 1.7-12.9 6.6-14.7 14.4-1.5 6.5 1.7 13 7.7 15.7 4.6 2 9.3 1.7 13.8-.5 6.6-3.2 10.2-8.6 10.6-15.7m-20.1 33.6C-71 63-78 60.8-83.8 55.8c-5-4.2-8.1-9.6-9.1-16-1.5-9.4 1.1-17.7 6.9-25.1 6.2-8 13.6-12.1 23.6-13.9 8.6-1.5 16.7-.6 24 4.3 6.7 4.5 10.8 10.5 11.9 18.5 1.5 11.2-1.9 20.3-9.7 28.2-5.6 5.6-12.4 9.1-20.2 10.6-2.3.3-4.6.4-6.9.7"/></g></g><g id="python"><g transform="translate(169.978 326.314)"><linearGradient id="SVGID_1_" gradientUnits="userSpaceOnUse" x1="-323.646" y1="1.926" x2="-322.901" y2="2.567" gradientTransform="matrix(65.0297 0 0 66.7443 20950.469 -125.483)"><stop offset="0" stop-color="#777775"/><stop offset="1" stop-color="#1c1c1a"/></linearGradient><path d="M-50.6.5c-3.6 0-7.1.3-10.1.9-9 1.6-10.6 5-10.6 11.2v8.2h21.2v2.7h-29.2c-6.2 0-11.6 3.8-13.2 10.9-1.9 8.2-2 13.3 0 21.9 1.5 6.4 5.1 10.9 11.3 10.9h7.3v-9.8c0-7.1 6.1-13.4 13.2-13.4h21.2c5.9 0 10.6-4.9 10.6-10.9V12.6c0-5.8-4.8-10.2-10.6-11.2-3.4-.6-7-.9-10.4-.9h-.7zM-66 11.2c0-2.3 1.8-4.1 4-4.1s4 1.8 4 4.1-1.8 4.1-4 4.1c-2.3 0-4-1.8-4-4.1z" fill-rule="evenodd" clip-rule="evenodd" fill="url(#SVGID_1_)"/></g><g transform="translate(192.91 350.994)"><linearGradient id="SVGID_2_" gradientUnits="userSpaceOnUse" x1="-368.691" y1="2.591" x2="-368.957" y2="2.218" gradientTransform="matrix(66.2215 0 0 67.2548 24364.594 -125.876)"><stop offset="0" stop-color="#8e8e8c"/><stop offset="1" stop-color="#bcbcbc"/></linearGradient><path d="M-48 .1v9.6c0 7.4-6.3 13.7-13.5 13.7H-83c-5.9 0-10.8 5-10.8 10.9v20.5c0 5.8 5.1 9.3 10.8 10.9 6.8 2 13.4 2.4 21.5 0 5.4-1.6 10.8-4.7 10.8-10.9v-8.2h-21.5v-2.7h32.3c6.3 0 8.6-4.4 10.8-10.9 2.2-6.7 2.2-13.2 0-21.9C-30.6 4.9-33.6.2-39.9.2H-48V.1zm-16.1 56c0-2.3 1.8-4.1 4-4.1s4 1.8 4 4.1-1.8 4.1-4 4.1c-2.2.1-4-1.8-4-4.1z" fill-rule="evenodd" clip-rule="evenodd" fill="url(#SVGID_2_)"/></g><g transform="translate(186.427 425.031)"><radialGradient id="SVGID_3_" cx="-360.366" cy="-10.302" r=".5" gradientTransform="matrix(0 -10.4891 46.104 0 410.789 -3774.19)" gradientUnits="userSpaceOnUse"><stop offset="0" stop-color="#cacaca"/><stop offset="1" stop-color="#9c9c9c"/></radialGradient><path d="M-35.2 5.7c0 2.9-12.9 5.2-28.9 5.2S-93 8.6-93 5.7-80.1.5-64.1.5c15.9 0 28.9 2.3 28.9 5.2" opacity=".596" fill-rule="evenodd" clip-rule="evenodd" fill="url(#SVGID_3_)"/></g></g></g></g><defs><path id="SVGID_4_" d="M215.5 115.5h64.6v84.7h-64.6z"/></defs><clipPath id="SVGID_5_"><use xlink:href="#SVGID_4_" overflow="visible"/></clipPath><g opacity=".252" clip-path="url(#SVGID_5_)"><defs><path id="SVGID_6_" d="M214.4 115.5h64.8v85.6h-64.8z"/></defs><clipPath id="SVGID_7_"><use xlink:href="#SVGID_6_" overflow="visible"/></clipPath><g class="st10"><defs><path id="SVGID_8_" d="M246.7 195.4c-.1.1-.3.1-.4.2v3.3h.4l.4-.5v-3.3c-.1.2-.3.3-.4.3"/></defs><clipPath id="SVGID_9_"><use xlink:href="#SVGID_8_" overflow="visible"/></clipPath><g clip-path="url(#SVGID_9_)"><defs><path id="SVGID_10_" d="M214.4 112.9h67.4v88.2h-67.4z"/></defs><clipPath id="SVGID_11_"><use xlink:href="#SVGID_10_" overflow="visible"/></clipPath><path clip-path="url(#SVGID_11_)" fill="#fefefe" d="M233.3 182.2h26.8v29.7h-26.8z"/></g></g><g class="st10"><defs><path id="SVGID_12_" d="M246.2 189.8V167c-1.6.8-3.1 1-4.3.5l-5.7 10 9.5 12.7c.2-.1.4-.3.5-.4"/></defs><clipPath id="SVGID_13_"><use xlink:href="#SVGID_12_" overflow="visible"/></clipPath><g clip-path="url(#SVGID_13_)"><defs><path id="SVGID_14_" d="M214.4 112.9h67.4v88.2h-67.4z"/></defs><clipPath id="SVGID_15_"><use xlink:href="#SVGID_14_" overflow="visible"/></clipPath><path clip-path="url(#SVGID_15_)" fill="#fefefe" d="M223.3 154h36v49.2h-36z"/></g></g><g class="st10"><defs><path id="SVGID_16_" d="M271.1 148.4h6.7v11.7h-6.7z"/></defs><clipPath id="SVGID_17_"><use xlink:href="#SVGID_16_" overflow="visible"/></clipPath><g clip-path="url(#SVGID_17_)"><defs><path id="SVGID_18_" d="M214.4 112.9h67.4v88.2h-67.4z"/></defs><clipPath id="SVGID_19_"><use xlink:href="#SVGID_18_" overflow="visible"/></clipPath><g clip-path="url(#SVGID_19_)"><defs><path id="SVGID_20_" d="M268.8 146.6h10.4v15.6h-10.4z"/></defs><clipPath id="SVGID_21_"><use xlink:href="#SVGID_20_" overflow="visible"/></clipPath><g clip-path="url(#SVGID_21_)"><defs><path id="SVGID_22_" d="M271.3 159.2c0 .3-.1.6-.1.9h6.6v-11.7l-6.7 9.7c.1.2.2.6.2 1.1"/></defs><clipPath id="SVGID_23_"><use xlink:href="#SVGID_22_" overflow="visible"/></clipPath><g clip-path="url(#SVGID_23_)"><defs><path id="SVGID_24_" d="M268.8 146.6h10.4v15.6h-10.4z"/></defs><clipPath id="SVGID_25_"><use xlink:href="#SVGID_24_" overflow="visible"/></clipPath><path clip-path="url(#SVGID_25_)" fill="#fefefe" d="M258.1 135.4h32.7v37.7h-32.7z"/></g></g></g></g></g><g class="st10"><defs><path id="SVGID_26_" d="M269.9 139.9l-5.4 4.7 3.9 13.3c.1-.1.2-.1.3-.2h.1l2.7-17.1c-.7.1-1.3-.2-1.6-.7"/></defs><clipPath id="SVGID_27_"><use xlink:href="#SVGID_26_" overflow="visible"/></clipPath><g clip-path="url(#SVGID_27_)"><defs><path id="SVGID_28_" d="M214.4 112.9h67.4v88.2h-67.4z"/></defs><clipPath id="SVGID_29_"><use xlink:href="#SVGID_28_" overflow="visible"/></clipPath><path clip-path="url(#SVGID_29_)" fill="#fefefe" d="M251.6 126.9h32.8v43.9h-32.8z"/></g></g><g class="st10"><defs><path id="SVGID_30_" d="M254 153.8v.6c0 1.9-.6 4-1.5 5.9l14.1-.1c.3-.6.6-1.1 1-1.5l-3.9-13.3-9.7 8.4z"/></defs><clipPath id="SVGID_31_"><use xlink:href="#SVGID_30_" overflow="visible"/></clipPath><g clip-path="url(#SVGID_31_)"><defs><path id="SVGID_32_" d="M214.4 112.9h67.4v88.2h-67.4z"/></defs><clipPath id="SVGID_33_"><use xlink:href="#SVGID_32_" overflow="visible"/></clipPath><path clip-path="url(#SVGID_33_)" fill="#fefefe" d="M239.5 132.3h41v40.9h-41z"/></g></g><g class="st10"><defs><path id="SVGID_34_" d="M264.3 143.8l5.4-4.7v-.3c0-.5.1-1.1.3-1.6l-7.4-2.4c-.2.3-.4.6-.7.9l2.4 8.1z"/></defs><clipPath id="SVGID_35_"><use xlink:href="#SVGID_34_" overflow="visible"/></clipPath><g clip-path="url(#SVGID_35_)"><defs><path id="SVGID_36_" d="M214.4 112.9h67.4v88.2h-67.4z"/></defs><clipPath id="SVGID_37_"><use xlink:href="#SVGID_36_" overflow="visible"/></clipPath><path clip-path="url(#SVGID_37_)" fill="#fefefe" d="M249 121.8h34v34.9h-34z"/></g></g><g class="st10"><defs><path id="SVGID_38_" d="M262.3 130.3l6-10.5-8.8-.7 1.5 11.5c.5-.3.9-.4 1.3-.3"/></defs><clipPath id="SVGID_39_"><use xlink:href="#SVGID_38_" overflow="visible"/></clipPath><g clip-path="url(#SVGID_39_)"><defs><path id="SVGID_40_" d="M214.4 112.9h67.4v88.2h-67.4z"/></defs><clipPath id="SVGID_41_"><use xlink:href="#SVGID_40_" overflow="visible"/></clipPath><path clip-path="url(#SVGID_41_)" fill="#fefefe" d="M246.5 106.1h34.8v37.4h-34.8z"/></g></g><g class="st10"><defs><path id="SVGID_42_" d="M239.6 160.3c.6-2.7 2.1-5.5 4.1-7.7l-2-4.7-16.4 11.9c0 .2-.1.4-.1.6l14.4-.1z"/></defs><clipPath id="SVGID_43_"><use xlink:href="#SVGID_42_" overflow="visible"/></clipPath><g clip-path="url(#SVGID_43_)"><defs><path id="SVGID_44_" d="M214.4 112.9h67.4v88.2h-67.4z"/></defs><clipPath id="SVGID_45_"><use xlink:href="#SVGID_44_" overflow="visible"/></clipPath><path clip-path="url(#SVGID_45_)" fill="#fefefe" d="M212.2 135h44.4v38.4h-44.4z"/></g></g><g class="st10"><defs><path id="SVGID_46_" d="M247.1 118.1h13V135h-13z"/></defs><clipPath id="SVGID_47_"><use xlink:href="#SVGID_46_" overflow="visible"/></clipPath><g clip-path="url(#SVGID_47_)"><defs><path id="SVGID_48_" d="M214.4 112.9h67.4v88.2h-67.4z"/></defs><clipPath id="SVGID_49_"><use xlink:href="#SVGID_48_" overflow="visible"/></clipPath><g clip-path="url(#SVGID_49_)"><defs><path id="SVGID_50_" d="M245.5 115.5h15.6v20.7h-15.6z"/></defs><clipPath id="SVGID_51_"><use xlink:href="#SVGID_50_" overflow="visible"/></clipPath><g clip-path="url(#SVGID_51_)"><defs><path id="SVGID_52_" d="M258.6 133.4c.3-.8.9-1.6 1.5-2.2l-1.5-12.2-11.5-1v16.9l11.5-1.5z"/></defs><clipPath id="SVGID_53_"><use xlink:href="#SVGID_52_" overflow="visible"/></clipPath><g clip-path="url(#SVGID_53_)"><defs><path id="SVGID_54_" d="M245.5 115.5h15.6v20.7h-15.6z"/></defs><clipPath id="SVGID_55_"><use xlink:href="#SVGID_54_" overflow="visible"/></clipPath><path clip-path="url(#SVGID_55_)" fill="#fefefe" d="M234.1 105.1H273v42.8h-38.9z"/></g></g></g></g></g><g class="st10"><defs><path id="SVGID_56_" d="M263 130.6c.3.3.5.8.5 1.5 0 .5-.1 1.1-.3 1.6l7.4 2.4c.5-.7 1.1-1.4 1.8-1.8 1.1-.6 2-.4 2.4.4l3.1-2.7v-11.4l-8.7-.7-6.2 10.7z"/></defs><clipPath id="SVGID_57_"><use xlink:href="#SVGID_56_" overflow="visible"/></clipPath><g clip-path="url(#SVGID_57_)"><defs><path id="SVGID_58_" d="M214.4 112.9h67.4v88.2h-67.4z"/></defs><clipPath id="SVGID_59_"><use xlink:href="#SVGID_58_" overflow="visible"/></clipPath><path clip-path="url(#SVGID_59_)" fill="#fefefe" d="M250 106.9h40.8v42.2H250z"/></g></g><g class="st10"><defs><path id="SVGID_60_" d="M269.6 133h8.2v24.5h-8.2z"/></defs><clipPath id="SVGID_61_"><use xlink:href="#SVGID_60_" overflow="visible"/></clipPath><g clip-path="url(#SVGID_61_)"><defs><path id="SVGID_62_" d="M214.4 112.9h67.4v88.2h-67.4z"/></defs><clipPath id="SVGID_63_"><use xlink:href="#SVGID_62_" overflow="visible"/></clipPath><g clip-path="url(#SVGID_63_)"><defs><path id="SVGID_64_" d="M268.8 131.1h10.4v28.5h-10.4z"/></defs><clipPath id="SVGID_65_"><use xlink:href="#SVGID_64_" overflow="visible"/></clipPath><g clip-path="url(#SVGID_65_)"><defs><path id="SVGID_66_" d="M275 135.8c0 1.6-1.2 3.6-2.6 4.5h-.1l-2.7 17.1c.4-.1.7 0 1 .1l7.2-10.4V133l-2.9 2.5c.1.1.1.2.1.3"/></defs><clipPath id="SVGID_67_"><use xlink:href="#SVGID_66_" overflow="visible"/></clipPath><g clip-path="url(#SVGID_67_)"><defs><path id="SVGID_68_" d="M268.8 131.1h10.4v28.5h-10.4z"/></defs><clipPath id="SVGID_69_"><use xlink:href="#SVGID_68_" overflow="visible"/></clipPath><path clip-path="url(#SVGID_69_)" fill="#fefefe" d="M256.6 120.1h34.1v50.4h-34.1z"/></g></g></g></g></g><g class="st10"><defs><path id="SVGID_70_" d="M247.1 166.5v22.8c.5-.2 1-.2 1.4 0l6.6-9.5-6.2-14.7c-.6.6-1.2 1-1.8 1.4"/></defs><clipPath id="SVGID_71_"><use xlink:href="#SVGID_70_" overflow="visible"/></clipPath><g clip-path="url(#SVGID_71_)"><defs><path id="SVGID_72_" d="M214.4 112.9h67.4v88.2h-67.4z"/></defs><clipPath id="SVGID_73_"><use xlink:href="#SVGID_72_" overflow="visible"/></clipPath><path clip-path="url(#SVGID_73_)" fill="#fefefe" d="M234.1 152.2H268v50.1h-33.9z"/></g></g><g class="st10"><defs><path id="SVGID_74_" d="M235.6 178.6l-4.4 7.6 13.7 5v-.1l-9.3-12.5z"/></defs><clipPath id="SVGID_75_"><use xlink:href="#SVGID_74_" overflow="visible"/></clipPath><g clip-path="url(#SVGID_75_)"><defs><path id="SVGID_76_" d="M214.4 112.9h67.4v88.2h-67.4z"/></defs><clipPath id="SVGID_77_"><use xlink:href="#SVGID_76_" overflow="visible"/></clipPath><path clip-path="url(#SVGID_77_)" fill="#fefefe" d="M218.3 165.7H258v38.5h-39.7z"/></g></g><g class="st10"><defs><path id="SVGID_78_" d="M258.2 135v-.6l-11.2 1.5v7.1l11.2-8z"/></defs><clipPath id="SVGID_79_"><use xlink:href="#SVGID_78_" overflow="visible"/></clipPath><g clip-path="url(#SVGID_79_)"><defs><path id="SVGID_80_" d="M214.4 112.9h67.4v88.2h-67.4z"/></defs><clipPath id="SVGID_81_"><use xlink:href="#SVGID_80_" overflow="visible"/></clipPath><path clip-path="url(#SVGID_81_)" fill="#fefefe" d="M234.1 121.5h37.1v34.6h-37.1z"/></g></g><g class="st10"><defs><path id="SVGID_82_" d="M261.2 136.4c-.1.1-.2.1-.3.2-.5.3-1.1.4-1.5.3l-7.4 12.9c.9.6 1.6 1.6 1.9 3.1l9.6-8.4-2.3-8.1z"/></defs><clipPath id="SVGID_83_"><use xlink:href="#SVGID_82_" overflow="visible"/></clipPath><g clip-path="url(#SVGID_83_)"><defs><path id="SVGID_84_" d="M214.4 112.9h67.4v88.2h-67.4z"/></defs><clipPath id="SVGID_85_"><use xlink:href="#SVGID_84_" overflow="visible"/></clipPath><path clip-path="url(#SVGID_85_)" fill="#fefefe" d="M239.1 123.4h37.4v42.4h-37.4z"/></g></g><g class="st10"><defs><path id="SVGID_86_" d="M231.6 173.3l-8.9 7.8v.3c0 .5-.1 1.1-.4 1.7l8.3 3 4.6-8-3.6-4.8z"/></defs><clipPath id="SVGID_87_"><use xlink:href="#SVGID_86_" overflow="visible"/></clipPath><g clip-path="url(#SVGID_87_)"><defs><path id="SVGID_88_" d="M214.4 112.9h67.4v88.2h-67.4z"/></defs><clipPath id="SVGID_89_"><use xlink:href="#SVGID_88_" overflow="visible"/></clipPath><path clip-path="url(#SVGID_89_)" fill="#fefefe" d="M209.4 160.3h38.8V199h-38.8z"/></g></g><g class="st10"><defs><path id="SVGID_90_" d="M266.2 161.2l-14.3.1c-.6 1.1-1.4 2.1-2.2 3l6.1 14.5 10.7-15.4c-.2-.3-.4-.7-.4-1.3 0-.2 0-.6.1-.9"/></defs><clipPath id="SVGID_91_"><use xlink:href="#SVGID_90_" overflow="visible"/></clipPath><g clip-path="url(#SVGID_91_)"><defs><path id="SVGID_92_" d="M214.4 112.9h67.4v88.2h-67.4z"/></defs><clipPath id="SVGID_93_"><use xlink:href="#SVGID_92_" overflow="visible"/></clipPath><path clip-path="url(#SVGID_93_)" fill="#fefefe" d="M236.7 148.3h42.7v43.5h-42.7z"/></g></g><g class="st10"><defs><path id="SVGID_94_" d="M239.7 135.3c0 .2 0 .4-.1.6l6.6-.9v-16.5l-4.2 5.1-3.5 9.8c.7.3 1.2.9 1.2 1.9"/></defs><clipPath id="SVGID_95_"><use xlink:href="#SVGID_94_" overflow="visible"/></clipPath><g clip-path="url(#SVGID_95_)"><defs><path id="SVGID_96_" d="M214.4 112.9h67.4v88.2h-67.4z"/></defs><clipPath id="SVGID_97_"><use xlink:href="#SVGID_96_" overflow="visible"/></clipPath><path clip-path="url(#SVGID_97_)" fill="#fefefe" d="M225.6 105.6h33.6v43.3h-33.6z"/></g></g><g class="st10"><defs><path id="SVGID_98_" d="M238.7 138.1l3.6 8.5 4-2.9v-7.6l-7 .9c-.2.4-.4.8-.6 1.1"/></defs><clipPath id="SVGID_99_"><use xlink:href="#SVGID_98_" overflow="visible"/></clipPath><g clip-path="url(#SVGID_99_)"><defs><path id="SVGID_100_" d="M214.4 112.9h67.4v88.2h-67.4z"/></defs><clipPath id="SVGID_101_"><use xlink:href="#SVGID_100_" overflow="visible"/></clipPath><path clip-path="url(#SVGID_101_)" fill="#fefefe" d="M225.7 123.1h33.5v36.5h-33.5z"/></g></g><g class="st10"><defs><path id="SVGID_102_" d="M241.4 147.2L238 139c-.3.3-.6.5-.9.7-.6.3-1.1.4-1.5.3l-10.7 17.8c.3.2.5.6.5 1.1l16-11.7z"/></defs><clipPath id="SVGID_103_"><use xlink:href="#SVGID_102_" overflow="visible"/></clipPath><g clip-path="url(#SVGID_103_)"><defs><path id="SVGID_104_" d="M214.4 112.9h67.4v88.2h-67.4z"/></defs><clipPath id="SVGID_105_"><use xlink:href="#SVGID_104_" overflow="visible"/></clipPath><path clip-path="url(#SVGID_105_)" fill="#fefefe" d="M211.8 126.1h42.5v45.8h-42.5z"/></g></g><g class="st10"><defs><path id="SVGID_106_" d="M237 133.8c.3-.2.5-.2.8-.3l2.9-8.2-4.9 5.9 1.1 2.6c0 .1.1 0 .1 0"/></defs><clipPath id="SVGID_107_"><use xlink:href="#SVGID_106_" overflow="visible"/></clipPath><g clip-path="url(#SVGID_107_)"><defs><path id="SVGID_108_" d="M214.4 112.9h67.4v88.2h-67.4z"/></defs><clipPath id="SVGID_109_"><use xlink:href="#SVGID_108_" overflow="visible"/></clipPath><path clip-path="url(#SVGID_109_)" fill="#fefefe" d="M222.8 112.4h30.8v34.5h-30.8z"/></g></g><g class="st10"><defs><path id="SVGID_110_" d="M222.5 180.3l8.7-7.6-7.3-9.8c-.3.4-.7.7-1.1.9-.1 0-.1 0-.2.1l-1.7 15.7c.7-.2 1.2.1 1.6.7"/></defs><clipPath id="SVGID_111_"><use xlink:href="#SVGID_110_" overflow="visible"/></clipPath><g clip-path="url(#SVGID_111_)"><defs><path id="SVGID_112_" d="M214.4 112.9h67.4v88.2h-67.4z"/></defs><clipPath id="SVGID_113_"><use xlink:href="#SVGID_112_" overflow="visible"/></clipPath><path clip-path="url(#SVGID_113_)" fill="#fefefe" d="M207.9 149.9h36.3v43.3h-36.3z"/></g></g><g class="st10"><defs><path id="SVGID_114_" d="M247.1 150c1.6-.8 3.1-1 4.3-.5l7.4-12.9c-.2-.2-.3-.4-.4-.7l-11.3 8.2v5.9z"/></defs><clipPath id="SVGID_115_"><use xlink:href="#SVGID_114_" overflow="visible"/></clipPath><g clip-path="url(#SVGID_115_)"><defs><path id="SVGID_116_" d="M214.4 112.9h67.4v88.2h-67.4z"/></defs><clipPath id="SVGID_117_"><use xlink:href="#SVGID_116_" overflow="visible"/></clipPath><path clip-path="url(#SVGID_117_)" fill="#fefefe" d="M234.1 122.9h37.6v40h-37.6z"/></g></g><g class="st10"><defs><path id="SVGID_118_" d="M241.3 167.2c-.5-.3-.9-.7-1.2-1.3l-7.6 6.6 3.3 4.4 5.5-9.7z"/></defs><clipPath id="SVGID_119_"><use xlink:href="#SVGID_118_" overflow="visible"/></clipPath><g clip-path="url(#SVGID_119_)"><defs><path id="SVGID_120_" d="M214.4 112.9h67.4v88.2h-67.4z"/></defs><clipPath id="SVGID_121_"><use xlink:href="#SVGID_120_" overflow="visible"/></clipPath><path clip-path="url(#SVGID_121_)" fill="#fefefe" d="M219.5 152.9h34.8v37h-34.8z"/></g></g><g class="st10"><defs><path id="SVGID_122_" d="M220.1 162.3c0-.3 0-.5.1-.8h-4.6v10.2l4.9-8.1c-.3-.3-.4-.7-.4-1.3"/></defs><clipPath id="SVGID_123_"><use xlink:href="#SVGID_122_" overflow="visible"/></clipPath><g clip-path="url(#SVGID_123_)"><defs><path id="SVGID_124_" d="M214.4 112.9h67.4v88.2h-67.4z"/></defs><clipPath id="SVGID_125_"><use xlink:href="#SVGID_124_" overflow="visible"/></clipPath><path clip-path="url(#SVGID_125_)" fill="#fefefe" d="M202.6 148.5h30.9v36.2h-30.9z"/></g></g><g class="st10"><defs><path id="SVGID_126_" d="M239.7 165.2c-.3-.7-.4-1.6-.4-2.5 0-.4 0-.8.1-1.3l-14.6.1c-.1.1-.1.3-.2.4l7.5 10 7.6-6.7z"/></defs><clipPath id="SVGID_127_"><use xlink:href="#SVGID_126_" overflow="visible"/></clipPath><g clip-path="url(#SVGID_127_)"><defs><path id="SVGID_128_" d="M214.4 112.9h67.4v88.2h-67.4z"/></defs><clipPath id="SVGID_129_"><use xlink:href="#SVGID_128_" overflow="visible"/></clipPath><path clip-path="url(#SVGID_129_)" fill="#fefefe" d="M211.6 148.4h41.1v36.5h-41.1z"/></g></g><g class="st10"><defs><path id="SVGID_130_" d="M221.8 184.1c-.5.7-1.1 1.3-1.7 1.7-1.1.6-2 .4-2.4-.4l-2.1 1.9v9.1l8.8.7 5.7-10-8.3-3z"/></defs><clipPath id="SVGID_131_"><use xlink:href="#SVGID_130_" overflow="visible"/></clipPath><g clip-path="url(#SVGID_131_)"><defs><path id="SVGID_132_" d="M214.4 112.9h67.4v88.2h-67.4z"/></defs><clipPath id="SVGID_133_"><use xlink:href="#SVGID_132_" overflow="visible"/></clipPath><path clip-path="url(#SVGID_133_)" fill="#fefefe" d="M202.6 171.1H243V210h-40.4z"/></g></g><g class="st10"><defs><path id="SVGID_134_" d="M236.1 134.6l-1-2.4-4 4.9 3.7-.5c.2-.8.7-1.5 1.3-2"/></defs><clipPath id="SVGID_135_"><use xlink:href="#SVGID_134_" overflow="visible"/></clipPath><g clip-path="url(#SVGID_135_)"><defs><path id="SVGID_136_" d="M214.4 112.9h67.4v88.2h-67.4z"/></defs><clipPath id="SVGID_137_"><use xlink:href="#SVGID_136_" overflow="visible"/></clipPath><path clip-path="url(#SVGID_137_)" fill="#fefefe" d="M218 119.2h31V150h-31z"/></g></g><g class="st10"><defs><path id="SVGID_138_" d="M217.4 184.3c0-1.6 1.1-3.6 2.6-4.4l1.7-15.8c-.3 0-.5 0-.7-.1l-5.5 9.1v13.2l1.9-1.7v-.3"/></defs><clipPath id="SVGID_139_"><use xlink:href="#SVGID_138_" overflow="visible"/></clipPath><g clip-path="url(#SVGID_139_)"><defs><path id="SVGID_140_" d="M214.4 112.9h67.4v88.2h-67.4z"/></defs><clipPath id="SVGID_141_"><use xlink:href="#SVGID_140_" overflow="visible"/></clipPath><path clip-path="url(#SVGID_141_)" fill="#fefefe" d="M202.6 151.1h32.1v48.2h-32.1z"/></g></g><g class="st10"><defs><path id="SVGID_142_" d="M249 189.8c.2.3.3.7.3 1.2 0 1.5-1 3.2-2.2 4.2v3.3l10.4-12.7-2.2-5.2-6.3 9.2z"/></defs><clipPath id="SVGID_143_"><use xlink:href="#SVGID_142_" overflow="visible"/></clipPath><g clip-path="url(#SVGID_143_)"><defs><path id="SVGID_144_" d="M214.4 112.9h67.4v88.2h-67.4z"/></defs><clipPath id="SVGID_145_"><use xlink:href="#SVGID_144_" overflow="visible"/></clipPath><path clip-path="url(#SVGID_145_)" fill="#fefefe" d="M234.1 167.6h36.4v43.8h-36.4z"/></g></g><g class="st10"><defs><path id="SVGID_146_" d="M244.5 151.9c.6-.5 1.2-1 1.8-1.4v-5.8l-3.7 2.7 1.9 4.5z"/></defs><clipPath id="SVGID_147_"><use xlink:href="#SVGID_146_" overflow="visible"/></clipPath><g clip-path="url(#SVGID_147_)"><defs><path id="SVGID_148_" d="M214.4 112.9h67.4v88.2h-67.4z"/></defs><clipPath id="SVGID_149_"><use xlink:href="#SVGID_148_" overflow="visible"/></clipPath><path clip-path="url(#SVGID_149_)" fill="#fefefe" d="M229.6 131.7h29.6v33.1h-29.6z"/></g></g><g class="st10"><defs><path id="SVGID_150_" d="M215.5 137.6h19.4v22.8h-19.4z"/></defs><clipPath id="SVGID_151_"><use xlink:href="#SVGID_150_" overflow="visible"/></clipPath><g clip-path="url(#SVGID_151_)"><defs><path id="SVGID_152_" d="M214.4 112.9h67.4v88.2h-67.4z"/></defs><clipPath id="SVGID_153_"><use xlink:href="#SVGID_152_" overflow="visible"/></clipPath><g clip-path="url(#SVGID_153_)"><defs><path id="SVGID_154_" d="M214.4 136.2h20.7v25.9h-20.7z"/></defs><clipPath id="SVGID_155_"><use xlink:href="#SVGID_154_" overflow="visible"/></clipPath><g clip-path="url(#SVGID_155_)"><defs><path id="SVGID_156_" d="M222.7 157.8c.5-.3 1-.4 1.4-.3l10.7-17.8c-.3-.3-.5-.8-.5-1.5 0-.2 0-.4.1-.6l-4.4.6-14.5 17.6v4.6h5c.5-1 1.3-2 2.2-2.6"/></defs><clipPath id="SVGID_157_"><use xlink:href="#SVGID_156_" overflow="visible"/></clipPath><g clip-path="url(#SVGID_157_)"><defs><path id="SVGID_158_" d="M214.4 136.2h20.7v25.9h-20.7z"/></defs><clipPath id="SVGID_159_"><use xlink:href="#SVGID_158_" overflow="visible"/></clipPath><path clip-path="url(#SVGID_159_)" fill="#fefefe" d="M202.6 124.7h45.3v48.8h-45.3z"/></g></g></g></g></g><g class="st10"><defs><path id="SVGID_160_" d="M268.7 163.6c-.7.4-1.2.4-1.7.2l-10.9 15.7 2.2 5.3 19.5-23.7h-6.9c-.5 1.1-1.3 2-2.2 2.5"/></defs><clipPath id="SVGID_161_"><use xlink:href="#SVGID_160_" overflow="visible"/></clipPath><g clip-path="url(#SVGID_161_)"><defs><path id="SVGID_162_" d="M214.4 112.9h67.4v88.2h-67.4z"/></defs><clipPath id="SVGID_163_"><use xlink:href="#SVGID_162_" overflow="visible"/></clipPath><path clip-path="url(#SVGID_163_)" fill="#fefefe" d="M243.1 148.2h47.6v49.6h-47.6z"/></g></g><g class="st10"><defs><path id="SVGID_164_" d="M244 194c0-.5.1-1.1.4-1.7l-13.7-5-5.6 9.8 21.2 1.8v-3.3c-1.3.5-2.3-.2-2.3-1.6"/></defs><clipPath id="SVGID_165_"><use xlink:href="#SVGID_164_" overflow="visible"/></clipPath><g clip-path="url(#SVGID_165_)"><defs><path id="SVGID_166_" d="M214.4 112.9h67.4v88.2h-67.4z"/></defs><clipPath id="SVGID_167_"><use xlink:href="#SVGID_166_" overflow="visible"/></clipPath><path clip-path="url(#SVGID_167_)" fill="#fefefe" d="M212.1 174.3h47.1v37.5h-47.1z"/></g></g></g></svg>