<svg version="1.1" id="Layer_1" xmlns="http://www.w3.org/2000/svg" x="0" y="0" width="1329.7" height="998" xml:space="preserve"><style>.st0{stroke:#999;stroke-miterlimit:10}.st0,.st1{fill:none}.st2{fill:#17aa9b}.st3{fill:#026e64}.st4{fill:#ededed}.st5{fill:#5b5b5b}</style><g id="SHADED"><path class="st0" d="M349.2 821.1l76.7 126.1M515.4 584.1l-53.4 163M308.7 728.7l206.7-144.6M519.5 581.2l206.6-144.7"/><path class="st1" d="M349.2 821.1l-40.5-92.4M302 504.4l6.7 224.3"/><path class="st0" d="M140.6 574.8L302 504.4"/><path class="st1" d="M308.7 728.7L140.6 574.8"/><path class="st0" d="M31.8 770.4l108.8-195.6"/><path class="st1" d="M153 853.6L31.8 770.4"/><path class="st0" d="M158.7 979.7L153 853.6M425.9 947.2l-267.2 32.5M31.8 770.4l276.9-41.7M349.2 821.1l-40.5-92.4M153 853.6l155.7-124.9M462 747.1L302 504.4M511 586.6l-370.4-11.8M158.7 979.7l190.5-158.6"/><ellipse transform="matrix(.00541 -1 1 .00541 -287.542 1205.025)" class="st2" cx="462" cy="747.1" rx="20.9" ry="36.1"/><ellipse transform="matrix(.00541 -1 1 .00541 -278.524 1207.456)" class="st3" cx="467.7" cy="743.7" rx="8.3" ry="14.3"/><path class="st3" d="M466.1 767.8c0-4.9-2-9.7-5.6-13.1-10.4-10.1-31.6-10.3-34.4-10.3h-.3v1.5c-.5 5.7 3 11.5 10.6 15.9s18 6.5 28.1 6.1v.1h1.5c.1-.1.1-.2.1-.2z"/><ellipse transform="matrix(.00541 -1 1 .00541 -473.781 1165.893)" class="st2" cx="349.2" cy="821.1" rx="20.9" ry="36.1"/><ellipse transform="matrix(.00541 -1 1 .00541 -464.753 1168.334)" class="st3" cx="355" cy="817.8" rx="8.3" ry="14.3"/><path class="st3" d="M353.3 841.8c0-4.9-2-9.7-5.6-13.1-10.4-10.1-31.5-10.4-34.4-10.4h-.3v1.5c-.5 5.7 3 11.5 10.6 15.9s18 6.5 28.1 6.1v.1l1.6-.1c.1.1 0 .1 0 0z"/><ellipse transform="matrix(.00541 -1 1 .00541 -523.615 1367.976)" class="st2" cx="425.9" cy="947.2" rx="20.9" ry="36.1"/><ellipse transform="matrix(.00541 -1 1 .00541 -514.597 1370.408)" class="st3" cx="431.6" cy="943.9" rx="8.3" ry="14.3"/><path class="st3" d="M430 967.9c0-4.9-2-9.7-5.6-13.1-10.4-10.1-31.5-10.3-34.4-10.3h-.3v1.5c-.5 5.7 3 11.5 10.6 15.9s18 6.5 28.1 6.1v.1h1.6v-.2z"/><ellipse transform="matrix(.00541 -1 1 .00541 -71.481 1096.275)" class="st2" cx="515.4" cy="584.1" rx="20.8" ry="36.1"/><ellipse transform="matrix(.00541 -1 1 .00541 -62.453 1098.717)" class="st3" cx="521.1" cy="580.8" rx="8.3" ry="14.3"/><path class="st3" d="M519.5 604.8c0-4.9-2-9.7-5.6-13.1-10.4-10.1-31.5-10.3-34.4-10.3h-.3v1.5c-.5 5.7 3 11.5 10.6 15.9s18 6.5 28.1 6.1v.1h1.5c0-.1.1-.2.1-.2z"/><ellipse transform="matrix(.00541 -1 1 .00541 -428.152 714.112)" class="st2" cx="144.9" cy="572.3" rx="20.9" ry="36.1"/><ellipse transform="matrix(.00541 -1 1 .00541 -419.134 716.543)" class="st3" cx="150.6" cy="569" rx="8.3" ry="14.3"/><path class="st3" d="M149 593c0-4.9-2-9.7-5.6-13.1-10.4-10.1-31.5-10.3-34.4-10.3h-.3v1.5c-.5 5.7 3 11.5 10.6 15.9s18 6.5 28.1 6.1v.1h1.6v-.2z"/><ellipse transform="matrix(.00541 -1 1 .00541 -197.113 805.546)" class="st2" cx="306.4" cy="501.9" rx="20.9" ry="36.1"/><ellipse transform="matrix(.00541 -1 1 .00541 -188.085 807.987)" class="st3" cx="312.1" cy="498.5" rx="8.3" ry="14.3"/><path class="st3" d="M310.5 522.6c0-4.9-2-9.7-5.6-13.1-10.4-10.1-31.5-10.3-34.4-10.3h-.3v1.5c-.5 5.7 3 11.5 10.6 15.9s18 6.5 28.1 6.1v.1h1.5c.1-.1.1-.2.1-.2z"/><ellipse transform="matrix(.00541 -1 1 .00541 -731.969 799.88)" class="st2" cx="36.1" cy="767.9" rx="20.9" ry="36.1"/><ellipse transform="matrix(.00541 -1 1 .00541 -722.931 802.331)" class="st3" cx="41.9" cy="764.6" rx="8.3" ry="14.3"/><path class="st3" d="M40.2 788.6c0-4.9-2-9.7-5.6-13.1C24.2 765.3 3.1 765.2.2 765.2H0v1.5c-.5 5.7 3 11.5 10.6 15.9 7.7 4.5 18 6.5 28.1 6.1v.1h1.5v-.2z"/><ellipse transform="matrix(.00541 -1 1 .00541 -694.54 1003.775)" class="st2" cx="157.3" cy="851" rx="20.9" ry="36.1"/><ellipse transform="matrix(.00541 -1 1 .00541 -685.522 1006.206)" class="st3" cx="163.1" cy="847.7" rx="8.3" ry="14.3"/><path class="st3" d="M161.4 871.8c0-4.9-2-9.7-5.6-13.1-10.4-10.1-31.5-10.3-34.4-10.3h-.3v1.5c-.5 5.7 3 11.5 10.6 15.9s18 6.5 28.1 6.1v.1h1.5c.1-.1.1-.2.1-.2z"/><ellipse transform="matrix(.00541 -1 1 .00541 -814.933 1134.934)" class="st2" cx="163.1" cy="977.1" rx="20.9" ry="36.1"/><ellipse transform="matrix(.00541 -1 1 .00541 -805.905 1137.375)" class="st3" cx="168.8" cy="973.8" rx="8.3" ry="14.3"/><path class="st3" d="M167.2 997.9c0-4.9-2-9.7-5.6-13.1-10.4-10.1-31.5-10.3-34.4-10.3h-.2v1.5c-.5 5.7 3 11.5 10.6 15.9s18 6.5 28.1 6.1v.1h1.5v-.2z"/><ellipse transform="matrix(.00541 -1 1 .00541 -414.787 1035.36)" class="st2" cx="313.1" cy="726.2" rx="20.9" ry="36.1"/><ellipse transform="matrix(.00541 -1 1 .00541 -405.76 1037.82)" class="st3" cx="318.8" cy="722.9" rx="8.3" ry="14.3"/><path class="st3" d="M317.2 746.9c0-4.9-2-9.7-5.6-13.1-10.4-10.1-31.5-10.3-34.4-10.3h-.2v1.5c-.5 5.7 3 11.5 10.6 15.9s18 6.5 28.1 6.1v.1h1.5v-.2z"/><path class="st1" d="M462 747.1l-112.8 74"/><path class="st0" d="M1014.4 265.6L811.6 147.4M947.6 303.3L744.8 185.2M879.6 343.1L676.8 224.9M810.4 384.4L607.6 266.2M743.7 420.7L540.9 302.6M885.6 106.2l-340 194.7M950.3 144.4L610.3 339M1018.3 183.9l-340 194.7M1088.4 224.4l-340 194.7"/><path class="st4" d="M571 286.2c-14.1-8.2-37-8.2-51.1-.1-7.7 4.4-11.1 10.4-10.4 16.2l.8-.5c7.5-4.2 10.2-3.9 25.9-.2.1-2.3 1.9-5 4.6-7.1l-4.5-2.6c-.7-.2-1.1-1-.8-1.7.1-.4.4-.7.8-.8 1.4-.7 3-.7 4.3 0l4.4 2.5 4.3-2.5c1.4-.7 3-.7 4.3 0l13.1 7.5c1.2.7 1.2 1.8 0 2.5l-4.3 2.5 4.3 2.5c.7.2 1.1 1 .8 1.7-.1.4-.4.7-.8.8-1.4.7-3 .7-4.3 0l-4.5-2.6c-3.9 1.6-8.1 2.6-12.3 2.7 6.2 8.9 6.9 10.6-.1 14.8 9.3 0 18.6-2 25.7-6.1 14.1-8.1 14-21.3-.2-29.5z"/><path class="st5" d="M545.7 307c4.2-.1 8.4-1 12.3-2.7l4.5 2.6c1.4.7 3 .7 4.3 0 .7-.2 1.1-1 .8-1.7-.1-.4-.4-.7-.8-.8l-4.3-2.5 4.3-2.5c1.2-.7 1.2-1.8 0-2.5l-13.1-7.5c-1.4-.7-3-.7-4.3 0l-4.3 2.5-4.4-2.5c-1.4-.7-3-.7-4.3 0-.7.2-1.1 1-.8 1.7.1.4.4.7.8.8l4.5 2.6c-2.7 2.1-4.5 4.8-4.6 7.1-15.7-3.6-18.4-4-25.9.2l-.8.5c.6 4.8 4.1 9.6 10.6 13.3 7 4.1 16.2 6.1 25.4 6.1 7-4.2 6.3-5.8.1-14.7z"/><path class="st4" d="M635.8 324.4c-14.2-8.2-37-8.2-51.1-.1-7.7 4.4-11.1 10.4-10.4 16.2l.8-.5c7.5-4.2 10.2-3.9 25.9-.2.1-2.3 1.9-5 4.6-7.1l-4.5-2.6c-.7-.2-1.1-1-.8-1.7.1-.4.4-.7.8-.8 1.4-.7 3-.7 4.3 0l4.4 2.5 4.3-2.5c1.4-.7 3-.7 4.3 0l13.1 7.5c1.2.7 1.2 1.8 0 2.5l-4.3 2.5 4.4 2.5c.7.2 1.1 1 .8 1.7-.1.4-.4.7-.8.8-1.4.7-3 .7-4.3 0l-4.5-2.7c-3.9 1.6-8.1 2.6-12.3 2.7 6.2 8.9 6.9 10.6-.2 14.8 9.3 0 18.6-2 25.7-6.1 14-8.1 13.9-21.3-.2-29.4z"/><path class="st5" d="M610.4 345.1c4.2-.1 8.4-1.1 12.3-2.7l4.5 2.6c1.4.7 3 .7 4.3 0 .7-.2 1.1-1 .8-1.7-.1-.4-.4-.7-.8-.8l-4.4-2.5 4.3-2.5c1.2-.7 1.2-1.8 0-2.5l-13.1-7.5c-1.4-.7-3-.7-4.3 0l-4.3 2.5-4.4-2.5c-1.4-.7-3-.7-4.3 0-.7.2-1.1 1-.8 1.7.1.4.4.7.8.8l4.5 2.6c-2.7 2.1-4.5 4.8-4.6 7.1-15.7-3.6-18.4-4-25.9.2l-.8.5c.6 4.8 4.1 9.6 10.6 13.3 7 4.1 16.2 6.1 25.4 6.1 7.1-4.1 6.4-5.8.2-14.7z"/><path class="st4" d="M703.8 363.9c-14.2-8.2-37-8.2-51.1-.1-7.7 4.4-11.1 10.4-10.4 16.2l.8-.5c7.5-4.2 10.2-3.9 25.9-.2.1-2.3 1.9-5 4.6-7.1l-4.5-2.6c-1.2-.7-1.2-1.8 0-2.5 1.4-.7 3-.7 4.3 0l4.4 2.5 4.3-2.5c1.4-.7 3-.7 4.3 0l13.1 7.5c1.2.7 1.2 1.8 0 2.5l-4.3 2.5 4.4 2.5c.7.2 1.1 1 .8 1.7-.1.4-.4.7-.8.8-1.4.7-3 .7-4.3 0l-4.5-2.6c-3.9 1.6-8.1 2.5-12.3 2.7 6.2 8.9 6.9 10.6-.2 14.8 9.3 0 18.6-2 25.7-6 14-8.3 13.9-21.5-.2-29.6z"/><path class="st5" d="M678.4 384.6c4.2-.1 8.4-1 12.3-2.7l4.5 2.6c1.4.7 3 .7 4.3 0 .7-.2 1.1-1 .8-1.7-.1-.4-.4-.7-.8-.8l-4.4-2.5 4.3-2.5c1.2-.7 1.2-1.8 0-2.5l-13.1-7.5c-1.4-.7-3-.7-4.3 0l-4.3 2.5-4.4-2.5c-1.4-.7-3-.7-4.3 0-1.2.7-1.2 1.8 0 2.5l4.5 2.6c-2.7 2.1-4.5 4.8-4.6 7.1-15.7-3.6-18.4-4-25.9.2l-.8.5c.6 4.9 4.1 9.6 10.6 13.3 7 4.1 16.2 6.1 25.4 6.1 7.1-4.1 6.4-5.8.2-14.7z"/><path class="st4" d="M637.9 248.5c-14.2-8.2-37-8.2-51.1-.1-7.7 4.4-11.1 10.4-10.4 16.2l.8-.5c7.5-4.2 10.2-3.9 25.9-.2.1-2.3 1.9-5 4.6-7.1l-4.5-2.6c-.7-.2-1.1-1-.8-1.7.1-.4.4-.7.8-.8 1.4-.7 3-.7 4.3 0l4.4 2.5 4.3-2.5c1.4-.7 3-.7 4.3 0l13.1 7.5c1.2.7 1.2 1.8 0 2.5l-4.3 2.5 4.4 2.5c.7.2 1.1 1 .8 1.7-.1.4-.4.7-.8.8-1.4.7-3 .7-4.3 0l-4.5-2.6c-3.9 1.6-8.1 2.6-12.3 2.7 6.2 8.9 6.9 10.6-.2 14.8 9.3 0 18.6-2 25.7-6.1 14-8.2 13.9-21.4-.2-29.5z"/><path class="st5" d="M612.5 269.2c4.2-.1 8.4-1 12.3-2.7l4.5 2.6c1.4.7 3 .7 4.3 0 .7-.2 1.1-1 .8-1.7-.1-.4-.4-.7-.8-.8l-4.4-2.5 4.3-2.5c1.2-.7 1.2-1.8 0-2.5l-13.1-7.5c-1.4-.7-3-.7-4.3 0l-4.3 2.5-4.4-2.5c-1.4-.7-3-.7-4.3 0-.7.2-1.1 1-.8 1.7.1.4.4.7.8.8l4.5 2.6c-2.7 2.1-4.5 4.8-4.6 7.1-15.7-3.6-18.4-4-25.9.2l-.8.5c.6 4.8 4.1 9.6 10.5 13.3 7 4.1 16.2 6.1 25.4 6.1 7.2-4.1 6.5-5.8.3-14.7z"/><path class="st4" d="M702.6 286.6c-14.2-8.2-37-8.2-51.1-.1-7.7 4.4-11.1 10.4-10.4 16.2l.8-.5c7.5-4.2 10.2-3.9 25.9-.2.1-2.3 1.9-5 4.6-7.1l-4.5-2.6c-.7-.2-1.1-1-.8-1.7.1-.4.4-.7.8-.8 1.4-.7 3-.7 4.3 0l4.4 2.5 4.3-2.5c1.4-.7 3-.7 4.3 0l13.1 7.5c1.2.7 1.2 1.8 0 2.5l-4.3 2.5 4.3 2.5c.7.2 1.1 1 .8 1.7-.1.4-.4.7-.8.8-1.4.7-3 .7-4.3 0l-4.5-2.6c-3.9 1.7-8.1 2.6-12.4 2.7 6.2 8.9 6.9 10.6-.1 14.8 9.3 0 18.6-2 25.7-6.1 14.1-8.1 14-21.3-.1-29.5z"/><path class="st5" d="M677.2 307.4c4.2-.1 8.4-1 12.3-2.7l4.5 2.6c1.4.7 3 .7 4.3 0 .7-.2 1.1-1 .8-1.7-.1-.4-.4-.7-.8-.8l-4.3-2.5 4.3-2.5c1.2-.7 1.2-1.8 0-2.5l-13.1-7.5c-1.4-.7-3-.7-4.3 0l-4.3 2.5-4.4-2.5c-1.4-.7-3-.7-4.3 0-.7.2-1.1 1-.8 1.7.1.4.4.7.8.8l4.5 2.6c-2.7 2.1-4.5 4.8-4.6 7.1-15.7-3.6-18.4-4-25.9.2l-.8.5c.6 4.8 4.1 9.6 10.5 13.3 7 4.1 16.2 6.1 25.4 6.1 7.1-4.2 6.5-5.8.2-14.7z"/><path class="st4" d="M770.6 326.1c-14.2-8.2-37-8.2-51.1-.1-7.7 4.4-11.1 10.4-10.4 16.2l.8-.5c7.5-4.2 10.2-3.9 25.9-.2.1-2.3 1.9-5 4.6-7.1l-4.5-2.6c-1.2-.7-1.2-1.8 0-2.5 1.4-.7 3-.7 4.3 0l4.4 2.5 4.3-2.5c1.4-.7 3-.7 4.3 0l13.1 7.6c1.2.7 1.2 1.8 0 2.5l-4.3 2.5 4.3 2.5c.7.2 1.1 1 .8 1.7-.1.4-.4.7-.8.8-1.4.7-3 .7-4.3 0l-4.5-2.6c-3.9 1.6-8.1 2.5-12.3 2.7 6.2 8.9 6.9 10.6-.1 14.8 9.3 0 18.6-2 25.7-6 14-8.3 13.9-21.5-.2-29.7z"/><path class="st5" d="M745.2 346.9c4.2-.1 8.4-1 12.3-2.7l4.5 2.6c1.4.7 3 .7 4.3 0 .7-.2 1.1-1 .8-1.7-.1-.4-.4-.7-.8-.8l-4.3-2.5 4.3-2.5c1.2-.7 1.2-1.8 0-2.5l-13.1-7.6c-1.4-.7-3-.7-4.3 0l-4.3 2.5-4.4-2.5c-1.4-.7-3-.7-4.3 0-1.2.7-1.2 1.8 0 2.5l4.5 2.6c-2.7 2.1-4.5 4.8-4.6 7.1-15.7-3.6-18.4-4-25.9.2l-.8.5c.6 4.9 4.1 9.6 10.5 13.3 7 4.1 16.2 6.1 25.4 6.1 7.1-4 6.5-5.7.2-14.6z"/><path class="st4" d="M707 207.2c-14.1-8.2-37-8.2-51.1-.1-7.7 4.4-11.1 10.4-10.4 16.2l.8-.5c7.5-4.2 10.2-3.9 25.9-.2.1-2.4 1.9-5 4.6-7.1l-4.5-2.6c-1.2-.7-1.2-1.8 0-2.5 1.4-.7 3-.7 4.3 0l4.4 2.5 4.3-2.5c1.4-.7 3-.7 4.3 0l13.1 7.5c.7.2 1.1 1 .8 1.7-.1.4-.4.7-.8.8l-4.3 2.5 4.3 2.5c1.2.7 1.2 1.8 0 2.5-1.4.7-3 .7-4.3 0l-4.5-2.6c-3.9 1.6-8.1 2.6-12.3 2.7 6.2 8.9 6.9 10.6-.1 14.8 9.3 0 18.6-2 25.7-6 14.1-8.3 14-21.4-.2-29.6z"/><path class="st5" d="M681.7 227.9c4.2-.1 8.4-1 12.3-2.7l4.5 2.6c1.4.7 3 .7 4.3 0 1.2-.7 1.2-1.8 0-2.5l-4.3-2.5 4.3-2.5c.7-.2 1.1-1 .8-1.7-.1-.4-.4-.7-.8-.8l-13.1-7.6c-1.4-.7-3-.7-4.3 0l-4.3 2.5-4.4-2.5c-1.4-.7-3-.7-4.3 0-1.2.7-1.2 1.8 0 2.5l4.5 2.6c-2.7 2.1-4.5 4.8-4.6 7.1-15.7-3.6-18.4-4-25.9.2l-.8.5c.6 4.9 4.1 9.6 10.5 13.3 7 4.1 16.2 6.1 25.4 6.1 7.1-4 6.4-5.7.2-14.6z"/><path class="st4" d="M771.8 245.3c-14.2-8.2-37-8.2-51.1-.1-7.7 4.4-11.1 10.4-10.4 16.2l.8-.5c7.5-4.2 10.2-3.9 25.9-.2.1-2.4 1.9-5 4.6-7.1l-4.5-2.6c-1.2-.7-1.2-1.8 0-2.5 1.4-.7 3-.7 4.3 0l4.4 2.5 4.3-2.5c1.4-.7 3-.7 4.3 0l13.1 7.6c.7.2 1.1 1 .8 1.7-.1.4-.4.7-.8.8l-4.3 2.5 4.4 2.5c1.2.7 1.2 1.8 0 2.5-1.4.7-3 .7-4.3 0l-4.5-2.6c-3.9 1.6-8.1 2.6-12.3 2.7 6.2 8.9 6.9 10.6-.2 14.8 9.3 0 18.6-2 25.7-6.1 14-8.2 13.9-21.4-.2-29.6z"/><path class="st5" d="M746.4 266.1c4.2-.1 8.4-1 12.3-2.7l4.5 2.6c1.4.7 3 .7 4.3 0 1.2-.7 1.2-1.8 0-2.5l-4.4-2.5 4.3-2.5c.7-.2 1.1-1 .8-1.7-.1-.4-.4-.7-.8-.8l-13.1-7.6c-1.4-.7-3-.7-4.3 0l-4.3 2.5-4.4-2.5c-1.4-.7-3-.7-4.3 0-1.2.7-1.2 1.8 0 2.5l4.5 2.6c-2.7 2.1-4.5 4.8-4.6 7.1-15.7-3.6-18.4-4-25.9.2l-.8.5c.6 4.9 4.1 9.6 10.6 13.3 7 4.1 16.2 6.1 25.4 6.1 7.1-4.1 6.4-5.7.2-14.6z"/><path class="st4" d="M839.8 284.8c-14.2-8.2-37-8.2-51.1-.1-7.7 4.4-11.1 10.4-10.4 16.2l.8-.5c7.5-4.2 10.2-3.9 25.9-.2.1-2.4 1.9-5 4.6-7.1l-4.5-2.7c-.7-.2-1.1-1-.8-1.7.1-.4.4-.7.8-.8 1.4-.7 3-.7 4.3 0l4.4 2.5 4.3-2.5c1.4-.7 3-.7 4.3 0l13.1 7.5c.7.2 1.1 1 .8 1.7-.1.4-.4.7-.8.8l-4.3 2.5 4.4 2.5c.7.2 1.1 1 .8 1.7-.1.4-.4.7-.8.8-1.4.7-3 .7-4.3 0l-4.5-2.6c-3.9 1.6-8.1 2.6-12.3 2.7 6.2 8.9 6.9 10.6-.2 14.8 9.3 0 18.6-2 25.7-6.1 14-8 13.9-21.2-.2-29.4z"/><path class="st5" d="M814.4 305.6c4.2-.1 8.4-1 12.3-2.7l4.5 2.6c1.4.7 3 .7 4.3 0 .7-.2 1.1-1 .8-1.7-.1-.4-.4-.7-.8-.8l-4.4-2.5 4.3-2.5c.7-.2 1.1-1 .8-1.7-.1-.4-.4-.7-.8-.8l-13.1-7.6c-1.4-.7-3-.7-4.3 0l-4.3 2.5-4.4-2.5c-1.4-.7-3-.7-4.3 0-.7.2-1.1 1-.8 1.7.1.4.4.7.8.8l4.5 2.6c-2.7 2.1-4.5 4.8-4.6 7.1-15.7-3.7-18.4-4-25.9.2l-.8.5c.6 4.8 4.1 9.6 10.6 13.3 7 4.1 16.2 6.1 25.4 6.1 7.1-4 6.4-5.7.2-14.6z"/><path class="st4" d="M775 170.6c-14.1-8.2-37-8.2-51-.1-7.7 4.4-11.1 10.3-10.4 16.2l.8-.5c7.5-4.2 10.2-3.9 25.9-.2.1-2.4 1.9-5 4.6-7.1l-4.5-2.6c-1.2-.7-1.2-1.8 0-2.5 1.4-.7 3-.7 4.3 0l4.4 2.5 4.3-2.5c1.4-.7 3-.7 4.3 0l13.1 7.6c.7.2 1.1 1 .8 1.7-.1.4-.4.7-.8.8l-4.3 2.5 4.3 2.5c1.2.7 1.2 1.8 0 2.5-1.4.7-3 .7-4.3 0l-4.5-2.6c-3.9 1.7-8.1 2.6-12.3 2.7 6.2 8.9 6.9 10.6-.1 14.8 9.3 0 18.6-2 25.7-6 14-8.4 13.9-21.6-.3-29.7z"/><path class="st5" d="M749.7 191.4c4.2-.1 8.4-1.1 12.3-2.7l4.5 2.6c1.4.7 3 .7 4.3 0 1.2-.7 1.2-1.8 0-2.5l-4.3-2.5 4.3-2.5c.7-.2 1.1-1 .8-1.7-.1-.4-.4-.7-.8-.8l-13.1-7.6c-1.4-.7-3-.7-4.3 0l-4.3 2.5-4.4-2.5c-1.4-.7-3-.7-4.3 0-1.2.7-1.2 1.8 0 2.5l4.5 2.6c-2.7 2.1-4.5 4.8-4.6 7.1-15.7-3.7-18.4-4-25.9.2l-.8.5c.6 4.9 4.1 9.6 10.5 13.3 7 4.1 16.2 6.1 25.4 6.1 7.1-4.1 6.4-5.8.2-14.6z"/><path class="st4" d="M839.8 208.7c-14.2-8.2-37-8.2-51.1-.1-7.7 4.4-11.1 10.4-10.4 16.2l.8-.5c7.5-4.2 10.2-3.9 25.9-.2.1-2.4 1.9-5 4.6-7.1l-4.5-2.6c-1.2-.7-1.2-1.8 0-2.5 1.4-.7 3-.7 4.3 0l4.4 2.5 4.3-2.5c1.4-.7 3-.7 4.3 0l13.1 7.6c.7.2 1.1 1 .8 1.7-.1.4-.4.7-.8.8l-4.3 2.5 4.4 2.5c1.2.7 1.2 1.8 0 2.5-1.4.7-3 .7-4.3 0l-4.5-2.6c-3.9 1.6-8.1 2.6-12.3 2.7 6.2 8.9 6.9 10.6-.2 14.8 9.3 0 18.6-2 25.7-6.1 14-8.2 13.9-21.4-.2-29.6z"/><path class="st5" d="M814.4 229.5c4.2-.1 8.4-1 12.3-2.7l4.5 2.6c1.4.7 3 .7 4.3 0 1.2-.7 1.2-1.8 0-2.5l-4.4-2.5 4.3-2.5c.7-.2 1.1-1 .8-1.7-.1-.4-.4-.7-.8-.8l-13.1-7.6c-1.4-.7-3-.7-4.3 0l-4.3 2.5-4.4-2.5c-1.4-.7-3-.7-4.3 0-1.2.7-1.2 1.8 0 2.5l4.5 2.6c-2.7 2.1-4.5 4.8-4.6 7.1-15.7-3.6-18.4-4-25.9.2l-.8.5c.6 4.9 4.1 9.6 10.6 13.3 7 4.1 16.2 6.1 25.4 6.1 7.1-4.1 6.4-5.7.2-14.6z"/><path class="st4" d="M907.8 248.2c-14.2-8.2-37-8.2-51.1-.1-7.7 4.4-11.1 10.4-10.4 16.2l.8-.5c7.5-4.2 10.2-3.9 25.9-.2.1-2.4 1.9-5 4.6-7.1l-4.5-2.6c-.7-.2-1.1-1-.8-1.7.1-.4.4-.7.8-.8 1.4-.7 3-.7 4.3 0l4.4 2.5 4.3-2.5c1.4-.7 3-.7 4.3 0l13.1 7.6c.7.2 1.1 1 .8 1.7-.1.4-.4.7-.8.8l-4.3 2.5 4.4 2.5c.7.2 1.1 1 .8 1.7-.1.4-.4.7-.8.8-1.4.7-3 .7-4.3 0l-4.5-2.6c-3.9 1.6-8.1 2.6-12.3 2.7 6.2 8.9 6.9 10.6-.2 14.8 9.3 0 18.6-2 25.7-6.1 14-8.2 13.9-21.4-.2-29.6z"/><path class="st5" d="M882.4 269c4.2-.1 8.4-1 12.3-2.7l4.5 2.6c1.4.7 3 .7 4.3 0 .7-.2 1.1-1 .8-1.7-.1-.4-.4-.7-.8-.8l-4.4-2.5 4.3-2.5c.7-.2 1.1-1 .8-1.7-.1-.4-.4-.7-.8-.8l-13.1-7.5c-1.4-.7-3-.7-4.3 0l-4.3 2.5-4.4-2.5c-1.4-.7-3-.7-4.3 0-.7.2-1.1 1-.8 1.7.1.4.4.7.8.8l4.5 2.6c-2.7 2.1-4.5 4.8-4.6 7.1-15.7-3.7-18.4-4-25.9.2l-.8.5c.6 4.8 4.1 9.6 10.6 13.3 7 4.1 16.2 6.1 25.4 6.1 7.1-4.1 6.4-5.8.2-14.7z"/><path class="st4" d="M841.9 132.8c-14.2-8.2-37-8.2-51.1-.1-7.7 4.4-11.1 10.4-10.4 16.2l.8-.5c7.5-4.2 10.2-3.9 25.9-.2.1-2.4 1.9-5 4.6-7.1l-4.5-2.6c-1.2-.7-1.2-1.8 0-2.5 1.4-.7 3-.7 4.3 0l4.4 2.5 4.3-2.5c1.4-.7 3-.7 4.3 0l13.1 7.6c.7.2 1.1 1 .8 1.7-.1.4-.4.7-.8.8l-4.3 2.5 4.4 2.5c1.2.7 1.2 1.8 0 2.5-1.4.7-3 .7-4.3 0l-4.5-2.6c-3.9 1.6-8.1 2.6-12.3 2.7 6.2 8.9 6.9 10.6-.2 14.8 9.3 0 18.6-2 25.7-6.1 14-8.2 13.9-21.4-.2-29.6z"/><path class="st5" d="M816.5 153.6c4.2-.1 8.4-1 12.3-2.7l4.5 2.6c1.4.7 3 .7 4.3 0 1.2-.7 1.2-1.8 0-2.5l-4.4-2.5 4.3-2.5c.7-.2 1.1-1 .8-1.7-.1-.4-.4-.7-.8-.8l-13.1-7.6c-1.4-.7-3-.7-4.3 0l-4.3 2.5-4.4-2.5c-1.4-.7-3-.7-4.3 0-1.2.7-1.2 1.8 0 2.5l4.5 2.6c-2.7 2.1-4.5 4.8-4.6 7.1-15.7-3.7-18.4-4-25.9.2l-.8.5c.6 4.8 4.1 9.6 10.5 13.3 7 4 16.2 6.1 25.4 6.1 7.2-4 6.5-5.7.3-14.6z"/><path class="st4" d="M906.6 171c-14.2-8.2-37-8.2-51.1-.1-7.7 4.4-11.1 10.4-10.4 16.2l.8-.5c7.5-4.2 10.2-3.9 25.9-.2.1-2.4 1.9-5 4.6-7.1l-4.5-2.6c-1.2-.7-1.2-1.8 0-2.5 1.4-.7 3-.7 4.3 0l4.4 2.5 4.3-2.5c1.4-.7 3-.7 4.3 0l13.1 7.6c.7.2 1.1 1 .8 1.7-.1.4-.4.7-.8.8l-4.3 2.5 4.3 2.5c1.2.7 1.2 1.8 0 2.5-1.4.7-3 .7-4.3 0l-4.5-2.6c-3.9 1.6-8.1 2.6-12.3 2.7 6.2 8.9 6.9 10.6-.1 14.8 9.3 0 18.6-2 25.7-6.1 14-8.2 13.9-21.5-.2-29.6z"/><path class="st5" d="M881.2 191.7c4.2-.1 8.4-1 12.3-2.7l4.5 2.6c1.4.7 3 .7 4.3 0 1.2-.7 1.2-1.8 0-2.5l-4.3-2.5 4.3-2.5c.7-.2 1.1-1 .8-1.7-.1-.4-.4-.7-.8-.8l-13.1-7.6c-1.4-.7-3-.7-4.3 0l-4.3 2.5-4.4-2.5c-1.4-.7-3-.7-4.3 0-1.2.7-1.2 1.8 0 2.5l4.5 2.6c-2.7 2.1-4.5 4.8-4.6 7.1-15.7-3.6-18.4-4-25.9.2l-.8.5c.6 4.8 4.1 9.6 10.5 13.3 7 4.1 16.2 6.1 25.4 6.2 7.1-4.1 6.5-5.8.2-14.7z"/><path class="st4" d="M974.6 210.5c-14.2-8.2-37-8.2-51.1-.1-7.7 4.4-11.1 10.4-10.4 16.2l.8-.5c7.5-4.2 10.2-3.9 25.9-.2.1-2.4 1.9-5 4.6-7.1l-4.5-2.6c-.7-.2-1.1-1-.8-1.7.1-.4.4-.7.8-.8 1.4-.7 3-.7 4.3 0l4.4 2.5 4.3-2.5c1.4-.7 3-.7 4.3 0l13.1 7.6c.7.2 1.1 1 .8 1.7-.1.4-.4.7-.8.8l-4.3 2.5 4.3 2.5c.7.2 1.1 1 .8 1.7-.1.4-.4.7-.8.8-1.4.7-3 .7-4.3 0l-4.5-2.6c-3.9 1.6-8.1 2.6-12.3 2.7 6.2 8.9 6.9 10.6-.1 14.8 9.3 0 18.6-2 25.7-6.1 14-8.2 13.9-21.4-.2-29.6z"/><path class="st5" d="M949.2 231.3c4.2-.1 8.4-1 12.3-2.7l4.5 2.6c1.4.7 3 .7 4.3 0 .7-.2 1.1-1 .8-1.7-.1-.4-.4-.7-.8-.8l-4.3-2.5 4.3-2.5c.7-.2 1.1-1 .8-1.7-.1-.4-.4-.7-.8-.8l-13.1-7.6c-1.4-.7-3-.7-4.3 0l-4.3 2.5-4.4-2.5c-1.4-.7-3-.7-4.3 0-.7.2-1.1 1-.8 1.7.1.4.4.7.8.8l4.5 2.6c-2.7 2.1-4.5 4.8-4.6 7.1-15.7-3.7-18.4-4-25.9.2l-.8.5c.6 4.8 4.1 9.6 10.5 13.3 7 4.1 16.2 6.1 25.4 6.1 7.1-4.1 6.5-5.7.2-14.6z"/><path class="st4" d="M911 91.5c-14.1-8.2-37-8.2-51-.1-7.7 4.4-11.1 10.4-10.4 16.2l.8-.5c7.5-4.2 10.2-3.9 25.9-.2.1-2.3 1.9-5 4.6-7.1l-4.5-2.6c-.7-.2-1.1-1-.8-1.7.1-.4.4-.7.8-.8 1.4-.7 3-.7 4.3 0l4.4 2.5 4.3-2.5c1.4-.7 3-.7 4.3 0l13.1 7.6c1.2.7 1.2 1.8 0 2.5l-4.3 2.5 4.3 2.5c.7.2 1.1 1 .8 1.7-.1.4-.4.7-.8.8-1.4.7-3 .7-4.3 0l-4.5-2.6c-3.9 1.6-8.1 2.6-12.3 2.7 6.2 8.9 6.9 10.6-.1 14.8 9.3.1 18.6-2 25.7-6 14-8.3 13.9-21.5-.3-29.7z"/><path class="st5" d="M885.7 112.3c4.2-.1 8.4-1 12.3-2.7l4.5 2.6c1.4.7 3 .7 4.3 0 .7-.2 1.1-1 .8-1.7-.1-.4-.4-.7-.8-.8l-4.3-2.5 4.3-2.5c1.2-.7 1.2-1.8 0-2.5l-13.1-7.6c-1.4-.7-3-.7-4.3 0l-4.3 2.5-4.4-2.5c-1.4-.7-3-.7-4.3 0-.7.2-1.1 1-.8 1.7.1.4.4.7.8.8l4.5 2.6c-2.7 2.1-4.5 4.8-4.6 7.1-15.7-3.7-18.4-4-25.9.2l-.8.5c.6 4.9 4.1 9.6 10.5 13.3 7 4.1 16.2 6.1 25.4 6.1 7.1-4 6.4-5.7.2-14.6z"/><path class="st4" d="M975.8 129.7c-14.2-8.2-37-8.2-51.1-.1-7.7 4.4-11.1 10.4-10.4 16.2l.8-.5c7.5-4.2 10.2-3.9 25.9-.2.1-2.3 1.9-5 4.6-7.1l-4.5-2.6c-1.2-.7-1.2-1.8 0-2.5 1.4-.7 3-.7 4.3 0l4.4 2.5 4.3-2.5c1.4-.7 3-.7 4.3 0l13.1 7.6c1.2.7 1.2 1.8 0 2.5l-4.3 2.5 4.4 2.5c.7.2 1.1 1 .8 1.7-.1.4-.4.7-.8.8-1.4.7-3 .7-4.3 0l-4.5-2.6c-3.9 1.6-8.1 2.5-12.3 2.7 6.2 8.9 6.9 10.6-.2 14.8 9.3 0 18.6-2 25.7-6 14-8.4 13.9-21.6-.2-29.7z"/><path class="st5" d="M950.4 150.4c4.2-.1 8.4-1 12.3-2.7l4.5 2.6c1.4.7 3 .7 4.3 0 .7-.2 1.1-1 .8-1.7-.1-.4-.4-.7-.8-.8l-4.4-2.5 4.3-2.5c1.2-.7 1.2-1.8 0-2.5l-13.1-7.6c-1.4-.7-3-.7-4.3 0l-4.3 2.5-4.4-2.5c-1.4-.7-3-.7-4.3 0-1.2.7-1.2 1.8 0 2.5l4.5 2.6c-2.7 2.1-4.5 4.8-4.6 7.1-15.7-3.6-18.4-4-25.9.2l-.8.5c.6 4.9 4.1 9.6 10.6 13.3 7 4.1 16.2 6.1 25.4 6.1 7.1-4 6.4-5.6.2-14.6z"/><path class="st4" d="M1043.8 169.2c-14.2-8.2-37-8.2-51.1-.1-7.7 4.4-11.1 10.4-10.4 16.2l.8-.5c7.5-4.2 10.2-3.9 25.9-.2.1-2.3 1.9-5 4.6-7.1l-4.5-2.6c-1.2-.7-1.2-1.8 0-2.5 1.4-.7 3-.7 4.3 0l4.4 2.5 4.3-2.5c1.4-.7 3-.7 4.3 0l13.1 7.6c.7.2 1.1 1 .8 1.7-.1.4-.4.7-.8.8l-4.3 2.5 4.4 2.5c1.2.7 1.2 1.8 0 2.5-1.4.7-3 .7-4.3 0l-4.5-2.6c-3.9 1.6-8.1 2.6-12.3 2.7 6.2 8.9 6.9 10.6-.2 14.8 9.3 0 18.6-2 25.7-6 14-8.3 13.9-21.5-.2-29.7z"/><path class="st5" d="M1018.4 190c4.2-.1 8.4-1 12.3-2.7l4.5 2.6c1.4.7 3 .7 4.3 0 1.2-.7 1.2-1.8 0-2.5l-4.4-2.5 4.3-2.5c.7-.2 1.1-1 .8-1.7-.1-.4-.4-.7-.8-.8l-13.1-7.6c-1.4-.7-3-.7-4.3 0l-4.3 2.5-4.4-2.5c-1.4-.7-3-.7-4.3 0-1.2.7-1.2 1.8 0 2.5l4.5 2.6c-2.7 2.1-4.5 4.8-4.6 7.1-15.7-3.6-18.4-4-25.9.2l-.8.5c.6 4.8 4.1 9.6 10.6 13.3 7 4.1 16.2 6.1 25.4 6.2 7.1-4.2 6.4-5.8.2-14.7z"/><path class="st0" d="M1218.4 382.8l-202.8-118.2M1151.6 420.5L948.8 302.3M1083.6 460.3L880.8 342.1M1014.4 501.6L811.6 383.4M947.7 537.9L744.9 419.7M1089.6 223.4l-340 194.7M1154.3 261.5l-340 194.7M1222.3 301.1l-340 194.6M1292.4 341.6l-340 194.6"/><path class="st4" d="M839.8 441.5c-14.2-8.2-37-8.2-51.1-.1-7.7 4.4-11.1 10.4-10.4 16.2l.8-.5c7.5-4.2 10.2-3.9 25.9-.2.1-2.3 1.9-5 4.6-7.1l-4.5-2.6c-1.2-.7-1.2-1.8 0-2.5 1.4-.7 3-.7 4.3 0l4.4 2.5 4.3-2.5c1.4-.7 3-.7 4.3 0l13.1 7.5c.7.2 1.1 1 .8 1.7-.1.4-.4.7-.8.8l-4.3 2.5 4.4 2.5c1.2.7 1.2 1.8 0 2.5-1.4.7-3 .7-4.3 0l-4.5-2.6c-3.9 1.6-8.1 2.6-12.3 2.7 6.2 8.9 6.9 10.6-.2 14.8 9.3 0 18.6-2 25.7-6 14-8.2 13.9-21.4-.2-29.6z"/><path class="st5" d="M814.4 462.3c4.2-.1 8.4-1 12.3-2.7l4.5 2.6c1.4.7 3 .7 4.3 0 1.2-.7 1.2-1.8 0-2.5l-4.4-2.5 4.3-2.5c.7-.2 1.1-1 .8-1.7-.1-.4-.4-.7-.8-.8l-13.1-7.5c-1.4-.7-3-.7-4.3 0l-4.3 2.5-4.4-2.5c-1.4-.7-3-.7-4.3 0-1.2.7-1.2 1.8 0 2.5l4.5 2.6c-2.7 2.1-4.5 4.8-4.6 7.1-15.7-3.6-18.4-4-25.9.2l-.8.5c.6 4.9 4.1 9.6 10.6 13.3 7 4.1 16.2 6.1 25.4 6.1 7.1-4.2 6.4-5.8.2-14.7z"/><path class="st4" d="M907.8 481c-14.2-8.2-37-8.2-51.1-.1-7.7 4.4-11.1 10.4-10.4 16.2l.8-.5c7.5-4.2 10.2-3.9 25.9-.2.1-2.4 1.9-5 4.6-7.1l-4.5-2.6c-1.2-.7-1.2-1.8 0-2.5 1.4-.7 3-.7 4.3 0l4.4 2.5 4.3-2.5c1.4-.7 3-.7 4.3 0l13.1 7.5c.7.2 1.1 1 .8 1.7-.1.4-.4.7-.8.8l-4.3 2.5 4.4 2.5c1.2.7 1.2 1.8 0 2.5-1.4.7-3 .7-4.3 0l-4.5-2.6c-3.9 1.6-8.1 2.6-12.3 2.7 6.2 8.9 6.9 10.6-.2 14.8 9.3 0 18.6-2 25.7-6.1 14-8.1 13.9-21.3-.2-29.5z"/><path class="st5" d="M882.4 501.8c4.2-.1 8.4-1 12.3-2.7l4.5 2.6c1.4.7 3 .7 4.3 0 1.2-.7 1.2-1.8 0-2.5l-4.4-2.5 4.3-2.5c.7-.2 1.1-1 .8-1.7-.1-.4-.4-.7-.8-.8l-13.1-7.5c-1.4-.7-3-.7-4.3 0l-4.3 2.5-4.4-2.5c-1.4-.7-3-.7-4.3 0-1.2.7-1.2 1.8 0 2.5l4.5 2.6c-2.7 2.1-4.5 4.8-4.6 7.1-15.7-3.6-18.4-4-25.9.2l-.8.5c.6 4.9 4.1 9.6 10.6 13.3 7 4.1 16.2 6.1 25.4 6.2 7.1-4.2 6.4-5.9.2-14.8z"/><path class="st4" d="M979 520.6c-14.1-8.2-37-8.2-51-.1-7.7 4.4-11.1 10.4-10.4 16.2l.8-.5c7.5-4.2 10.2-3.9 25.9-.2.1-2.4 1.9-5 4.6-7.1l-4.5-2.6c-.7-.2-1.1-1-.8-1.7.1-.4.4-.7.8-.8 1.4-.7 3-.7 4.3 0l4.4 2.5 4.3-2.5c1.4-.7 3-.7 4.3 0l13.1 7.5c1.2.7 1.2 1.8 0 2.5l-4.3 2.5 4.3 2.5c.7.2 1.1 1 .8 1.7-.1.4-.4.7-.8.8-1.4.7-3 .7-4.3 0l-4.5-2.6c-3.9 1.6-8.1 2.6-12.3 2.7 6.2 8.9 6.9 10.6-.1 14.8 9.3 0 18.6-2 25.7-6.1 14-8.2 13.9-21.4-.3-29.5z"/><path class="st5" d="M953.7 541.3c4.2-.1 8.4-1 12.3-2.7l4.5 2.6c1.4.7 3 .7 4.3 0 .7-.2 1.1-1 .8-1.7-.1-.4-.4-.7-.8-.8l-4.3-2.5 4.3-2.5c1.2-.7 1.2-1.8 0-2.5l-13.1-7.5c-1.4-.7-3-.7-4.3 0l-4.3 2.5-4.4-2.5c-1.4-.7-3-.7-4.3 0-.7.2-1.1 1-.8 1.7.1.4.4.7.8.8l4.5 2.6c-2.7 2.1-4.5 4.8-4.6 7.1-15.7-3.7-18.4-4-25.9.2l-.8.5c.6 4.8 4.1 9.6 10.5 13.3 7 4.1 16.2 6.1 25.4 6.1 7.1-4.1 6.4-5.8.2-14.7z"/><path class="st4" d="M906.6 403.8c-14.2-8.2-37-8.2-51.1-.1-7.7 4.4-11.1 10.4-10.4 16.2l.8-.5c7.5-4.2 10.2-3.9 25.9-.2.1-2.4 1.9-5 4.6-7.1l-4.5-2.6c-1.2-.7-1.2-1.8 0-2.5 1.4-.7 3-.7 4.3 0l4.4 2.5 4.3-2.5c1.4-.7 3-.7 4.3 0l13.1 7.5c.7.2 1.1 1 .8 1.7-.1.4-.4.7-.8.8l-4.3 2.5 4.3 2.5c1.2.7 1.2 1.8 0 2.5-1.4.7-3 .7-4.3 0l-4.5-2.6c-3.9 1.6-8.1 2.6-12.3 2.7 6.2 8.9 6.9 10.6-.1 14.8 9.3 0 18.6-2 25.7-6 14-8.3 13.9-21.5-.2-29.6z"/><path class="st5" d="M881.2 424.5c4.2-.1 8.4-1 12.3-2.7l4.5 2.6c1.4.7 3 .7 4.3 0 1.2-.7 1.2-1.8 0-2.5l-4.3-2.5 4.3-2.5c.7-.2 1.1-1 .8-1.7-.1-.4-.4-.7-.8-.8l-13.1-7.5c-1.4-.7-3-.7-4.3 0l-4.3 2.5-4.4-2.5c-1.4-.7-3-.7-4.3 0-1.2.7-1.2 1.8 0 2.5l4.5 2.6c-2.7 2.1-4.5 4.8-4.6 7.1-15.7-3.6-18.4-4-25.9.2l-.8.5c.6 4.9 4.1 9.6 10.5 13.3 7 4.1 16.2 6.1 25.4 6.1 7.1-4.1 6.5-5.8.2-14.7z"/><path class="st4" d="M974.6 443.3c-14.2-8.2-37-8.2-51.1-.1-7.7 4.4-11.1 10.4-10.4 16.2l.8-.5c7.5-4.2 10.2-3.9 25.9-.2.1-2.4 1.9-5 4.6-7.1l-4.5-2.6c-.7-.2-1.1-1-.8-1.7.1-.4.4-.7.8-.8 1.4-.7 3-.7 4.3 0l4.4 2.5 4.3-2.5c1.4-.7 3-.7 4.3 0l13.1 7.5c.7.2 1.1 1 .8 1.7-.1.4-.4.7-.8.8L966 459l4.3 2.5c1.2.7 1.2 1.8 0 2.5-1.4.7-3 .7-4.3 0l-4.5-2.6c-3.9 1.6-8.1 2.6-12.3 2.7 6.2 8.9 6.9 10.6-.1 14.8 9.3 0 18.6-2 25.7-6.1 14-8.1 13.9-21.3-.2-29.5z"/><path class="st5" d="M949.2 464.1c4.2-.1 8.4-1 12.3-2.7l4.5 2.6c1.4.7 3 .7 4.3 0 1.2-.7 1.2-1.8 0-2.5L966 459l4.3-2.5c.7-.2 1.1-1 .8-1.7-.1-.4-.4-.7-.8-.8l-13.1-7.6c-1.4-.7-3-.7-4.3 0l-4.3 2.5-4.4-2.5c-1.4-.7-3-.7-4.3 0-.7.2-1.1 1-.8 1.7.1.4.4.7.8.8l4.5 2.6c-2.7 2.1-4.5 4.8-4.6 7.1-15.7-3.6-18.4-4-25.9.2l-.8.5c.6 4.9 4.1 9.6 10.5 13.3 7 4.1 16.2 6.1 25.4 6.1 7.1-4.1 6.5-5.7.2-14.6z"/><path class="st4" d="M1045.9 482.8c-14.2-8.2-37-8.2-51.1-.1-7.7 4.4-11.1 10.4-10.4 16.2l.8-.5c7.5-4.2 10.2-3.9 25.9-.2.1-2.3 1.9-5 4.6-7.1l-4.5-2.6c-.7-.2-1.1-1-.8-1.7.1-.4.4-.7.8-.8 1.4-.7 3-.7 4.3 0l4.4 2.5 4.3-2.5c1.4-.7 3-.7 4.3 0l13.1 7.5c1.2.7 1.2 1.8 0 2.5l-4.3 2.5 4.4 2.5c.7.2 1.1 1 .8 1.7-.1.4-.4.7-.8.8-1.4.7-3 .7-4.3 0l-4.5-2.6c-3.9 1.6-8.1 2.6-12.3 2.7 6.2 8.9 6.9 10.6-.2 14.8 9.3 0 18.6-2 25.7-6.1 14-8.1 13.9-21.3-.2-29.5z"/><path class="st5" d="M1020.5 503.6c4.2-.1 8.4-1 12.3-2.7l4.5 2.6c1.4.7 3 .7 4.3 0 .7-.2 1.1-1 .8-1.7-.1-.4-.4-.7-.8-.8l-4.4-2.5 4.3-2.5c1.2-.7 1.2-1.8 0-2.5l-13.1-7.5c-1.4-.7-3-.7-4.3 0l-4.3 2.5-4.4-2.5c-1.4-.7-3-.7-4.3 0-.7.2-1.1 1-.8 1.7.1.4.4.7.8.8l4.5 2.6c-2.7 2.1-4.5 4.8-4.6 7.1-15.7-3.6-18.4-4-25.9.2l-.8.5c.6 4.8 4.1 9.6 10.5 13.3 7 4.1 16.2 6.1 25.4 6.2 7.2-4.3 6.5-5.9.3-14.8z"/><path class="st4" d="M975.8 362.5c-14.2-8.2-37-8.2-51.1-.1-7.7 4.4-11.1 10.4-10.4 16.2l.8-.5c7.5-4.2 10.2-3.9 25.9-.2.1-2.3 1.9-5 4.6-7.1l-4.5-2.6c-.7-.2-1.1-1-.8-1.7.1-.4.4-.7.8-.8 1.4-.7 3-.7 4.3 0l4.4 2.5 4.3-2.5c1.4-.7 3-.7 4.3 0l13.1 7.5c1.2.7 1.2 1.8 0 2.5l-4.3 2.5 4.4 2.5c.7.2 1.1 1 .8 1.7-.1.4-.4.7-.8.8-1.4.7-3 .7-4.3 0l-4.5-2.6c-3.9 1.6-8.1 2.6-12.3 2.7 6.2 8.9 6.9 10.6-.2 14.8 9.3 0 18.6-2 25.7-6.1 14-8.2 13.9-21.4-.2-29.5z"/><path class="st5" d="M950.4 383.2c4.2-.1 8.4-1 12.3-2.7l4.5 2.6c1.4.7 3 .7 4.3 0 .7-.2 1.1-1 .8-1.7-.1-.4-.4-.7-.8-.8l-4.4-2.5 4.3-2.5c1.2-.7 1.2-1.8 0-2.5l-13.1-7.5c-1.4-.7-3-.7-4.3 0l-4.3 2.5-4.4-2.5c-1.4-.7-3-.7-4.3 0-.7.2-1.1 1-.8 1.7.1.4.4.7.8.8l4.5 2.6c-2.7 2.1-4.5 4.8-4.6 7.1-15.7-3.6-18.4-4-25.9.2l-.8.5c.6 4.9 4.1 9.6 10.6 13.3 7 4.1 16.2 6.1 25.4 6.1 7.1-4.1 6.4-5.7.2-14.7z"/><path class="st4" d="M1043.8 402c-14.2-8.2-37-8.2-51.1-.1-7.7 4.4-11.1 10.4-10.4 16.2l.8-.5c7.5-4.2 10.2-3.9 25.9-.2.1-2.3 1.9-5 4.6-7.1l-4.5-2.6c-1.2-.7-1.2-1.8 0-2.5 1.4-.7 3-.7 4.3 0l4.4 2.5 4.3-2.5c1.4-.7 3-.7 4.3 0l13.1 7.5c1.2.7 1.2 1.8 0 2.5l-4.3 2.5 4.4 2.5c1.2.7 1.2 1.8 0 2.5-1.4.7-3 .7-4.3 0l-4.5-2.6c-3.9 1.6-8.1 2.5-12.3 2.7 6.2 8.9 6.9 10.6-.2 14.8 9.3 0 18.6-2 25.7-6 14-8.2 13.9-21.4-.2-29.6z"/><path class="st5" d="M1018.4 422.8c4.2-.1 8.4-1 12.3-2.7l4.5 2.6c1.4.7 3 .7 4.3 0 1.2-.7 1.2-1.8 0-2.5l-4.4-2.5 4.3-2.5c1.2-.7 1.2-1.8 0-2.5l-13.1-7.5c-1.4-.7-3-.7-4.3 0l-4.3 2.5-4.4-2.5c-1.4-.7-3-.7-4.3 0-1.2.7-1.2 1.8 0 2.5l4.5 2.6c-2.7 2.1-4.5 4.8-4.6 7.1-15.7-3.6-18.4-4-25.9.2l-.8.5c.6 4.9 4.1 9.6 10.6 13.3 7 4 16.2 6.1 25.4 6.1 7.1-4.1 6.4-5.8.2-14.7z"/><path class="st4" d="M1115 441.5c-14.1-8.2-37-8.2-51.1-.1-7.7 4.4-11.1 10.4-10.4 16.2l.8-.5c7.5-4.2 10.2-3.9 25.9-.2.1-2.4 1.9-5 4.6-7.1l-4.5-2.6c-1.2-.7-1.2-1.8 0-2.5 1.4-.7 3-.7 4.3 0l4.4 2.5 4.3-2.5c1.4-.7 3-.7 4.3 0l13.1 7.5c.7.2 1.1 1 .8 1.7-.1.4-.4.7-.8.8l-4.3 2.5 4.3 2.5c1.2.7 1.2 1.8 0 2.5-1.4.7-3 .7-4.3 0l-4.5-2.6c-3.9 1.6-8.1 2.6-12.3 2.7 6.2 8.9 6.9 10.6-.1 14.8 9.3 0 18.6-2 25.7-6 14.1-8.2 14-21.4-.2-29.6z"/><path class="st5" d="M1089.7 462.3c4.2-.1 8.4-1 12.3-2.7l4.5 2.6c1.4.7 3 .7 4.3 0 1.2-.7 1.2-1.8 0-2.5l-4.3-2.5 4.3-2.5c.7-.2 1.1-1 .8-1.7-.1-.4-.4-.7-.8-.8l-13.1-7.5c-1.4-.7-3-.7-4.3 0l-4.3 2.5-4.4-2.5c-1.4-.7-3-.7-4.3 0-1.2.7-1.2 1.8 0 2.5l4.5 2.6c-2.7 2.1-4.5 4.8-4.6 7.1-15.7-3.6-18.4-4-25.9.2l-.8.5c.6 4.9 4.1 9.6 10.6 13.3 7 4.1 16.2 6.1 25.4 6.1 7-4.2 6.3-5.8.1-14.7z"/><path class="st4" d="M1043.8 325.9c-14.2-8.2-37-8.2-51.1-.1-7.7 4.4-11.1 10.4-10.4 16.2l.8-.5c7.5-4.2 10.2-3.9 25.9-.2.1-2.3 1.9-5 4.6-7.1l-4.5-2.6c-.7-.2-1.1-1-.8-1.7.1-.4.4-.7.8-.8 1.4-.7 3-.7 4.3 0l4.4 2.5 4.3-2.5c1.4-.7 3-.7 4.3 0l13.1 7.6c1.2.7 1.2 1.8 0 2.5l-4.3 2.5 4.4 2.5c.7.2 1.1 1 .8 1.7-.1.4-.4.7-.8.8-1.4.7-3 .7-4.3 0l-4.5-2.6c-3.9 1.6-8.1 2.6-12.3 2.7 6.2 8.9 6.9 10.6-.2 14.8 9.3 0 18.6-2 25.7-6.1 14-8.2 13.9-21.4-.2-29.6z"/><path class="st5" d="M1018.4 346.6c4.2-.1 8.4-1 12.3-2.7l4.5 2.6c1.4.7 3 .7 4.3 0 .7-.2 1.1-1 .8-1.7-.1-.4-.4-.7-.8-.8l-4.4-2.5 4.3-2.5c1.2-.7 1.2-1.8 0-2.5l-13.1-7.6c-1.4-.7-3-.7-4.3 0l-4.3 2.5-4.4-2.5c-1.4-.7-3-.7-4.3 0-.7.2-1.1 1-.8 1.7.1.4.4.7.8.8l4.5 2.6c-2.7 2.1-4.5 4.8-4.6 7.1-15.7-3.6-18.4-4-25.9.2l-.8.5c.6 4.9 4.1 9.6 10.6 13.3 7 4.1 16.2 6.1 25.4 6.1 7.1-4 6.4-5.6.2-14.6z"/><path class="st4" d="M1111.8 365.4c-14.2-8.2-37-8.2-51.1-.1-7.7 4.4-11.1 10.4-10.4 16.2l.8-.5c7.5-4.2 10.2-3.9 25.9-.2.1-2.3 1.9-5 4.6-7.1l-4.5-2.6c-1.2-.7-1.2-1.8 0-2.5 1.4-.7 3-.7 4.3 0l4.4 2.5 4.3-2.5c1.4-.7 3-.7 4.3 0l13.1 7.5c1.2.7 1.2 1.8 0 2.5l-4.3 2.5 4.4 2.5c1.2.7 1.2 1.8 0 2.5-1.4.7-3 .7-4.3 0l-4.5-2.6c-3.9 1.6-8.1 2.5-12.3 2.7 6.2 8.9 6.9 10.6-.2 14.8 9.3 0 18.6-2 25.7-6 14-8.2 13.9-21.4-.2-29.6z"/><path class="st5" d="M1086.4 386.2c4.2-.1 8.4-1 12.3-2.7l4.5 2.6c1.4.7 3 .7 4.3 0 1.2-.7 1.2-1.8 0-2.5l-4.4-2.5 4.3-2.5c1.2-.7 1.2-1.8 0-2.5l-13.1-7.5c-1.4-.7-3-.7-4.3 0l-4.3 2.5-4.4-2.5c-1.4-.7-3-.7-4.3 0-1.2.7-1.2 1.8 0 2.5l4.5 2.6c-2.7 2.1-4.5 4.8-4.6 7.1-15.7-3.6-18.4-4-25.9.2l-.8.5c.6 4.9 4.1 9.6 10.6 13.3 7 4.1 16.2 6.1 25.4 6.1 7.1-4.2 6.4-5.8.2-14.7z"/><path class="st4" d="M1183 404.9c-14.1-8.2-37-8.2-51.1-.1-7.7 4.4-11.1 10.4-10.4 16.2l.8-.5c7.5-4.2 10.2-3.9 25.9-.2.1-2.4 1.9-5 4.6-7.1l-4.5-2.6c-1.2-.7-1.2-1.8 0-2.5 1.4-.7 3-.7 4.3 0l4.4 2.5 4.3-2.5c1.4-.7 3-.7 4.3 0l13.1 7.5c.7.2 1.1 1 .8 1.7-.1.4-.4.7-.8.8l-4.3 2.5 4.3 2.5c1.2.7 1.2 1.8 0 2.5-1.4.7-3 .7-4.3 0l-4.5-2.6c-3.9 1.6-8.1 2.6-12.3 2.7 6.2 8.9 6.9 10.6-.1 14.8 9.3 0 18.6-2 25.7-6 14.1-8.2 14-21.4-.2-29.6z"/><path class="st5" d="M1157.7 425.7c4.2-.1 8.4-1 12.3-2.7l4.5 2.6c1.4.7 3 .7 4.3 0 1.2-.7 1.2-1.8 0-2.5l-4.3-2.5 4.3-2.5c.7-.2 1.1-1 .8-1.7-.1-.4-.4-.7-.8-.8l-13.1-7.5c-1.4-.7-3-.7-4.3 0l-4.3 2.5-4.4-2.5c-1.4-.7-3-.7-4.3 0-1.2.7-1.2 1.8 0 2.5l4.5 2.6c-2.7 2.1-4.5 4.8-4.6 7.1-15.7-3.6-18.4-4-25.9.2l-.8.5c.6 4.9 4.1 9.6 10.6 13.3 7 4.1 16.2 6.1 25.4 6.1 7-4.1 6.3-5.8.1-14.7z"/><path class="st4" d="M1110.6 288.1c-14.2-8.2-37-8.2-51.1-.1-7.7 4.4-11.1 10.4-10.4 16.2l.8-.5c7.5-4.2 10.2-3.9 25.9-.2.1-2.3 1.9-5 4.6-7.1l-4.5-2.6c-.7-.2-1.1-1-.8-1.7.1-.4.4-.7.8-.8 1.4-.7 3-.7 4.3 0l4.4 2.5 4.3-2.5c1.4-.7 3-.7 4.3 0l13.1 7.5c1.2.7 1.2 1.8 0 2.5l-4.3 2.5 4.3 2.5c.7.2 1.1 1 .8 1.7-.1.4-.4.7-.8.8-1.4.7-3 .7-4.3 0l-4.5-2.6c-3.9 1.6-8.1 2.6-12.3 2.7 6.2 8.9 6.9 10.6-.1 14.8 9.3 0 18.6-2 25.7-6.1 14-8.1 13.9-21.3-.2-29.5z"/><path class="st5" d="M1085.2 308.9c4.2-.1 8.4-1 12.3-2.7l4.5 2.6c1.4.7 3 .7 4.3 0 .7-.2 1.1-1 .8-1.7-.1-.4-.4-.7-.8-.8l-4.3-2.5 4.3-2.5c1.2-.7 1.2-1.8 0-2.5l-13.1-7.5c-1.4-.7-3-.7-4.3 0l-4.3 2.5-4.4-2.5c-1.4-.7-3-.7-4.3 0-.7.2-1.1 1-.8 1.7.1.4.4.7.8.8l4.5 2.6c-2.7 2.1-4.5 4.8-4.6 7.1-15.7-3.6-18.4-4-25.9.2l-.8.5c.6 4.9 4.1 9.6 10.6 13.3 7 4.1 16.2 6.1 25.4 6.1 7-4.1 6.4-5.8.1-14.7z"/><path class="st4" d="M1178.6 327.7c-14.2-8.2-37-8.2-51.1-.1-7.7 4.4-11.1 10.4-10.4 16.2l.8-.5c7.5-4.2 10.2-3.9 25.9-.2.1-2.3 1.9-5 4.6-7.1l-4.5-2.6c-1.2-.7-1.2-1.8 0-2.5 1.4-.7 3-.7 4.3 0l4.4 2.5 4.3-2.5c1.4-.7 3-.7 4.3 0l13.1 7.6c1.2.7 1.2 1.8 0 2.5l-4.3 2.5 4.3 2.5c1.2.7 1.2 1.8 0 2.5-1.4.7-3 .7-4.3 0l-4.5-2.6c-3.9 1.6-8.1 2.5-12.3 2.7 6.2 8.9 6.9 10.6-.1 14.8 9.3 0 18.6-2 25.7-6 14-8.4 13.9-21.6-.2-29.7z"/><path class="st5" d="M1153.2 348.4c4.2-.1 8.4-1 12.3-2.7l4.5 2.6c1.4.7 3 .7 4.3 0 1.2-.7 1.2-1.8 0-2.5l-4.3-2.5 4.3-2.5c1.2-.7 1.2-1.8 0-2.5l-13.1-7.6c-1.4-.7-3-.7-4.3 0l-4.3 2.5-4.4-2.5c-1.4-.7-3-.7-4.3 0-1.2.7-1.2 1.8 0 2.5l4.5 2.6c-2.7 2.1-4.5 4.8-4.6 7.1-15.7-3.6-18.4-4-25.9.2l-.8.5c.6 4.9 4.1 9.6 10.6 13.3 7 4.1 16.2 6.1 25.4 6.1 7-4 6.4-5.6.1-14.6z"/><path class="st4" d="M1249.9 367.2c-14.2-8.2-37-8.2-51.1-.1-7.7 4.4-11.1 10.4-10.4 16.2l.8-.5c7.5-4.2 10.2-3.9 25.9-.2.1-2.4 1.9-5 4.6-7.1l-4.5-2.6c-1.2-.7-1.2-1.8 0-2.5 1.4-.7 3-.7 4.3 0l4.4 2.5 4.3-2.5c1.4-.7 3-.7 4.3 0l13.1 7.5c.7.2 1.1 1 .8 1.7-.1.4-.4.7-.8.8l-4.3 2.5 4.4 2.5c1.2.7 1.2 1.8 0 2.5-1.4.7-3 .7-4.3 0l-4.5-2.6c-3.9 1.6-8.1 2.6-12.3 2.7 6.2 8.9 6.9 10.6-.2 14.8 9.3 0 18.6-2 25.7-6.1 14-8.1 13.9-21.3-.2-29.5z"/><path class="st5" d="M1224.5 387.9c4.2-.1 8.4-1 12.3-2.7l4.5 2.6c1.4.7 3 .7 4.3 0 1.2-.7 1.2-1.8 0-2.5l-4.4-2.5 4.3-2.5c.7-.2 1.1-1 .8-1.7-.1-.4-.4-.7-.8-.8l-13.1-7.5c-1.4-.7-3-.7-4.3 0l-4.3 2.5-4.4-2.5c-1.4-.7-3-.7-4.3 0-1.2.7-1.2 1.8 0 2.5l4.5 2.6c-2.7 2.1-4.5 4.8-4.6 7.1-15.7-3.6-18.4-4-25.9.2l-.8.5c.6 4.9 4.1 9.6 10.6 13.3 7 4.1 16.2 6.1 25.4 6.1 7.1-4.1 6.4-5.7.2-14.7z"/><path class="st4" d="M1179.8 246.9c-14.2-8.2-37-8.2-51.1-.1-7.7 4.4-11.1 10.4-10.4 16.2l.8-.5c7.5-4.2 10.2-3.9 25.9-.2.1-2.4 1.9-5 4.6-7.1l-4.5-2.6c-.7-.2-1.1-1-.8-1.7.1-.4.4-.7.8-.8 1.4-.7 3-.7 4.3 0l4.4 2.5 4.3-2.5c1.4-.7 3-.7 4.3 0l13.1 7.6c.7.2 1.1 1 .8 1.7-.1.4-.4.7-.8.8l-4.3 2.5 4.4 2.5c1.2.7 1.2 1.8 0 2.5-1.4.7-3 .7-4.3 0l-4.5-2.6c-3.9 1.6-8.1 2.6-12.3 2.7 6.2 8.9 6.9 10.6-.2 14.8 9.3 0 18.6-2 25.7-6.1 14-8.3 13.9-21.5-.2-29.6z"/><path class="st5" d="M1154.4 267.6c4.2-.1 8.4-1 12.3-2.7l4.5 2.6c1.4.7 3 .7 4.3 0 1.2-.7 1.2-1.8 0-2.5l-4.4-2.5 4.3-2.5c.7-.2 1.1-1 .8-1.7-.1-.4-.4-.7-.8-.8l-13.1-7.6c-1.4-.7-3-.7-4.3 0l-4.3 2.5-4.4-2.5c-1.4-.7-3-.7-4.3 0-.7.2-1.1 1-.8 1.7.1.4.4.7.8.8l4.5 2.6c-2.7 2.1-4.5 4.8-4.6 7.1-15.7-3.6-18.4-4-25.9.2l-.8.5c.6 4.9 4.1 9.6 10.6 13.3 7 4.1 16.2 6.1 25.4 6.1 7.1-4 6.4-5.7.2-14.6z"/><path class="st4" d="M1247.8 286.4c-14.2-8.2-37-8.2-51.1-.1-7.7 4.4-11.1 10.4-10.4 16.2l.8-.5c7.5-4.2 10.2-3.9 25.9-.2.1-2.3 1.9-5 4.6-7.1l-4.5-2.6c-.7-.2-1.1-1-.8-1.7.1-.4.4-.7.8-.8 1.4-.7 3-.7 4.3 0l4.4 2.5 4.3-2.5c1.4-.7 3-.7 4.3 0l13.1 7.5c1.2.7 1.2 1.8 0 2.5l-4.3 2.5 4.4 2.5c.7.2 1.1 1 .8 1.7-.1.4-.4.7-.8.8-1.4.7-3 .7-4.3 0l-4.5-2.6c-3.9 1.6-8.1 2.6-12.3 2.7 6.2 8.9 6.9 10.6-.2 14.8 9.3 0 18.6-2 25.7-6.1 14-8.2 13.9-21.4-.2-29.5z"/><path class="st5" d="M1222.4 307.1c4.2-.1 8.4-1 12.3-2.7l4.5 2.6c1.4.7 3 .7 4.3 0 .7-.2 1.1-1 .8-1.7-.1-.4-.4-.7-.8-.8l-4.4-2.5 4.3-2.5c1.2-.7 1.2-1.8 0-2.5l-13.1-7.5c-1.4-.7-3-.7-4.3 0l-4.3 2.5-4.4-2.5c-1.4-.7-3-.7-4.3 0-.7.2-1.1 1-.8 1.7.1.4.4.7.8.8l4.5 2.6c-2.7 2.1-4.5 4.8-4.6 7.1-15.7-3.6-18.4-4-25.9.2l-.8.5c.6 4.8 4.1 9.6 10.6 13.3 7 4.1 16.2 6.1 25.4 6.1 7.1-4.1 6.4-5.8.2-14.7z"/><path class="st4" d="M1319 325.9c-14.1-8.2-37-8.2-51.1-.1-7.7 4.4-11.1 10.4-10.4 16.2l.8-.5c7.5-4.2 10.2-3.9 25.9-.2.1-2.3 1.9-5 4.6-7.1l-4.5-2.6c-.7-.2-1.1-1-.8-1.7.1-.4.4-.7.8-.8 1.4-.7 3-.7 4.3 0l4.4 2.5 4.3-2.5c1.4-.7 3-.7 4.3 0l13.1 7.6c1.2.7 1.2 1.8 0 2.5l-4.3 2.5 4.3 2.5c.7.2 1.1 1 .8 1.7-.1.4-.4.7-.8.8-1.4.7-3 .7-4.3 0l-4.5-2.6c-3.9 1.6-8.1 2.6-12.3 2.7 6.2 8.9 6.9 10.6-.1 14.8 9.3 0 18.6-2 25.7-6 14.1-8.3 14-21.5-.2-29.7z"/><path class="st5" d="M1293.7 346.6c4.2-.1 8.4-1 12.3-2.7l4.5 2.6c1.4.7 3 .7 4.3 0 .7-.2 1.1-1 .8-1.7-.1-.4-.4-.7-.8-.8l-4.3-2.5 4.3-2.5c1.2-.7 1.2-1.8 0-2.5l-13.1-7.6c-1.4-.7-3-.7-4.3 0l-4.3 2.5-4.4-2.5c-1.4-.7-3-.7-4.3 0-.7.2-1.1 1-.8 1.7.1.4.4.7.8.8l4.5 2.6c-2.7 2.1-4.5 4.8-4.6 7.1-15.7-3.6-18.4-4-25.9.2l-.8.5c.6 4.9 4.1 9.6 10.6 13.3 7 4.1 16.2 6.1 25.4 6.1 7-4 6.3-5.6.1-14.6z"/><path class="st4" d="M775 403.4c-14.1-8.2-37-8.2-51.1-.1-7.7 4.4-11.1 10.4-10.4 16.2l.8-.5c7.5-4.2 10.2-3.9 25.9-.2.1-2.3 1.9-5 4.6-7.1l-4.5-2.6c-1.2-.7-1.2-1.8 0-2.5 1.4-.7 3-.7 4.3 0l4.4 2.5 4.3-2.5c1.4-.7 3-.7 4.3 0l13.1 7.5c.7.2 1.1 1 .8 1.7-.1.4-.4.7-.8.8l-4.3 2.5 4.3 2.5c1.2.7 1.2 1.8 0 2.5-1.4.7-3 .7-4.3 0l-4.5-2.6c-3.9 1.6-8.1 2.5-12.3 2.7 6.2 8.9 6.9 10.6-.1 14.8 9.3 0 18.6-2 25.7-6 14.1-8.3 14-21.5-.2-29.6z"/><path class="st5" d="M749.7 424.1c4.2-.1 8.4-1 12.3-2.7l4.5 2.6c1.4.7 3 .7 4.3 0 1.2-.7 1.2-1.8 0-2.5l-4.3-2.5 4.3-2.5c.7-.2 1.1-1 .8-1.7-.1-.4-.4-.7-.8-.8l-13.1-7.5c-1.4-.7-3-.7-4.3 0l-4.3 2.5-4.4-2.5c-1.4-.7-3-.7-4.3 0-1.2.7-1.2 1.8 0 2.5l4.5 2.6c-2.7 2.1-4.5 4.8-4.6 7.1-15.7-3.6-18.4-4-25.9.2l-.8.5c.6 4.9 4.1 9.6 10.5 13.3 7 4.1 16.2 6.1 25.4 6.1 7.1-4.1 6.4-5.7.2-14.7z"/><path class="st4" d="M841.9 365.6c-14.2-8.2-37-8.2-51.1-.1-7.7 4.4-11.1 10.4-10.4 16.2l.8-.5c7.5-4.2 10.2-3.9 25.9-.2.1-2.3 1.9-5 4.6-7.1l-4.5-2.6c-1.2-.7-1.2-1.8 0-2.5 1.4-.7 3-.7 4.3 0l4.4 2.5 4.3-2.5c1.4-.7 3-.7 4.3 0l13.1 7.5c.7.2 1.1 1 .8 1.7-.1.4-.4.7-.8.8l-4.3 2.5 4.4 2.5c1.2.7 1.2 1.8 0 2.5-1.4.7-3 .7-4.3 0l-4.5-2.6c-3.9 1.6-8.1 2.6-12.3 2.7 6.2 8.9 6.9 10.6-.2 14.8 9.3 0 18.6-2 25.7-6 14-8.2 13.9-21.4-.2-29.6z"/><path class="st5" d="M816.5 386.4c4.2-.1 8.4-1 12.3-2.7l4.5 2.6c1.4.7 3 .7 4.3 0 1.2-.7 1.2-1.8 0-2.5l-4.4-2.5 4.3-2.5c.7-.2 1.1-1 .8-1.7-.1-.4-.4-.7-.8-.8l-13.1-7.5c-1.4-.7-3-.7-4.3 0l-4.3 2.5-4.4-2.5c-1.4-.7-3-.7-4.3 0-1.2.7-1.2 1.8 0 2.5l4.5 2.6c-2.7 2.1-4.5 4.8-4.6 7.1-15.7-3.6-18.4-4-25.9.2l-.8.5c.6 4.9 4.1 9.6 10.5 13.3 7 4.1 16.2 6.1 25.4 6.1 7.2-4.1 6.5-5.8.3-14.7z"/><path class="st4" d="M911 324.4c-14.1-8.2-37-8.2-51.1-.1-7.7 4.4-11.1 10.4-10.4 16.2l.8-.5c7.5-4.2 10.2-3.9 25.9-.2.1-2.3 1.9-5 4.6-7.1l-4.5-2.6c-.7-.2-1.1-1-.8-1.7.1-.4.4-.7.8-.8 1.4-.7 3-.7 4.3 0l4.4 2.5 4.3-2.5c1.4-.7 3-.7 4.3 0l13.1 7.5c1.2.7 1.2 1.8 0 2.5l-4.3 2.5 4.3 2.5c.7.2 1.1 1 .8 1.7-.1.4-.4.7-.8.8-1.4.7-3 .7-4.3 0l-4.5-2.7c-3.9 1.6-8.1 2.6-12.3 2.7 6.2 8.9 6.9 10.6-.1 14.8 9.3 0 18.6-2 25.7-6.1 14.1-8.1 14-21.3-.2-29.4z"/><path class="st5" d="M885.7 345.1c4.2-.1 8.4-1.1 12.3-2.7l4.5 2.6c1.4.7 3 .7 4.3 0 .7-.2 1.1-1 .8-1.7-.1-.4-.4-.7-.8-.8l-4.3-2.5 4.3-2.5c1.2-.7 1.2-1.8 0-2.5l-13.1-7.5c-1.4-.7-3-.7-4.3 0l-4.3 2.5-4.4-2.5c-1.4-.7-3-.7-4.3 0-.7.2-1.1 1-.8 1.7.1.4.4.7.8.8l4.5 2.6c-2.7 2.1-4.5 4.8-4.6 7.1-15.7-3.6-18.4-4-25.9.2l-.8.5c.6 4.8 4.1 9.6 10.5 13.3 7 4.1 16.2 6.1 25.4 6.1 7.1-4.1 6.4-5.8.2-14.7z"/><path class="st4" d="M979 287.7c-14.1-8.2-37-8.2-51.1-.1-7.7 4.4-11.1 10.4-10.4 16.2l.8-.5c7.5-4.2 10.2-3.9 25.9-.2.1-2.3 1.9-5 4.6-7.1l-4.5-2.6c-.7-.2-1.1-1-.8-1.7.1-.4.4-.7.8-.8 1.4-.7 3-.7 4.3 0l4.3 2.5 4.3-2.5c1.4-.7 3-.7 4.3 0l13.1 7.5c1.2.7 1.2 1.8 0 2.5l-4.3 2.5 4.3 2.5c.7.2 1.1 1 .8 1.7-.1.4-.4.7-.8.8-1.4.7-3 .7-4.3 0l-4.5-2.6c-3.9 1.6-8.1 2.6-12.3 2.7 6.2 8.9 6.9 10.6-.1 14.8 9.3 0 18.6-2 25.7-6.1 14.2-8.1 14.1-21.3-.1-29.5z"/><path class="st5" d="M953.7 308.5c4.2-.1 8.4-1 12.3-2.7l4.5 2.6c1.4.7 3 .7 4.3 0 .7-.2 1.1-1 .8-1.7-.1-.4-.4-.7-.8-.8l-4.3-2.5 4.3-2.5c1.2-.7 1.2-1.8 0-2.5l-13.1-7.5c-1.4-.7-3-.7-4.3 0l-4.4 2.5-4.4-2.5c-1.4-.7-3-.7-4.3 0-.7.2-1.1 1-.8 1.7.1.4.4.7.8.8l4.5 2.6c-2.7 2.1-4.5 4.8-4.6 7.1-15.7-3.6-18.4-4-25.9.2l-.8.5c.6 4.8 4.1 9.6 10.5 13.3 7 4.1 16.2 6.1 25.4 6.1 7.2-4.1 6.5-5.8.3-14.7z"/><path class="st4" d="M1045.9 250c-14.2-8.2-37-8.2-51.1-.1-7.7 4.4-11.1 10.4-10.4 16.2l.8-.5c7.5-4.2 10.2-3.9 25.9-.2.1-2.3 1.9-5 4.6-7.1l-4.5-2.6c-.7-.2-1.1-1-.8-1.7.1-.4.4-.7.8-.8 1.4-.7 3-.7 4.3 0l4.4 2.5 4.3-2.5c1.4-.7 3-.7 4.3 0l13.1 7.5c1.2.7 1.2 1.8 0 2.5l-4.3 2.5 4.4 2.5c.7.2 1.1 1 .8 1.7-.1.4-.4.7-.8.8-1.4.7-3 .7-4.3 0l-4.5-2.6c-3.9 1.6-8.1 2.6-12.3 2.7 6.2 8.9 6.9 10.6-.2 14.8 9.3 0 18.6-2 25.7-6.1 14-8.1 13.9-21.3-.2-29.5z"/><path class="st5" d="M1020.5 270.8c4.2-.1 8.4-1 12.3-2.7l4.5 2.6c1.4.7 3 .7 4.3 0 .7-.2 1.1-1 .8-1.7-.1-.4-.4-.7-.8-.8l-4.4-2.5 4.3-2.5c1.2-.7 1.2-1.8 0-2.5l-13.1-7.5c-1.4-.7-3-.7-4.3 0l-4.3 2.5-4.4-2.5c-1.4-.7-3-.7-4.3 0-.7.2-1.1 1-.8 1.7.1.4.4.7.8.8l4.5 2.6c-2.7 2.1-4.5 4.8-4.6 7.1-15.7-3.6-18.4-4-25.9.2l-.8.5c.6 4.9 4.1 9.6 10.5 13.3 7 4.1 16.2 6.1 25.4 6.1 7.2-4.1 6.5-5.8.3-14.7z"/><path class="st4" d="M1115 208.7c-14.1-8.2-37-8.2-51.1-.1-7.7 4.4-11.1 10.4-10.4 16.2l.8-.5c7.5-4.2 10.2-3.9 25.9-.2.1-2.4 1.9-5 4.6-7.1l-4.5-2.6c-1.2-.7-1.2-1.8 0-2.5 1.4-.7 3-.7 4.3 0l4.4 2.5 4.3-2.5c1.4-.7 3-.7 4.3 0l13.1 7.6c.7.2 1.1 1 .8 1.7-.1.4-.4.7-.8.8l-4.3 2.5 4.3 2.5c1.2.7 1.2 1.8 0 2.5-1.4.7-3 .7-4.3 0l-4.5-2.6c-3.9 1.6-8.1 2.6-12.3 2.7 6.2 8.9 6.9 10.6-.1 14.8 9.3 0 18.6-2 25.7-6.1 14.1-8.2 14-21.4-.2-29.6z"/><path class="st5" d="M1089.7 229.5c4.2-.1 8.4-1 12.3-2.7l4.5 2.6c1.4.7 3 .7 4.3 0 1.2-.7 1.2-1.8 0-2.5l-4.3-2.5 4.3-2.5c.7-.2 1.1-1 .8-1.7-.1-.4-.4-.7-.8-.8l-13.1-7.6c-1.4-.7-3-.7-4.3 0l-4.3 2.5-4.4-2.5c-1.4-.7-3-.7-4.3 0-1.2.7-1.2 1.8 0 2.5l4.5 2.6c-2.7 2.1-4.5 4.8-4.6 7.1-15.7-3.6-18.4-4-25.9.2l-.8.5c.6 4.9 4.1 9.6 10.6 13.3 7 4.1 16.2 6.1 25.4 6.1 7-4.1 6.3-5.7.1-14.6z"/></g></svg>