<svg xmlns="http://www.w3.org/2000/svg" xmlns:xlink="http://www.w3.org/1999/xlink" viewBox="0 0 1703.19 981.32"><defs><style>.cls-1{fill:#077669}.cls-2{fill:#5e5e5e}.cls-3{fill:#fff}.cls-4{fill:#5b5b5b}.cls-5{fill:#17aa9b}.cls-6{fill:#44444a}.cls-7{fill:#eaeaea}.cls-8{fill:#17171e}.cls-15{fill:none;stroke:#17aa9b;stroke-miterlimit:10;stroke-width:3px}</style><linearGradient id="linear-gradient" x1="682.5" y1="726.22" x2="750.66" y2="726.22" gradientUnits="userSpaceOnUse"><stop offset="0" stop-color="#fc5100"/><stop offset="1" stop-color="#f70000"/></linearGradient><linearGradient id="linear-gradient-2" x1="819.02" y1="627.65" x2="887.17" y2="627.65" xlink:href="#linear-gradient"/><linearGradient id="linear-gradient-3" x1="971.95" y1="716.12" x2="1040.11" y2="716.12" xlink:href="#linear-gradient"/><linearGradient id="linear-gradient-4" x1="765.52" y1="839.99" x2="940.73" y2="839.99" gradientTransform="rotate(.31 852.468 838.652)" xlink:href="#linear-gradient"/><linearGradient id="linear-gradient-5" x1="815.61" y1="753.56" x2="890.45" y2="753.56" xlink:href="#linear-gradient"/></defs><g id="Layer_2" data-name="Layer 2"><g id="SHADED"><path class="cls-1" d="M561.36 552.09l-1.5-.1.79-12 1.49.1zm1.31-20l-1.5-.09.71-11.79 1.5.09zM562.87 441.75l-1.48-.19.16-1.3 1.49.19zm1.19-9.23l-1.49-.19 1.53-11.9 1.49.19z"/><path class="cls-2" d="M596.07 500.51l-34.19 19.74v-39.23l34.19-19.74v39.23z"/><ellipse class="cls-3" cx="1012.43" cy="142.53" rx="20.85" ry="36.11" transform="rotate(-89.69 1012.42 142.535)"/><ellipse class="cls-4" cx="1018.17" cy="139.21" rx="8.28" ry="14.34" transform="rotate(-89.69 1018.162 139.216)"/><path class="cls-4" d="M1016.55 163.24a18 18 0 0 0-5.58-13.09c-10.38-10.13-31.53-10.34-34.37-10.32h-.3v1.5c-.51 5.7 3 11.52 10.6 15.89s18 6.48 28.08 6.09v.07h1.5z"/><path class="cls-1" d="M1005.61 186.54l-1.49-.19.17-1.29 1.48.19zm1.18-9.22l-1.49-.2 1.53-11.9 1.49.19z"/><path class="cls-2" d="M1038.81 245.3l-34.19 19.74v-39.23l34.19-19.73v39.22z"/><path class="cls-5" d="M1703.19 490.56l-408-235.56-408 235.56 408 235.56 408-235.56z"/><path class="cls-1" d="M1154.39 553.05l-1.45-.38 3-11.61 1.46.38zm5-19.35l-1.45-.38.94-3.59 1.45.38zM1196.9 470.34l-.74-1.3 10.42-6 .74 1.3zm17.37-9.92l-.74-1.3 10.42-5.95.74 1.3zm17.37-9.91l-.74-1.31 10.42-5.95.74 1.31zm17.37-9.92l-.75-1.3 10.43-6 .74 1.3zm17.37-9.92l-.75-1.3 10.42-5.95.75 1.3zM1330.15 569.54l-.75-1.3 10.42-6 .75 1.3zm17.36-9.91l-.74-1.31 10.42-6 .74 1.31zm17.37-9.92l-.74-1.3 10.42-5.95.74 1.3zm17.37-9.92l-.74-1.3 10.42-6 .74 1.3zm17.37-9.91l-.75-1.31 10.42-6 .75 1.31zM1417 520l-.75-1.3 10.42-5.95.75 1.3zM1158.88 450.44l-4.09-11.28 1.41-.52 4.09 11.28zm-6.82-18.8l-4.1-11.28 1.41-.51 4.1 11.27z"/><path class="cls-1" d="M1412.71 571.09l-12-.21v-1.5l12 .21zm-20-.35l-12-.21v-1.5l12 .21zm-20-.35l-12-.21v-1.5l12 .21zm-20-.35l-12-.21v-1.5l12 .21zm-20-.34l-3-.06v-1.5l3 .06zM1414.16 480.89l-10.37-6 .76-1.3 10.36 6.05zm-17.28-10.07l-10.37-6 .76-1.3 10.37 6zm-17.28-10.07l-10.37-6 .76-1.3 10.37 6zm-17.28-10.07l-10.37-6 .76-1.3 10.37 6zM1345 440.61l-10.37-6 .76-1.3 10.37 6zm-17.28-10.07l-10.36-6.05.75-1.29 10.37 6zM1261.16 569.66l-10.37-6 .76-1.3 10.36 6zm-17.28-10.07l-10.37-6 .76-1.3 10.37 6zm-17.28-10.07l-10.37-6 .76-1.3 10.37 6zm-17.28-10.07l-10.37-6 .76-1.3 10.37 6zM1192 529.38l-10.37-6 .76-1.3 10.37 6z"/><ellipse class="cls-3" cx="1139.29" cy="399.25" rx="36.11" ry="20.85" transform="rotate(-.31 1137.45 398.605)"/><ellipse class="cls-4" cx="1133.55" cy="395.94" rx="14.34" ry="8.28" transform="rotate(-.31 1131.915 394.893)"/><path class="cls-4" d="M1175.4 398.11v-1.62h-.29c-16.22.07-27.82 3.68-34.48 10.73-5.37 5.69-5.55 11.62-5.53 12.73a.82.82 0 0 0 0 .19l1.61-.09c10 .37 20.32-1.65 28-6.09 7.55-4.36 11.09-10.15 10.61-15.84z"/><ellipse class="cls-3" cx="1448.66" cy="572.7" rx="36.11" ry="20.85" transform="rotate(-.31 1445.642 571.327)"/><ellipse class="cls-4" cx="1442.92" cy="569.39" rx="14.34" ry="8.28" transform="rotate(-.31 1440.107 567.615)"/><path class="cls-4" d="M1484.77 571.56V570h-.29c-16.22.07-27.82 3.68-34.48 10.73-5.37 5.69-5.55 11.63-5.53 12.73a.77.77 0 0 0 0 .19l1.61-.09c10 .37 20.32-1.65 28-6.09s11.09-10.15 10.61-15.84z"/><ellipse class="cls-3" cx="1456.47" cy="397.31" rx="20.85" ry="36.11" transform="rotate(-89.69 1456.458 397.313)"/><ellipse class="cls-4" cx="1462.21" cy="394" rx="8.28" ry="14.34" transform="rotate(-89.69 1462.2 394.004)"/><path class="cls-4" d="M1460.58 418a18 18 0 0 0-5.58-13.1c-10.37-10.12-31.52-10.34-34.36-10.32h-.3v1.5c-.51 5.71 3 11.52 10.6 15.9 7.72 4.45 18 6.47 28.08 6.09v.07h1.5a.53.53 0 0 0 .06-.14z"/><ellipse class="cls-3" cx="1151.19" cy="573.65" rx="20.85" ry="36.11" transform="rotate(-89.69 1151.175 573.645)"/><ellipse class="cls-4" cx="1156.92" cy="570.33" rx="8.28" ry="14.34" transform="rotate(-89.69 1156.917 570.336)"/><path class="cls-4" d="M1155.3 594.36a18 18 0 0 0-5.58-13.09c-10.37-10.13-31.53-10.34-34.36-10.32h-.3v1.5c-.5 5.7 3 11.52 10.61 15.89s18 6.48 28.08 6.09v.07h1.5s.05-.09.05-.14z"/><path class="cls-1" d="M1449.65 441.33l-1.49-.19.16-1.3 1.49.19zm1.18-9.23l-1.49-.19 1.53-11.9 1.49.19zM1261.68 403h-12v-1.5h12zm-20 0h-12v-1.5h12zm-20 0h-12v-1.5h12zm-20 0h-12v-1.5h12zm-20 0h-6.28v-1.5h6.28zM1261.68 573.17h-12v-1.5h12zm-20 0h-12v-1.5h12zm-20 0h-12v-1.5h12zm-20 0h-12v-1.5h12zM1414.77 493h-12v-1.5h12zm-20 0h-12v-1.5h12zm-20 0h-12v-1.5h12zm-20 0h-12v-1.5h12zm-20 0h-12v-1.5h12zm-20 0h-12v-1.5h12zm-20 0h-12v-1.5h12zm-20 0h-12v-1.5h12zm-20 0h-12v-1.5h12zm-20 0h-12v-1.5h12zm-20 0h-12v-1.5h12zM1296.65 523.63h-1.5v-12h1.5zm0-20h-1.5v-12h1.5zm0-20h-1.5v-12h1.5zm0-20h-1.5v-12h1.5zm0-20h-1.5v-12h1.5zM1420.35 403h-12v-1.5h12zm-20 0h-12v-1.5h12zm-20 0h-12v-1.5h12zm-20 0h-12v-1.5h12zm-20 0h-10.28v-1.5h10.28z"/><path class="cls-6" d="M1159.2 529.92l-34.18-19.73v-39.23l34.18 19.74v39.22z"/><path class="cls-7" d="M1193.39 470.96l-34.19 19.74-33.97-19.62 34.19-19.74 33.97 19.62z"/><path class="cls-8" d="M1193.39 510.19l-34.19 19.73V490.7l34.19-19.74v39.23z"/><path class="cls-6" d="M1295.72 431.35l-34.18-19.74v-39.23l34.18 19.74v39.23z"/><path class="cls-7" d="M1329.91 372.38l-34.19 19.74-33.97-19.62 34.19-19.73 33.97 19.61z"/><path class="cls-8" d="M1329.91 411.61l-34.19 19.74v-39.23l34.19-19.74v39.23z"/><path class="cls-6" d="M1295.66 608.16l-34.19-19.74v-39.23l34.19 19.74v39.23z"/><path class="cls-7" d="M1329.84 549.19l-34.18 19.74-33.98-19.61 34.19-19.74 33.97 19.61z"/><path class="cls-8" d="M1329.84 588.42l-34.18 19.74v-39.23l34.18-19.74v39.23z"/><path class="cls-6" d="M1448.66 519.83l-34.19-19.74v-39.23l34.19 19.74v39.23z"/><path class="cls-7" d="M1482.84 460.86l-34.18 19.74-33.98-19.62 34.19-19.73 33.97 19.61z"/><path class="cls-8" d="M1482.84 500.09l-34.18 19.74V480.6l34.18-19.74v39.23z"/><path class="cls-5" d="M1260.45 745.76L852.46 510.2 444.45 745.76l408.01 235.56 407.99-235.56z"/><path class="cls-1" d="M711.65 808.26l-1.45-.38 3-11.61 1.45.38zm5.05-19.36l-1.45-.37.93-3.59 1.45.38zM754.17 725.54l-.74-1.3 10.42-6 .74 1.3zm17.37-9.91l-.75-1.31 10.42-6 .75 1.31zm17.37-9.92l-.75-1.3 10.42-5.95.75 1.3zm17.36-9.92l-.74-1.3 10.42-6 .74 1.3zm17.37-9.91l-.74-1.31 10.42-6 .74 1.31zM887.41 824.75l-.74-1.3 10.42-6 .74 1.3zm17.37-9.92l-.74-1.3 10.42-5.95.74 1.3zm17.37-9.92l-.75-1.3 10.42-6 .75 1.3zm17.37-9.91l-.75-1.3 10.42-6 .75 1.31zm17.36-9.92l-.74-1.3 10.42-5.95.75 1.3zm17.37-9.92l-.74-1.3 10.42-6 .74 1.3zM716.15 705.64l-4.1-11.28 1.41-.51 4.1 11.28zm-6.83-18.8l-4.09-11.28 1.41-.51 4.09 11.28z"/><path class="cls-1" d="M970 826.29l-12-.21v-1.5l12 .21zm-20-.35l-12-.21v-1.5l12 .21zm-20-.35l-12-.2v-1.5l12 .2zm-20-.34l-12-.25v-1.5l12 .21zm-20-.35h-3v-1.5h3zM971.42 736.1l-10.36-6.05.75-1.29 10.37 6zM954.15 726l-10.37-6 .75-1.29 10.37 6zm-17.28-10l-10.37-6 .75-1.29 10.37 6zm-17.28-10.07l-10.37-6 .76-1.3 10.36 6.05zm-17.28-10.07l-10.37-6 .76-1.3 10.36 6zM885 685.74l-10.37-6 .76-1.3 10.36 6zM818.42 824.87l-10.36-6 .75-1.29 10.37 6zm-17.27-10.07l-10.37-6 .75-1.29 10.37 6zm-17.28-10.08l-10.37-6 .75-1.29 10.37 6zm-17.28-10.07l-10.37-6 .76-1.3 10.36 6.05zm-17.28-10.07l-10.37-6 .76-1.3 10.36 6z"/><ellipse class="cls-3" cx="696.55" cy="654.45" rx="36.11" ry="20.85" transform="rotate(-.31 695.024 654.316)"/><ellipse class="cls-4" cx="690.81" cy="651.14" rx="14.34" ry="8.28" transform="rotate(-.31 689.49 650.605)"/><path class="cls-4" d="M732.67 653.31v-1.61h-.3c-16.21.07-27.82 3.68-34.48 10.73-5.37 5.69-5.54 11.63-5.52 12.73v.19l1.62-.09c10 .37 20.33-1.64 28-6.09 7.55-4.36 11.08-10.15 10.61-15.83z"/><ellipse class="cls-3" cx="1005.92" cy="827.91" rx="36.11" ry="20.85" transform="rotate(-.31 1005.064 827.043)"/><ellipse class="cls-4" cx="1000.18" cy="824.59" rx="14.34" ry="8.28" transform="rotate(-.31 997.681 823.326)"/><path class="cls-4" d="M1042 826.77v-1.62h-.3c-16.21.08-27.82 3.68-34.48 10.74-5.37 5.69-5.54 11.62-5.52 12.73v.18l1.62-.09c10 .38 20.32-1.64 28-6.09 7.55-4.36 11.08-10.15 10.61-15.83z"/><ellipse class="cls-3" cx="1013.73" cy="652.51" rx="20.85" ry="36.11" transform="rotate(-89.69 1013.72 652.515)"/><ellipse class="cls-4" cx="1019.47" cy="649.2" rx="8.28" ry="14.34" transform="rotate(-89.69 1019.467 649.2)"/><path class="cls-4" d="M1017.85 673.23a18 18 0 0 0-5.58-13.09c-10.37-10.14-31.53-10.34-34.37-10.33h-.3v1.5c-.5 5.7 3 11.52 10.61 15.89s18 6.47 28.07 6.09v.07h1.5s.07-.09.07-.13z"/><ellipse class="cls-3" cx="708.45" cy="828.85" rx="20.85" ry="36.11" transform="rotate(-89.4 711.99 829.1)"/><ellipse class="cls-4" cx="714.19" cy="825.54" rx="8.28" ry="14.34" transform="rotate(-89.69 714.18 825.538)"/><path class="cls-4" d="M712.57 849.57a18 18 0 0 0-5.58-13.1c-10.37-10.12-31.53-10.34-34.37-10.32h-.3v1.5c-.5 5.71 3 11.52 10.61 15.9s18 6.47 28.07 6.09v.07h1.5z"/><path class="cls-1" d="M1006.91 696.53l-1.48-.19.16-1.29 1.49.19zm1.19-9.23l-1.49-.19 1.53-11.9 1.48.19zM818.94 658.2h-12v-1.5h12zm-20 0h-12v-1.5h12zm-20 0h-12v-1.5h12zm-20 0h-12v-1.5h12zm-20 0h-6.27v-1.5h6.27zM818.94 828.37h-12v-1.5h12zm-20 0h-12v-1.5h12zm-20 0h-12v-1.5h12zm-20 0h-12v-1.5h12zM972 748.18h-12v-1.5h12zm-20 0h-12v-1.5h12zm-20 0h-12v-1.5h12zm-20 0h-12v-1.5h12zm-20 0h-12v-1.5h12zm-20 0h-12v-1.5h12zm-20 0h-12v-1.5h12zm-20 0h-12v-1.5h12zm-20 0h-12v-1.5h12zm-20 0h-12v-1.5h12zm-20 0h-12v-1.5h12zM853.92 778.83h-1.5v-12h1.5zm0-20h-1.5v-12h1.5zm0-20h-1.5v-12h1.5zm0-20h-1.5v-12h1.5zm0-20h-1.5v-12h1.5zM977.62 658.2h-12v-1.5h12zm-20 0h-12v-1.5h12zm-20 0h-12v-1.5h12zm-20 0h-12v-1.5h12zm-20 0h-10.29v-1.5h10.29z"/><path class="cls-6" d="M716.47 785.13l-34.19-19.74v-39.23l34.19 19.74v39.23z"/><path fill="url(#linear-gradient)" d="M750.65 726.16l-34.18 19.74-33.97-19.62 34.18-19.73 33.97 19.61z"/><path class="cls-8" d="M750.65 765.39l-34.18 19.74V745.9l34.18-19.74v39.23z"/><path class="cls-6" d="M852.99 686.55l-34.19-19.74v-39.22l34.19 19.73v39.23z"/><path fill="url(#linear-gradient-2)" d="M887.17 627.59l-34.18 19.73-33.97-19.61 34.18-19.74 33.97 19.62z"/><path class="cls-8" d="M887.17 666.81l-34.18 19.74v-39.23l34.18-19.73v39.22z"/><path class="cls-6" d="M1005.92 775.03l-34.18-19.74v-39.23l34.18 19.74v39.23z"/><path fill="url(#linear-gradient-3)" d="M1040.11 716.06l-34.19 19.74-33.97-19.61 34.19-19.74 33.97 19.61z"/><path class="cls-8" d="M1040.11 755.29l-34.19 19.74V735.8l34.19-19.74v39.23z"/><path class="cls-1" d="M1005.16 806.91l-1.5-.1.79-12 1.5.1zm1.31-20l-1.49-.1.71-11.79 1.5.1z"/><path class="cls-5" d="M816 491.47L408 255.91 0 491.47l408 235.56 408-235.56z"/><path class="cls-1" d="M267.2 554l-1.45-.38 3-11.61 1.45.37zm5-19.36l-1.45-.38.94-3.58 1.45.38zM309.71 471.25L309 470l10.39-6 .75 1.3zm17.37-9.91l-.74-1.31 10.42-5.95.74 1.31zm17.37-9.92l-.74-1.3 10.42-5.95.74 1.3zm17.37-9.92l-.74-1.3 10.42-5.95.74 1.3zm17.37-9.91l-.75-1.31 10.42-5.95.75 1.31zM443 570.46l-.75-1.3 10.42-5.95.75 1.3zm17.37-9.92l-.75-1.3 10.42-6 .75 1.3zm17.36-9.92l-.74-1.3 10.42-6 .74 1.3zm17.37-9.91l-.74-1.31 10.42-5.95.74 1.31zm17.37-9.92l-.74-1.3 10.42-6 .74 1.3zm17.37-9.92l-.75-1.3 10.42-6 .75 1.3zM271.69 451.35l-4.09-11.28 1.41-.51 4.09 11.28zm-6.82-18.8l-4.1-11.28 1.41-.51 4.1 11.28z"/><path class="cls-1" d="M525.52 572l-12-.21v-1.5l12 .21zm-20-.35l-12-.21v-1.5l12 .21zm-20-.35l-12-.2v-1.5l12 .2zm-20-.34l-12-.21v-1.5l12 .21zm-20-.35l-3-.05v-1.5l3 .05zM527 481.81l-10.37-6.05.76-1.29 10.37 6zm-17.28-10.08l-10.37-6 .76-1.3 10.37 6.05zm-17.28-10.07l-10.37-6 .76-1.3 10.37 6.05zm-17.28-10.07l-10.37-6 .76-1.3 10.37 6.05zm-17.28-10.07l-10.36-6 .75-1.3 10.37 6.05zm-17.28-10.07l-10.36-6 .75-1.3 10.37 6zM374 570.58l-10.37-6.05.76-1.29 10.37 6zm-17.28-10.07l-10.37-6 .76-1.29 10.37 6zm-17.28-10.08l-10.37-6 .76-1.29 10.37 6zm-17.28-10.07l-10.37-6 .76-1.3 10.37 6.05zm-17.28-10.07l-10.36-6 .75-1.3 10.37 6z"/><ellipse class="cls-3" cx="252.1" cy="400.16" rx="36.11" ry="20.85" transform="rotate(-.31 252.13 399.906)"/><ellipse class="cls-4" cx="246.36" cy="396.85" rx="14.34" ry="8.28" transform="rotate(-.31 246.595 396.195)"/><path class="cls-4" d="M288.21 399v-1.61h-.29c-16.22.07-27.82 3.68-34.48 10.73-5.37 5.69-5.55 11.63-5.53 12.73v.19l1.61-.09c10 .37 20.32-1.64 28-6.09s11.09-10.15 10.62-15.83z"/><ellipse class="cls-3" cx="561.47" cy="573.62" rx="36.11" ry="20.85" transform="rotate(-.31 560.322 572.628)"/><ellipse class="cls-4" cx="555.73" cy="570.3" rx="14.34" ry="8.28" transform="rotate(-.31 554.787 568.917)"/><path class="cls-4" d="M597.58 572.48v-1.62h-.29c-16.22.08-27.82 3.68-34.48 10.74-5.37 5.69-5.55 11.62-5.53 12.73v.18l1.61-.09c10 .38 20.32-1.64 28-6.09s11.09-10.15 10.62-15.83z"/><ellipse class="cls-3" cx="569.28" cy="398.22" rx="20.85" ry="36.11" transform="rotate(-89.69 569.269 398.224)"/><ellipse class="cls-4" cx="575.02" cy="394.91" rx="8.28" ry="14.34" transform="rotate(-89.69 575.015 394.91)"/><path class="cls-4" d="M573.4 418.94a18 18 0 0 0-5.58-13.09c-10.38-10.13-31.53-10.34-34.37-10.33h-.3v1.5c-.51 5.71 3 11.53 10.6 15.9s18 6.47 28.08 6.09v.07h1.5z"/><ellipse class="cls-3" cx="264" cy="574.56" rx="20.85" ry="36.11" transform="rotate(-89.4 265.931 575.262)"/><ellipse class="cls-4" cx="269.74" cy="571.25" rx="8.28" ry="14.34" transform="rotate(-89.69 269.733 571.242)"/><path class="cls-4" d="M268.11 595.28a18 18 0 0 0-5.58-13.1c-10.37-10.12-31.53-10.34-34.36-10.32h-.3v1.5h.05c-.51 5.71 3 11.52 10.6 15.9s18 6.47 28.08 6.08v.08h1.5s.01-.1.01-.14z"/><path class="cls-1" d="M562.46 442.24l-1.49-.19.17-1.29 1.48.19zm1.18-9.23l-1.49-.19 1.53-11.9 1.49.19zM374.49 403.91h-12v-1.5h12zm-20 0h-12v-1.5h12zm-20 0h-12v-1.5h12zm-20 0h-12v-1.5h12zm-20 0h-6.28v-1.5h6.28zM374.49 574.08h-12v-1.5h12zm-20 0h-12v-1.5h12zm-20 0h-12v-1.5h12zm-20 0h-12v-1.5h12zM527.58 493.89h-12v-1.5h12zm-20 0h-12v-1.5h12zm-20 0h-12v-1.5h12zm-20 0h-12v-1.5h12zm-20 0h-12v-1.5h12zm-20 0h-12v-1.5h12zm-20 0h-12v-1.5h12zm-20 0h-12v-1.5h12zm-20 0h-12v-1.5h12zm-20 0h-12v-1.5h12zm-20 0h-12v-1.5h12zM409.46 524.54H408v-12h1.5zm0-20H408v-12h1.5zm0-20H408v-12h1.5zm0-20H408v-12h1.5zm0-20H408v-12h1.5zM533.16 403.91h-12v-1.5h12zm-20 0h-12v-1.5h12zm-20 0h-12v-1.5h12zm-20 0h-12v-1.5h12zm-20 0h-10.28v-1.5h10.28z"/><path class="cls-6" d="M272.01 530.84l-34.18-19.74v-39.23l34.18 19.74v39.23z"/><path class="cls-7" d="M306.2 471.87l-34.19 19.74L238.04 472l34.19-19.74 33.97 19.61z"/><path class="cls-8" d="M306.2 511.1l-34.19 19.74v-39.23l34.19-19.74v39.23z"/><path class="cls-6" d="M408.53 432.26l-34.18-19.74V373.3l34.18 19.73v39.23z"/><path class="cls-7" d="M442.72 373.3l-34.19 19.73-33.97-19.61 34.19-19.74 33.97 19.62z"/><path class="cls-8" d="M442.72 412.52l-34.19 19.74v-39.23l34.19-19.73v39.22z"/><path class="cls-6" d="M408.47 609.07l-34.19-19.73v-39.23l34.19 19.74v39.22z"/><path class="cls-7" d="M442.65 550.11l-34.18 19.74-33.97-19.62 34.18-19.74 33.97 19.62z"/><path class="cls-8" d="M442.65 589.34l-34.18 19.73v-39.22l34.18-19.74v39.23z"/><path class="cls-6" d="M561.47 520.74L527.28 501v-39.23l34.19 19.74v39.23z"/><path class="cls-7" d="M595.65 461.77l-34.18 19.74-33.97-19.61 34.18-19.74 33.97 19.61z"/><path class="cls-8" d="M595.65 501l-34.18 19.74v-39.23l34.18-19.74V501z"/><path class="cls-1" d="M560.71 552.62l-1.5-.1.79-12 1.49.1zm1.31-20l-1.5-.1.71-11.79 1.5.1z"/><path class="cls-5" d="M1258.42 235.56L850.42 0l-408 235.56 408 235.56 408-235.56z"/><path class="cls-1" d="M709.62 298.05l-1.45-.38 3-11.61 1.45.38zm5-19.35l-1.45-.38.93-3.59 1.45.38zM752.13 215.34l-.74-1.3 10.42-5.95.74 1.3zm17.37-9.92l-.75-1.3 10.43-6 .74 1.3zm17.37-9.91l-.75-1.31 10.42-5.95.75 1.31zm17.37-9.92l-.75-1.3 10.42-5.95.75 1.3zm17.36-9.92l-.74-1.3 10.42-6 .74 1.3zM885.37 314.54l-.74-1.3 10.42-5.95.74 1.3zm17.37-9.91l-.74-1.31 10.42-5.95.74 1.31zm17.37-9.92l-.74-1.3 10.42-6 .74 1.3zm17.37-9.92l-.75-1.3 10.42-5.95.75 1.3zm17.37-9.91l-.75-1.31 10.42-5.95.75 1.31zm17.36-9.88l-.74-1.3 10.42-6 .74 1.3zM714.11 195.43L710 184.16l1.41-.52 4.1 11.28zm-6.83-18.79l-4.09-11.28 1.41-.52 4.09 11.28z"/><path class="cls-1" d="M967.94 316.08l-12-.2v-1.5l12 .2zm-20-.34l-12-.21v-1.5l12 .21zm-20-.35l-12-.21v-1.5l12 .21zM908 315l-12-.21v-1.5l12 .21zm-20-.35l-3-.05v-1.5l3 .05zM969.39 225.89l-10.37-6 .75-1.3 10.37 6zm-17.28-10.07l-10.37-6 .76-1.3 10.36 6zm-17.28-10.07l-10.37-6 .76-1.3 10.36 6zm-17.28-10.07l-10.37-6 .76-1.3 10.36 6zm-17.28-10.07l-10.37-6.05.76-1.29 10.36 6zM883 175.54l-10.37-6 .76-1.29 10.37 6zM816.39 314.66l-10.37-6 .75-1.3 10.37 6.05zm-17.28-10.07l-10.37-6 .76-1.3 10.36 6zm-17.28-10.07l-10.37-6 .76-1.3 10.36 6zm-17.28-10.07l-10.37-6 .76-1.3 10.36 6zm-17.28-10.07l-10.37-6.05.76-1.29 10.36 6z"/><ellipse class="cls-3" cx="694.51" cy="144.25" rx="36.11" ry="20.85" transform="rotate(-.31 692.707 144.19)"/><ellipse class="cls-4" cx="688.77" cy="140.93" rx="14.34" ry="8.28" transform="rotate(-.31 687.173 140.478)"/><path class="cls-4" d="M730.63 143.11v-1.62h-.3c-16.21.07-27.81 3.68-34.47 10.73-5.38 5.69-5.55 11.62-5.53 12.73v.19l1.62-.09c10 .37 20.32-1.65 28-6.09 7.55-4.36 11.09-10.15 10.61-15.84z"/><ellipse class="cls-3" cx="1003.88" cy="317.7" rx="36.11" ry="20.85" transform="rotate(-.31 1002.748 316.917)"/><ellipse class="cls-4" cx="998.14" cy="314.39" rx="14.34" ry="8.28" transform="rotate(-.31 997.213 313.205)"/><path class="cls-4" d="M1040 316.56v-1.62h-.3c-16.21.07-27.81 3.68-34.47 10.73-5.38 5.69-5.55 11.63-5.53 12.73v.19l1.62-.09c10 .37 20.32-1.65 28-6.09s11.09-10.15 10.61-15.84z"/><ellipse class="cls-3" cx="1011.7" cy="142.31" rx="20.85" ry="36.11" transform="rotate(-89.69 1011.688 142.317)"/><ellipse class="cls-4" cx="1017.43" cy="139" rx="8.28" ry="14.34" transform="rotate(-89.69 1017.425 139.002)"/><path class="cls-4" d="M1015.81 163a18 18 0 0 0-5.58-13.1c-10.37-10.12-31.53-10.34-34.36-10.32h-.3v1.5c-.5 5.71 3 11.52 10.61 15.9s18 6.47 28.07 6.08a.2.2 0 0 1 0 .07h1.5s.06-.06.06-.13z"/><ellipse class="cls-3" cx="706.41" cy="318.65" rx="20.85" ry="36.11" transform="rotate(-89.4 708.762 317.735)"/><ellipse class="cls-4" cx="712.15" cy="315.33" rx="8.28" ry="14.34" transform="rotate(-89.69 712.142 315.334)"/><path class="cls-4" d="M710.53 339.36a18 18 0 0 0-5.53-13.09c-10.37-10.13-31.53-10.34-34.37-10.33h-.3v1.5c-.5 5.7 3 11.52 10.61 15.89s18 6.47 28.07 6.09v.07h1.5s.02-.08.02-.13z"/><path class="cls-1" d="M1004.87 186.33l-1.48-.19.16-1.3 1.49.19zm1.19-9.23l-1.49-.19 1.53-11.91 1.49.2zM816.9 148h-12v-1.5h12zm-20 0h-12v-1.5h12zm-20 0h-12v-1.5h12zm-20 0h-12v-1.5h12zm-20 0h-6.27v-1.5h6.27zM816.9 318.17h-12v-1.5h12zm-20 0h-12v-1.5h12zm-20 0h-12v-1.5h12zm-20 0h-12v-1.5h12zM970 238h-12v-1.5h12zm-20 0h-12v-1.5h12zm-20 0h-12v-1.5h12zm-20 0h-12v-1.5h12zm-20 0h-12v-1.5h12zm-20 0h-12v-1.5h12zm-20 0h-12v-1.5h12zm-20 0h-12v-1.5h12zm-20 0h-12v-1.5h12zm-20 0h-12v-1.5h12zm-20 0h-12v-1.5h12zM851.88 268.63h-1.5v-12h1.5zm0-20h-1.5v-12h1.5zm0-20h-1.5v-12h1.5zm0-20h-1.5v-12h1.5zm0-20h-1.5v-12h1.5zM975.58 148h-12v-1.5h12zm-20 0h-12v-1.5h12zm-20 0h-12v-1.5h12zm-20 0h-12v-1.5h12zm-20 0h-10.29v-1.5h10.29z"/><path class="cls-6" d="M714.43 274.92l-34.19-19.73v-39.23l34.19 19.73v39.23z"/><path class="cls-7" d="M748.62 215.96l-34.19 19.73-33.97-19.61 34.18-19.74 33.98 19.62z"/><path class="cls-8" d="M748.62 255.19l-34.19 19.73v-39.23l34.19-19.73v39.23z"/><path class="cls-6" d="M850.95 176.35l-34.19-19.74v-39.23l34.19 19.74v39.23z"/><path class="cls-7" d="M885.14 117.38l-34.19 19.74-33.97-19.62 34.18-19.73 33.98 19.61z"/><path class="cls-8" d="M885.14 156.61l-34.19 19.74v-39.23l34.19-19.74v39.23z"/><path class="cls-6" d="M850.88 353.16l-34.18-19.74v-39.23l34.18 19.74v39.23z"/><path class="cls-7" d="M885.07 294.19l-34.19 19.74-33.97-19.61 34.19-19.74 33.97 19.61z"/><path class="cls-8" d="M885.07 333.42l-34.19 19.74v-39.23l34.19-19.74v39.23z"/><path class="cls-6" d="M1003.88 264.82l-34.18-19.73v-39.23l34.18 19.74v39.22z"/><path class="cls-7" d="M1038.07 205.86l-34.19 19.74-33.97-19.62 34.19-19.74 33.97 19.62z"/><path class="cls-8" d="M1038.07 245.09l-34.19 19.73V225.6l34.19-19.74v39.23z"/><path class="cls-1" d="M1003.12 296.7l-1.49-.1.78-12 1.5.1zm1.31-19.95l-1.49-.1.71-11.79 1.5.1zM1446.91 552.09l-1.49-.1.78-12 1.5.1zm1.31-20l-1.49-.1.71-11.79 1.5.1z"/><path class="cls-1" d="M1003.15 297.31l-1.49-.1.78-12 1.5.1zm1.31-20l-1.49-.1.71-11.79 1.5.1z"/><ellipse cx="853.12" cy="839.99" rx="87.61" ry="50.58" transform="rotate(-.31 851.625 839.566)" fill="url(#linear-gradient-4)" opacity=".2"/><path class="cls-6" d="M852.92 863.36l-34.18-19.73V804.4l34.18 19.73v39.23z"/><path class="cls-7" d="M887.11 804.4l-34.19 19.73-33.97-19.61 34.19-19.74 33.97 19.62z"/><path class="cls-8" d="M887.11 843.63l-34.19 19.73v-39.23l34.19-19.73v39.23z"/><path d="M890.45 759.1v-43.21A2 2 0 0 0 889 714l-3.49-.69-8.35-1.66-10.15-2-8.77-1.74c-1.41-.28-2.83-.58-4.25-.84h-.06a2 2 0 0 0-.43 0 3 3 0 0 0-.59 0l-3.56.71-8.58 1.71-10.35 2.06-8.94 1.79c-1.45.29-2.94.5-4.38.87h-.1a2 2 0 0 0-1.42 1.88V764.68a9.33 9.33 0 0 0 .37 2 27.16 27.16 0 0 0 1.12 3.52 39.21 39.21 0 0 0 8.56 12.8 64.42 64.42 0 0 0 11.31 9.06 85.5 85.5 0 0 0 10.11 5.56c1.87.87 3.76 1.74 5.7 2.42 1 .34 2-.28 2.85-.69 1.79-.82 3.57-1.68 5.31-2.59a97.57 97.57 0 0 0 8.94-5.24A63.63 63.63 0 0 0 882 781.27a38 38 0 0 0 6.06-8.76 24.15 24.15 0 0 0 2.09-6.15 13.86 13.86 0 0 0 .23-2.41v-4.85z" fill="url(#linear-gradient-5)"/><path class="cls-3" d="M848 733.46c0-1.57.07-3.41 1.58-4.72a4.84 4.84 0 0 1 3.28-1.12 7 7 0 0 1 2.1.33c3.08 1.18 3.08 4.26 3.08 5.9v9.58l-1.25 13.83c-.2 1.38-.46 4.4-3.67 4.4s-3.61-3-3.74-4.14L848 743.36zm.07 36.72a5 5 0 1 1 4.93 4.92 5 5 0 0 1-4.92-4.92z"/><path class="cls-15" d="M678.57 415.32a.76.76 0 0 1-.65-.38.76.76 0 0 1 .28-1l39.11-22.43a.75.75 0 0 1 .74 1.31L679 415.22a.86.86 0 0 1-.43.1zM525.61 327.38a.75.75 0 0 1-.61-.38.76.76 0 0 1 .28-1l39.11-22.43a.74.74 0 0 1 1 .28.76.76 0 0 1-.28 1L526 327.29a.78.78 0 0 1-.39.09zM1121.81 666a.75.75 0 0 1-.38-1.4l39.11-22.43a.75.75 0 0 1 .74 1.31l-39.1 22.43a.84.84 0 0 1-.37.09zM968.85 578.09a.75.75 0 0 1-.66-.37.76.76 0 0 1 .28-1l39.11-22.43a.75.75 0 0 1 .74 1.3L969.22 578a.74.74 0 0 1-.37.09zM851.22 515.68a.76.76 0 0 1-.75-.75v-47.58a.76.76 0 0 1 .75-.75.75.75 0 0 1 .75.75v47.58a.75.75 0 0 1-.75.75z"/><path class="cls-15" d="M810.94 491.17a.74.74 0 0 1 .75-.75h81.2a.75.75 0 0 1 .75.75.76.76 0 0 1-.75.75h-81.2a.75.75 0 0 1-.75-.75zM719.89 587.91a.74.74 0 0 1-.37-.1l-34.73-20a.75.75 0 1 1 .75-1.29l34.73 20a.75.75 0 0 1-.38 1.4zM581.53 668a.74.74 0 0 1-.37-.1l-34.73-20a.74.74 0 0 1-.27-1 .75.75 0 0 1 1-.28l34.73 20a.75.75 0 0 1-.38 1.4zM1163 332.94a.74.74 0 0 1-.37-.1L1124.36 311a.76.76 0 0 1-.27-1 .75.75 0 0 1 1-.27l38.23 21.86a.75.75 0 0 1 .27 1 .73.73 0 0 1-.59.35zM1025.41 413.77a.74.74 0 0 1-.37-.1L986 391.1a.75.75 0 0 1-.27-1 .74.74 0 0 1 1-.27l39 22.57a.75.75 0 0 1 .27 1 .73.73 0 0 1-.59.37z"/></g></g></svg>