<svg height="667" width="1608" xmlns="http://www.w3.org/2000/svg"><g fill="#083e4f"><path clip-rule="evenodd" d="m939.6 309-47.2 27.2c-5.3 3.1-14 3.1-19.3 0l-114.8-66.3c-5.3-3.1-5.3-8.1.1-11.1l47.2-27.2c5.3-3.1 14-3.1 19.3 0l114.8 66.3c5.3 3.1 5.3 8-.1 11.1zm-179.6-49.2c-4.5 2.6-4.5 6.8-.1 9.4l114.8 66.3c4.5 2.6 11.8 2.6 16.3 0l47.2-27.2c4.5-2.6 4.5-6.8 0-9.4l-114.8-66.4c-4.5-2.6-11.8-2.6-16.3 0zm173.4 47.7-43.6 25.2c-3.8 2.2-9.9 2.2-13.6 0l-112-64.7c-3.7-2.2-3.7-5.7 0-7.8l6.3-3.6.6.1c1 .1 1.7.6 2.2.9.4.2 2.3.6 3.6 0 .3-.1 1.3-.7 4.3-2.4 3.8-2.2 8.6-5.1 9.4-5.5s5.8-3.2 9.5-5.4c2.9-1.7 3.9-2.3 4.1-2.5 1-.7.4-1.8.1-2-.6-.3-1.4-.8-1.6-1.3l-.1-.3 5.3-3.1c3.8-2.2 9.9-2.2 13.6 0l112 64.7c3.6 2 3.6 5.5-.1 7.7zm-167.7-46.5c-2.9 1.7-2.9 4.4 0 6.1l112 64.7c2.9 1.7 7.6 1.7 10.6 0l43.6-25.2c2.9-1.7 2.9-4.4 0-6.1l-112-64.7c-2.9-1.7-7.6-1.7-10.6 0l-4.3 2.5c.2.2.5.3.7.4 1.1.6 1.9 2.5.2 3.7-.2.1-.6.5-4.3 2.6-3.8 2.2-8.8 5-9.5 5.4s-5.6 3.3-9.4 5.5c-3.6 2.1-4.2 2.4-4.4 2.5-2.2 1-5.3.5-6.3 0-.2-.1-.5-.3-.8-.4z" fill-rule="evenodd" opacity=".55"/><path clip-rule="evenodd" d="m877.7 159c-.3-.2-.8-.1-1-.1l-8.2 3-1.4-.8c-3-1.7-7.8-1.7-10.6 0l-27.2 15.7c-3 1.7-3 4.5 0 6.2l1.5.8-5.1 4.7c-.2.2-.1.4.1.6l15.4 8.9c.3.1.7.2 1 .1l8.2-3 1.4.8c3 1.7 7.8 1.7 10.6 0l16.5-9.5 3 1.7c.3.2.9.2 1.2 0l5.9-3.4c.3-.2.3-.5 0-.7l-3-1.7 3.6-2.1c3-1.7 3-4.5 0-6.2l-1.4-.8 5.1-4.7c.2-.2.1-.4-.1-.6zm-.7 1 14.5 8.4-4.5 4.2-17.3-9.9zm-11.1 1.8 1.9 1 .4.4.1-.1 17.8 10.3-.1.1.7.2 1.9 1c2.3 1.3 2.3 3.4 0 4.8l-27.2 15.7c-2.3 1.3-6 1.3-8.3 0l-1.7-1-.5-.4-.2.1-17.8-10.3.1-.1-.8-.3-1.7-1c-2.3-1.3-2.3-3.4 0-4.8l27-15.6c2.4-1.4 6.1-1.4 8.4 0zm19.1 21.2 2.4 1.4-4.7 2.7-2.4-1.4zm-53.1 1.5 17.2 9.9-7.3 2.6-14.5-8.4z" fill-rule="evenodd" opacity=".55"/><path clip-rule="evenodd" d="m87.8 451.7-40.1-23.1c-1.9-1.1-5-1.1-6.9 0l-13.9 8c-1.9 1.1-1.9 2.9 0 4l40.1 23.1c1.9 1.1 5 1.1 6.9 0l13.9-8c2-1.1 1.9-2.9 0-4zm-15.5 11.1c-.5.3-1.1.4-1.9.4-.7 0-1.4-.1-1.9-.4l-40.1-23.1c-1-.6-1.1-1.6 0-2.1l13.9-8c1.1-.6 2.7-.6 3.8 0l40 23.1c1 .6 1.1 1.6 0 2.1z" fill-rule="evenodd" opacity=".55"/><path clip-rule="evenodd" d="m72.7 454.1-16.4-9.4c-.4-.3-1.1-.3-1.6 0-.4.3-.4.6 0 .9l16.4 9.4c.4.3 1.1.3 1.6 0 .4-.3.4-.7 0-.9" fill-rule="evenodd" opacity=".55"/><path clip-rule="evenodd" d="m47.3 439.4-2.9-1.7c-.4-.3-1.1-.3-1.6 0-.4.3-.4.6 0 .9l2.9 1.7c.4.3 1.1.3 1.6 0 .5-.2.5-.6 0-.9" fill-rule="evenodd" opacity=".55"/><path clip-rule="evenodd" d="m94 443.1c-.1.4.2.7.8.8s1.2-.1 1.4-.4c1.8-3.6 1.2-7.5-1.6-10.9s-7.6-6.2-13.5-7.8-12.7-1.9-19-.9c-.6.1-.9.4-.8.8s.8.6 1.4.4c5.8-.9 11.9-.6 17.4.8s9.9 4 12.4 7.1c2.7 3.3 3.2 6.9 1.5 10.1" fill-rule="evenodd" opacity=".55"/><path clip-rule="evenodd" d="m109.3 445.9c2.7-5.5 1.9-11.4-2.4-16.6s-11.6-9.4-20.8-11.7c-9.1-2.4-19.4-2.6-28.9-.9-.6.1-.9.5-.7.8.2.4.8.5 1.4.4 9-1.6 18.7-1.3 27.4.9s15.6 6.1 19.6 11.1c4 4.9 4.8 10.6 2.2 15.8-.1.4.3.6.8.7.6-.1 1.1-.3 1.4-.5z" fill-rule="evenodd" opacity=".55"/><path clip-rule="evenodd" d="m78.8 433.9c-1.6-.9-3.5-1.5-5.6-1.9s-4.4-.3-6.4 0c-.6.1-.9.5-.8.8.1.4.8.6 1.4.4 3.5-.6 7.2 0 9.8 1.5s3.6 3.6 2.6 5.6c-.1.1-.1.4.1.5.1.1.4.3.7.3.3.1.6 0 .9-.1s.4-.2.5-.4c.6-1.2.6-2.5.1-3.7-.6-1-1.7-2-3.3-3z" fill-rule="evenodd" opacity=".55"/><path d="m595.4 513.4c-4.9 0-9.7-1.1-13.4-3.2l-159.8-92.2c-3.8-2.2-5.8-5.1-5.8-8.3s2.1-6.2 5.9-8.3l235.4-135.9c7.4-4.3 19.4-4.3 26.8 0l159.8 92.2c3.8 2.2 5.8 5.1 5.8 8.3s-2.1 6.2-5.9 8.3l-235.4 135.9c-3.7 2.1-8.5 3.2-13.4 3.2zm75.7-249.1c-4.5 0-9 1-12.4 3l-235.4 135.8c-3.2 1.8-4.9 4.1-4.9 6.6 0 2.4 1.7 4.8 4.8 6.6l159.8 92.2c6.8 3.9 18 3.9 24.8 0l235.4-135.9c3.2-1.8 4.9-4.1 4.9-6.6 0-2.4-1.7-4.8-4.8-6.6l-159.8-92.2c-3.4-2-7.9-2.9-12.4-2.9z" opacity=".55"/><path d="m424 353h301.7v2h-301.7z" opacity=".55" transform="matrix(.86610393 -.49986396 .49986396 .86610393 -99.987891 334.742845)"/><path d="m511.7 380.5-15.6-9 107.2-61.9 15.5 9zm-11.6-9 11.6 6.6 103.1-59.5-11.5-6.6z" opacity=".55"/><path d="m454.2 403.6-15.8 9.1.3-6.6-2-.1-.4 9.5 15.6-.3v-2l-10.8.2 14.1-8.1zm11.1-14.6v2l10.8-.1-14 8.1 1 1.7 15.7-9.1-.2 6.6 2 .1.3-9.5z" opacity=".55"/><path d="m658.8 279.7h20.5v2h-20.5z" opacity=".55"/><path d="m663 279.7h11.8v2h-11.8z" opacity=".55" transform="matrix(.0083 -1 1 .0083 382.696 947.233)"/><path d="m630.6 426.5-.2-1.9 37.2-4.7-8.8-58.7 2-.3 9 60.7z" opacity=".55"/><g clip-rule="evenodd" fill-rule="evenodd"><path d="m789.8 462.1 101.2 58.4 178.2-103-75.6-43.7h-50.6zm101.2 60.1c-.1 0-.3 0-.4-.1l-102.7-59.4c-.2-.1-.4-.4-.4-.7s.1-.5.4-.7l154.5-89c.1-.1.2-.1.4-.1h51c.1 0 .3 0 .4.1l76.9 44.4c.2.1.4.4.4.7s-.1.5-.4.7l-179.7 104c-.1 0-.3.1-.4.1z" opacity=".55"/><path d="m888.1 416.9c.4-.2.9-.4 1.4-.6.5-.1 1.1-.2 1.7-.2s1.2 0 1.8.2c.6.1 1.2.3 1.7.6.6.4 1 .7 1.2 1.2.2.4.2.8 0 1.2l-1.7-.2c.1-.2.2-.3.2-.5 0-.1 0-.3-.1-.4s-.2-.2-.3-.4c-.1-.1-.3-.2-.4-.3-.3-.2-.7-.3-1.1-.4s-.8-.1-1.1-.1c-.4 0-.7.1-1.1.2-.3.1-.7.2-.9.4-.3.2-.5.4-.7.6s-.3.4-.3.6 0 .4.1.6.3.4.6.6c.2.1.3.2.5.2.2.1.4.1.7.2.2 0 .5.1.7.1.3 0 .5 0 .8-.1l.5 1c-.4.1-.7.1-1.1.1s-.8 0-1.2-.1-.8-.2-1.1-.3c-.4-.1-.7-.3-.9-.4-.5-.3-.8-.6-1-.9s-.3-.7-.2-1c0-.4.2-.7.4-1 .2-.4.5-.7.9-.9" opacity=".55"/><path d="m905.9 423.3-6.7 3.9-1.3-.7 2.9-1.7-3.1-1.8-2.8 1.7-1.3-.8 6.7-3.8 1.3.7-2.7 1.6 3 1.8 2.7-1.6z" opacity=".55"/><path d="m908.5 429.6 1.7-2.1-3.6 1zm2.6-3.2 1.2.7-4.1 5.3-1.3-.8 1-1.3-2.4-1.4-2.3.6-1.3-.8z" opacity=".55"/><path d="m910.8 433.9 6.7-3.9 1.3.8-6.7 3.9z" opacity=".55"/><path d="m921 434.8-4.3 2.5-1.3-.7 6.7-3.9 1 .6-.8 4.6 4.3-2.6 1.3.8-6.6 3.8-1.1-.6z" opacity=".55"/><path d="m933.5 441.3s0-.1-.1-.2c0-.1-.1-.2-.2-.4-.1-.1-.2-.3-.4-.4-.1-.1-.3-.3-.5-.4-.4-.2-.7-.3-1-.4-.3 0-.6 0-.8.2-.1.1-.2.2-.2.3v.3c.1.1.2.2.3.4l.5.5c.2.2.4.5.6.7s.3.4.3.6 0 .4-.1.6-.3.4-.6.5c-.4.2-.7.3-1.1.4s-.8.1-1.2 0c-.4 0-.8-.1-1.1-.3-.4-.1-.7-.3-1.1-.5-.5-.3-.9-.6-1.3-1-.3-.4-.6-.8-.7-1.1l1.7-.3c0 .1 0 .2.1.3s.1.3.3.5c.1.2.3.3.4.5.2.2.4.3.7.5.7.4 1.3.5 1.8.2.1-.1.2-.2.2-.3s0-.2-.1-.4c-.1-.1-.2-.3-.3-.4l-.5-.5c-.2-.2-.4-.5-.6-.7-.1-.2-.2-.4-.2-.6s0-.3.1-.5.3-.3.5-.5c.3-.2.7-.3 1.1-.4s.8-.1 1.2-.1.8.1 1.2.2.8.3 1.1.5c.5.3.8.6 1.1.9s.4.6.5.9z" opacity=".55"/><path d="m937 445.1 1.5.9c.2.1.5.2.9.2s.7-.1 1-.3c.2-.1.3-.2.4-.3s.1-.2.1-.3 0-.2-.1-.3-.2-.2-.3-.2l-1.5-.8zm-4.7 1.2 6.7-3.9 2.9 1.6c.3.2.5.4.7.6.1.2.2.5.2.7s-.1.5-.3.7l-.6.6c-.3.2-.6.3-1 .4s-.7.1-1.1.2c-.4 0-.8 0-1.2-.1s-.7-.2-1-.4l-1.6-.9-2.2 1.3z" opacity=".55"/><path d="m945.7 451.1 1.7-2.1-3.6 1zm2.6-3.3 1.2.7-4.1 5.3-1.3-.8 1-1.3-2.4-1.4-2.3.6-1.3-.8z" opacity=".55"/><path d="m950.7 453c.4-.2.9-.4 1.4-.6.5-.1 1.1-.2 1.7-.2s1.2 0 1.8.2c.6.1 1.2.3 1.7.6.6.4 1 .7 1.2 1.2.2.4.2.8 0 1.2l-1.7-.2c.1-.2.2-.3.2-.5 0-.1 0-.3-.1-.4s-.2-.2-.3-.4c-.1-.1-.3-.2-.4-.3-.3-.2-.7-.3-1.1-.4s-.8-.1-1.1-.1c-.4 0-.7.1-1.1.2-.3.1-.7.2-.9.4-.3.2-.5.4-.7.6s-.3.4-.3.7c0 .2 0 .4.1.6s.3.4.6.6c.2.1.3.2.5.2.2.1.4.1.6.2.2 0 .5.1.7.1.3 0 .5 0 .8-.1l.5 1c-.4.1-.7.1-1.1.1s-.8 0-1.2-.1-.8-.2-1.1-.3c-.4-.1-.7-.3-.9-.4-.5-.3-.8-.6-1-.9s-.3-.7-.2-1c0-.4.2-.7.4-1 .2-.5.6-.7 1-1" opacity=".55"/><path d="m961.9 462.1-1.1.7-4.7-2.7 6.7-3.9 4.6 2.6-1.1.7-3.3-1.9-1.6.9 2.8 1.7-1.1.6-2.8-1.7-1.7 1.1z" opacity=".55"/><path d="m968.1 388.7c-.1 0-.3 0-.4-.1l-19.7-11.4c-.4-.2-.5-.7-.3-1 .2-.4.7-.5 1-.3l19.3 11.2 18.1-10.4c.4-.2.8-.1 1 .3s.1.8-.3 1l-18.5 10.7z" opacity=".55"/><path d="m942.3 427.4 19.3 1.3 14.2-8.2-2.5-10.4-19.3-1.3-14.2 8.2zm19.5 2.9s-.1 0 0 0l-20.1-1.4c-.3 0-.6-.3-.7-.6l-2.7-11.5c-.1-.3.1-.7.4-.8l14.9-8.6c.1-.1.3-.1.4-.1l20.1 1.4c.3 0 .6.3.7.6l2.7 11.5c.1.3-.1.7-.4.8l-14.9 8.6c-.2 0-.3.1-.4.1z" opacity=".55"/><path d="m904.4 495-72.6-41.9.9-1.4 72.5 41.8z" opacity=".55"/><path d="m918.9 486.6-72.6-41.8.9-1.5 72.5 41.9z" opacity=".55"/><path d="m933.4 478.3-72.6-41.9.9-1.5 72.5 41.9z" opacity=".55"/><path d="m1258.2 191.3 101.3 58.5 178.2-103-75.7-43.7h-50.6zm101.3 60.1c-.1 0-.3 0-.4-.1l-102.8-59.3c-.2-.1-.4-.4-.4-.7s.1-.5.4-.7l154.5-89c.1-.1.2-.1.4-.1h51c.1 0 .3 0 .4.1l76.9 44.4c.2.1.4.4.4.7s-.1.5-.4.7l-179.7 103.9c-.1.1-.2.1-.3.1z" opacity=".55"/><path d="m1448.7 157-3.2-6.8-3.2-6.8-.1-.1-23.5-3.7h-.2l-17.2 9.9s-.1.1 0 .1l3.2 6.8.1.1 11.7 1.8 3.2 6.7.1.1 11.8 1.8h.2l17.1-9.9c0 .1.1 0 0 0zm-15.3-8.7-8.3 4.8-3.1-6.6 8.3-4.8zm11.9 2.1 3 6.5-11.2-1.8zm-8.5 4.7-11.4-1.8 8.3-4.8 11.4 1.8zm-14.9-8.8-3-6.5 11.2 1.8zm-.3.1-11.2-1.8 8.2-4.7zm.1.2 3.1 6.6-11.4-1.8-3.1-6.6zm-8.4 5 11.4 1.8-8.3 4.8-11.4-1.8zm11.7 1.9 3.1 6.6-8.3 4.8-3.1-6.6zm3.4 6.5-3.1-6.6 11.4 1.8 3.1 6.6zm8.6-4.7 11.2 1.8-8.2 4.7zm5.1-11.8 3.1 6.6-11.4-1.8-3.1-6.6zm-32.1 1.4 3.1 6.6-8.3 4.8-3.1-6.6zm10 20.1 8.3-4.8 11.4 1.8-8.3 4.8z" opacity=".55"/><path d="m1419.5 140.4 2.6 5.5 6.9-4zm-8 4 9.5 1.5-2.6-5.5zm22.5 3.6 10.5 1.6-2.7-5.8-10.5-1.6zm-11.5-1.3 2.8 5.9 7.7-4.4-2.8-5.9zm-8.8 4.4 10.5 1.6-2.7-5.8-10.5-1.6zm12.8 2 10.2 1.6 7.3-4.2-10.2-1.6zm-24.3-3.3 2.8 5.9 7.7-4.4-2.8-5.9zm36 5.1 9.5 1.5-2.6-5.5zm-32.1 1.3 10.2 1.6 7.3-4.2-10.2-1.6zm31.6-.4 2.6 5.5 6.9-4zm-9.1 3.9 10.5 1.6-2.7-5.8-10.5-1.6zm-11.5-1.2 2.8 5.9 7.7-4.4-2.8-5.9zm4 6.3 10.2 1.6 7.3-4.2-10.2-1.6zm10.3 2.6-11.9-1.8c-.2 0-.3-.1-.4-.3h-.3l.2-.1-3-6.4-11.5-1.8c-.2 0-.3-.1-.4-.3h-.3l.2-.1-3-6.8c-.1-.2 0-.5.2-.6l8.5-4.9 8.6-4.9.1-.1c.1-.1.3-.1.4-.1l23.5 3.7c.2 0 .3.1.4.3l3.2 6.8h.3l-.2.1 3.1 6.6h.3l-.3.1c0 .1 0 .2-.1.3l-.1.1-8.5 4.9-8.7 5c-.1.3-.2.3-.3.3z" opacity=".55"/><path d="m1360.5 145.9-1.7 1 1.7 1c.2.1.5.2.8.2s.6-.1.9-.2.4-.3.4-.5-.1-.3-.3-.4zm-.8 3.7c.1-.1.2-.1.3-.2s.1-.2.1-.3 0-.2-.1-.3c0-.1-.1-.2-.2-.2l-2-1.2-1.8 1 1.9 1.1c.1.1.3.1.4.2.1 0 .3.1.5 0 .2 0 .3 0 .5-.1.1.1.2 0 .4 0zm1 .9c-.3.2-.6.3-.9.3-.3.1-.7.1-1 0-.3 0-.7-.1-1-.2s-.7-.2-1-.4l-3.3-1.9 6.7-3.9 3.6 2.1c.2.1.4.3.5.5s.1.3.1.5-.1.3-.2.5-.3.3-.5.4c-.3.2-.7.3-1.2.4s-.9.1-1.4 0c.3.3.4.6.3.9 0 .2-.2.5-.7.8z" opacity=".55"/><path d="m1361.9 153.2 6.7-3.9 1.3.7-5.5 3.3 3.4 1.9-1.1.7z" opacity=".55"/><path d="m1373.2 155.8c-.3.2-.5.4-.7.6s-.3.4-.3.6 0 .4.1.6.3.4.6.6.7.3 1 .4c.4.1.7.1 1.1.1s.7-.1 1.1-.2.7-.2.9-.4c.3-.2.5-.4.7-.6s.3-.4.3-.6 0-.4-.1-.6-.3-.4-.6-.6-.7-.3-1-.4c-.4-.1-.8-.1-1.1-.1-.4 0-.7.1-1.1.2-.3.1-.6.2-.9.4m-1.4 3.1c-.5-.3-.8-.6-1.1-.9-.2-.3-.3-.7-.3-1 0-.4.2-.7.4-1 .3-.3.6-.6 1-.9s1-.5 1.5-.6c.6-.1 1.2-.2 1.8-.2s1.2 0 1.8.2c.6.1 1.1.3 1.6.6s.8.6 1 .9.3.7.3 1c0 .4-.2.7-.4 1s-.6.6-1 .9-1 .5-1.5.6c-.6.1-1.2.2-1.8.2s-1.2 0-1.8-.2c-.5-.1-1-.3-1.5-.6" opacity=".55"/><path d="m1381 160.3c.4-.2.9-.4 1.4-.6.5-.1 1.1-.2 1.7-.2s1.2 0 1.8.2c.6.1 1.2.3 1.7.6.6.4 1 .7 1.2 1.2.2.4.2.8 0 1.2l-1.7-.2c.1-.2.2-.3.2-.5 0-.1 0-.3-.1-.4s-.2-.2-.3-.4c-.1-.1-.3-.2-.4-.3-.3-.2-.7-.3-1.1-.4s-.8-.1-1.1-.1c-.4 0-.7.1-1.1.2-.3.1-.7.2-.9.4-.3.2-.5.4-.7.6s-.3.4-.3.6 0 .4.1.7c.1.2.3.4.6.6.2.1.3.2.5.2.2.1.4.1.6.2.2 0 .5.1.7.1.3 0 .5 0 .8-.1l.5 1c-.4.1-.7.1-1.1.1s-.8 0-1.2-.1-.8-.2-1.1-.3c-.4-.1-.7-.3-.9-.4-.5-.3-.8-.6-1-.9s-.3-.7-.2-1c0-.4.2-.7.4-1 .2-.5.6-.8 1-1" opacity=".55"/><path d="m1386.4 167.3 6.7-3.9 1.3.8-3.1 1.8 6-.2 1.4.9-5.5.2-1 3.7-1.5-.8.8-2.9h-1.7l-2 1.2z" opacity=".55"/><path d="m1400.2 175.2 4.4-2.5-5 .9-.7-.4 1.5-2.9-4.4 2.5-1.3-.7 6.7-3.9 1.4.8-1.8 3.4 5.8-1.1 1.4.8-6.7 3.9z" opacity=".55"/><path d="m1410.8 178.4 1.7-2.1-3.6 1zm2.6-3.3 1.2.7-4.1 5.3-1.3-.8 1-1.3-2.4-1.4-2.3.6-1.3-.8z" opacity=".55"/><path d="m1418.7 181-4.3 2.4-1.3-.7 6.7-3.9 1 .6-.9 4.6 4.4-2.6 1.3.8-6.7 3.9-1-.7z" opacity=".55"/><path d="m1422.2 188 6.7-3.9 1.3.8-6.7 3.8z" opacity=".55"/><path d="m1432.9 191.1 1.7-2.1-3.6 1zm2.6-3.2 1.2.7-4.1 5.3-1.3-.8 1-1.3-2.4-1.4-2.3.6-1.3-.8z" opacity=".55"/><path d="m1436.5 117.9c-.1 0-.3 0-.4-.1l-19.7-11.4c-.4-.2-.5-.7-.3-1 .2-.4.7-.5 1-.3l19.3 11.2 18.1-10.4c.4-.2.8-.1 1 .3s.1.8-.3 1l-18.3 10.6c-.1.1-.3.1-.4.1" opacity=".55"/><path d="m1372.8 224.3-72.5-41.9.8-1.5 72.6 41.9z" opacity=".55"/><path d="m1387.3 215.9-72.5-41.9.8-1.5 72.6 41.9z" opacity=".55"/><path d="m1401.8 207.5-72.5-41.9.8-1.4 72.6 41.8z" opacity=".55"/><path d="m1350.4 382.8 153.4 88.5 101.2-58.4-178.3-102.7-76.3 43.8zm153.4 90.1c-.1 0-.3 0-.4-.1l-154.1-88.9c-.2-.1-.4-.4-.4-.7v-29.7c0-.3.1-.5.4-.7l77-44.1c.2-.1.5-.1.8 0l179.8 103.5c.2.1.4.4.4.7s-.1.5-.4.7l-102.8 59.2c-.1.1-.2.1-.3.1z" opacity=".55"/><path d="m1353.4 381.8c-.3 0-.5-.1-.7-.4-.2-.4-.1-.8.3-1l20.4-11.8-17.6-10.7c-.4-.2-.5-.7-.3-1 .2-.4.7-.5 1-.3l18.7 11.3c.2.1.4.4.4.7s-.1.5-.4.6l-21.5 12.4c-.1.2-.2.2-.3.2" opacity=".55"/><path d="m1532 382-79.5 45.8 1 1.6 79.4-45.8z" opacity=".55"/><path d="m1547.9 391.2-79.4 45.8.9 1.6 79.4-45.8z" opacity=".55"/><path d="m1563.9 400.4-79.4 45.8.9 1.6 79.4-45.8z" opacity=".55"/><path d="m1435.7 381.9c-.1.5-1 .8-1.7.7s-1.2-.5-1.1-1l.7-2.1.4-.1 2.7-.2zm-5.4.3c-.2.4-.9.7-1.7.7-.7-.1-1.1-.6-1-1l.8-2.1 2.7-.2zm-4.9-1.7c0 .5-1 .9-1.9.8-.7-.1-1.2-.5-1.1-1v-.1l3.3-.3zm17.5-4.9 3.6-.3c2.2-.2 3.8-1.3 3.5-2.5-.1-.4-.3-.7-.7-1 1.2-.5 1.9-1.2 1.7-2 0 0-.1-.1 0-.1v-.1c-.2-.8-1.2-1.4-2.5-1.7.3-.4.4-.8.4-1.2-.2-.9-1.2-1.6-2.6-1.8-.6-.6-1.3-1.1-1.8-1.6-.2-.1-.3-.3-.4-.4l2.6-6.7-2.5-.2-2.8 7.3.3.3c.3.3.4.5.8.7.2.2.5.4.8.7l-4.6.3-11.2.8c-1.5.2-2.6.8-3.4 1.7 0 0-.6.8-.8 1.4l-1.6 4.4c-.3.8-1.6 1.2-2.8 1.1-1.2-.2-1.8-.6-1.8-.7l3.8-10.1c.4-1.1 5.2-1.7 7.5-2l.7-.1 2.7-7.1-2.5-.3-2.3 6.2c-3.3.5-6.4 1-7.9 2.1l-3.2.2c-3 .2-4.6 2.4-5.9 4.7l-6.5.4 1.1 1.3 7.2-.4.3-.5c.7-1.3 2.3-4 4.2-4.1l1.9-.2-3.5 9.5c-.4 1 1.2 2 3.6 2.4h.8c1.9 0 4-.3 4.7-1.2l2.1-5.6s.8-1.8 2.2-2l17-1.2c.8-.1 1.5.3 1.6.7.1.6-.5 1-1.5 1.1l-16.4 1.1.3 1.4 18.3-1.2c.8-.1 1.4.2 1.5.7 0 .4-.5.8-1.3.9l-1.1.1h-.5l-16.2 1.1.3 1.4 16.2-1.1c.8-.1 1.5.3 1.6.7.1.5-.4.9-1.2.9l-7.2.5-7.3.5.3 1.4 7.3-.5c.8-.1 1.5.3 1.6.7.1.5-.5.9-1.3 1l-6.1.4-12.4.8c-2.1.1-4.8-1.2-6.5-2.1-.4-.2-.7-.4-1.1-.5l-.4-.2-8.7.6.7 1.4 7.1-.5.5.3c1.7.9 4.1 2.2 6.7 2.4-.3 1.2 1 2.2 3.1 2.5.7.1 1.5 0 2.1-.1.3.8 1.3 1.4 2.7 1.6h.2l.1.1c1.4.1 2.8-.2 3.6-.8.4.3 1.1.4 1.8.5 2.2.2 4.2-.5 4.7-1.8l.7-2 .3-1.1h.5c2.2-.2 3.8-1.3 3.5-2.6.2-.3-.1-.5-.3-.7z" opacity=".55"/><path d="m1460.4 399.4c.3-.3.6-.6.7-1 .1-.3.1-.7-.1-1s-.5-.6-1-1c-.5-.3-.9-.4-1.4-.5s-.9-.1-1.4-.1-1 .1-1.6.3c-.5.1-1.1.3-1.7.5-.5.2-.9.3-1.2.4-.4.1-.7.2-1 .2s-.5.1-.8 0c-.2 0-.4-.1-.7-.2-.4-.2-.5-.4-.4-.7s.4-.5.9-.9c.3-.2.6-.3 1-.4s.7-.2 1.1-.3.7-.1 1-.2c.3 0 .5-.1.6-.1l-.7-1.4c-.7.1-1.5.2-2.3.4s-1.6.5-2.2.9c-.5.3-.9.6-1.2.9s-.5.7-.6 1 0 .7.2 1 .6.6 1 .9c.4.2.8.4 1.2.5s.8.1 1.2.1.9-.1 1.4-.2 1.1-.3 1.7-.5c.5-.2 1-.3 1.4-.4s.8-.2 1.1-.3.6-.1.9-.1.5.1.7.2c.7.4.5.9-.6 1.5-.4.2-.8.4-1.3.6s-.9.3-1.3.4-.8.2-1.2.2-.6.1-.8.1l.8 1.4c1-.1 1.9-.3 2.9-.6.9-.3 1.8-.7 2.5-1.1.4.1.9-.2 1.2-.5" opacity=".55"/><path d="m1463.8 391c.1-.2.3-.4.6-.5.3-.2.6-.3.9-.3.3-.1.7-.1 1.1-.1s.7.1 1.1.2.7.2 1 .4.6.4.7.6c.2.2.3.4.3.6s0 .4-.2.6c-.1.2-.3.4-.6.5-.3.2-.6.3-.9.3-.3.1-.7.1-1.1.1s-.7-.1-1.1-.2-.7-.2-1-.4-.6-.4-.7-.6c-.2-.2-.3-.4-.3-.6s0-.4.2-.6m-1.1 3c.5.3 1.1.5 1.7.7s1.3.2 2 .3c.7 0 1.4-.1 2-.2.7-.2 1.3-.4 1.9-.8.6-.3 1-.7 1.3-1.1s.4-.8.4-1.2-.2-.8-.4-1.1c-.3-.4-.7-.7-1.2-1s-1.1-.5-1.7-.7-1.3-.2-2-.3c-.7 0-1.3.1-2 .2-.7.2-1.3.4-1.9.7s-1 .7-1.3 1.1-.4.8-.4 1.2.2.8.4 1.1c.3.5.7.8 1.2 1.1" opacity=".55"/><path d="m1480 388.2-2.9-1.7-.1-1.5 7.4.6 2.1-1.2-9.5-.8-.5-4.7-2.2 1.2.6 5.1-4.7-2.7-1.9 1.1 9.8 5.7z" opacity=".55"/><path d="m1203.8 467.3 153.4 88.5 101.2-58.5-178.2-102.6-76.3 43.8zm153.4 90.1c-.1 0-.3 0-.4-.1l-154.1-89c-.2-.1-.4-.4-.4-.7v-29.6c0-.3.1-.5.4-.7l77.1-44.2c.2-.1.5-.1.8 0l179.8 103.5c.2.1.4.4.4.7s-.1.5-.4.7l-102.7 59.3c-.1.1-.4.1-.5.1z" opacity=".55"/><path d="m1351.6 452.7 1.2.8-2.5 1.4 6.5 3.8-1.6.8-6.4-3.7-2.5 1.5-1.2-.8z" opacity=".55"/><path d="m1336.7 461.3 4 2.3c.3.2.7.4 1 .5.4.1.7.2 1.1.3h1.2c.4-.1.8-.2 1.1-.4.4-.2.6-.4.7-.6s.1-.4 0-.7c-.1-.2-.2-.4-.5-.6-.2-.2-.5-.4-.8-.6l-4-2.3 1.5-.9 4 2.3c.5.3 1 .6 1.3 1 .3.3.5.7.6 1.1s0 .7-.2 1.1-.6.7-1.2 1.1-1.3.6-1.9.7c-.7.1-1.3.2-1.9.1-.6 0-1.2-.2-1.8-.4s-1.1-.4-1.6-.7l-4-2.3z" opacity=".55"/><path d="m1325.8 467.6 9.3.6-5.1-3 1.5-.8 7.7 4.4-1.2.7-9-.5 5 2.9-1.5.8-7.8-4.4z" opacity=".55"/><path d="m1296.8 492.8c-.1.3-.3.5-.6.7-.2.2-.5.4-.8.6-.6.3-1.2.5-1.9.7-.7.1-1.4.2-2.1.2s-1.4-.1-2.1-.3-1.2-.4-1.7-.7-.9-.6-1.1-1c-.3-.4-.5-.8-.5-1.2s.1-.8.3-1.2c.3-.4.7-.8 1.3-1.1.7-.4 1.5-.7 2.3-.8s1.6-.1 2.4 0l-.4 1.1c-.3-.1-.6-.1-.9-.1s-.6 0-.8.1c-.3 0-.5.1-.7.2l-.6.3c-.4.2-.6.5-.8.7-.1.3-.2.5-.1.8.1.2.2.5.4.7s.5.4.8.6.7.4 1.2.5c.4.1.9.2 1.3.2s.9 0 1.3-.1.8-.2 1.1-.4c.2-.1.3-.2.5-.4.1-.1.3-.3.3-.4s.1-.3.1-.5-.1-.3-.2-.5l2-.3c.2.2.2.5.2.8.1.3.1.5-.2.8" opacity=".55"/><path d="m1317.1 481.1c-.1.3-.3.5-.6.7-.2.2-.5.4-.8.6-.6.3-1.2.5-1.9.7-.7.1-1.4.2-2.1.2s-1.4-.1-2.1-.3-1.2-.4-1.7-.7-.9-.6-1.1-1c-.3-.4-.5-.8-.5-1.2s.1-.8.3-1.2c.3-.4.7-.8 1.3-1.1.7-.4 1.5-.7 2.3-.8s1.6-.1 2.4 0l-.4 1.1c-.3-.1-.6-.1-.9-.1s-.6 0-.8.1c-.3 0-.5.1-.7.2l-.6.3c-.4.2-.6.5-.8.7-.1.3-.2.5-.1.8.1.2.2.5.4.7s.5.4.8.6.7.4 1.2.5c.4.1.9.2 1.3.2s.9 0 1.3-.1.8-.2 1.1-.4c.2-.1.3-.2.5-.4.1-.1.3-.3.3-.4.1-.2.1-.3.1-.5s-.1-.3-.2-.5l2-.3c.2.2.2.5.2.8-.1.3-.1.6-.2.8" opacity=".55"/><path d="m1304.6 487.1c-.1.2-.4.5-.7.7-.4.2-.8.4-1.2.4-.4.1-.9.1-1.3.1s-.9-.1-1.3-.2-.8-.3-1.1-.5-.6-.4-.8-.6-.3-.5-.4-.7c-.1-.3 0-.5.1-.8s.4-.5.8-.7.7-.3 1.2-.4c.4-.1.9-.1 1.3-.1s.9.1 1.3.2.8.3 1.1.5.6.4.8.6.3.5.4.7c0 .3-.1.5-.2.8m.5-3c-.5-.3-1.1-.5-1.7-.7-.7-.2-1.3-.3-2-.3s-1.4 0-2.1.2c-.7.1-1.3.4-1.9.7s-1 .7-1.2 1.1c-.3.4-.4.8-.3 1.2 0 .4.2.8.5 1.2s.7.7 1.2 1 1.1.5 1.7.7c.7.2 1.3.3 2 .3s1.4 0 2.1-.2c.7-.1 1.3-.4 1.9-.7.5-.3 1-.7 1.2-1.1.3-.4.4-.8.3-1.2 0-.4-.2-.8-.5-1.2s-.7-.7-1.2-1" opacity=".55"/><path d="m1324.8 475.4c-.1.2-.4.5-.7.7-.4.2-.8.4-1.2.4-.4.1-.9.1-1.3.1s-.9-.1-1.3-.2-.8-.3-1.1-.5-.6-.4-.8-.6-.3-.5-.4-.7c-.1-.3 0-.5.1-.8s.4-.5.8-.7.7-.3 1.2-.4c.4-.1.9-.1 1.3-.1s.9.1 1.3.2.8.3 1.1.5.6.4.8.6.3.5.4.7c0 .3-.2.6-.2.8m1.7-1.9c-.3-.4-.7-.7-1.2-1s-1.1-.5-1.7-.7c-.7-.2-1.3-.3-2-.3s-1.4 0-2.1.2c-.7.1-1.3.4-1.9.7-.5.3-1 .7-1.2 1.1-.3.4-.4.8-.3 1.2 0 .4.2.8.5 1.2s.7.7 1.2 1 1.1.5 1.7.7c.7.2 1.3.3 2 .3s1.4 0 2.1-.2c.7-.1 1.3-.4 1.9-.7.5-.3 1-.7 1.2-1.1.3-.4.4-.8.3-1.2-.2-.5-.3-.8-.5-1.2" opacity=".55"/><path d="m1206.9 466.3c-.3 0-.5-.1-.7-.4-.2-.4-.1-.8.3-1l20.4-11.8-17.6-10.7c-.4-.2-.5-.7-.3-1 .2-.4.7-.5 1-.3l18.7 11.3c.2.1.4.4.4.7s-.1.5-.4.6l-21.5 12.4c0 .1-.1.2-.3.2" opacity=".55"/><path d="m1385.5 466.5-79.4 45.8.9 1.6 79.5-45.8z" opacity=".55"/><path d="m1401.3 475.7-79.3 45.8 1 1.6 79.3-45.8z" opacity=".55"/><path d="m1417.5 484.8-79.5 45.9 1 1.6 79.3-45.8z" opacity=".55"/><path d="m1306.8 454.9c.4 2.8-1.7 5.5-6.1 8.1s-9.1 3.7-14 3.5c-7.9-.4-14.2-4.3-16.1-5.7l15.3-6.2s.1 0 .1-.1l.1-.1 10.8-8.8c2.4 1.1 9.3 4.7 9.9 9.3zm-38.6-.4s.1 0 0 0c.2 0 .3-.1.5-.1h.1c.2 0 .3-.1.5-.1s.3-.1.5-.2h.1c.2-.1.4-.1.5-.2h.1c.2-.1.3-.1.5-.2h.1c.2-.1.4-.2.6-.2 0 0 .1 0 .1-.1.2-.1.3-.1.5-.2h.1l.6-.3c.1 0 .1 0 .1-.1l.6-.3.6-.3s.1 0 .1-.1l.6-.3s.1 0 .1-.1c.2-.1.3-.2.5-.3 0 0 .1 0 .1-.1.2-.1.4-.2.5-.3 0 0 .1 0 .1-.1.2-.1.3-.2.5-.3h.1c.2-.1.3-.2.5-.3 0 0 .1 0 .1-.1.2-.1.3-.2.5-.3s.3-.2.5-.3c0 0 .1 0 .1-.1.2-.1.3-.2.5-.3h.1c.1-.1.3-.2.4-.3 0 0 .1 0 .1-.1.2-.1.3-.2.5-.3 0 0 .1 0 .1-.1.2-.1.3-.2.5-.3 0 0 .1 0 .1-.1.2-.1.3-.2.5-.3l.1-.1c.2-.1.3-.2.5-.3s.3-.2.5-.3l.1-.1c.2-.1.3-.2.5-.3 0 0 .1 0 .1-.1.1-.1.3-.2.4-.3l.1-.1c.1-.1.3-.2.4-.3 0 0 .1 0 .1-.1l.3-.3h.1l.3-.3.1-.1.3-.3c.1-.1.2-.2.2-.3v-.1c.1-.1.1-.2.2-.3 1.9 0 6.1.2 9.3.8l-10.6 8.7-15 6.1c-.7-1.6-1.1-4.1-1.2-5.1zm3-2.4c-.2.1-.3.1-.4.2-.2.1-.4.2-.5.2h-.1c-.1.1-.3.1-.4.2h-.1c-.1 0-.2.1-.3.1h-.1c-.1 0-.2.1-.3.1s-.2.1-.3.1c.3-.3.8-.8 1.6-1.4zm4.2-3.7c.8-.5 1.6-.9 2.3-1.3l.6.9.2.2s-.1 0-.1.1c-.2.1-.3.2-.5.3-.1 0-.2.1-.2.1-.3.2-.5.3-.8.5s-.6.3-.8.5c-.1 0-.2.1-.2.1l-.6.3c-.1 0-.2.1-.3.1-.2.1-.4.2-.5.3-.1 0-.2.1-.2.1-.2.1-.5.2-.7.3s-.3.2-.5.2h-.1l-1.5-.4c.9-.5 2.3-1.4 3.9-2.3zm8.4-4-.2.2-.2.2-.1.1-.2.2s-.1 0-.1.1c-.1.1-.2.1-.3.2l-.1.1c-.1.1-.3.2-.4.3s-.3.2-.4.3l-.1.1c-.1.1-.2.2-.4.3 0 0-.1.1-.2.1-.1.1-.3.2-.4.3l-.1.1c-.2.1-.4.3-.6.4l-.7-1c1.9-1.1 3.5-1.7 4.5-2zm-20.4 5.2 4.6-2.9c-.3.8-.9 1.9-1.9 3.3-1.1 1.5-2.1 2.5-2.9 3.2zm33.9-5.3c-.1 0-.1 0-.2-.1-4.1-1-10.7-1.1-12-1.1-1.4-.3-4.1.8-6.7 2.1l-2.5-3.5 7-1.8c.5-.1.7-.5.5-.8s-.8-.4-1.3-.3l-7.9 2c-.5.1-.7.5-.5.7l3.1 4.4c-1 .5-2 1.1-2.9 1.6-1.4.8-3.1 1.8-4.5 2.8l-1.3-.3c1.4-1.9 3.1-4.9 1.2-5.4-.4-.1-.9 0-1.1.1l-6.5 4.1c-.2.1-.3.2-.3.4l-.2 5c0 .2.2.5.6.5.7.2 1.4 0 2.1-.5 1.3-.7 2.5-2.1 3.5-3.3l.8.2c-1.4 1.1-2.2 2.1-1.9 2.7 0 .7.2 4.5 2 6.9l.1.1c.4.3 7.8 6.1 18.2 6.6 5.5.2 10.7-1.1 15.6-3.9s7.1-5.8 6.7-9c-.9-5.7-10.9-9.9-11.6-10.2z" opacity=".55"/></g><path d="m1155.1 427.9-.4-.2-153-88.3.8-1.3 152.6 88.1 219.5-126.8-151.9-87.6.8-1.3 154.1 88.9z" opacity=".55"/><path d="m1121.1 388.7-86.5-50 188.5-108.9 86.5 50zm-15.5-10.7 15.5 8.9 15.5-8.9-15.5-8.9zm17-9.8 15.5 8.9 15.5-8.9-15.5-8.9zm-34.1 0 15.6 9 15.5-8.9-15.6-9zm51.1-9.8 15.5 8.9 15.5-8.9-15.5-8.9zm-34.1 0 15.6 9 15.5-8.9-15.6-9zm-33.8 0 15.4 8.9 15.5-8.9-15.4-8.9zm84.9-9.8 15.5 8.9 83.6-48.3-15.5-8.9zm-34.1 0 15.6 9 15.5-8.9-15.6-9zm-67.9 0 15.6 9 15.5-8.9-15.6-9zm34 0 15.4 8.9 15.5-8.9-15.4-8.9zm50.9-9.8 15.6 9 15.6-9-15.6-9zm-67.9-.1 15.6 9 15.5-8.9-15.6-9zm34 .1 15.4 8.9 15.5-8.9-15.4-8.9zm-68-.1 15.5 8.9 15.5-8.9-15.5-8.9zm50.9-9.8 15.6 9 15.5-8.9-15.6-9zm34.1.1 15.4 8.9 15.6-9-15.4-8.9zm-68-.1 15.5 8.9 15.5-8.9-15.5-8.9zm102 0 15.6 9 15.5-8.9-15.6-9zm-51.1-9.8 15.6 9 15.6-9-15.6-9zm-33.9 0 15.5 8.9 15.5-8.9-15.5-8.9zm102-.1 15.6 9 15.5-8.9-15.6-9zm-33.9.1 15.4 8.9 15.5-8.9-15.4-8.9zm-51.1-9.8 15.5 8.9 15.6-9-15.5-8.9zm34.1-.1 15.6 9 15.5-8.9-15.6-9zm67.9 0 15.6 9 15.5-9-15.6-9zm-33.9.1 15.4 8.9 15.5-8.9-15.4-8.9zm-17.1-9.9 15.6 9 15.5-8.9-15.6-9zm102.1.1 15.5 8.9 15.5-8.9-15.5-8.9zm-34.1-.1 15.6 9 15.5-8.9-15.6-9zm-101.9 0 15.5 8.9 15.5-8.9-15.5-8.9zm68 .1 15.4 8.9 15.5-9-15.4-8.9zm-17.1-9.9 15.6 9 15.5-9-15.6-9zm102.1 0 15.5 8.9 32.5-18.7-15.5-8.9zm-34.1 0 15.6 9 15.5-8.9-15.6-9zm-101.9 0 15.5 8.9 15.5-8.9-15.5-8.9zm68 0 15.4 8.9 15.5-8.9-15.4-8.9zm50.9-9.8 15.6 9 15.5-9-15.6-9zm-67.9 0 15.6 9 15.5-8.9-15.6-9zm-34.1 0 15.5 8.9 15.5-9-15.5-8.9zm68.1 0 15.4 8.9 15.5-8.9-15.4-8.9zm-17.1-9.8 15.6 9 15.5-8.9-15.6-9zm68-.1 15.6 9 15.4-8.9-15.6-9zm-33.9.1 15.4 8.9 15.5-9-15.4-8.9zm-68 0 15.5 8.9 15.5-8.9-15.5-8.9zm50.9-9.8 15.6 9 15.5-9-15.6-9zm-33.9 0 15.5 8.9 15.5-8.9-15.5-8.9zm68 0 15.4 8.9 15.4-8.9-15.4-8.9zm-17-9.9 15.6 9 15.4-8.9-15.6-9zm-34.1.1 15.5 8.9 15.5-9-15.5-8.9zm17.1-9.9 15.5 8.9 15.4-8.9-15.5-8.9z" opacity=".55"/><path clip-rule="evenodd" d="m1104.5 435.5h-1.5c-12 0-23.9 2.6-33 7.9s-13.6 12.2-13.6 19.1v.9h3v-.9c0-6.5 4.2-13 12.7-17.9s19.7-7.4 30.9-7.4h1.5zm-.4 11h-1.5c-7 0-14 1.6-19.3 4.6-5.3 3.1-8 7.1-7.9 11.2v.9h3v-.9c0-3.6 2.3-7.2 7.1-10 4.7-2.8 11-4.1 17.2-4.1h1.5zm3 12.3c-2.9-1.7-7.6-1.7-10.4 0l1.1.6 1.1.6c.9-.5 2-.7 3.1-.7s2.2.2 3.1.7 1.3 1.1 1.3 1.8c0 .6-.4 1.3-1.3 1.8s-2 .7-3.1.7-2.2-.2-3.1-.7-1.3-1.1-1.3-1.8.4-1.3 1.3-1.8l-1.1-.6-1.1-.6c-2.9 1.7-2.9 4.4 0 6 2.9 1.7 7.6 1.7 10.4 0 2.9-1.6 2.9-4.3 0-6" fill-rule="evenodd" opacity=".55"/><path clip-rule="evenodd" d="m1557.8 290.2-.5.9.5-.9c-1.5-.8-3.2-1.2-5-1.2s-3.5.4-5 1.2c-1.4.8-2.3 2-2.3 3.4l-50.4 7.8c-.4-.6-1-1.1-1.8-1.6l-.5.9.5-.9c-1.4-.8-3.2-1.2-5-1.2s-3.5.4-5 1.2c-1.4.8-2.3 2.1-2.4 3.5 0 1.4.9 2.7 2.4 3.5s3.2 1.2 5 1.2c1.6 0 3.1-.3 4.4-1l36.8 21.2c-.8.7-1.2 1.6-1.2 2.6 0 1.4.9 2.7 2.4 3.5s3.2 1.2 5 1.2 3.5-.4 5-1.2c1.4-.8 2.3-2.1 2.3-3.5s-.9-2.7-2.4-3.5l-.5.9.5-.9c-.6-.3-1.2-.6-1.9-.8l13-28.4c.4 0 .7.1 1.1.1 1.8 0 3.5-.4 5-1.2 1.4-.8 2.3-2.1 2.3-3.5 0-1.2-.9-2.5-2.3-3.3zm-73.4 14.9c-1.1-.6-1.4-1.3-1.4-1.7 0-.5.3-1.1 1.3-1.7s2.5-.9 3.9-.9c1.5 0 2.9.3 4 .9 1 .6 1.4 1.3 1.4 1.7 0 .5-.3 1.1-1.3 1.7s-2.5.9-4 .9c-1.4.1-2.9-.3-3.9-.9zm56.6 25.9c0 .5-.3 1.1-1.3 1.7s-2.5.9-4 .9-2.9-.3-4-.9-1.4-1.3-1.4-1.7c0-.5.3-1.1 1.3-1.7s2.5-.9 4-.9 2.9.3 4 .9 1.4 1.3 1.4 1.7zm-4.3-4.6c-.3 0-.7-.1-1-.1-1.5 0-2.9.3-4.2.8l-36.8-21.3c.6-.7 1-1.5 1-2.4l50.4-7.8c.4.6 1 1.1 1.8 1.6.6.3 1.2.6 1.8.7zm20.1-31c-1 .6-2.5.9-4 .9s-2.9-.3-4-.9-1.4-1.3-1.4-1.7c0-.5.3-1.1 1.3-1.7s2.5-.9 4-.9 2.9.3 4 .9 1.4 1.3 1.4 1.7c0 .5-.3 1.1-1.3 1.7z" fill-rule="evenodd" opacity=".55"/><path d="m1231.4 418-3.5-2 .8-1.3 3.5 2zm-10.4-6-3.5-2 .8-1.3 3.5 2zm-10.3-6-3.5-2 .8-1.3 3.5 2z" opacity=".55"/><path d="m1582.1 637.5-3.4-2.1.8-1.3 3.4 2.1zm-10.3-6.2-3.4-2.1.8-1.3 3.4 2.1zm-10.3-6.2-3.4-2.1.8-1.3 3.4 2.1zm-10.2-6.2-3.4-2.1.8-1.3 3.4 2.1zm-10.3-6.3-3.4-2.1.8-1.3 3.4 2.1zm-10.2-6.2-3.4-2.1.8-1.3 3.4 2.1zm-10.3-6.2-3.4-2.1.8-1.3 3.4 2.1zm-10.3-6.2-3.4-2.1.8-1.3 3.4 2.1zm-10.2-6.2-3.4-2.1.8-1.3 3.4 2.1zm-10.3-6.2-3.4-2.1.8-1.3 3.4 2.1zm-10.3-6.3-3.4-2.1.8-1.3 3.4 2.1zm-10.2-6.2-3.4-2.1.8-1.3 3.4 2.1zm-10.3-6.2-3.4-2.1.8-1.3 3.4 2.1zm-10.3-6.2-3.4-2.1.8-1.3 3.4 2.1zm-10.2-6.2-3.4-2.1.8-1.3 3.4 2.1zm-10.3-6.3-3.4-2.1.8-1.3 3.4 2.1zm-10.2-6.2-3.4-2.1.8-1.3 3.4 2.1zm-10.3-6.2-1.6-1 .8-1.3 1.6 1z" opacity=".55"/><path d="m1604.6 467.9-3.4-2.1.8-1.3 3.4 2.1zm-10.3-6.2-3.4-2.1.8-1.3 3.4 2.1zm-10.2-6.3-3.4-2.1.8-1.3 3.4 2.1zm-10.3-6.2-3.4-2.1.8-1.3 3.4 2.1zm-10.2-6.2-1.8-1.1.8-1.3 1.8 1.1z" opacity=".55"/><path d="m896.8 647.3-3.5-2 .8-1.3 3.5 2zm-10.3-6.1-3.5-2 .8-1.3 3.5 2zm-10.4-6-3.5-2 .8-1.3 3.5 2zm-10.4-6-3.5-2 .8-1.3 3.5 2z" opacity=".55"/><path d="m1366.9 123.3-3.5-2 .8-1.3 3.5 2zm-10.4-6-3.5-2 .8-1.3 3.5 2zm-10.3-6-3.5-2 .8-1.3 3.5 2zm-10.4-6-2.3-1.4.8-1.3 2.3 1.4z" opacity=".55"/><path d="m997.1 260.4-3.5-2 .8-1.3 3.5 2zm-10.4-6-3.5-2 .8-1.3 3.5 2zm-10.4-6-3.5-2 .8-1.3 3.5 2zm-10.4-6-3.5-2 .8-1.3 3.5 2zm-10.4-6-3.5-2 .8-1.3 3.5 2zm-10.4-5.9-3.5-2 .8-1.3 3.5 2zm-10.4-6-3.5-2 .8-1.3 3.5 2zm-10.4-6-3.5-2 .8-1.3 3.5 2zm-10.4-6-3.5-2 .8-1.3 3.5 2zm-10.4-6-3.5-2 .8-1.3 3.5 2zm-10.4-6-3.5-2 .8-1.3 3.5 2zm-10.3-6-3.5-2 .8-1.3 3.5 2z" opacity=".55"/><path d="m796.1 235.2-3.5-2 .7-1.3 3.5 2zm-10.4-6-3.5-2 .7-1.3 3.5 2zm-10.4-5.9-3.5-2 .7-1.3 3.5 2zm-10.4-6-3.5-2 .7-1.3 3.5 2zm-10.5-6-3.5-2 .7-1.3 3.5 2zm-10.4-6-3.5-2 .7-1.3 3.5 2zm-10.4-5.9-3.5-2 .7-1.3 3.5 2z" opacity=".55"/><path d="m567.6 98.1-3.5-2 .7-1.3 3.5 2zm-10.4-6-3.5-2 .7-1.3 3.5 2zm-10.4-6-3.5-2 .7-1.3 3.5 2zm-10.4-6-3.5-2 .7-1.3 3.5 2zm-10.4-5.9-3.5-2 .7-1.3 3.5 2zm-10.4-6-3.5-2 .7-1.3 3.5 2zm-10.4-6-3.5-2 .7-1.3 3.5 2zm-10.4-6-3.5-2 .7-1.3 3.5 2zm-10.4-6-3.5-2 .7-1.3 3.5 2z" opacity=".55"/><path d="m315.3 449.9-3.5-2 .7-1.3 3.5 2zm-10.4-6-3.5-2 .7-1.3 3.5 2zm-10.4-6-3.5-2 .7-1.3 3.5 2zm-10.4-6-3.5-2 .7-1.3 3.5 2zm-10.4-6-3.5-2 .7-1.3 3.5 2zm-10.4-6-3.5-2 .7-1.3 3.5 2zm-10.4-5.9-3.5-2 .7-1.3 3.5 2zm-10.4-6-3.5-2 .7-1.3 3.5 2zm-10.4-6-3.5-2 .7-1.3 3.5 2zm-10.4-6-3.5-2 .7-1.3 3.5 2zm-10.4-6-3.5-2 .7-1.3 3.5 2z" opacity=".55"/><path d="m132.4 331.7-3.5-2 .7-1.3 3.5 2zm-10.4-6-3.5-2 .7-1.3 3.5 2zm-10.4-6-3.5-2 .7-1.3 3.5 2zm-10.4-5.9-3.5-2 .7-1.3 3.5 2zm-10.4-6-3.5-2 .7-1.3 3.5 2zm-10.4-6-3.5-2 .7-1.3 3.5 2zm-10.4-6-3.5-2 .7-1.3 3.5 2z" opacity=".55"/><path d="m672.5 512.8-3.5-2 .8-1.3 3.5 2zm-10.4-6-3.5-2 .8-1.3 3.5 2zm-10.3-6-3.5-2 .8-1.3 3.5 2zm-10.4-6-2.3-1.4.8-1.3 2.3 1.4z" opacity=".55"/><path d="m1019.5 388.5-.8-1.3 3.5-2 .8 1.3zm10.4-6-.8-1.3 3.5-2 .8 1.3zm10.4-6-.8-1.3 3.5-2 .8 1.3zm10.4-6-.7-1.3 2.8-1.6.7 1.3z" opacity=".55"/><path d="m897 647.7-.8-1.3 3.5-2 .8 1.3zm10.4-6-.8-1.3 3.5-2 .8 1.3zm10.4-6-.8-1.3 3.5-2 .8 1.3zm10.4-6-.8-1.3 3.5-2 .8 1.3zm10.4-5.9-.8-1.3 3.5-2 .8 1.3zm10.4-6-.8-1.3 3.5-2 .8 1.3zm10.4-6-.8-1.3 3.5-2 .8 1.3zm10.3-6-.8-1.3 3.5-2 .8 1.3zm10.4-6-.8-1.3 3.5-2 .8 1.3zm10.4-6-.8-1.3.1-.1z" opacity=".55"/><path d="m1482.6 341.5-.8-1.3 3.5-2 .8 1.3zm10.4-6-.8-1.3 3.5-2 .8 1.3zm10.4-6-.8-1.3 3.5-2 .8 1.3zm10.4-6-.8-1.3 2.8-1.6.8 1.3z" opacity=".55"/><path d="m1397.4 458.2-.8-1.3 3.5-2 .8 1.3zm10.4-6-.8-1.3 3.5-2 .8 1.3zm10.3-6-.8-1.3 3.5-2 .8 1.3zm10.4-6-.8-1.3 3.5-2 .8 1.3z" opacity=".55"/><path d="m1238.4 559.7-.8-1.3 3.5-2 .8 1.3zm10.4-6-.8-1.3 3.5-2 .8 1.3zm10.4-6-.8-1.3 3.5-2 .8 1.3zm10.4-6-.8-1.3 3.5-2 .8 1.3zm10.4-6-.8-1.3 3.5-2 .8 1.3zm10.4-6.1-.8-1.3 3.5-2 .8 1.3z" opacity=".55"/><path d="m1176.1 596.4-.8-1.3 3.5-2 .8 1.3zm10.4-6-.8-1.3 3.5-2 .8 1.3z" opacity=".55"/><path d="m773 317.2-.7-1.3 3.5-2 .7 1.3zm10.4-6-.7-1.3 3.5-2 .7 1.3zm10.4-6-.7-1.3 3.5-2 .7 1.3zm10.4-6-.7-1.3 2.8-1.6.8 1.3z" opacity=".55"/><path d="m888.4 161.4-.7-1.3 3.5-2 .7 1.3zm10.4-6-.8-1.3 3.5-2 .8 1.3zm10.4-6-.8-1.3 3.5-2 .8 1.3zm10.4-6-.7-1.3 3.5-2 .7 1.3zm10.4-6-.8-1.3 3.5-2 .8 1.3zm10.4-6-.8-1.3 3.5-2 .8 1.3zm10.4-6-.8-1.3 3.5-2 .8 1.3zm10.4-6-.8-1.3 3.5-2 .8 1.3zm10.4-6-.7-1.3 3.5-2 .7 1.3zm10.4-5.9-.8-1.3 3.5-2 .8 1.3zm10.4-6-.8-1.3 3.5-2 .8 1.3zm10.4-6-.7-1.3 3.5-2 .7 1.3z" opacity=".55"/><path d="m380.3 449-.7-1.3 3.5-2 .7 1.3zm10.4-6-.7-1.3 3.5-2 .7 1.3zm10.4-6-.7-1.3 3.5-2 .7 1.3zm10.4-6-.7-1.3 3.5-2 .7 1.3zm10.4-5.9-.7-1.3 3.5-2 .7 1.3z" opacity=".55"/><path d="m151.4 577.6-.7-1.3 3.5-2 .7 1.3zm10.4-6-.7-1.3 3.5-2 .7 1.3zm10.4-6-.7-1.3 3.5-2 .7 1.3zm10.4-6-.7-1.3 3.5-2 .7 1.3zm10.4-6-.7-1.3 3.5-2 .7 1.3zm10.4-6-.7-1.3 3.5-2 .7 1.3zm10.4-6-.7-1.3 3.5-2 .7 1.3zm10.4-6-.7-1.3 3.5-2 .7 1.3zm10.4-5.9-.7-1.3 3.5-2 .7 1.3zm10.4-6-.7-1.3 3.5-2 .7 1.3zm10.4-6-.7-1.3 3.5-2 .7 1.3zm10.4-6-.7-1.3 3.5-2 .7 1.3zm10.3-6-.7-1.3 3.5-2 .7 1.3zm10.4-6-.7-1.3 3.5-2 .7 1.3zm10.4-6-.7-1.3.5-.3.7 1.3z" opacity=".55"/><path d="m100.8 420.3-.8-1.3 3.5-2 .7 1.3zm10.4-6-.7-1.3 3.5-2 .7 1.3zm10.3-6-.7-1.3 3.5-2 .7 1.3zm10.4-6-.7-1.3 3.5-2 .7 1.3zm10.4-6-.7-1.3 3.5-2 .7 1.3z" opacity=".55"/><path d="m426.7 581.1-.8-1.3 3.4-2 .8 1.3zm10.3-6.1-.8-1.3 3.4-2 .8 1.3zm10.3-6.2-.8-1.3 3.4-2 .8 1.3zm10.3-6.1-.8-1.3 3.4-2 .8 1.3zm10.3-6.2-.8-1.3 3.4-2 .8 1.3zm10.3-6.1-.8-1.3 3.4-2 .8 1.3zm10.4-6.1-.8-1.3 3.4-2 .8 1.3zm10.3-6.2-.8-1.3 3.4-2 .8 1.3zm10.3-6.1-.8-1.3 3.4-2 .8 1.3zm10.3-6.1-.8-1.3 3.4-2 .8 1.3zm10.3-6.2-.8-1.3 3.4-2 .8 1.3zm10.3-6.1-.8-1.3 3.4-2 .8 1.3zm10.3-6.1-.8-1.3 3.4-2 .8 1.3zm10.3-6.2-.7-1.3 2.2-1.3.8 1.3z" opacity=".55"/><path d="m475.5 486.6-.7-1.3 3.5-2 .7 1.3zm10.4-6-.7-1.3 3.5-2 .7 1.3zm10.4-6-.7-1.3 3.5-2 .7 1.3zm10.4-6-.7-1.3 2.8-1.6.7 1.3z" opacity=".55"/><path d="m781.1 96.2-.7-1.3 3.5-2 .7 1.3zm10.4-6-.7-1.3 3.5-2 .7 1.3zm10.4-6-.7-1.3 3.5-2 .8 1.3zm10.4-6-.8-1.3 3.5-2 .8 1.3zm10.4-6-.8-1.3 3.5-2 .8 1.3zm10.4-6-.8-1.3 3.5-2 .8 1.3zm10.3-6-.8-1.3 3.5-2 .8 1.3zm10.4-6-.8-1.3 3.5-2 .8 1.3zm10.4-6-.8-1.3 3.5-2 .8 1.3zm10.4-6-.8-1.3 3.5-2 .8 1.3zm10.4-6-.8-1.3 3.5-2 .8 1.3z" opacity=".55"/><path d="m498.5 153-.7-1.3 3.5-2 .7 1.3zm10.4-6-.7-1.3 3.5-2 .7 1.3zm10.4-6-.7-1.3 3.5-2 .7 1.3zm10.4-6-.7-1.3 3.5-2 .7 1.3zm10.4-6-.7-1.3 3.5-2 .7 1.3zm10.4-6-.7-1.3 3.5-2 .7 1.3zm10.3-6-.7-1.3 3.5-2 .7 1.3z" opacity=".55"/><path d="m815.7 511.3-.8-1.3 3.5-2 .8 1.3zm10.4-6-.8-1.3 3.5-2 .8 1.3zm10.4-6-.8-1.3 3.5-2 .8 1.3z" opacity=".55"/><path d="m1274.5 241.3-.8-1.3 3.5-2 .8 1.3zm10.4-6-.8-1.3 3.5-2 .8 1.3zm10.4-6-.8-1.3 3.5-2 .8 1.3zm10.4-6-.8-1.3 2.8-1.6.8 1.3z" opacity=".55"/><path d="m1497.3 118.6-.7-1.3 3.5-1.9.7 1.3zm10.6-5.7-.7-1.3 3.5-1.9.7 1.3zm10.5-5.8-.7-1.3 3.5-1.9.7 1.3zm10.6-5.7-.7-1.3 3.5-1.9.7 1.3zm10.5-5.7-.7-1.3 3.5-1.9.7 1.3zm10.5-5.8-.7-1.3 3.5-1.9.7 1.3zm10.6-5.7-.7-1.3 3.5-1.9.7 1.3zm10.5-5.8-.7-1.3 3.5-1.9.7 1.3zm10.5-5.7-.7-1.3 3.5-1.9.7 1.3zm10.6-5.7-.7-1.3 3.5-1.9.7 1.3zm10.5-5.8-.7-1.3 2.6-1.4.7 1.3z" opacity=".55"/><path d="m1560.5 288.9-.7-1.3 3.5-1.9.7 1.3zm10.5-5.7-.7-1.3 3.5-1.9.7 1.3zm10.5-5.7-.7-1.3 3.5-1.9.7 1.3zm10.6-5.8-.7-1.3 3.5-1.9.7 1.3zm10.5-5.7-.7-1.3 2.2-1.2.7 1.3z" opacity=".55"/><path d="m1383.9 334.4-3.5-2 .8-1.3 3.5 2zm-10.4-6-3.5-2 .8-1.3 3.5 2zm-10.3-6-3.5-2 .8-1.3 3.5 2zm-10.4-6-2.3-1.4.8-1.3 2.3 1.4z" opacity=".55"/><path d="m1517.3 297-3.5-2 .8-1.3 3.5 2zm-10.4-6-3.5-2 .8-1.3 3.5 2zm-10.4-6-3.5-2 .8-1.3 3.5 2zm-10.4-6-3.5-2 .8-1.3 3.5 2zm-10.4-6.1-3.5-2 .8-1.3 3.5 2zm-10.3-6-3.5-2 .8-1.3 3.5 2zm-10.4-6-3.5-2 .8-1.3 3.5 2zm-10.4-6-3.5-2 .8-1.3 3.5 2zm-10.4-6-3.5-2 .8-1.3 3.5 2zm-10.4-6-3.5-2 .8-1.3 3.5 2zm-10.4-6-3.5-2 .8-1.3 3.5 2zm-10.3-6.1-3-1.7.8-1.3 3 1.7z" opacity=".55"/><path clip-rule="evenodd" d="m1069.1 86.8c-6.4 3.7-14.6 5.9-23.7 6.4h-.7l.2-.7c1.4-5.7-.2-10.9-4.7-15l-1.3-1.2 1.8.4c6.3 1.4 13.5.5 18.2-2.3 3.1-1.8 4.9-4.2 4.9-6.7s-1.8-5-4.9-6.8c-6.7-3.9-17.7-3.9-24.4 0-2.5 1.5-4.2 3.3-4.7 5.4-.4 1.6-.1 3.2.8 4.6l.8 1.2-1.4-.5c-7.2-2.6-16.4-3.6-26.6-2.8h-.6l.1-.6c.8-5.2 4.8-10.2 11.2-13.9 15.1-8.7 39.7-8.7 54.9.1 7.5 4.3 11.6 10.1 11.6 16.2 0 6.2-4.1 11.9-11.5 16.2m-36.9-19.2c0-2.3 1.5-4.5 4.3-6.1 5.5-3.2 14.6-3.2 20.2 0 2.8 1.6 4.4 3.8 4.4 6.1s-1.5 4.5-4.3 6.1-6.4 2.4-10 2.4c-3.7 0-7.3-.8-10.1-2.4-2.9-1.5-4.5-3.7-4.5-6.1m10 25.3-.1.4h-.6c-10.3 0-20-2.3-27.3-6.6-7.5-4.3-11.6-10.1-11.6-16.2v-.5h.5c12.4-1 23.3.7 30.5 4.9 7.4 4.3 10.5 10.7 8.6 18m40.9-22.1c0-6.4-4.3-12.3-12.1-16.9-8.2-4.7-19-7.1-29.7-7.1s-21.3 2.3-29.4 7c-7.7 4.5-12 10.4-12 16.7 0 6.4 4.3 12.3 12.1 16.9 16.3 9.4 42.8 9.5 59.1.1 7.8-4.5 12-10.4 12-16.7" fill-rule="evenodd" opacity=".55"/><path clip-rule="evenodd" d="m1331.7 62.6-7.5 4.3-8.2-4.7c-4.3-2.5-11.2-2.5-15.5 0l-18.2 10.5-8.6-5c2.9-2.1 2.4-5.2-1.4-6.9s-9.1-1.3-12 .8-2.4 5.2 1.4 6.9c3 1.3 7.2 1.4 10.3.1l8.7 5-18.2 10.5c-4.3 2.5-4.4 6.5 0 9l8.2 4.7-7.2 4.2 18.1 10.4 7.2-4.2 15.9 9.2 53.7-31-15.9-9.2 7.5-4.3zm-69 4.6c-2.4-1.4-2.4-3.6 0-5s6.2-1.4 8.6 0 2.4 3.6 0 5-6.2 1.4-8.6 0zm18.7 43.3-14.6-8.4 5.5-3.2 14.6 8.4zm36.1-2.5-12.9-7.5 11.3-6.5 12.9 7.5zm13-7.5-12.9-7.5 11.3-6.5 12.9 7.5zm24.3-14-11.3 6.5-14.6-8.4-27.7 16 14.6 8.4-11.3 6.5-40.4-23.4c-3.4-1.9-3.3-5 0-7l38.1-22c3.4-1.9 8.7-2 12.1 0zm-8.4-13.5-5.8 3.3-14.6-8.4 5.8-3.3z" fill-rule="evenodd" opacity=".55"/><path clip-rule="evenodd" d="m1283.3 86.1c-3.4 1.9-3.4 5 0 7 3.4 1.9 8.7 1.9 12.1 0s3.4-5 0-7-8.8-2-12.1 0m10.3 5.9c-2.4 1.4-6.2 1.4-8.6 0s-2.4-3.6 0-5 6.2-1.4 8.6 0 2.4 3.6 0 5" fill-rule="evenodd" opacity=".55"/><path clip-rule="evenodd" d="m1304.1 74.1c-3.4 1.9-3.4 5 0 7 3.4 1.9 8.7 1.9 12.1 0s3.4-5 0-7-8.8-2-12.1 0m10.3 5.9c-2.4 1.4-6.2 1.4-8.6 0s-2.4-3.6 0-5 6.2-1.4 8.6 0 2.4 3.6 0 5" fill-rule="evenodd" opacity=".55"/><path clip-rule="evenodd" d="m1042.9 551.1-7.5 4.3-8.2-4.7c-4.3-2.5-11.2-2.5-15.5 0l-18.2 10.5-8.6-5c2.9-2.1 2.4-5.2-1.4-6.9s-9.1-1.3-12 .8-2.4 5.2 1.4 6.9c3 1.3 7.2 1.4 10.3.1l8.7 5-18.2 10.5c-4.3 2.5-4.4 6.5 0 9l8.2 4.7-7.2 4.2 18.1 10.4 7.2-4.2 15.9 9.2 53.7-31-15.9-9.2 7.5-4.3zm-69 4.7c-2.4-1.4-2.4-3.6 0-5s6.2-1.4 8.6 0 2.4 3.6 0 5c-2.4 1.3-6.2 1.3-8.6 0zm18.7 43.3-14.6-8.4 5.5-3.2 14.6 8.4zm36.1-2.5-12.9-7.5 11.3-6.5 12.9 7.5zm13-7.5-12.9-7.5 11.3-6.5 12.9 7.5zm24.3-14-11.3 6.5-14.6-8.4-27.7 16 14.6 8.4-11.3 6.5-40.4-23.4c-3.4-1.9-3.3-5 0-7l38.1-22c3.4-1.9 8.7-2 12.1 0zm-8.4-13.5-5.8 3.3-14.6-8.4 5.8-3.3z" fill-rule="evenodd" opacity=".55"/><path clip-rule="evenodd" d="m994.5 574.7c-3.4 1.9-3.4 5 0 7s8.7 1.9 12.1 0c3.4-2 3.4-5 0-7s-8.8-2-12.1 0m10.3 5.9c-2.4 1.4-6.2 1.4-8.6 0s-2.4-3.6 0-5 6.2-1.4 8.6 0 2.4 3.6 0 5" fill-rule="evenodd" opacity=".55"/><path clip-rule="evenodd" d="m1015.3 562.7c-3.4 1.9-3.4 5 0 7 3.4 1.9 8.7 1.9 12.1 0 3.4-2 3.4-5 0-7s-8.8-2-12.1 0m10.3 5.9c-2.4 1.4-6.2 1.4-8.6 0s-2.4-3.6 0-5 6.2-1.4 8.6 0 2.4 3.6 0 5" fill-rule="evenodd" opacity=".55"/><path clip-rule="evenodd" d="m346.5 493.1c-11.4 6.6-31.4 5.7-44.6-1.9s-14.7-19.2-3.3-25.8l30.2-17.4c11.4-6.6 31.4-5.7 44.6 1.9s14.7 19.2 3.3 25.8zm28.7-44.2c-14.6-8.4-36.6-9.5-49-2.3l-30.2 17.4c-12.4 7.2-10.6 19.8 4 28.3 14.6 8.4 36.6 9.5 49 2.3l30.2-17.4c12.5-7.2 10.7-19.9-4-28.3z" fill-rule="evenodd" opacity=".55"/><path clip-rule="evenodd" d="m361.2 457c-.7-.4-1.7-.5-2.2-.2l-8.6 5c-.5.3-.3.9.4 1.2.7.4 1.7.5 2.2.2l8.6-5c.5-.3.3-.8-.4-1.2" fill-rule="evenodd" opacity=".55"/><path clip-rule="evenodd" d="m463.3 513.2c-10.3 6-27.1 6-37.4.1s-10.2-15.6.1-21.6 27.1-6 37.4-.1 10.2 15.6-.1 21.6m1.7-22.6c-11.2-6.5-29.4-6.4-40.7.1s-11.3 17-.1 23.5 29.4 6.4 40.7-.1 11.3-17 .1-23.5" fill-rule="evenodd" opacity=".55"/><path clip-rule="evenodd" d="m469.8 516.9c-13.9 8.1-36.6 8.1-50.4.1-13.9-8-13.8-21.1.2-29.1 13.9-8.1 36.6-8.1 50.4-.1s13.7 21-.2 29.1m1.8-30.1c-14.8-8.5-38.9-8.5-53.7.1-14.9 8.6-14.9 22.5-.2 31 14.8 8.5 38.9 8.5 53.7-.1 14.9-8.5 14.9-22.4.2-31" fill-rule="evenodd" opacity=".55"/><path clip-rule="evenodd" d="m133 603.3-29.4-1.3.2-1.7 25.9 1.1-8.2-45.5 3-.2z" fill-rule="evenodd" opacity=".55"/><path clip-rule="evenodd" d="m180.2 597.4-57.6 33.2-57.1-33 39.4-22.8 2.1 1.3-37.3 21.5 52.9 30.5 53.4-30.7-30.8-17.7 2.2-1.3z" fill-rule="evenodd" opacity=".55"/><path clip-rule="evenodd" d="m1233.4 602.3c4.2 2.5 10 3.8 16 3.8s11.7-1.4 15.9-3.8 6.6-5.7 6.6-9.2-2.4-6.8-6.7-9.2-10-3.8-16-3.8-11.7 1.4-15.9 3.8-6.5 5.8-6.5 9.2 2.3 6.7 6.6 9.2zm29.7-17.2c5.6 3.2 7.3 8.1 4.3 12.3s-10.1 7-18 6.9c-7.9 0-15.1-2.8-18.1-7s-1.4-9.1 4.2-12.3c7.5-4.3 19.9-4.3 27.6.1z" fill-rule="evenodd" opacity=".55"/><path clip-rule="evenodd" d="m1174.7 575.8 53.4 30.8c8 4.6 19.7 6.4 30.5 4.8 10.9-1.7 19.4-6.6 22.3-12.9s-.3-13-8.3-17.6l-53.4-30.8c-8-4.6-19.7-6.4-30.5-4.8-10.9 1.7-19.4 6.6-22.3 12.9-2.9 6.2.3 12.9 8.3 17.6m42.4-24.5 53.4 30.8c7.2 4.2 10.1 10.3 7.5 16s-10.3 10.1-20.2 11.6-20.4-.1-27.6-4.3l-53.4-30.8c-7.2-4.2-10.1-10.3-7.5-16s10.3-10.1 20.2-11.6c9.8-1.6 20.4.1 27.6 4.3" fill-rule="evenodd" opacity=".55"/><path clip-rule="evenodd" d="m1126.9 612.9c4.2 2.5 10 3.8 16 3.8s11.7-1.4 15.9-3.8 6.6-5.7 6.6-9.2-2.4-6.8-6.7-9.2-10-3.8-16-3.8-11.7 1.4-15.9 3.8-6.5 5.8-6.5 9.2 2.4 6.7 6.6 9.2zm29.7-17.2c5.6 3.2 7.3 8.1 4.3 12.3s-10.1 7-18 6.9c-7.9 0-15.1-2.8-18.1-7s-1.4-9.1 4.2-12.3c7.6-4.3 19.9-4.3 27.6.1z" fill-rule="evenodd" opacity=".55"/><path clip-rule="evenodd" d="m1119.4 615.9 53.4 30.8c8 4.6 19.7 6.4 30.5 4.8 10.9-1.7 19.4-6.6 22.3-12.9s-.3-13-8.3-17.6l-53.4-30.8c-8-4.6-19.7-6.4-30.6-4.8-10.9 1.7-19.4 6.6-22.3 12.9-2.8 6.3.4 13 8.4 17.6m42.4-24.5 53.4 30.8c7.2 4.2 10.1 10.3 7.5 16s-10.3 10.1-20.2 11.6-20.4-.1-27.6-4.3l-53.4-30.8c-7.2-4.2-10.1-10.3-7.5-16s10.3-10.1 20.2-11.6c9.8-1.5 20.4.1 27.6 4.3" fill-rule="evenodd" opacity=".55"/><path clip-rule="evenodd" d="m133.4 341.8 1.5.8 35.6-20.6 67.7 39.2-67.3 38.9-35.8-20.7-1.5.9 37.3 21.5 70.5-40.6-70.9-41z" fill-rule="evenodd" opacity=".55"/><path clip-rule="evenodd" d="m158.4 361-.5-.3-.5-.3-20.1-11.6-1.6.9 18.6 10.7h-1.6l-50.5-.1v1.3h52.1l-18.5 10.7 1.6.9 20-11.6z" fill-rule="evenodd" opacity=".55"/><path clip-rule="evenodd" d="m923.8 573.4c4.2 2.4 4.1 6.3 0 8.7l-130.8 75.5c-4.2 2.4-11 2.4-15.1 0l-170.2-98.3c-4.2-2.4-4.1-6.3 0-8.7l130.8-75.5c4.2-2.4 11-2.4 15.1 0zm-168.6-99.3c-5.1-2.9-13.4-2.9-18.5 0l-130.8 75.5c-5.3 3.1-5.3 7.7-.1 10.7l170.4 98.4c5.2 3 13 2.9 18.3-.1l130.8-75.5c5.2-3 5.2-7.7.1-10.7z" fill-rule="evenodd" opacity=".55"/><path clip-rule="evenodd" d="m899.4 572.9-122.4 70.7c-1.2.7-2.8.7-4 0l-141.2-81.5c-1.2-.7-1.2-1.6 0-2.3l122.4-70.7c1.2-.7 2.8-.7 4 0l141.2 81.5c1.3.7 1.3 1.6 0 2.3m1.9-3.2-141.4-81.6c-2.1-1-5.3-1-7.2.1l-122.4 70.7c-2.1 1.2-2.1 3.1 0 4.3l141.2 81.5c2 1.2 5.4 1.2 7.4 0l122.4-70.7c2.1-1.2 2.1-3.1 0-4.3" fill-rule="evenodd" opacity=".55"/><path clip-rule="evenodd" d="m684.5 519.5c.9-.5 1.2-1.3 0-2-.5-.3-1.2-.5-1.8-.4-.6 0-1.2.2-1.6.4-.9.5-1.2 1.3 0 2 1.1.7 2.5.5 3.4 0" fill-rule="evenodd" opacity=".55"/><path clip-rule="evenodd" d="m852.2 612.9c-2-1.2-4.4-.8-5.9 0-1.4.8-2 2.2 0 3.4s4.4.8 5.9 0c1.4-.8 2-2.2 0-3.4" fill-rule="evenodd" opacity=".55"/><path d="m391.8 653.8c-1.6 0-3.2-.4-4.5-1.1l-80.7-46.6c-1.4-.8-2.1-1.9-2.1-3.2s.8-2.3 2.1-3.2l63.1-36.4c2.5-1.5 6.5-1.5 9 0l80.7 46.6c1.4.8 2.2 1.9 2.1 3.2 0 1.2-.8 2.3-2.1 3.2l-63.1 36.4c-1.3.8-2.9 1.1-4.5 1.1zm-17.6-89.5c-1.3 0-2.5.3-3.5.8l-63.1 36.4c-.7.4-1.1 1-1.1 1.4s.4 1 1.2 1.4l80.7 46.6c1.9 1.1 5.1 1.1 7 0l63.1-36.4c.7-.4 1.1-1 1.1-1.4 0-.5-.4-1-1.2-1.4l-80.7-46.6c-1-.5-2.2-.8-3.5-.8z" opacity=".55"/><path d="m428.4 598.4h2v23.6h-2z" opacity=".55" transform="matrix(.50069513 -.8656237 .8656237 .50069513 -313.785492 676.397388)"/><path d="m402.3 582h2v26.3h-2z" opacity=".55" transform="matrix(.50102747 -.86543138 .86543138 .50102747 -313.840873 645.987948)"/><path d="m377.2 569.8h2v21.6h-2z" opacity=".55" transform="matrix(.50009069 -.86597304 .86597304 .50009069 -313.710191 617.728301)"/><path d="m388.9 572.8h12.6v2h-12.6z" opacity=".55" transform="matrix(.86586828 -.50027205 .50027205 .86586828 -234.030967 274.669001)"/><path d="m410.2 585.1h12.6v2h-12.6z" opacity=".55" transform="matrix(.86586828 -.50027205 .50027205 .86586828 -237.327308 286.974615)"/><path d="m432.8 598.1h12.6v2h-12.6z" opacity=".55" transform="matrix(.86586828 -.50027205 .50027205 .86586828 -240.798967 300.024342)"/><path d="m374.9 602.9-9.5-5.4 9.4-5.5 9.5 5.4zm-5.5-5.5 5.5 3.2 5.4-3.1-5.5-3.2z" opacity=".55"/><path d="m388.2 610.6-9.5-5.4 9.4-5.5 9.5 5.4zm-5.5-5.5 5.5 3.2 5.4-3.1-5.5-3.2z" opacity=".55"/><path d="m401.5 618.3-9.5-5.4 9.4-5.5 9.5 5.4zm-5.5-5.5 5.5 3.2 5.4-3.1-5.5-3.2z" opacity=".55"/><path d="m414.8 626-9.5-5.6 9.4-5.3 9.5 5.4zm-5.5-5.5 5.5 3.2 5.4-3.1-5.5-3.2z" opacity=".55"/><path d="m348.4 602.9-9.5-5.4 9.4-5.5 9.5 5.4zm-5.5-5.5 5.5 3.2 5.4-3.1-5.5-3.2z" opacity=".55"/><path d="m361.7 610.6-9.5-5.6 9.4-5.5 9.5 5.6zm-5.5-5.5 5.5 3.2 5.4-3.1-5.5-3.2z" opacity=".55"/><path d="m375 618.2-9.5-5.4 9.4-5.5 9.5 5.4zm-5.5-5.5 5.5 3.2 5.4-3.1-5.5-3.2z" opacity=".55"/><path d="m388.3 625.9-9.5-5.4 9.4-5.5 9.5 5.4zm-5.5-5.5 5.5 3.2 5.4-3.1-5.5-3.2z" opacity=".55"/><path d="m401.6 633.6-9.5-5.4 9.4-5.5 9.5 5.4zm-5.5-5.5 5.5 3.2 5.4-3.1-5.5-3.2z" opacity=".55"/><path d="m335.1 610.5-9.4-5.5 9.4-5.5 9.5 5.5zm-5.4-5.5 5.4 3.1 5.5-3.1-5.5-3.1z" opacity=".55"/><path d="m348.4 618.2-9.4-5.5 9.4-5.5 9.5 5.5zm-5.4-5.5 5.4 3.1 5.5-3.1-5.5-3.1z" opacity=".55"/><path d="m361.7 625.9-9.4-5.5 9.4-5.5 9.5 5.5zm-5.4-5.5 5.4 3.1 5.5-3.1-5.5-3.1z" opacity=".55"/><path d="m375 633.6-9.4-5.6 9.4-5.4 9.5 5.6zm-5.4-5.5 5.4 3.2 5.5-3.2-5.5-3.2z" opacity=".55"/><path clip-rule="evenodd" d="m768.4 119.1-25.1-14.5 25-14.4 25.1 14.5zm-22.8 13.1-25.1 14.6-25.1-14.5 25.1-14.5zm6.1 20.3-11.3 6.5c-.1.1-.1.1-.2.1 0 0 0 .1.2.1l12.9 7.4-20.9 12-12.4-7.1c-.2-.1-.5-.2-.8-.2s-.5.1-.7.2l-.1.1-12.3 7.1-19.6-11.3 12.7-7.4c.1-.1.1-.1.2-.1 0 0 0-.1-.2-.1l-12.9-7.4 21-12.1 12.4 7.1c.4.2 1.1.2 1.5 0l10.8-6.2zm15.5-7.8 25.2 14.5-25.1 14.6-25.2-14.5zm-22.8 42.3-24.8 14.3-25.2-14.5 25-14.4zm-71.6-12.7-25.1-14.5 25-14.4 25.1 14.5zm-32.9-33.8 12.7-7.4c.1-.1.2-.1.2-.2l-.1-.1-12.9-7.5 21-12.1 12.4 7.1c.4.2 1.1.2 1.5 0l10.8-6.2 19.6 11.3-11.3 6.5c-.1.1-.1.1-.2.1 0 0 0 .1.2.1l12.8 7.4-20.9 12-12.3-7.1c-.2-.1-.5-.2-.8-.2s-.5.1-.7.2l-.1.1-12.3 7.1zm-14 6.9-25.1-14.6 25.1-14.5 25.2 14.5zm-32.7-33.9 12.7-7.4c.1-.1.1-.1.2-.1 0 0 0-.1-.2-.1l-12.9-7.5 21-12.1 12.4 7.1c.4.2 1.1.2 1.5 0l10.8-6.2 19.6 11.3-11.3 6.5c-.1.1-.1.1-.2.1 0 0 0 .1.2.1l12.9 7.4-20.9 12.2-12.4-7.1c-.2-.1-.5-.2-.8-.2s-.5.1-.7.2l-.1.1-12.3 7.1zm-13.9 6.8-25.1-14.5 25-14.4 25.2 14.5zm22.7-42.1 25-14.4 25.2 14.5-25.2 14.5zm71.7 12.5 25.2 14.5-25.1 14.6-25.2-14.5zm23 123.8-25 14.4-25.2-14.5 25.2-14.5zm-93.6-54-25 14.4-25.2-14.5 25.2-14.5zm46.7-109.9 25-14.5 25.2 14.6-25 14.5zm145.2 54-26.2-15.1c-.4-.2-1.1-.2-1.5 0l-25.8 14.9c-.1.1-.1.1-.2.1 0 0 0 .1.2.1l12.8 7.4-20.9 12-12.3-7.1c-.4-.2-1.1-.2-1.5 0l-13.8 7.9-19.6-11.3 14.3-8.2c.1-.1.2-.1.2-.1s0-.1-.2-.1l-26.2-15.1c-.4-.2-1.1-.2-1.5 0l-13.8 7.9-19.6-11.3 14.3-8.2c.1-.1.2-.1.2-.1s0-.1-.2-.1l-12.7-7.5 20.9-12 12.4 7.1c.4.2 1.1.2 1.5 0l25.9-15v-.1s0-.1-.2-.1l-26.2-15.1c-.4-.2-1.1-.2-1.5 0l-25.8 15c-.1.1-.1.1-.2.1 0 0 0 .1.2.1l12.8 7.4-20.9 12-12.3-7.1c-.4-.2-1.1-.2-1.5 0l-26 15c-.1.1-.2.1-.2.1s0 .1.2.1l12.8 7.4-20.9 12-12.3-7.1c-.4-.2-1.1-.2-1.5 0l-25.9 15c-.1.1-.1.1-.2.1 0 0 0 .1.2.1l26.2 15.1c.4.2 1.1.2 1.5 0l12.2-7.1 19.6 11.3-12.7 7.4c-.1.1-.1.1-.2.1 0 0 0 .1.2.1l12.9 7.4-20.9 12-12.4-7.1c-.4-.2-1.1-.2-1.5 0l-26.1 15.1c-.1.1-.2.1-.2.1s0 .1.2.1l26.2 15.1c.4.2 1.1.2 1.5 0l26.1-15.1c.1-.1.1-.1.2-.1 0 0 0-.1-.2-.1l-12.9-7.4 20.9-12 12.4 7.1c.2.1.5.2.8.2.2 0 .5-.1.7-.2l12.3-7.1 19.6 11.3-12.7 7.4c-.1.1-.2.1-.2.1l.1.1 26.2 15.1c.4.2 1.1.2 1.5 0l12.2-7.1 19.6 11.3-12.7 7.4c-.1.1-.1.1-.2.1 0 0 0 .1.2.1l12.9 7.4-20.9 12-12.4-7.1c-.2-.1-.5-.2-.8-.2s-.5.1-.7.2l-26.1 15.1c-.1.1-.1.1-.2.1 0 0 0 .1.2.1l26.1 15.1c.4.2 1.1.2 1.5 0l26.1-15.1c.1-.1.1-.1.2-.1 0 0 0-.1-.2-.1l-12.8-7.4 20.9-12 12.3 7.1c.4.2 1.1.2 1.5 0l25.8-14.9c.1-.1.1-.1.2-.1 0 0 0-.1-.2-.1l-12.8-7.4 21-12.1 12.3 7.1c.4.2 1.1.2 1.5 0l26-15c.1-.1.2-.1.2-.1s0-.1-.2-.1l-26.1-14.8c-.4-.2-1.1-.2-1.5 0l-13.8 7.9-19.6-11.3 14.3-8.2c.1-.1.2-.1.2-.1s0-.1-.2-.1l-12.9-7.4 20.9-12 12.4 7.1c.4.2 1.1.2 1.5 0l25.9-15v-.1z" fill-rule="evenodd" opacity=".55"/><path clip-rule="evenodd" d="m31.8 279.8-7.8 4.5 7.6 4.4 7.7-4.4zm5.1 4.4-5.1 3-5.1-2.9 5.1-3z" fill-rule="evenodd" opacity=".55"/><path clip-rule="evenodd" d="m70.2 281.2 5.1 2.9-6.4 3.7 7.6 4.4 7.7-4.4-6.4-3.7 6.4-3.7-12.7-7.3 5.1-2.9 12.7 7.4 7.7-4.4-20.4-11.9-6.3 3.6-6.4-3.7-6.4 3.7-6.4-3.7-6.4 3.7-5.1-2.9 6.4-3.7-7.6-4.4-7.7 4.4 6.4 3.7-6.4 3.7 6.4 3.7-11.5 6.6-6.4-3.7-6.4 3.7-6.4-3.7-7.7 4.4 7.6 4.4 6.4-3.7 5.1 2.9-6.4 3.7 6.4 3.7-6.4 3.7 6.4 3.7-6.4 3.7 20.4 11.8 7.7-4.4-12.8-7.4 5.1-3 12.7 7.4 6.4-3.7 6.4 3.7 7.7-4.4-7.7-4.5-6.4 3.7-5.1-2.9zm11.4 6.6-5.1 3-5.1-2.9 5.1-3zm-48.3-29.4 5.1-3 5.1 2.9-5.1 3zm-27 21.4-5.1-2.9 5.1-3 5.1 2.9zm51.1 16.2 5.1 2.9-5.1 3-5.1-2.9zm-12.8 5.9-12.7-7.4-7.8 4.5 12.7 7.4-5.1 3-17.8-10.3 6.4-3.7-6.4-3.7 6.4-3.7-6.4-3.7 6.4-3.7-6.4-3.7 5.1-3 6.4 3.7 14.1-8.2-6.4-3.7 5.1-3 6.4 3.7 6.4-3.7 6.4 3.7 6.4-3.7 6.4 3.7 6.4-3.7 17.8 10.3-5.1 3-12.7-7.4-7.8 4.5 12.7 7.4-5.1 3-6.4-3.7-26.8 15.5 6.4 3.7z" fill-rule="evenodd" opacity=".55"/><path clip-rule="evenodd" d="m51 268.7-7.7 4.4 7.6 4.4 7.7-4.4zm5.2 4.4-5.1 3-5.1-2.9 5.1-3z" fill-rule="evenodd" opacity=".55"/><path d="m496.3 155.5c.1-.3 0-.6-.1-.9-.3-.6-1.3-1-2.6-1.1l-26.2-1.2-5.5-3.2c-2.6-1.5-6.6-1.5-9.1 0l-11.7 6.8c-1.1.6-1.7 1.5-1.7 2.5s.6 1.9 1.8 2.6l5.6 3.2v.1l2.1 15.1c.1.4.4.7.8 1 .3.2.7.3 1.1.4 1.2.2 2.4.1 3.2-.4l41.5-24c.5-.3.8-.6.8-.9zm-2.6-.2-41.6 24.1h-.3v-.1l-2.1-15.4c0-.1-.2-.3-.4-.5l-5.9-3.4c-.7-.4-1.1-1-1.1-1.6s.4-1.1 1.1-1.6l11.6-6.8c1.4-.8 3.7-.8 5.1 0l5.9 3.4c.2.1.4.2.6.2.1 0 .2 0 .3.1l26.6 1.2c.2 0 .2.1.2.2z" opacity=".55"/><path d="m469.9 175.9c-.4 0-.8.1-1.1.2-.3.2-.5.4-.5.5-.1.2 0 .3.3.5s.6.3 1 .3c5.8.4 11.8-.8 15.8-3.1 4.1-2.4 6-5.8 5.2-9.1 0-.2-.2-.3-.4-.5-.3-.2-.7-.2-1.1-.2-.3.1-.7.2-.9.4s-.2.4-.2.6c.7 2.9-1 5.8-4.5 7.9-3.7 2-8.8 3-13.6 2.5z" opacity=".55"/><path d="m502.1 163c-.2-.4-.9-.7-1.7-.6-.4.1-.8.2-.9.4-.2.2-.2.4-.2.6 2.1 5.5-.7 11.1-7.5 15.1-6.7 3.9-16.4 5.5-25.9 4.3h-.3c-.3 0-.5.1-.8.1-.3.1-.5.2-.6.5-.1.1 0 .4.3.5.3.2.6.3 1 .3 10.4 1.3 21-.5 28.5-4.8 7.4-4.3 10.5-10.5 8.1-16.4z" opacity=".55"/><path d="m1002.1 142.5v196.3l221-127.6v-196.3zm133.8-1.5-5.7 10.2c-.4-.1-.8 0-1.3.3l-1.4-11.2zm-1.7 42.5-10.2 14.9-5.8-14.1c.8-.9 1.5-1.9 2.1-3l13.6-.1c-.1.3-.1.6-.1.9 0 .6.1 1.1.4 1.4zm-13.3-3.2c.9-1.9 1.5-3.9 1.5-5.7v-.6l9.3-8.2 3.7 13c-.4.4-.7.9-1 1.5zm-.5-10.1 7-12.6c.4.1.9 0 1.4-.3.1-.1.2-.1.3-.2l2.2 7.9-9.2 8.1c-.2-1.3-.8-2.3-1.7-2.9zm12-5.1 5.1-4.6c.3.5.8.8 1.4.7l-2.5 16.6h-.1c-.1.1-.2.1-.3.2zm4.9-5.6v.3l-5.1 4.6-2.2-7.9c.2-.3.4-.5.6-.8l7.1 2.3c-.3.4-.4 1-.4 1.5zm-21.6-20.2 10.9.9 1.5 11.8c-.6.6-1.1 1.3-1.4 2.1l-11 1.5zm0 17.4 10.7-1.5v.5l-10.6 7.8zm0 7.9 10.7-7.9c.1.3.2.5.4.7l-7 12.6c-1.1-.4-2.5-.3-4.1.5zm0 21.8c.6-.4 1.2-.8 1.7-1.3l5.9 14.3-6.3 9.2c-.4-.2-.8-.2-1.3 0zm-6.1-40-2.8 8c-.2.1-.5.1-.7.3 0 0-.1 0-.1.1l-1.1-2.6zm-.9 38.8-7.4 6.5-7.1-9.7c.1-.1.2-.3.2-.4l14-.1c-.1.4-.1.8-.1 1.2 0 .9.1 1.8.4 2.5zm-8.2 7.2-8.3 7.4c-.3-.6-.9-.8-1.6-.7l1.6-15.3c.1 0 .1 0 .2-.1.4-.2.7-.5 1.1-.9zm-8 8.5v-.3l8.5-7.6 3.4 4.6-4.4 7.8-7.9-2.9c.2-.5.4-1.1.4-1.6zm12.3-2.7 8.9 12.2v.1l-13.1-4.8zm-3-5.9 7.3-6.4c.3.5.7 1 1.2 1.3l-5.3 9.5zm6.7-11.9-13.7.1c0-.2.1-.4.1-.5l15.6-11.6 1.9 4.6c-1.9 2-3.3 4.8-3.9 7.4zm-13.6-1.4c-.1-.5-.2-.8-.5-1l10.2-17.3c.4.1.9 0 1.4-.3.3-.2.6-.4.9-.7l3.3 8zm9.3-26 1 2.3c-.5.5-1 1.2-1.3 2l-3.6.5zm-18.6 23.1 13.8-17.2 4.2-.6c0 .2-.1.4-.1.6 0 .6.2 1.1.5 1.4l-10.2 17.3c-.4-.1-.9 0-1.4.3-.9.5-1.7 1.5-2.1 2.5h-4.7zm0 5.5h4.4c-.1.3-.1.5-.1.8 0 .5.1 1 .4 1.3l-4.7 7.9zm0 20.2v-8.9l5.2-8.8c.2.1.4.1.7.1l-1.6 15.4c-1.4.8-2.4 2.7-2.4 4.3v.3l-1.8 1.6zm0 13.6v-8.8l2-1.8c.4.8 1.3 1 2.3.4.6-.4 1.2-1 1.6-1.7l7.8 2.9-5.4 9.7zm29.3 2.5-20.2-1.7 5.3-9.6 13.1 4.8c-.2.6-.3 1.1-.3 1.6 0 1.4.9 2.1 2.1 1.6zm0-8.8c-.2.1-.3.3-.5.4l-9.1-12.4 5.4-9.8c1.1.4 2.5.3 4.1-.5zm0-38.3c-.6.4-1.2.8-1.7 1.3l-1.8-4.4 3.5-2.6zm0-6.6-3.8 2.8-3.4-8.2c.2-.3.4-.7.6-1.1l6.6-.9zm0-8.4-6.3.9c0-.2.1-.4.1-.6 0-1-.4-1.6-1.1-1.7l3.3-9.5 4-5zm.8 61.7v-3.2c1.2-.9 2.1-2.6 2.1-4.1 0-.5-.1-.9-.3-1.2l6.1-8.9 2.1 5zm10.7-13.2-2.1-5.1 10.4-15.3c.4.2 1 .1 1.6-.2.8-.5 1.6-1.4 2-2.4h6.6zm18.6-24.1h-6.3c.1-.3.1-.6.1-.9 0-.5-.1-.8-.3-1.1l6.4-9.4v11.4zm0-12.6-6.9 10.1c-.3-.2-.6-.2-.9-.1l2.5-16.6h.1c1.4-.8 2.5-2.7 2.5-4.3v-.3l2.7-2.4zm0-14.7-2.9 2.6c-.4-.8-1.3-1-2.3-.4-.7.4-1.2 1-1.7 1.7l-7.1-2.3c.2-.5.3-1.1.3-1.6 0-.7-.2-1.1-.5-1.4l5.8-10.4 8.3.7z" opacity=".55"/></g></svg>