<svg fill="none" height="1024" viewBox="0 0 2706 1024" width="2706" xmlns="http://www.w3.org/2000/svg"><path d="m1041.48 634.94c-12.67 0-25.33-1.773-38-5.32-12.413-3.547-23.18-8.487-32.3-14.82-1.013-.507-1.773-1.393-2.28-2.66-.253-1.267-.127-2.533.38-3.8l8.74-17.1c1.267-2.28 3.04-3.42 5.32-3.42 1.267 0 2.28.253 3.04.76 19.51 11.653 38 17.48 55.48 17.48 16.21 0 29.51-4.053 39.9-12.16 10.39-8.36 15.58-19.507 15.58-33.44 0-9.12-2.28-16.593-6.84-22.42s-10.26-10.513-17.1-14.06-16.34-7.727-28.5-12.54c-15.96-6.08-28.75-11.653-38.38-16.72-9.627-5.32-17.987-12.92-25.08-22.8s-10.64-22.673-10.64-38.38 3.673-29.007 11.02-39.9c7.6-11.147 17.607-19.38 30.02-24.7 12.41-5.32 26.09-7.98 41.04-7.98 12.16 0 23.94 1.773 35.34 5.32 11.65 3.293 21.91 7.853 30.78 13.68 1.01.507 1.65 1.52 1.9 3.04.51 1.267.38 2.533-.38 3.8l-8.36 15.58c-.76 1.52-1.9 2.533-3.42 3.04s-3.04.253-4.56-.76c-16.97-10.133-33.95-15.2-50.92-15.2-15.45 0-27.87 3.8-37.24 11.4-9.12 7.6-13.68 17.987-13.68 31.16 0 9.12 2.28 16.72 6.84 22.8 4.56 5.827 10.13 10.513 16.72 14.06 6.84 3.547 16.47 7.727 28.88 12.54 2.28 1.013 10.77 4.307 25.46 9.88 14.95 5.573 26.73 14.06 35.34 25.46 8.87 11.4 13.3 25.08 13.3 41.04 0 15.707-3.8 29.387-11.4 41.04-7.35 11.653-17.61 20.647-30.78 26.98-13.17 6.08-28.25 9.12-45.22 9.12zm148.3-4.94c-1.52 0-2.92-.38-4.18-1.14-1.02-1.013-1.52-2.28-1.52-3.8v-278.16c0-1.52.5-2.787 1.52-3.8 1.01-1.013 2.28-1.52 3.8-1.52h19c1.52 0 2.78.507 3.8 1.52 1.01 1.013 1.52 2.28 1.52 3.8v151.62h15.58l74.86-80.18c2.02-2.28 4.18-3.42 6.46-3.42h24.7c1.52 0 2.66.507 3.42 1.52 1.01.76 1.52 1.773 1.52 3.04 0 1.52-.51 2.787-1.52 3.8l-84.36 88.16 88.92 110.96c.76 1.013 1.14 2.027 1.14 3.04 0 1.267-.38 2.407-1.14 3.42-.76.76-1.9 1.14-3.42 1.14h-24.7c-2.28 0-4.44-1.14-6.46-3.42l-79.42-99.94h-15.58v98.42c0 1.52-.64 2.787-1.9 3.8-1.02.76-2.28 1.14-3.8 1.14zm238.93 73.34c-2.28 0-4.05-.76-5.32-2.28-1.26-1.52-1.52-3.42-.76-5.7l22.04-63.08-75.62-209c-.25-.507-.38-1.393-.38-2.66 0-1.52.51-2.787 1.52-3.8 1.27-1.267 2.79-1.9 4.56-1.9h17.48c1.52 0 2.92.507 4.18 1.52 1.52.76 2.54 1.9 3.04 3.42l59.66 170.24 59.28-170.24c.51-1.52 1.4-2.66 2.66-3.42 1.52-1.013 3.04-1.52 4.56-1.52h16.72c2.28 0 3.93.887 4.94 2.66 1.27 1.52 1.52 3.42.76 5.7l-97.28 275.12c-.5 1.52-1.52 2.66-3.04 3.42-1.26 1.013-2.66 1.52-4.18 1.52zm236.53-73.34c-14.95 0-28.76-3.673-41.42-11.02-12.67-7.347-22.68-17.353-30.02-30.02-7.35-12.92-11.02-26.853-11.02-41.8v-54.34c0-14.947 3.67-28.753 11.02-41.42 7.34-12.92 17.35-23.053 30.02-30.4 12.66-7.347 26.47-11.02 41.42-11.02 14.94 0 28.75 3.673 41.42 11.02 12.66 7.347 22.67 17.48 30.02 30.4 7.34 12.667 11.02 26.473 11.02 41.42v25.84c0 3.8-1.4 7.093-4.18 9.88-2.54 2.533-5.7 3.8-9.5 3.8h-121.6v16.72c0 9.627 2.28 18.493 6.84 26.6 4.81 8.107 11.27 14.567 19.38 19.38 8.1 4.56 16.97 6.84 26.6 6.84h55.1c1.52 0 2.78.507 3.8 1.52 1.01 1.013 1.52 2.28 1.52 3.8v17.48c0 1.52-.51 2.787-1.52 3.8-1.02 1.013-2.28 1.52-3.8 1.52zm52.82-125.02v-14.06c0-9.627-2.41-18.493-7.22-26.6-4.56-8.107-10.9-14.44-19-19-8.11-4.813-16.98-7.22-26.6-7.22-9.63 0-18.5 2.407-26.6 7.22-8.11 4.56-14.57 10.893-19.38 19-4.56 8.107-6.84 16.973-6.84 26.6v14.06zm102.46 42.94c-6.84 0-12.67-2.28-17.48-6.84-4.56-4.813-6.84-10.513-6.84-17.1s2.28-12.16 6.84-16.72c4.81-4.813 10.64-7.22 17.48-7.22 6.59 0 12.16 2.407 16.72 7.22 4.56 4.56 6.84 10.133 6.84 16.72s-2.28 12.287-6.84 17.1c-4.56 4.56-10.13 6.84-16.72 6.84zm89.92 82.08c-1.52 0-2.91-.38-4.18-1.14-1.01-1.013-1.52-2.28-1.52-3.8v-253.84c0-1.52.51-2.787 1.52-3.8s2.28-1.52 3.8-1.52h20.52c1.52 0 2.79.507 3.8 1.52s1.52 2.28 1.52 3.8v113.24h11.02l91.96-115.14c2.03-2.28 4.31-3.42 6.84-3.42h23.94c1.77 0 3.04.507 3.8 1.52 1.01.76 1.52 1.9 1.52 3.42s-.51 2.787-1.52 3.8l-98.42 121.98 98.04 123.88c1.01 1.013 1.52 2.28 1.52 3.8 0 1.773-.63 3.167-1.9 4.18-1.01 1.013-2.28 1.52-3.8 1.52h-23.94c-2.28 0-4.43-1.14-6.46-3.42l-90.06-113.62h-12.54v112.1c0 1.52-.63 2.787-1.9 3.8-1.01.76-2.28 1.14-3.8 1.14zm238.15-244.72c-1.52 0-2.79-.507-3.8-1.52s-1.52-2.28-1.52-3.8v-33.06c0-1.52.51-2.787 1.52-3.8s2.28-1.52 3.8-1.52h18.24c1.52 0 2.79.507 3.8 1.52s1.52 2.28 1.52 3.8v33.06c0 1.52-.51 2.787-1.52 3.8s-2.28 1.52-3.8 1.52zm7.98 244.72c-3.8 0-7.09-1.267-9.88-3.8-2.53-2.787-3.8-6.08-3.8-9.88v-173.28h-39.52c-1.52 0-2.79-.507-3.8-1.52s-1.52-2.28-1.52-3.8v-17.48c0-1.52.51-2.787 1.52-3.8s2.28-1.52 3.8-1.52h55.48c3.8 0 6.97 1.393 9.5 4.18 2.79 2.533 4.18 5.7 4.18 9.5v173.28h39.14c1.52 0 2.79.507 3.8 1.52s1.52 2.28 1.52 3.8v17.48c0 1.52-.51 2.787-1.52 3.8s-2.28 1.52-3.8 1.52zm150.88 0c-1.52 0-3.04-.38-4.56-1.14-1.27-1.013-2.16-2.28-2.66-3.8l-67.64-201.78c-.26-.507-.38-1.393-.38-2.66 0-1.52.5-2.787 1.52-3.8 1.26-1.267 2.78-1.9 4.56-1.9h16.72c1.52 0 2.91.507 4.18 1.52 1.52.76 2.53 1.9 3.04 3.42l56.24 173.28 50.92-173.28c1.01-3.293 3.42-4.94 7.22-4.94h18.62c4.05 0 6.46 1.647 7.22 4.94l50.92 173.28 56.24-173.28c.5-1.52 1.39-2.66 2.66-3.42 1.52-1.013 3.04-1.52 4.56-1.52h17.1c2.28 0 3.92.887 4.94 2.66 1.26 1.52 1.52 3.42.76 5.7l-67.64 201.78c-.51 1.52-1.52 2.787-3.04 3.8-1.27.76-2.66 1.14-4.18 1.14h-21.66c-1.52 0-3.04-.38-4.56-1.14-1.27-1.013-2.16-2.28-2.66-3.8l-50.16-164.92-49.4 164.92c-.51 1.52-1.52 2.787-3.04 3.8-1.27.76-2.66 1.14-4.18 1.14zm316.88-244.72c-1.52 0-2.79-.507-3.8-1.52s-1.52-2.28-1.52-3.8v-33.06c0-1.52.51-2.787 1.52-3.8s2.28-1.52 3.8-1.52h18.24c1.52 0 2.79.507 3.8 1.52s1.52 2.28 1.52 3.8v33.06c0 1.52-.51 2.787-1.52 3.8s-2.28 1.52-3.8 1.52zm7.98 244.72c-3.8 0-7.09-1.267-9.88-3.8-2.53-2.787-3.8-6.08-3.8-9.88v-173.28h-39.52c-1.52 0-2.79-.507-3.8-1.52s-1.52-2.28-1.52-3.8v-17.48c0-1.52.51-2.787 1.52-3.8s2.28-1.52 3.8-1.52h55.48c3.8 0 6.97 1.393 9.5 4.18 2.79 2.533 4.18 5.7 4.18 9.5v173.28h39.14c1.52 0 2.79.507 3.8 1.52s1.52 2.28 1.52 3.8v17.48c0 1.52-.51 2.787-1.52 3.8s-2.28 1.52-3.8 1.52z" fill="#fff"/><g stroke="#fff" stroke-linecap="round"><path d="m244.844 447.123c21.159-110.592 108.536-197.735 229.058-211.13 146.172-16.247 276.307 85.67 290.664 227.637s-92.5 270.225-238.673 286.471c-7.293.811-14.546 1.327-21.748 1.559" stroke-linejoin="round" stroke-width="25"/><path d="m459.876 385.48c-.047-6.78 1.07-13.384 3.197-19.56 4.68-13.587 14.247-25.101 27.057-31.854 4.223-2.226 8.798-3.935 13.667-5.03 13.794-3.103 30.066-1.719 43.45 4.004 7.304 3.123 13.747 7.538 18.458 13.22" stroke-linejoin="round" stroke-width="29.17"/><path d="m485.067 422.143c46.797 28.431 133.777 25.363 164.973 70.324" stroke-linejoin="bevel" stroke-width="30"/><path d="m460.052 386.761c1.498 14.838 11.101 26.106 25.254 35.43" stroke-linejoin="round" stroke-width="29.17"/><path clip-rule="evenodd" d="m485.789 491.982.405 332.146-.405-24.619z" fill="#fff" fill-rule="evenodd" stroke-linejoin="round" stroke-width="36.77"/><path d="m362.137 542.042c21.133-33.761 69.413-54.702 127.137-53.217" stroke-linejoin="round" stroke-width="30"/><path d="m428.036 666.906c-47.343-14.537-78.837-50.038-75.929-91.959.764-11.011 3.887-21.453 8.96-31.04" stroke-linejoin="round" stroke-width="30"/><path d="m546.38 668.938c-7.675 1.45-15.549 2.634-23.58 3.528-34.518 3.842-66.845 1.745-93.599-4.963" stroke-linejoin="round" stroke-width="30"/><path d="m485.435 829.615c-4.777.559-6.202.854-11.052.889-10.542.077-20.26-1.142-28.884-3.435-13.156-3.499-23.766-9.497-30.866-17.207" opacity=".990385" stroke-linejoin="round" stroke-width="25.26"/><path d="m650.458 492.904c14.43 17.571 22.657 37.833 22.657 59.406 0 67.214-79.861 121.702-178.374 121.702" stroke-linejoin="round" stroke-width="30"/><path clip-rule="evenodd" d="m548.914 453.614c35.851 10.191 78.114 29.805 77.822 68.632-2.908 34.766-38.157 61.9-73.585 71.673 35.247-9.636 70.797-36.831 73.733-71.617.295-38.749-41.706-59.007-77.97-68.688z" fill-rule="evenodd" stroke-linejoin="round" stroke-width="13.54"/></g></svg>