<svg width="1608" height="647" viewBox="0 0 1608 647" fill="none" xmlns="http://www.w3.org/2000/svg">
<path opacity="0.55" fill-rule="evenodd" clip-rule="evenodd" d="M939.6 295L892.4 322.2C887.1 325.3 878.4 325.3 873.1 322.2L758.3 255.9C753 252.8 753 247.8 758.4 244.8L805.6 217.6C810.9 214.5 819.6 214.5 824.9 217.6L939.7 283.9C945 287 945 291.9 939.6 295ZM760 245.8C755.5 248.4 755.5 252.6 759.9 255.2L874.7 321.5C879.2 324.1 886.5 324.1 891 321.5L938.2 294.3C942.7 291.7 942.7 287.5 938.2 284.9L823.4 218.5C818.9 215.9 811.6 215.9 807.1 218.5L760 245.8ZM933.4 293.5L889.8 318.7C886 320.9 879.9 320.9 876.2 318.7L764.2 254C760.5 251.8 760.5 248.3 764.2 246.2L770.5 242.6L771.1 242.7C772.1 242.8 772.8 243.3 773.3 243.6C773.7 243.8 775.6 244.2 776.9 243.6C777.2 243.5 778.2 242.9 781.2 241.2C785 239 789.8 236.1 790.6 235.7C791.4 235.3 796.4 232.5 800.1 230.3C803 228.6 804 228 804.2 227.8C805.2 227.1 804.6 226 804.3 225.8C803.7 225.5 802.9 225 802.7 224.5L802.6 224.2L807.9 221.1C811.7 218.9 817.8 218.9 821.5 221.1L933.5 285.8C937.1 287.8 937.1 291.3 933.4 293.5ZM765.7 247C762.8 248.7 762.8 251.4 765.7 253.1L877.7 317.8C880.6 319.5 885.3 319.5 888.3 317.8L931.9 292.6C934.8 290.9 934.8 288.2 931.9 286.5L819.9 221.8C817 220.1 812.3 220.1 809.3 221.8L805 224.3C805.2 224.5 805.5 224.6 805.7 224.7C806.8 225.3 807.6 227.2 805.9 228.4C805.7 228.5 805.3 228.9 801.6 231C797.8 233.2 792.8 236 792.1 236.4C791.4 236.8 786.5 239.7 782.7 241.9C779.1 244 778.5 244.3 778.3 244.4C776.1 245.4 773 244.9 772 244.4C771.8 244.3 771.5 244.1 771.2 244L765.7 247Z" fill="#FAD0C9"/>
<path opacity="0.55" fill-rule="evenodd" clip-rule="evenodd" d="M877.7 145C877.4 144.8 876.9 144.9 876.7 144.9L868.5 147.9L867.1 147.1C864.1 145.4 859.3 145.4 856.5 147.1L829.3 162.8C826.3 164.5 826.3 167.3 829.3 169L830.8 169.8L825.7 174.5C825.5 174.7 825.6 174.9 825.8 175.1L841.2 184C841.5 184.1 841.9 184.2 842.2 184.1L850.4 181.1L851.8 181.9C854.8 183.6 859.6 183.6 862.4 181.9L878.9 172.4L881.9 174.1C882.2 174.3 882.8 174.3 883.1 174.1L889 170.7C889.3 170.5 889.3 170.2 889 170L886 168.3L889.6 166.2C892.6 164.5 892.6 161.7 889.6 160L888.2 159.2L893.3 154.5C893.5 154.3 893.4 154.1 893.2 153.9L877.7 145ZM877 146L891.5 154.4L887 158.6L869.7 148.7L877 146ZM865.9 147.8L867.8 148.8L868.2 149.2L868.3 149.1L886.1 159.4L886 159.5L886.7 159.7L888.6 160.7C890.9 162 890.9 164.1 888.6 165.5L861.4 181.2C859.1 182.5 855.4 182.5 853.1 181.2L851.4 180.2L850.9 179.8L850.7 179.9L832.9 169.6L833 169.5L832.2 169.2L830.5 168.2C828.2 166.9 828.2 164.8 830.5 163.4L857.5 147.8C859.9 146.4 863.6 146.4 865.9 147.8ZM885 169L887.4 170.4L882.7 173.1L880.3 171.7L885 169ZM831.9 170.5L849.1 180.4L841.8 183L827.3 174.6L831.9 170.5Z" fill="#FAD0C9"/>
<path opacity="0.55" fill-rule="evenodd" clip-rule="evenodd" d="M87.8 437.7L47.7 414.6C45.8 413.5 42.7 413.5 40.8 414.6L26.9 422.6C25 423.7 25 425.5 26.9 426.6L67 449.7C68.9 450.8 72 450.8 73.9 449.7L87.8 441.7C89.8 440.6 89.7 438.8 87.8 437.7ZM72.3 448.8C71.8 449.1 71.2 449.2 70.4 449.2C69.7 449.2 69 449.1 68.5 448.8L28.4 425.7C27.4 425.1 27.3 424.1 28.4 423.6L42.3 415.6C43.4 415 45 415 46.1 415.6L86.1 438.7C87.1 439.3 87.2 440.3 86.1 440.8L72.3 448.8Z" fill="#FAD0C9"/>
<path opacity="0.55" fill-rule="evenodd" clip-rule="evenodd" d="M72.7 440.1L56.3 430.7C55.9 430.4 55.2 430.4 54.7 430.7C54.3 431 54.3 431.3 54.7 431.6L71.1 441C71.5 441.3 72.2 441.3 72.7 441C73.1 440.7 73.1 440.3 72.7 440.1Z" fill="#FAD0C9"/>
<path opacity="0.55" fill-rule="evenodd" clip-rule="evenodd" d="M47.2999 425.4L44.3999 423.7C43.9999 423.4 43.2999 423.4 42.7999 423.7C42.3999 424 42.3999 424.3 42.7999 424.6L45.6999 426.3C46.0999 426.6 46.7999 426.6 47.2999 426.3C47.7999 426.1 47.7999 425.7 47.2999 425.4Z" fill="#FAD0C9"/>
<path opacity="0.55" fill-rule="evenodd" clip-rule="evenodd" d="M94 429.1C93.9 429.5 94.2 429.8 94.8 429.9C95.4 430 96 429.8 96.2 429.5C98 425.9 97.4 422 94.6 418.6C91.8 415.2 87 412.4 81.1 410.8C75.2 409.2 68.4 408.9 62.1 409.9C61.5 410 61.2 410.3 61.3 410.7C61.4 411.1 62.1 411.3 62.7 411.1C68.5 410.2 74.6 410.5 80.1 411.9C85.6 413.3 90 415.9 92.5 419C95.2 422.3 95.7 425.9 94 429.1Z" fill="#FAD0C9"/>
<path opacity="0.55" fill-rule="evenodd" clip-rule="evenodd" d="M109.3 431.9C112 426.4 111.2 420.5 106.9 415.3C102.6 410.1 95.2999 405.9 86.0999 403.6C76.9999 401.2 66.6999 401 57.1999 402.7C56.5999 402.8 56.2999 403.2 56.4999 403.5C56.6999 403.9 57.2999 404 57.8999 403.9C66.8999 402.3 76.5999 402.6 85.2999 404.8C93.9999 407 100.9 410.9 104.9 415.9C108.9 420.8 109.7 426.5 107.1 431.7C107 432.1 107.4 432.3 107.9 432.4C108.5 432.3 109 432.1 109.3 431.9Z" fill="#FAD0C9"/>
<path opacity="0.55" fill-rule="evenodd" clip-rule="evenodd" d="M78.8 419.9C77.2 419 75.3 418.4 73.2 418C71.1 417.6 68.8 417.7 66.8 418C66.2 418.1 65.9 418.5 66 418.8C66.1 419.2 66.8 419.4 67.4 419.2C70.9 418.6 74.6 419.2 77.2 420.7C79.8 422.2 80.8 424.3 79.8 426.3C79.7 426.4 79.7 426.7 79.9 426.8C80 426.9 80.3 427.1 80.6 427.1C80.9 427.2 81.2 427.1 81.5 427C81.8 426.9 81.9 426.8 82 426.6C82.6 425.4 82.6 424.1 82.1 422.9C81.5 421.9 80.4 420.9 78.8 419.9Z" fill="#FAD0C9"/>
<path opacity="0.55" d="M595.4 499.4C590.5 499.4 585.7 498.3 582 496.2L422.2 404C418.4 401.8 416.4 398.9 416.4 395.7C416.4 392.5 418.5 389.5 422.3 387.4L657.7 251.5C665.1 247.2 677.1 247.2 684.5 251.5L844.3 343.7C848.1 345.9 850.1 348.8 850.1 352C850.1 355.2 848 358.2 844.2 360.3L608.8 496.2C605.1 498.3 600.3 499.4 595.4 499.4ZM671.1 250.3C666.6 250.3 662.1 251.3 658.7 253.3L423.3 389.1C420.1 390.9 418.4 393.2 418.4 395.7C418.4 398.1 420.1 400.5 423.2 402.3L583 494.5C589.8 498.4 601 498.4 607.8 494.5L843.2 358.6C846.4 356.8 848.1 354.5 848.1 352C848.1 349.6 846.4 347.2 843.3 345.4L683.5 253.2C680.1 251.2 675.6 250.3 671.1 250.3Z" fill="#FAD0C9"/>
<path opacity="0.55" d="M443.692 414.535L704.996 263.726L705.995 265.458L444.692 416.267L443.692 414.535Z" fill="#FAD0C9"/>
<path opacity="0.55" d="M511.7 366.5L496.1 357.5L603.3 295.6L618.8 304.6L511.7 366.5ZM500.1 357.5L511.7 364.1L614.8 304.6L603.3 298L500.1 357.5Z" fill="#FAD0C9"/>
<path opacity="0.55" d="M454.2 389.6L438.4 398.7L438.7 392.1L436.7 392L436.3 401.5L451.9 401.2V399.2L441.1 399.4L455.2 391.3L454.2 389.6ZM465.3 375V377L476.1 376.9L462.1 385L463.1 386.7L478.8 377.6L478.6 384.2L480.6 384.3L480.9 374.8L465.3 375Z" fill="#FAD0C9"/>
<path opacity="0.55" d="M658.8 265.7H679.3V267.7H658.8V265.7Z" fill="#FAD0C9"/>
<path opacity="0.55" d="M667.899 272.555L667.997 260.755L669.997 260.771L669.899 272.571L667.899 272.555Z" fill="#FAD0C9"/>
<path opacity="0.55" d="M630.6 412.5L630.4 410.6L667.6 405.9L658.8 347.2L660.8 346.9L669.8 407.6L630.6 412.5Z" fill="#FAD0C9"/>
<path opacity="0.55" fill-rule="evenodd" clip-rule="evenodd" d="M789.8 448.1L891 506.5L1069.2 403.5L993.6 359.8H943L789.8 448.1ZM891 508.2C890.9 508.2 890.7 508.2 890.6 508.1L787.9 448.7C787.7 448.6 787.5 448.3 787.5 448C787.5 447.7 787.6 447.5 787.9 447.3L942.4 358.3C942.5 358.2 942.6 358.2 942.8 358.2H993.8C993.9 358.2 994.1 358.2 994.2 358.3L1071.1 402.7C1071.3 402.8 1071.5 403.1 1071.5 403.4C1071.5 403.7 1071.4 403.9 1071.1 404.1L891.4 508.1C891.3 508.1 891.1 508.2 891 508.2Z" fill="#FAD0C9"/>
<path opacity="0.55" fill-rule="evenodd" clip-rule="evenodd" d="M888.1 402.9C888.5 402.7 889 402.5 889.5 402.3C890 402.2 890.6 402.1 891.2 402.1C891.8 402.1 892.4 402.1 893 402.3C893.6 402.4 894.2 402.6 894.7 402.9C895.3 403.3 895.7 403.6 895.9 404.1C896.1 404.5 896.1 404.9 895.9 405.3L894.2 405.1C894.3 404.9 894.4 404.8 894.4 404.6C894.4 404.5 894.4 404.3 894.3 404.2C894.2 404.1 894.1 404 894 403.8C893.9 403.7 893.7 403.6 893.6 403.5C893.3 403.3 892.9 403.2 892.5 403.1C892.1 403 891.7 403 891.4 403C891 403 890.7 403.1 890.3 403.2C890 403.3 889.6 403.4 889.4 403.6C889.1 403.8 888.9 404 888.7 404.2C888.5 404.4 888.4 404.6 888.4 404.8C888.4 405 888.4 405.2 888.5 405.4C888.6 405.6 888.8 405.8 889.1 406C889.3 406.1 889.4 406.2 889.6 406.2C889.8 406.3 890 406.3 890.3 406.4C890.5 406.4 890.8 406.5 891 406.5C891.3 406.5 891.5 406.5 891.8 406.4L892.3 407.4C891.9 407.5 891.6 407.5 891.2 407.5C890.8 407.5 890.4 407.5 890 407.4C889.6 407.3 889.2 407.2 888.9 407.1C888.5 407 888.2 406.8 888 406.7C887.5 406.4 887.2 406.1 887 405.8C886.8 405.5 886.7 405.1 886.8 404.8C886.8 404.4 887 404.1 887.2 403.8C887.4 403.4 887.7 403.1 888.1 402.9Z" fill="#FAD0C9"/>
<path opacity="0.55" fill-rule="evenodd" clip-rule="evenodd" d="M905.9 409.3L899.2 413.2L897.9 412.5L900.8 410.8L897.7 409L894.9 410.7L893.6 409.9L900.3 406.1L901.6 406.8L898.9 408.4L901.9 410.2L904.6 408.6L905.9 409.3Z" fill="#FAD0C9"/>
<path opacity="0.55" fill-rule="evenodd" clip-rule="evenodd" d="M908.5 415.6L910.2 413.5L906.6 414.5L908.5 415.6ZM911.1 412.4L912.3 413.1L908.2 418.4L906.9 417.6L907.9 416.3L905.5 414.9L903.2 415.5L901.9 414.7L911.1 412.4Z" fill="#FAD0C9"/>
<path opacity="0.55" fill-rule="evenodd" clip-rule="evenodd" d="M910.8 419.9L917.5 416L918.8 416.8L912.1 420.7L910.8 419.9Z" fill="#FAD0C9"/>
<path opacity="0.55" fill-rule="evenodd" clip-rule="evenodd" d="M921 420.8L916.7 423.3L915.4 422.6L922.1 418.7L923.1 419.3L922.3 423.9L926.6 421.3L927.9 422.1L921.3 425.9L920.2 425.3L921 420.8Z" fill="#FAD0C9"/>
<path opacity="0.55" fill-rule="evenodd" clip-rule="evenodd" d="M933.5 427.3C933.5 427.3 933.5 427.2 933.4 427.1C933.4 427 933.3 426.9 933.2 426.7C933.1 426.6 933 426.4 932.8 426.3C932.7 426.2 932.5 426 932.3 425.9C931.9 425.7 931.6 425.6 931.3 425.5C931 425.5 930.7 425.5 930.5 425.7C930.4 425.8 930.3 425.9 930.3 426V426.3C930.4 426.4 930.5 426.5 930.6 426.7L931.1 427.2C931.3 427.4 931.5 427.7 931.7 427.9C931.9 428.1 932 428.3 932 428.5C932 428.7 932 428.9 931.9 429.1C931.8 429.3 931.6 429.5 931.3 429.6C930.9 429.8 930.6 429.9 930.2 430C929.8 430.1 929.4 430.1 929 430C928.6 430 928.2 429.9 927.9 429.7C927.5 429.6 927.2 429.4 926.8 429.2C926.3 428.9 925.9 428.6 925.5 428.2C925.2 427.8 924.9 427.4 924.8 427.1L926.5 426.8C926.5 426.9 926.5 427 926.6 427.1C926.7 427.2 926.7 427.4 926.9 427.6C927 427.8 927.2 427.9 927.3 428.1C927.5 428.3 927.7 428.4 928 428.6C928.7 429 929.3 429.1 929.8 428.8C929.9 428.7 930 428.6 930 428.5C930 428.4 930 428.3 929.9 428.1C929.8 428 929.7 427.8 929.6 427.7L929.1 427.2C928.9 427 928.7 426.7 928.5 426.5C928.4 426.3 928.3 426.1 928.3 425.9C928.3 425.7 928.3 425.6 928.4 425.4C928.5 425.2 928.7 425.1 928.9 424.9C929.2 424.7 929.6 424.6 930 424.5C930.4 424.4 930.8 424.4 931.2 424.4C931.6 424.4 932 424.5 932.4 424.6C932.8 424.7 933.2 424.9 933.5 425.1C934 425.4 934.3 425.7 934.6 426C934.9 426.3 935 426.6 935.1 426.9L933.5 427.3Z" fill="#FAD0C9"/>
<path opacity="0.55" fill-rule="evenodd" clip-rule="evenodd" d="M937 431.1L938.5 432C938.7 432.1 939 432.2 939.4 432.2C939.8 432.2 940.1 432.1 940.4 431.9C940.6 431.8 940.7 431.7 940.8 431.6C940.9 431.5 940.9 431.4 940.9 431.3C940.9 431.2 940.9 431.1 940.8 431C940.7 430.9 940.6 430.8 940.5 430.8L939 430L937 431.1ZM932.3 432.3L939 428.4L941.9 430C942.2 430.2 942.4 430.4 942.6 430.6C942.7 430.8 942.8 431.1 942.8 431.3C942.8 431.5 942.7 431.8 942.5 432L941.9 432.6C941.6 432.8 941.3 432.9 940.9 433C940.5 433.1 940.2 433.1 939.8 433.2C939.4 433.2 939 433.2 938.6 433.1C938.2 433 937.9 432.9 937.6 432.7L936 431.8L933.8 433.1L932.3 432.3Z" fill="#FAD0C9"/>
<path opacity="0.55" fill-rule="evenodd" clip-rule="evenodd" d="M945.7 437.1L947.4 435L943.8 436L945.7 437.1ZM948.3 433.8L949.5 434.5L945.4 439.8L944.1 439L945.1 437.7L942.7 436.3L940.4 436.9L939.1 436.1L948.3 433.8Z" fill="#FAD0C9"/>
<path opacity="0.55" fill-rule="evenodd" clip-rule="evenodd" d="M950.7 439C951.1 438.8 951.6 438.6 952.1 438.4C952.6 438.3 953.2 438.2 953.8 438.2C954.4 438.2 955 438.2 955.6 438.4C956.2 438.5 956.8 438.7 957.3 439C957.9 439.4 958.3 439.7 958.5 440.2C958.7 440.6 958.7 441 958.5 441.4L956.8 441.2C956.9 441 957 440.9 957 440.7C957 440.6 957 440.4 956.9 440.3C956.8 440.2 956.7 440.1 956.6 439.9C956.5 439.8 956.3 439.7 956.2 439.6C955.9 439.4 955.5 439.3 955.1 439.2C954.7 439.1 954.3 439.1 954 439.1C953.6 439.1 953.3 439.2 952.9 439.3C952.6 439.4 952.2 439.5 952 439.7C951.7 439.9 951.5 440.1 951.3 440.3C951.1 440.5 951 440.7 951 441C951 441.2 951 441.4 951.1 441.6C951.2 441.8 951.4 442 951.7 442.2C951.9 442.3 952 442.4 952.2 442.4C952.4 442.5 952.6 442.5 952.8 442.6C953 442.6 953.3 442.7 953.5 442.7C953.8 442.7 954 442.7 954.3 442.6L954.8 443.6C954.4 443.7 954.1 443.7 953.7 443.7C953.3 443.7 952.9 443.7 952.5 443.6C952.1 443.5 951.7 443.4 951.4 443.3C951 443.2 950.7 443 950.5 442.9C950 442.6 949.7 442.3 949.5 442C949.3 441.7 949.2 441.3 949.3 441C949.3 440.6 949.5 440.3 949.7 440C949.9 439.5 950.3 439.3 950.7 439Z" fill="#FAD0C9"/>
<path opacity="0.55" fill-rule="evenodd" clip-rule="evenodd" d="M961.9 448.1L960.8 448.8L956.1 446.1L962.8 442.2L967.4 444.8L966.3 445.5L963 443.6L961.4 444.5L964.2 446.2L963.1 446.8L960.3 445.1L958.6 446.2L961.9 448.1Z" fill="#FAD0C9"/>
<path opacity="0.55" fill-rule="evenodd" clip-rule="evenodd" d="M968.1 374.7C968 374.7 967.8 374.7 967.7 374.6L948 363.2C947.6 363 947.5 362.5 947.7 362.2C947.9 361.8 948.4 361.7 948.7 361.9L968 373.1L986.1 362.7C986.5 362.5 986.9 362.6 987.1 363C987.3 363.4 987.2 363.8 986.8 364L968.3 374.7H968.1Z" fill="#FAD0C9"/>
<path opacity="0.55" fill-rule="evenodd" clip-rule="evenodd" d="M942.3 413.4L961.6 414.7L975.8 406.5L973.3 396.1L954 394.8L939.8 403L942.3 413.4ZM961.8 416.3C961.8 416.3 961.7 416.3 961.8 416.3L941.7 414.9C941.4 414.9 941.1 414.6 941 414.3L938.3 402.8C938.2 402.5 938.4 402.1 938.7 402L953.6 393.4C953.7 393.3 953.9 393.3 954 393.3L974.1 394.7C974.4 394.7 974.7 395 974.8 395.3L977.5 406.8C977.6 407.1 977.4 407.5 977.1 407.6L962.2 416.2C962 416.2 961.9 416.3 961.8 416.3Z" fill="#FAD0C9"/>
<path opacity="0.55" fill-rule="evenodd" clip-rule="evenodd" d="M904.4 481L831.8 439.1L832.7 437.7L905.2 479.5L904.4 481Z" fill="#FAD0C9"/>
<path opacity="0.55" fill-rule="evenodd" clip-rule="evenodd" d="M918.9 472.6L846.3 430.8L847.2 429.3L919.7 471.2L918.9 472.6Z" fill="#FAD0C9"/>
<path opacity="0.55" fill-rule="evenodd" clip-rule="evenodd" d="M933.4 464.3L860.8 422.4L861.7 420.9L934.2 462.8L933.4 464.3Z" fill="#FAD0C9"/>
<path opacity="0.55" fill-rule="evenodd" clip-rule="evenodd" d="M1258.2 177.3L1359.5 235.8L1537.7 132.8L1462 89.1H1411.4L1258.2 177.3ZM1359.5 237.4C1359.4 237.4 1359.2 237.4 1359.1 237.3L1256.3 178C1256.1 177.9 1255.9 177.6 1255.9 177.3C1255.9 177 1256 176.8 1256.3 176.6L1410.8 87.6C1410.9 87.5 1411 87.5 1411.2 87.5H1462.2C1462.3 87.5 1462.5 87.5 1462.6 87.6L1539.5 132C1539.7 132.1 1539.9 132.4 1539.9 132.7C1539.9 133 1539.8 133.2 1539.5 133.4L1359.8 237.3C1359.7 237.4 1359.6 237.4 1359.5 237.4Z" fill="#FAD0C9"/>
<path opacity="0.55" fill-rule="evenodd" clip-rule="evenodd" d="M1448.7 143L1445.5 136.2L1442.3 129.4L1442.2 129.3L1418.7 125.6H1418.5L1401.3 135.5C1401.3 135.5 1401.2 135.6 1401.3 135.6L1404.5 142.4L1404.6 142.5L1416.3 144.3L1419.5 151L1419.6 151.1L1431.4 152.9H1431.6L1448.7 143C1448.8 143 1448.7 143.1 1448.7 143ZM1433.4 134.3L1425.1 139.1L1422 132.5L1430.3 127.7L1433.4 134.3ZM1445.3 136.4L1448.3 142.9L1437.1 141.1L1445.3 136.4ZM1436.8 141.1L1425.4 139.3L1433.7 134.5L1445.1 136.3L1436.8 141.1ZM1421.9 132.3L1418.9 125.8L1430.1 127.6L1421.9 132.3ZM1421.6 132.4L1410.4 130.6L1418.6 125.9L1421.6 132.4ZM1421.7 132.6L1424.8 139.2L1413.4 137.4L1410.3 130.8L1421.7 132.6ZM1413.3 137.6L1424.7 139.4L1416.4 144.2L1405 142.4L1413.3 137.6ZM1425 139.5L1428.1 146.1L1419.8 150.9L1416.7 144.3L1425 139.5ZM1428.4 146L1425.3 139.4L1436.7 141.2L1439.8 147.8L1428.4 146ZM1437 141.3L1448.2 143.1L1440 147.8L1437 141.3ZM1442.1 129.5L1445.2 136.1L1433.8 134.3L1430.7 127.7L1442.1 129.5ZM1410 130.9L1413.1 137.5L1404.8 142.3L1401.7 135.7L1410 130.9ZM1420 151L1428.3 146.2L1439.7 148L1431.4 152.8L1420 151Z" fill="#FAD0C9"/>
<path opacity="0.55" fill-rule="evenodd" clip-rule="evenodd" d="M1419.5 126.4L1422.1 131.9L1429 127.9L1419.5 126.4ZM1411.5 130.4L1421 131.9L1418.4 126.4L1411.5 130.4ZM1434 134L1444.5 135.6L1441.8 129.8L1431.3 128.2L1434 134ZM1422.5 132.7L1425.3 138.6L1433 134.2L1430.2 128.3L1422.5 132.7ZM1413.7 137.1L1424.2 138.7L1421.5 132.9L1411 131.3L1413.7 137.1ZM1426.5 139.1L1436.7 140.7L1444 136.5L1433.8 134.9L1426.5 139.1ZM1402.2 135.8L1405 141.7L1412.7 137.3L1409.9 131.4L1402.2 135.8ZM1438.2 140.9L1447.7 142.4L1445.1 136.9L1438.2 140.9ZM1406.1 142.2L1416.3 143.8L1423.6 139.6L1413.4 138L1406.1 142.2ZM1437.7 141.8L1440.3 147.3L1447.2 143.3L1437.7 141.8ZM1428.6 145.7L1439.1 147.3L1436.4 141.5L1425.9 139.9L1428.6 145.7ZM1417.1 144.5L1419.9 150.4L1427.6 146L1424.8 140.1L1417.1 144.5ZM1421.1 150.8L1431.3 152.4L1438.6 148.2L1428.4 146.6L1421.1 150.8ZM1431.4 153.4L1419.5 151.6C1419.3 151.6 1419.2 151.5 1419.1 151.3H1418.8L1419 151.2L1416 144.8L1404.5 143C1404.3 143 1404.2 142.9 1404.1 142.7H1403.8L1404 142.6L1401 135.8C1400.9 135.6 1401 135.3 1401.2 135.2L1409.7 130.3L1418.3 125.4L1418.4 125.3C1418.5 125.2 1418.7 125.2 1418.8 125.2L1442.3 128.9C1442.5 128.9 1442.6 129 1442.7 129.2L1445.9 136H1446.2L1446 136.1L1449.1 142.7H1449.4L1449.1 142.8C1449.1 142.9 1449.1 143 1449 143.1L1448.9 143.2L1440.4 148.1L1431.7 153.1C1431.6 153.4 1431.5 153.4 1431.4 153.4Z" fill="#FAD0C9"/>
<path opacity="0.55" fill-rule="evenodd" clip-rule="evenodd" d="M1360.5 131.9L1358.8 132.9L1360.5 133.9C1360.7 134 1361 134.1 1361.3 134.1C1361.6 134.1 1361.9 134 1362.2 133.9C1362.5 133.8 1362.6 133.6 1362.6 133.4C1362.6 133.2 1362.5 133.1 1362.3 133L1360.5 131.9ZM1359.7 135.6C1359.8 135.5 1359.9 135.5 1360 135.4C1360.1 135.3 1360.1 135.2 1360.1 135.1C1360.1 135 1360.1 134.9 1360 134.8C1360 134.7 1359.9 134.6 1359.8 134.6L1357.8 133.4L1356 134.4L1357.9 135.5C1358 135.6 1358.2 135.6 1358.3 135.7C1358.4 135.7 1358.6 135.8 1358.8 135.7C1359 135.7 1359.1 135.7 1359.3 135.6C1359.4 135.7 1359.5 135.6 1359.7 135.6ZM1360.7 136.5C1360.4 136.7 1360.1 136.8 1359.8 136.8C1359.5 136.9 1359.1 136.9 1358.8 136.8C1358.5 136.8 1358.1 136.7 1357.8 136.6C1357.5 136.5 1357.1 136.4 1356.8 136.2L1353.5 134.3L1360.2 130.4L1363.8 132.5C1364 132.6 1364.2 132.8 1364.3 133C1364.4 133.2 1364.4 133.3 1364.4 133.5C1364.4 133.7 1364.3 133.8 1364.2 134C1364.1 134.2 1363.9 134.3 1363.7 134.4C1363.4 134.6 1363 134.7 1362.5 134.8C1362 134.9 1361.6 134.9 1361.1 134.8C1361.4 135.1 1361.5 135.4 1361.4 135.7C1361.4 135.9 1361.2 136.2 1360.7 136.5Z" fill="#FAD0C9"/>
<path opacity="0.55" fill-rule="evenodd" clip-rule="evenodd" d="M1361.9 139.2L1368.6 135.3L1369.9 136L1364.4 139.3L1367.8 141.2L1366.7 141.9L1361.9 139.2Z" fill="#FAD0C9"/>
<path opacity="0.55" fill-rule="evenodd" clip-rule="evenodd" d="M1373.2 141.8C1372.9 142 1372.7 142.2 1372.5 142.4C1372.3 142.6 1372.2 142.8 1372.2 143C1372.2 143.2 1372.2 143.4 1372.3 143.6C1372.4 143.8 1372.6 144 1372.9 144.2C1373.2 144.4 1373.6 144.5 1373.9 144.6C1374.3 144.7 1374.6 144.7 1375 144.7C1375.4 144.7 1375.7 144.6 1376.1 144.5C1376.5 144.4 1376.8 144.3 1377 144.1C1377.3 143.9 1377.5 143.7 1377.7 143.5C1377.9 143.3 1378 143.1 1378 142.9C1378 142.7 1378 142.5 1377.9 142.3C1377.8 142.1 1377.6 141.9 1377.3 141.7C1377 141.5 1376.6 141.4 1376.3 141.3C1375.9 141.2 1375.5 141.2 1375.2 141.2C1374.8 141.2 1374.5 141.3 1374.1 141.4C1373.8 141.5 1373.5 141.6 1373.2 141.8ZM1371.8 144.9C1371.3 144.6 1371 144.3 1370.7 144C1370.5 143.7 1370.4 143.3 1370.4 143C1370.4 142.6 1370.6 142.3 1370.8 142C1371.1 141.7 1371.4 141.4 1371.8 141.1C1372.2 140.8 1372.8 140.6 1373.3 140.5C1373.9 140.4 1374.5 140.3 1375.1 140.3C1375.7 140.3 1376.3 140.3 1376.9 140.5C1377.5 140.6 1378 140.8 1378.5 141.1C1379 141.4 1379.3 141.7 1379.5 142C1379.7 142.3 1379.8 142.7 1379.8 143C1379.8 143.4 1379.6 143.7 1379.4 144C1379.2 144.3 1378.8 144.6 1378.4 144.9C1378 145.2 1377.4 145.4 1376.9 145.5C1376.3 145.6 1375.7 145.7 1375.1 145.7C1374.5 145.7 1373.9 145.7 1373.3 145.5C1372.8 145.4 1372.3 145.2 1371.8 144.9Z" fill="#FAD0C9"/>
<path opacity="0.55" fill-rule="evenodd" clip-rule="evenodd" d="M1381 146.3C1381.4 146.1 1381.9 145.9 1382.4 145.7C1382.9 145.6 1383.5 145.5 1384.1 145.5C1384.7 145.5 1385.3 145.5 1385.9 145.7C1386.5 145.8 1387.1 146 1387.6 146.3C1388.2 146.7 1388.6 147 1388.8 147.5C1389 147.9 1389 148.3 1388.8 148.7L1387.1 148.5C1387.2 148.3 1387.3 148.2 1387.3 148C1387.3 147.9 1387.3 147.7 1387.2 147.6C1387.1 147.5 1387 147.4 1386.9 147.2C1386.8 147.1 1386.6 147 1386.5 146.9C1386.2 146.7 1385.8 146.6 1385.4 146.5C1385 146.4 1384.6 146.4 1384.3 146.4C1383.9 146.4 1383.6 146.5 1383.2 146.6C1382.9 146.7 1382.5 146.8 1382.3 147C1382 147.2 1381.8 147.4 1381.6 147.6C1381.4 147.8 1381.3 148 1381.3 148.2C1381.3 148.4 1381.3 148.6 1381.4 148.9C1381.5 149.1 1381.7 149.3 1382 149.5C1382.2 149.6 1382.3 149.7 1382.5 149.7C1382.7 149.8 1382.9 149.8 1383.1 149.9C1383.3 149.9 1383.6 150 1383.8 150C1384.1 150 1384.3 150 1384.6 149.9L1385.1 150.9C1384.7 151 1384.4 151 1384 151C1383.6 151 1383.2 151 1382.8 150.9C1382.4 150.8 1382 150.7 1381.7 150.6C1381.3 150.5 1381 150.3 1380.8 150.2C1380.3 149.9 1380 149.6 1379.8 149.3C1379.6 149 1379.5 148.6 1379.6 148.3C1379.6 147.9 1379.8 147.6 1380 147.3C1380.2 146.8 1380.6 146.5 1381 146.3Z" fill="#FAD0C9"/>
<path opacity="0.55" fill-rule="evenodd" clip-rule="evenodd" d="M1386.4 153.3L1393.1 149.4L1394.4 150.2L1391.3 152L1397.3 151.8L1398.7 152.7L1393.2 152.9L1392.2 156.6L1390.7 155.8L1391.5 152.9H1389.8L1387.8 154.1L1386.4 153.3Z" fill="#FAD0C9"/>
<path opacity="0.55" fill-rule="evenodd" clip-rule="evenodd" d="M1400.2 161.2L1404.6 158.7L1399.6 159.6L1398.9 159.2L1400.4 156.3L1396 158.8L1394.7 158.1L1401.4 154.2L1402.8 155L1401 158.4L1406.8 157.3L1408.2 158.1L1401.5 162L1400.2 161.2Z" fill="#FAD0C9"/>
<path opacity="0.55" fill-rule="evenodd" clip-rule="evenodd" d="M1410.8 164.4L1412.5 162.3L1408.9 163.3L1410.8 164.4ZM1413.4 161.1L1414.6 161.8L1410.5 167.1L1409.2 166.3L1410.2 165L1407.8 163.6L1405.5 164.2L1404.2 163.4L1413.4 161.1Z" fill="#FAD0C9"/>
<path opacity="0.55" fill-rule="evenodd" clip-rule="evenodd" d="M1418.7 167L1414.4 169.4L1413.1 168.7L1419.8 164.8L1420.8 165.4L1419.9 170L1424.3 167.4L1425.6 168.2L1418.9 172.1L1417.9 171.4L1418.7 167Z" fill="#FAD0C9"/>
<path opacity="0.55" fill-rule="evenodd" clip-rule="evenodd" d="M1422.2 174L1428.9 170.1L1430.2 170.9L1423.5 174.7L1422.2 174Z" fill="#FAD0C9"/>
<path opacity="0.55" fill-rule="evenodd" clip-rule="evenodd" d="M1432.9 177.1L1434.6 175L1431 176L1432.9 177.1ZM1435.5 173.9L1436.7 174.6L1432.6 179.9L1431.3 179.1L1432.3 177.8L1429.9 176.4L1427.6 177L1426.3 176.2L1435.5 173.9Z" fill="#FAD0C9"/>
<path opacity="0.55" fill-rule="evenodd" clip-rule="evenodd" d="M1436.5 103.9C1436.4 103.9 1436.2 103.9 1436.1 103.8L1416.4 92.4C1416 92.2 1415.9 91.7 1416.1 91.4C1416.3 91 1416.8 90.9 1417.1 91.1L1436.4 102.3L1454.5 91.9C1454.9 91.7 1455.3 91.8 1455.5 92.2C1455.7 92.6 1455.6 93 1455.2 93.2L1436.9 103.8C1436.8 103.9 1436.6 103.9 1436.5 103.9Z" fill="#FAD0C9"/>
<path opacity="0.55" fill-rule="evenodd" clip-rule="evenodd" d="M1372.8 210.3L1300.3 168.4L1301.1 166.9L1373.7 208.8L1372.8 210.3Z" fill="#FAD0C9"/>
<path opacity="0.55" fill-rule="evenodd" clip-rule="evenodd" d="M1387.3 201.9L1314.8 160L1315.6 158.5L1388.2 200.4L1387.3 201.9Z" fill="#FAD0C9"/>
<path opacity="0.55" fill-rule="evenodd" clip-rule="evenodd" d="M1401.8 193.5L1329.3 151.6L1330.1 150.2L1402.7 192L1401.8 193.5Z" fill="#FAD0C9"/>
<path opacity="0.55" fill-rule="evenodd" clip-rule="evenodd" d="M1350.4 368.8L1503.8 457.3L1605 398.9L1426.7 296.2L1350.4 340V368.8ZM1503.8 458.9C1503.7 458.9 1503.5 458.9 1503.4 458.8L1349.3 369.9C1349.1 369.8 1348.9 369.5 1348.9 369.2V339.5C1348.9 339.2 1349 339 1349.3 338.8L1426.3 294.7C1426.5 294.6 1426.8 294.6 1427.1 294.7L1606.9 398.2C1607.1 398.3 1607.3 398.6 1607.3 398.9C1607.3 399.2 1607.2 399.4 1606.9 399.6L1504.1 458.8C1504 458.9 1503.9 458.9 1503.8 458.9Z" fill="#FAD0C9"/>
<path opacity="0.55" fill-rule="evenodd" clip-rule="evenodd" d="M1353.4 367.8C1353.1 367.8 1352.9 367.7 1352.7 367.4C1352.5 367 1352.6 366.6 1353 366.4L1373.4 354.6L1355.8 343.9C1355.4 343.7 1355.3 343.2 1355.5 342.9C1355.7 342.5 1356.2 342.4 1356.5 342.6L1375.2 353.9C1375.4 354 1375.6 354.3 1375.6 354.6C1375.6 354.9 1375.5 355.1 1375.2 355.2L1353.7 367.6C1353.6 367.8 1353.5 367.8 1353.4 367.8Z" fill="#FAD0C9"/>
<path opacity="0.55" fill-rule="evenodd" clip-rule="evenodd" d="M1532 368L1452.5 413.8L1453.5 415.4L1532.9 369.6L1532 368Z" fill="#FAD0C9"/>
<path opacity="0.55" fill-rule="evenodd" clip-rule="evenodd" d="M1547.9 377.2L1468.5 423L1469.4 424.6L1548.8 378.8L1547.9 377.2Z" fill="#FAD0C9"/>
<path opacity="0.55" fill-rule="evenodd" clip-rule="evenodd" d="M1563.9 386.4L1484.5 432.2L1485.4 433.8L1564.8 388L1563.9 386.4Z" fill="#FAD0C9"/>
<path opacity="0.55" fill-rule="evenodd" clip-rule="evenodd" d="M1435.7 367.9C1435.6 368.4 1434.7 368.7 1434 368.6C1433.3 368.5 1432.8 368.1 1432.9 367.6L1433.6 365.5L1434 365.4L1436.7 365.2L1435.7 367.9ZM1430.3 368.2C1430.1 368.6 1429.4 368.9 1428.6 368.9C1427.9 368.8 1427.5 368.3 1427.6 367.9L1428.4 365.8L1431.1 365.6L1430.3 368.2ZM1425.4 366.5C1425.4 367 1424.4 367.4 1423.5 367.3C1422.8 367.2 1422.3 366.8 1422.4 366.3V366.2L1425.7 365.9L1425.4 366.5ZM1442.9 361.6L1446.5 361.3C1448.7 361.1 1450.3 360 1450 358.8C1449.9 358.4 1449.7 358.1 1449.3 357.8C1450.5 357.3 1451.2 356.6 1451 355.8C1451 355.8 1450.9 355.7 1451 355.7V355.6C1450.8 354.8 1449.8 354.2 1448.5 353.9C1448.8 353.5 1448.9 353.1 1448.9 352.7C1448.7 351.8 1447.7 351.1 1446.3 350.9C1445.7 350.3 1445 349.8 1444.5 349.3C1444.3 349.2 1444.2 349 1444.1 348.9L1446.7 342.2L1444.2 342L1441.4 349.3L1441.7 349.6C1442 349.9 1442.1 350.1 1442.5 350.3C1442.7 350.5 1443 350.7 1443.3 351L1438.7 351.3L1427.5 352.1C1426 352.3 1424.9 352.9 1424.1 353.8C1424.1 353.8 1423.5 354.6 1423.3 355.2L1421.7 359.6C1421.4 360.4 1420.1 360.8 1418.9 360.7C1417.7 360.5 1417.1 360.1 1417.1 360L1420.9 349.9C1421.3 348.8 1426.1 348.2 1428.4 347.9L1429.1 347.8L1431.8 340.7L1429.3 340.4L1427 346.6C1423.7 347.1 1420.6 347.6 1419.1 348.7L1415.9 348.9C1412.9 349.1 1411.3 351.3 1410 353.6L1403.5 354L1404.6 355.3L1411.8 354.9L1412.1 354.4C1412.8 353.1 1414.4 350.4 1416.3 350.3L1418.2 350.1L1414.7 359.6C1414.3 360.6 1415.9 361.6 1418.3 362H1419.1C1421 362 1423.1 361.7 1423.8 360.8L1425.9 355.2C1425.9 355.2 1426.7 353.4 1428.1 353.2L1445.1 352C1445.9 351.9 1446.6 352.3 1446.7 352.7C1446.8 353.3 1446.2 353.7 1445.2 353.8L1428.8 354.9L1429.1 356.3L1447.4 355.1C1448.2 355 1448.8 355.3 1448.9 355.8C1448.9 356.2 1448.4 356.6 1447.6 356.7L1446.5 356.8H1446L1429.8 357.9L1430.1 359.3L1446.3 358.2C1447.1 358.1 1447.8 358.5 1447.9 358.9C1448 359.4 1447.5 359.8 1446.7 359.8L1439.5 360.3L1432.2 360.8L1432.5 362.2L1439.8 361.7C1440.6 361.6 1441.3 362 1441.4 362.4C1441.5 362.9 1440.9 363.3 1440.1 363.4L1434 363.8L1421.6 364.6C1419.5 364.7 1416.8 363.4 1415.1 362.5C1414.7 362.3 1414.4 362.1 1414 362L1413.6 361.8L1404.9 362.4L1405.6 363.8L1412.7 363.3L1413.2 363.6C1414.9 364.5 1417.3 365.8 1419.9 366C1419.6 367.2 1420.9 368.2 1423 368.5C1423.7 368.6 1424.5 368.5 1425.1 368.4C1425.4 369.2 1426.4 369.8 1427.8 370H1428L1428.1 370.1C1429.5 370.2 1430.9 369.9 1431.7 369.3C1432.1 369.6 1432.8 369.7 1433.5 369.8C1435.7 370 1437.7 369.3 1438.2 368L1438.9 366L1439.2 364.9H1439.7C1441.9 364.7 1443.5 363.6 1443.2 362.3C1443.4 362 1443.1 361.8 1442.9 361.6Z" fill="#FAD0C9"/>
<path opacity="0.55" fill-rule="evenodd" clip-rule="evenodd" d="M1460.4 385.4C1460.7 385.1 1461 384.8 1461.1 384.4C1461.2 384.1 1461.2 383.7 1461 383.4C1460.8 383.1 1460.5 382.8 1460 382.4C1459.5 382.1 1459.1 382 1458.6 381.9C1458.1 381.8 1457.7 381.8 1457.2 381.8C1456.7 381.8 1456.2 381.9 1455.6 382.1C1455.1 382.2 1454.5 382.4 1453.9 382.6C1453.4 382.8 1453 382.9 1452.7 383C1452.3 383.1 1452 383.2 1451.7 383.2C1451.4 383.2 1451.2 383.3 1450.9 383.2C1450.7 383.2 1450.5 383.1 1450.2 383C1449.8 382.8 1449.7 382.6 1449.8 382.3C1449.9 382 1450.2 381.8 1450.7 381.4C1451 381.2 1451.3 381.1 1451.7 381C1452.1 380.9 1452.4 380.8 1452.8 380.7C1453.2 380.6 1453.5 380.6 1453.8 380.5C1454.1 380.5 1454.3 380.4 1454.4 380.4L1453.7 379C1453 379.1 1452.2 379.2 1451.4 379.4C1450.6 379.6 1449.8 379.9 1449.2 380.3C1448.7 380.6 1448.3 380.9 1448 381.2C1447.7 381.5 1447.5 381.9 1447.4 382.2C1447.3 382.5 1447.4 382.9 1447.6 383.2C1447.8 383.5 1448.2 383.8 1448.6 384.1C1449 384.3 1449.4 384.5 1449.8 384.6C1450.2 384.7 1450.6 384.7 1451 384.7C1451.4 384.7 1451.9 384.6 1452.4 384.5C1452.9 384.4 1453.5 384.2 1454.1 384C1454.6 383.8 1455.1 383.7 1455.5 383.6C1455.9 383.5 1456.3 383.4 1456.6 383.3C1456.9 383.2 1457.2 383.2 1457.5 383.2C1457.8 383.2 1458 383.3 1458.2 383.4C1458.9 383.8 1458.7 384.3 1457.6 384.9C1457.2 385.1 1456.8 385.3 1456.3 385.5C1455.8 385.7 1455.4 385.8 1455 385.9C1454.6 386 1454.2 386.1 1453.8 386.1C1453.4 386.1 1453.2 386.2 1453 386.2L1453.8 387.6C1454.8 387.5 1455.7 387.3 1456.7 387C1457.6 386.7 1458.5 386.3 1459.2 385.9C1459.6 386 1460.1 385.7 1460.4 385.4Z" fill="#FAD0C9"/>
<path opacity="0.55" fill-rule="evenodd" clip-rule="evenodd" d="M1463.8 377C1463.9 376.8 1464.1 376.6 1464.4 376.5C1464.7 376.3 1465 376.2 1465.3 376.2C1465.6 376.1 1466 376.1 1466.4 376.1C1466.8 376.1 1467.1 376.2 1467.5 376.3C1467.9 376.4 1468.2 376.5 1468.5 376.7C1468.8 376.9 1469.1 377.1 1469.2 377.3C1469.4 377.5 1469.5 377.7 1469.5 377.9C1469.5 378.1 1469.5 378.3 1469.3 378.5C1469.2 378.7 1469 378.9 1468.7 379C1468.4 379.2 1468.1 379.3 1467.8 379.3C1467.5 379.4 1467.1 379.4 1466.7 379.4C1466.3 379.4 1466 379.3 1465.6 379.2C1465.2 379.1 1464.9 379 1464.6 378.8C1464.3 378.6 1464 378.4 1463.9 378.2C1463.7 378 1463.6 377.8 1463.6 377.6C1463.6 377.4 1463.6 377.2 1463.8 377ZM1462.7 380C1463.2 380.3 1463.8 380.5 1464.4 380.7C1465 380.9 1465.7 380.9 1466.4 381C1467.1 381 1467.8 380.9 1468.4 380.8C1469.1 380.6 1469.7 380.4 1470.3 380C1470.9 379.7 1471.3 379.3 1471.6 378.9C1471.9 378.5 1472 378.1 1472 377.7C1472 377.3 1471.8 376.9 1471.6 376.6C1471.3 376.2 1470.9 375.9 1470.4 375.6C1469.9 375.3 1469.3 375.1 1468.7 374.9C1468.1 374.7 1467.4 374.7 1466.7 374.6C1466 374.6 1465.4 374.7 1464.7 374.8C1464 375 1463.4 375.2 1462.8 375.5C1462.2 375.8 1461.8 376.2 1461.5 376.6C1461.2 377 1461.1 377.4 1461.1 377.8C1461.1 378.2 1461.3 378.6 1461.5 378.9C1461.8 379.4 1462.2 379.7 1462.7 380Z" fill="#FAD0C9"/>
<path opacity="0.55" fill-rule="evenodd" clip-rule="evenodd" d="M1480 374.2L1477.1 372.5L1477 371L1484.4 371.6L1486.5 370.4L1477 369.6L1476.5 364.9L1474.3 366.1L1474.9 371.2L1470.2 368.5L1468.3 369.6L1478.1 375.3L1480 374.2Z" fill="#FAD0C9"/>
<path opacity="0.55" fill-rule="evenodd" clip-rule="evenodd" d="M1203.8 453.3L1357.2 541.8L1458.4 483.3L1280.2 380.7L1203.9 424.5L1203.8 453.3ZM1357.2 543.4C1357.1 543.4 1356.9 543.4 1356.8 543.3L1202.7 454.3C1202.5 454.2 1202.3 453.9 1202.3 453.6V424C1202.3 423.7 1202.4 423.5 1202.7 423.3L1279.8 379.1C1280 379 1280.3 379 1280.6 379.1L1460.4 482.6C1460.6 482.7 1460.8 483 1460.8 483.3C1460.8 483.6 1460.7 483.8 1460.4 484L1357.7 543.3C1357.6 543.4 1357.3 543.4 1357.2 543.4Z" fill="#FAD0C9"/>
<path opacity="0.55" fill-rule="evenodd" clip-rule="evenodd" d="M1351.6 438.7L1352.8 439.5L1350.3 440.9L1356.8 444.7L1355.2 445.5L1348.8 441.8L1346.3 443.3L1345.1 442.5L1351.6 438.7Z" fill="#FAD0C9"/>
<path opacity="0.55" fill-rule="evenodd" clip-rule="evenodd" d="M1336.7 447.3L1340.7 449.6C1341 449.8 1341.4 450 1341.7 450.1C1342.1 450.2 1342.4 450.3 1342.8 450.4H1344C1344.4 450.3 1344.8 450.2 1345.1 450C1345.5 449.8 1345.7 449.6 1345.8 449.4C1345.9 449.2 1345.9 449 1345.8 448.7C1345.7 448.5 1345.6 448.3 1345.3 448.1C1345.1 447.9 1344.8 447.7 1344.5 447.5L1340.5 445.2L1342 444.3L1346 446.6C1346.5 446.9 1347 447.2 1347.3 447.6C1347.6 447.9 1347.8 448.3 1347.9 448.7C1348 449.1 1347.9 449.4 1347.7 449.8C1347.5 450.2 1347.1 450.5 1346.5 450.9C1345.9 451.3 1345.2 451.5 1344.6 451.6C1343.9 451.7 1343.3 451.8 1342.7 451.7C1342.1 451.7 1341.5 451.5 1340.9 451.3C1340.3 451.1 1339.8 450.9 1339.3 450.6L1335.3 448.3L1336.7 447.3Z" fill="#FAD0C9"/>
<path opacity="0.55" fill-rule="evenodd" clip-rule="evenodd" d="M1325.8 453.6L1335.1 454.2L1330 451.2L1331.5 450.4L1339.2 454.8L1338 455.5L1329 455L1334 457.9L1332.5 458.7L1324.7 454.3L1325.8 453.6Z" fill="#FAD0C9"/>
<path opacity="0.55" fill-rule="evenodd" clip-rule="evenodd" d="M1296.8 478.8C1296.7 479.1 1296.5 479.3 1296.2 479.5C1296 479.7 1295.7 479.9 1295.4 480.1C1294.8 480.4 1294.2 480.6 1293.5 480.8C1292.8 480.9 1292.1 481 1291.4 481C1290.7 481 1290 480.9 1289.3 480.7C1288.6 480.5 1288.1 480.3 1287.6 480C1287.1 479.7 1286.7 479.4 1286.5 479C1286.2 478.6 1286 478.2 1286 477.8C1286 477.4 1286.1 477 1286.3 476.6C1286.6 476.2 1287 475.8 1287.6 475.5C1288.3 475.1 1289.1 474.8 1289.9 474.7C1290.7 474.6 1291.5 474.6 1292.3 474.7L1291.9 475.8C1291.6 475.7 1291.3 475.7 1291 475.7C1290.7 475.7 1290.4 475.7 1290.2 475.8C1289.9 475.8 1289.7 475.9 1289.5 476L1288.9 476.3C1288.5 476.5 1288.3 476.8 1288.1 477C1288 477.3 1287.9 477.5 1288 477.8C1288.1 478 1288.2 478.3 1288.4 478.5C1288.6 478.7 1288.9 478.9 1289.2 479.1C1289.5 479.3 1289.9 479.5 1290.4 479.6C1290.8 479.7 1291.3 479.8 1291.7 479.8C1292.1 479.8 1292.6 479.8 1293 479.7C1293.4 479.6 1293.8 479.5 1294.1 479.3C1294.3 479.2 1294.4 479.1 1294.6 478.9C1294.7 478.8 1294.9 478.6 1294.9 478.5C1294.9 478.4 1295 478.2 1295 478C1295 477.8 1294.9 477.7 1294.8 477.5L1296.8 477.2C1297 477.4 1297 477.7 1297 478C1297.1 478.3 1297.1 478.5 1296.8 478.8Z" fill="#FAD0C9"/>
<path opacity="0.55" fill-rule="evenodd" clip-rule="evenodd" d="M1317.1 467.1C1317 467.4 1316.8 467.6 1316.5 467.8C1316.3 468 1316 468.2 1315.7 468.4C1315.1 468.7 1314.5 468.9 1313.8 469.1C1313.1 469.2 1312.4 469.3 1311.7 469.3C1311 469.3 1310.3 469.2 1309.6 469C1308.9 468.8 1308.4 468.6 1307.9 468.3C1307.4 468 1307 467.7 1306.8 467.3C1306.5 466.9 1306.3 466.5 1306.3 466.1C1306.3 465.7 1306.4 465.3 1306.6 464.9C1306.9 464.5 1307.3 464.1 1307.9 463.8C1308.6 463.4 1309.4 463.1 1310.2 463C1311 462.9 1311.8 462.9 1312.6 463L1312.2 464.1C1311.9 464 1311.6 464 1311.3 464C1311 464 1310.7 464 1310.5 464.1C1310.2 464.1 1310 464.2 1309.8 464.3L1309.2 464.6C1308.8 464.8 1308.6 465.1 1308.4 465.3C1308.3 465.6 1308.2 465.8 1308.3 466.1C1308.4 466.3 1308.5 466.6 1308.7 466.8C1308.9 467 1309.2 467.2 1309.5 467.4C1309.8 467.6 1310.2 467.8 1310.7 467.9C1311.1 468 1311.6 468.1 1312 468.1C1312.4 468.1 1312.9 468.1 1313.3 468C1313.7 467.9 1314.1 467.8 1314.4 467.6C1314.6 467.5 1314.7 467.4 1314.9 467.2C1315 467.1 1315.2 466.9 1315.2 466.8C1315.3 466.6 1315.3 466.5 1315.3 466.3C1315.3 466.1 1315.2 466 1315.1 465.8L1317.1 465.5C1317.3 465.7 1317.3 466 1317.3 466.3C1317.2 466.6 1317.2 466.9 1317.1 467.1Z" fill="#FAD0C9"/>
<path opacity="0.55" fill-rule="evenodd" clip-rule="evenodd" d="M1304.6 473.1C1304.5 473.3 1304.2 473.6 1303.9 473.8C1303.5 474 1303.1 474.2 1302.7 474.2C1302.3 474.3 1301.8 474.3 1301.4 474.3C1301 474.3 1300.5 474.2 1300.1 474.1C1299.7 474 1299.3 473.8 1299 473.6C1298.7 473.4 1298.4 473.2 1298.2 473C1298 472.8 1297.9 472.5 1297.8 472.3C1297.7 472 1297.8 471.8 1297.9 471.5C1298 471.2 1298.3 471 1298.7 470.8C1299.1 470.6 1299.4 470.5 1299.9 470.4C1300.3 470.3 1300.8 470.3 1301.2 470.3C1301.6 470.3 1302.1 470.4 1302.5 470.5C1302.9 470.6 1303.3 470.8 1303.6 471C1303.9 471.2 1304.2 471.4 1304.4 471.6C1304.6 471.8 1304.7 472.1 1304.8 472.3C1304.8 472.6 1304.7 472.8 1304.6 473.1ZM1305.1 470.1C1304.6 469.8 1304 469.6 1303.4 469.4C1302.7 469.2 1302.1 469.1 1301.4 469.1C1300.7 469.1 1300 469.1 1299.3 469.3C1298.6 469.4 1298 469.7 1297.4 470C1296.8 470.3 1296.4 470.7 1296.2 471.1C1295.9 471.5 1295.8 471.9 1295.9 472.3C1295.9 472.7 1296.1 473.1 1296.4 473.5C1296.7 473.9 1297.1 474.2 1297.6 474.5C1298.1 474.8 1298.7 475 1299.3 475.2C1300 475.4 1300.6 475.5 1301.3 475.5C1302 475.5 1302.7 475.5 1303.4 475.3C1304.1 475.2 1304.7 474.9 1305.3 474.6C1305.8 474.3 1306.3 473.9 1306.5 473.5C1306.8 473.1 1306.9 472.7 1306.8 472.3C1306.8 471.9 1306.6 471.5 1306.3 471.1C1306 470.7 1305.6 470.4 1305.1 470.1Z" fill="#FAD0C9"/>
<path opacity="0.55" fill-rule="evenodd" clip-rule="evenodd" d="M1324.8 461.4C1324.7 461.6 1324.4 461.9 1324.1 462.1C1323.7 462.3 1323.3 462.5 1322.9 462.5C1322.5 462.6 1322 462.6 1321.6 462.6C1321.2 462.6 1320.7 462.5 1320.3 462.4C1319.9 462.3 1319.5 462.1 1319.2 461.9C1318.9 461.7 1318.6 461.5 1318.4 461.3C1318.2 461.1 1318.1 460.8 1318 460.6C1317.9 460.3 1318 460.1 1318.1 459.8C1318.2 459.5 1318.5 459.3 1318.9 459.1C1319.3 458.9 1319.6 458.8 1320.1 458.7C1320.5 458.6 1321 458.6 1321.4 458.6C1321.8 458.6 1322.3 458.7 1322.7 458.8C1323.1 458.9 1323.5 459.1 1323.8 459.3C1324.1 459.5 1324.4 459.7 1324.6 459.9C1324.8 460.1 1324.9 460.4 1325 460.6C1325 460.9 1324.8 461.2 1324.8 461.4ZM1326.5 459.5C1326.2 459.1 1325.8 458.8 1325.3 458.5C1324.8 458.2 1324.2 458 1323.6 457.8C1322.9 457.6 1322.3 457.5 1321.6 457.5C1320.9 457.5 1320.2 457.5 1319.5 457.7C1318.8 457.8 1318.2 458.1 1317.6 458.4C1317.1 458.7 1316.6 459.1 1316.4 459.5C1316.1 459.9 1316 460.3 1316.1 460.7C1316.1 461.1 1316.3 461.5 1316.6 461.9C1316.9 462.3 1317.3 462.6 1317.8 462.9C1318.3 463.2 1318.9 463.4 1319.5 463.6C1320.2 463.8 1320.8 463.9 1321.5 463.9C1322.2 463.9 1322.9 463.9 1323.6 463.7C1324.3 463.6 1324.9 463.3 1325.5 463C1326 462.7 1326.5 462.3 1326.7 461.9C1327 461.5 1327.1 461.1 1327 460.7C1326.8 460.2 1326.7 459.9 1326.5 459.5Z" fill="#FAD0C9"/>
<path opacity="0.55" fill-rule="evenodd" clip-rule="evenodd" d="M1206.9 452.3C1206.6 452.3 1206.4 452.2 1206.2 451.9C1206 451.5 1206.1 451.1 1206.5 450.9L1226.9 439.1L1209.3 428.4C1208.9 428.2 1208.8 427.7 1209 427.4C1209.2 427 1209.7 426.9 1210 427.1L1228.7 438.4C1228.9 438.5 1229.1 438.8 1229.1 439.1C1229.1 439.4 1229 439.6 1228.7 439.7L1207.2 452.1C1207.2 452.2 1207.1 452.3 1206.9 452.3Z" fill="#FAD0C9"/>
<path opacity="0.55" fill-rule="evenodd" clip-rule="evenodd" d="M1385.5 452.5L1306.1 498.3L1307 499.9L1386.5 454.1L1385.5 452.5Z" fill="#FAD0C9"/>
<path opacity="0.55" fill-rule="evenodd" clip-rule="evenodd" d="M1401.3 461.7L1322 507.5L1323 509.1L1402.3 463.3L1401.3 461.7Z" fill="#FAD0C9"/>
<path opacity="0.55" fill-rule="evenodd" clip-rule="evenodd" d="M1417.5 470.8L1338 516.7L1339 518.3L1418.3 472.5L1417.5 470.8Z" fill="#FAD0C9"/>
<path opacity="0.55" fill-rule="evenodd" clip-rule="evenodd" d="M1306.8 440.9C1307.2 443.7 1305.1 446.4 1300.7 449C1296.3 451.6 1291.6 452.7 1286.7 452.5C1278.8 452.1 1272.5 448.2 1270.6 446.8L1285.9 440.6C1285.9 440.6 1286 440.6 1286 440.5L1286.1 440.4L1296.9 431.6C1299.3 432.7 1306.2 436.3 1306.8 440.9ZM1268.2 440.5C1268.2 440.5 1268.3 440.5 1268.2 440.5C1268.4 440.5 1268.5 440.4 1268.7 440.4H1268.8C1269 440.4 1269.1 440.3 1269.3 440.3C1269.5 440.3 1269.6 440.2 1269.8 440.1H1269.9C1270.1 440 1270.3 440 1270.4 439.9H1270.5C1270.7 439.8 1270.8 439.8 1271 439.7H1271.1C1271.3 439.6 1271.5 439.5 1271.7 439.5C1271.7 439.5 1271.8 439.5 1271.8 439.4C1272 439.3 1272.1 439.3 1272.3 439.2H1272.4L1273 438.9C1273.1 438.9 1273.1 438.9 1273.1 438.8L1273.7 438.5L1274.3 438.2C1274.3 438.2 1274.4 438.2 1274.4 438.1L1275 437.8C1275 437.8 1275.1 437.8 1275.1 437.7C1275.3 437.6 1275.4 437.5 1275.6 437.4C1275.6 437.4 1275.7 437.4 1275.7 437.3C1275.9 437.2 1276.1 437.1 1276.2 437C1276.2 437 1276.3 437 1276.3 436.9C1276.5 436.8 1276.6 436.7 1276.8 436.6H1276.9C1277.1 436.5 1277.2 436.4 1277.4 436.3C1277.4 436.3 1277.5 436.3 1277.5 436.2C1277.7 436.1 1277.8 436 1278 435.9C1278.2 435.8 1278.3 435.7 1278.5 435.6C1278.5 435.6 1278.6 435.6 1278.6 435.5C1278.8 435.4 1278.9 435.3 1279.1 435.2H1279.2C1279.3 435.1 1279.5 435 1279.6 434.9C1279.6 434.9 1279.7 434.9 1279.7 434.8C1279.9 434.7 1280 434.6 1280.2 434.5C1280.2 434.5 1280.3 434.5 1280.3 434.4C1280.5 434.3 1280.6 434.2 1280.8 434.1C1280.8 434.1 1280.9 434.1 1280.9 434C1281.1 433.9 1281.2 433.8 1281.4 433.7L1281.5 433.6C1281.7 433.5 1281.8 433.4 1282 433.3C1282.2 433.2 1282.3 433.1 1282.5 433L1282.6 432.9C1282.8 432.8 1282.9 432.7 1283.1 432.6C1283.1 432.6 1283.2 432.6 1283.2 432.5C1283.3 432.4 1283.5 432.3 1283.6 432.2L1283.7 432.1C1283.8 432 1284 431.9 1284.1 431.8C1284.1 431.8 1284.2 431.8 1284.2 431.7L1284.5 431.4H1284.6L1284.9 431.1L1285 431L1285.3 430.7C1285.4 430.6 1285.5 430.5 1285.5 430.4V430.3C1285.6 430.2 1285.6 430.1 1285.7 430C1287.6 430 1291.8 430.2 1295 430.8L1284.4 439.5L1269.4 445.6C1268.7 444 1268.3 441.5 1268.2 440.5ZM1271.2 438.1C1271 438.2 1270.9 438.2 1270.8 438.3C1270.6 438.4 1270.4 438.5 1270.3 438.5H1270.2C1270.1 438.6 1269.9 438.6 1269.8 438.7H1269.7C1269.6 438.7 1269.5 438.8 1269.4 438.8H1269.3C1269.2 438.8 1269.1 438.9 1269 438.9C1268.9 438.9 1268.8 439 1268.7 439C1269 438.7 1269.5 438.2 1270.3 437.6L1271.2 438.1ZM1275.4 434.4C1276.2 433.9 1277 433.5 1277.7 433.1L1278.3 434L1278.5 434.2C1278.5 434.2 1278.4 434.2 1278.4 434.3C1278.2 434.4 1278.1 434.5 1277.9 434.6C1277.8 434.6 1277.7 434.7 1277.7 434.7C1277.4 434.9 1277.2 435 1276.9 435.2C1276.6 435.4 1276.3 435.5 1276.1 435.7C1276 435.7 1275.9 435.8 1275.9 435.8L1275.3 436.1C1275.2 436.1 1275.1 436.2 1275 436.2C1274.8 436.3 1274.6 436.4 1274.5 436.5C1274.4 436.5 1274.3 436.6 1274.3 436.6C1274.1 436.7 1273.8 436.8 1273.6 436.9C1273.4 437 1273.3 437.1 1273.1 437.1H1273L1271.5 436.7C1272.4 436.2 1273.8 435.3 1275.4 434.4ZM1283.8 430.4L1283.6 430.6L1283.4 430.8L1283.3 430.9L1283.1 431.1C1283.1 431.1 1283 431.1 1283 431.2C1282.9 431.3 1282.8 431.3 1282.7 431.4L1282.6 431.5C1282.5 431.6 1282.3 431.7 1282.2 431.8C1282.1 431.9 1281.9 432 1281.8 432.1L1281.7 432.2C1281.6 432.3 1281.5 432.4 1281.3 432.5C1281.3 432.5 1281.2 432.6 1281.1 432.6C1281 432.7 1280.8 432.8 1280.7 432.9L1280.6 433C1280.4 433.1 1280.2 433.3 1280 433.4L1279.3 432.4C1281.2 431.3 1282.8 430.7 1283.8 430.4ZM1263.4 435.6L1268 432.7C1267.7 433.5 1267.1 434.6 1266.1 436C1265 437.5 1264 438.5 1263.2 439.2L1263.4 435.6ZM1297.3 430.3C1297.2 430.3 1297.2 430.3 1297.1 430.2C1293 429.2 1286.4 429.1 1285.1 429.1C1283.7 428.8 1281 429.9 1278.4 431.2L1275.9 427.7L1282.9 425.9C1283.4 425.8 1283.6 425.4 1283.4 425.1C1283.2 424.8 1282.6 424.7 1282.1 424.8L1274.2 426.8C1273.7 426.9 1273.5 427.3 1273.7 427.5L1276.8 431.9C1275.8 432.4 1274.8 433 1273.9 433.5C1272.5 434.3 1270.8 435.3 1269.4 436.3L1268.1 436C1269.5 434.1 1271.2 431.1 1269.3 430.6C1268.9 430.5 1268.4 430.6 1268.2 430.7L1261.7 434.8C1261.5 434.9 1261.4 435 1261.4 435.2L1261.2 440.2C1261.2 440.4 1261.4 440.7 1261.8 440.7C1262.5 440.9 1263.2 440.7 1263.9 440.2C1265.2 439.5 1266.4 438.1 1267.4 436.9L1268.2 437.1C1266.8 438.2 1266 439.2 1266.3 439.8C1266.3 440.5 1266.5 444.3 1268.3 446.7L1268.4 446.8C1268.8 447.1 1276.2 452.9 1286.6 453.4C1292.1 453.6 1297.3 452.3 1302.2 449.5C1307.1 446.7 1309.3 443.7 1308.9 440.5C1308 434.8 1298 430.6 1297.3 430.3Z" fill="#FAD0C9"/>
<path opacity="0.55" d="M1155.1 413.9L1154.7 413.7L1001.7 325.4L1002.5 324.1L1155.1 412.2L1374.6 285.4L1222.7 197.8L1223.5 196.5L1377.6 285.4L1155.1 413.9Z" fill="#FAD0C9"/>
<path opacity="0.55" d="M1121.1 374.7L1034.6 324.7L1223.1 215.8L1309.6 265.8L1121.1 374.7ZM1105.6 364L1121.1 372.9L1136.6 364L1121.1 355.1L1105.6 364ZM1122.6 354.2L1138.1 363.1L1153.6 354.2L1138.1 345.3L1122.6 354.2ZM1088.5 354.2L1104.1 363.2L1119.6 354.3L1104 345.3L1088.5 354.2ZM1139.6 344.4L1155.1 353.3L1170.6 344.4L1155.1 335.5L1139.6 344.4ZM1105.5 344.4L1121.1 353.4L1136.6 344.5L1121 335.5L1105.5 344.4ZM1071.7 344.4L1087.1 353.3L1102.6 344.4L1087.2 335.5L1071.7 344.4ZM1156.6 334.6L1172.1 343.5L1255.7 295.2L1240.2 286.3L1156.6 334.6ZM1122.5 334.6L1138.1 343.6L1153.6 334.7L1138 325.7L1122.5 334.6ZM1054.6 334.6L1070.2 343.6L1085.7 334.7L1070.1 325.7L1054.6 334.6ZM1088.6 334.6L1104 343.5L1119.5 334.6L1104.1 325.7L1088.6 334.6ZM1139.5 324.8L1155.1 333.8L1170.7 324.8L1155.1 315.8L1139.5 324.8ZM1071.6 324.7L1087.2 333.7L1102.7 324.8L1087.1 315.8L1071.6 324.7ZM1105.6 324.8L1121 333.7L1136.5 324.8L1121.1 315.9L1105.6 324.8ZM1037.6 324.7L1053.1 333.6L1068.6 324.7L1053.1 315.8L1037.6 324.7ZM1088.5 314.9L1104.1 323.9L1119.6 315L1104 306L1088.5 314.9ZM1122.6 315L1138 323.9L1153.6 314.9L1138.2 306L1122.6 315ZM1054.6 314.9L1070.1 323.8L1085.6 314.9L1070.1 306L1054.6 314.9ZM1156.6 314.9L1172.2 323.9L1187.7 315L1172.1 306L1156.6 314.9ZM1105.5 305.1L1121.1 314.1L1136.7 305.1L1121.1 296.1L1105.5 305.1ZM1071.6 305.1L1087.1 314L1102.6 305.1L1087.1 296.2L1071.6 305.1ZM1173.6 305L1189.2 314L1204.7 305.1L1189.1 296.1L1173.6 305ZM1139.7 305.1L1155.1 314L1170.6 305.1L1155.2 296.2L1139.7 305.1ZM1088.6 295.3L1104.1 304.2L1119.7 295.2L1104.2 286.3L1088.6 295.3ZM1122.7 295.2L1138.3 304.2L1153.8 295.3L1138.2 286.3L1122.7 295.2ZM1190.6 295.2L1206.2 304.2L1221.7 295.2L1206.1 286.2L1190.6 295.2ZM1156.7 295.3L1172.1 304.2L1187.6 295.3L1172.2 286.4L1156.7 295.3ZM1139.6 285.4L1155.2 294.4L1170.7 285.5L1155.1 276.5L1139.6 285.4ZM1241.7 285.5L1257.2 294.4L1272.7 285.5L1257.2 276.6L1241.7 285.5ZM1207.6 285.4L1223.2 294.4L1238.7 285.5L1223.1 276.5L1207.6 285.4ZM1105.7 285.4L1121.2 294.3L1136.7 285.4L1121.2 276.5L1105.7 285.4ZM1173.7 285.5L1189.1 294.4L1204.6 285.4L1189.2 276.5L1173.7 285.5ZM1156.6 275.6L1172.2 284.6L1187.7 275.6L1172.1 266.6L1156.6 275.6ZM1258.7 275.6L1274.2 284.5L1306.7 265.8L1291.2 256.9L1258.7 275.6ZM1224.6 275.6L1240.2 284.6L1255.7 275.7L1240.1 266.7L1224.6 275.6ZM1122.7 275.6L1138.2 284.5L1153.7 275.6L1138.2 266.7L1122.7 275.6ZM1190.7 275.6L1206.1 284.5L1221.6 275.6L1206.2 266.7L1190.7 275.6ZM1241.6 265.8L1257.2 274.8L1272.7 265.8L1257.1 256.8L1241.6 265.8ZM1173.7 265.8L1189.3 274.8L1204.8 265.9L1189.2 256.9L1173.7 265.8ZM1139.6 265.8L1155.1 274.7L1170.6 265.7L1155.1 256.8L1139.6 265.8ZM1207.7 265.8L1223.1 274.7L1238.6 265.8L1223.2 256.9L1207.7 265.8ZM1190.6 256L1206.2 265L1221.7 256.1L1206.1 247.1L1190.6 256ZM1258.6 255.9L1274.2 264.9L1289.6 256L1274 247L1258.6 255.9ZM1224.7 256L1240.1 264.9L1255.6 255.9L1240.2 247L1224.7 256ZM1156.7 256L1172.2 264.9L1187.7 256L1172.2 247.1L1156.7 256ZM1207.6 246.2L1223.2 255.2L1238.7 246.2L1223.1 237.2L1207.6 246.2ZM1173.7 246.2L1189.2 255.1L1204.7 246.2L1189.2 237.3L1173.7 246.2ZM1241.7 246.2L1257.1 255.1L1272.5 246.2L1257.1 237.3L1241.7 246.2ZM1224.7 236.3L1240.3 245.3L1255.7 236.4L1240.1 227.4L1224.7 236.3ZM1190.6 236.4L1206.1 245.3L1221.6 236.3L1206.1 227.4L1190.6 236.4ZM1207.7 226.5L1223.2 235.4L1238.6 226.5L1223.1 217.6L1207.7 226.5Z" fill="#FAD0C9"/>
<path opacity="0.55" fill-rule="evenodd" clip-rule="evenodd" d="M1104.5 421.5H1103C1091 421.5 1079.1 424.1 1070 429.4C1060.9 434.7 1056.4 441.6 1056.4 448.5V449.4H1059.4V448.5C1059.4 442 1063.6 435.5 1072.1 430.6C1080.6 425.7 1091.8 423.2 1103 423.2H1104.5V421.5ZM1104.1 432.5H1102.6C1095.6 432.5 1088.6 434.1 1083.3 437.1C1078 440.2 1075.3 444.2 1075.4 448.3V449.2H1078.4V448.3C1078.4 444.7 1080.7 441.1 1085.5 438.3C1090.2 435.5 1096.5 434.2 1102.7 434.2H1104.2L1104.1 432.5ZM1107.1 444.8C1104.2 443.1 1099.5 443.1 1096.7 444.8L1097.8 445.4L1098.9 446C1099.8 445.5 1100.9 445.3 1102 445.3C1103.1 445.3 1104.2 445.5 1105.1 446C1106 446.5 1106.4 447.1 1106.4 447.8C1106.4 448.4 1106 449.1 1105.1 449.6C1104.2 450.1 1103.1 450.3 1102 450.3C1100.9 450.3 1099.8 450.1 1098.9 449.6C1098 449.1 1097.6 448.5 1097.6 447.8C1097.6 447.1 1098 446.5 1098.9 446L1097.8 445.4L1096.7 444.8C1093.8 446.5 1093.8 449.2 1096.7 450.8C1099.6 452.5 1104.3 452.5 1107.1 450.8C1110 449.2 1110 446.5 1107.1 444.8Z" fill="#FAD0C9"/>
<path opacity="0.55" fill-rule="evenodd" clip-rule="evenodd" d="M1557.8 276.2L1557.3 277.1L1557.8 276.2C1556.3 275.4 1554.6 275 1552.8 275C1551 275 1549.3 275.4 1547.8 276.2C1546.4 277 1545.5 278.2 1545.5 279.6L1495.1 287.4C1494.7 286.8 1494.1 286.3 1493.3 285.8L1492.8 286.7L1493.3 285.8C1491.9 285 1490.1 284.6 1488.3 284.6C1486.5 284.6 1484.8 285 1483.3 285.8C1481.9 286.6 1481 287.9 1480.9 289.3C1480.9 290.7 1481.8 292 1483.3 292.8C1484.8 293.6 1486.5 294 1488.3 294C1489.9 294 1491.4 293.7 1492.7 293L1529.5 314.2C1528.7 314.9 1528.3 315.8 1528.3 316.8C1528.3 318.2 1529.2 319.5 1530.7 320.3C1532.2 321.1 1533.9 321.5 1535.7 321.5C1537.5 321.5 1539.2 321.1 1540.7 320.3C1542.1 319.5 1543 318.2 1543 316.8C1543 315.4 1542.1 314.1 1540.6 313.3L1540.1 314.2L1540.6 313.3C1540 313 1539.4 312.7 1538.7 312.5L1551.7 284.1C1552.1 284.1 1552.4 284.2 1552.8 284.2C1554.6 284.2 1556.3 283.8 1557.8 283C1559.2 282.2 1560.1 280.9 1560.1 279.5C1560.1 278.3 1559.2 277 1557.8 276.2ZM1484.4 291.1C1483.3 290.5 1483 289.8 1483 289.4C1483 288.9 1483.3 288.3 1484.3 287.7C1485.3 287.1 1486.8 286.8 1488.2 286.8C1489.7 286.8 1491.1 287.1 1492.2 287.7C1493.2 288.3 1493.6 289 1493.6 289.4C1493.6 289.9 1493.3 290.5 1492.3 291.1C1491.3 291.7 1489.8 292 1488.3 292C1486.9 292.1 1485.4 291.7 1484.4 291.1ZM1541 317C1541 317.5 1540.7 318.1 1539.7 318.7C1538.7 319.3 1537.2 319.6 1535.7 319.6C1534.2 319.6 1532.8 319.3 1531.7 318.7C1530.6 318.1 1530.3 317.4 1530.3 317C1530.3 316.5 1530.6 315.9 1531.6 315.3C1532.6 314.7 1534.1 314.4 1535.6 314.4C1537.1 314.4 1538.5 314.7 1539.6 315.3C1540.7 315.9 1541 316.6 1541 317ZM1536.7 312.4C1536.4 312.4 1536 312.3 1535.7 312.3C1534.2 312.3 1532.8 312.6 1531.5 313.1L1494.7 291.8C1495.3 291.1 1495.7 290.3 1495.7 289.4L1546.1 281.6C1546.5 282.2 1547.1 282.7 1547.9 283.2C1548.5 283.5 1549.1 283.8 1549.7 283.9L1536.7 312.4ZM1556.8 281.4C1555.8 282 1554.3 282.3 1552.8 282.3C1551.3 282.3 1549.9 282 1548.8 281.4C1547.7 280.8 1547.4 280.1 1547.4 279.7C1547.4 279.2 1547.7 278.6 1548.7 278C1549.7 277.4 1551.2 277.1 1552.7 277.1C1554.2 277.1 1555.6 277.4 1556.7 278C1557.8 278.6 1558.1 279.3 1558.1 279.7C1558.1 280.2 1557.8 280.8 1556.8 281.4Z" fill="#FAD0C9"/>
<path opacity="0.55" d="M1231.4 404L1227.9 402L1228.7 400.7L1232.2 402.7L1231.4 404ZM1221 398L1217.5 396L1218.3 394.7L1221.8 396.7L1221 398ZM1210.7 392L1207.2 390L1208 388.7L1211.5 390.7L1210.7 392Z" fill="#FAD0C9"/>
<path opacity="0.55" d="M1582.1 623.5L1578.7 621.4L1579.5 620.1L1582.9 622.2L1582.1 623.5ZM1571.8 617.3L1568.4 615.2L1569.2 613.9L1572.6 616L1571.8 617.3ZM1561.5 611.1L1558.1 609L1558.9 607.7L1562.3 609.8L1561.5 611.1ZM1551.3 604.9L1547.9 602.8L1548.7 601.5L1552.1 603.6L1551.3 604.9ZM1541 598.6L1537.6 596.5L1538.4 595.2L1541.8 597.3L1541 598.6ZM1530.8 592.4L1527.4 590.3L1528.2 589L1531.6 591.1L1530.8 592.4ZM1520.5 586.2L1517.1 584.1L1517.9 582.8L1521.3 584.9L1520.5 586.2ZM1510.2 580L1506.8 577.9L1507.6 576.6L1511 578.7L1510.2 580ZM1500 573.8L1496.6 571.7L1497.4 570.4L1500.8 572.5L1500 573.8ZM1489.7 567.6L1486.3 565.5L1487.1 564.2L1490.5 566.3L1489.7 567.6ZM1479.4 561.3L1476 559.2L1476.8 557.9L1480.2 560L1479.4 561.3ZM1469.2 555.1L1465.8 553L1466.6 551.7L1470 553.8L1469.2 555.1ZM1458.9 548.9L1455.5 546.8L1456.3 545.5L1459.7 547.6L1458.9 548.9ZM1448.6 542.7L1445.2 540.6L1446 539.3L1449.4 541.4L1448.6 542.7ZM1438.4 536.5L1435 534.4L1435.8 533.1L1439.2 535.2L1438.4 536.5ZM1428.1 530.2L1424.7 528.1L1425.5 526.8L1428.9 528.9L1428.1 530.2ZM1417.9 524L1414.5 521.9L1415.3 520.6L1418.7 522.7L1417.9 524ZM1407.6 517.8L1406 516.8L1406.8 515.5L1408.4 516.5L1407.6 517.8Z" fill="#FAD0C9"/>
<path opacity="0.55" d="M1604.6 453.9L1601.2 451.8L1602 450.5L1605.4 452.6L1604.6 453.9ZM1594.3 447.7L1590.9 445.6L1591.7 444.3L1595.1 446.4L1594.3 447.7ZM1584.1 441.4L1580.7 439.3L1581.5 438L1584.9 440.1L1584.1 441.4ZM1573.8 435.2L1570.4 433.1L1571.2 431.8L1574.6 433.9L1573.8 435.2ZM1563.6 429L1561.8 427.9L1562.6 426.6L1564.4 427.7L1563.6 429Z" fill="#FAD0C9"/>
<path opacity="0.55" d="M896.8 633.3L893.3 631.3L894.1 630L897.6 632L896.8 633.3ZM886.5 627.2L883 625.2L883.8 623.9L887.3 625.9L886.5 627.2ZM876.1 621.2L872.6 619.2L873.4 617.9L876.9 619.9L876.1 621.2ZM865.7 615.2L862.2 613.2L863 611.9L866.5 613.9L865.7 615.2Z" fill="#FAD0C9"/>
<path opacity="0.55" d="M1366.9 109.3L1363.4 107.3L1364.2 106L1367.7 108L1366.9 109.3ZM1356.5 103.3L1353 101.3L1353.8 100L1357.3 102L1356.5 103.3ZM1346.2 97.3L1342.7 95.3L1343.5 94L1347 96L1346.2 97.3ZM1335.8 91.3L1333.5 89.9L1334.3 88.6L1336.6 90L1335.8 91.3Z" fill="#FAD0C9"/>
<path opacity="0.55" d="M997.1 246.4L993.6 244.4L994.4 243.1L997.9 245.1L997.1 246.4ZM986.7 240.4L983.2 238.4L984 237.1L987.5 239.1L986.7 240.4ZM976.3 234.4L972.8 232.4L973.6 231.1L977.1 233.1L976.3 234.4ZM965.9 228.4L962.4 226.4L963.2 225.1L966.7 227.1L965.9 228.4ZM955.5 222.4L952 220.4L952.8 219.1L956.3 221.1L955.5 222.4ZM945.1 216.5L941.6 214.5L942.4 213.2L945.9 215.2L945.1 216.5ZM934.7 210.5L931.2 208.5L932 207.2L935.5 209.2L934.7 210.5ZM924.3 204.5L920.8 202.5L921.6 201.2L925.1 203.2L924.3 204.5ZM913.9 198.5L910.4 196.5L911.2 195.2L914.7 197.2L913.9 198.5ZM903.5 192.5L900 190.5L900.8 189.2L904.3 191.2L903.5 192.5ZM893.1 186.5L889.6 184.5L890.4 183.2L893.9 185.2L893.1 186.5ZM882.8 180.5L879.3 178.5L880.1 177.2L883.6 179.2L882.8 180.5Z" fill="#FAD0C9"/>
<path opacity="0.55" d="M796.1 221.2L792.6 219.2L793.3 217.9L796.8 219.9L796.1 221.2ZM785.7 215.2L782.2 213.2L782.9 211.9L786.4 213.9L785.7 215.2ZM775.3 209.3L771.8 207.3L772.5 206L776 208L775.3 209.3ZM764.9 203.3L761.4 201.3L762.1 200L765.6 202L764.9 203.3ZM754.4 197.3L750.9 195.3L751.6 194L755.1 196L754.4 197.3ZM744 191.3L740.5 189.3L741.2 188L744.7 190L744 191.3ZM733.6 185.4L730.1 183.4L730.8 182.1L734.3 184.1L733.6 185.4Z" fill="#FAD0C9"/>
<path opacity="0.55" d="M567.6 84.1L564.1 82.1L564.8 80.8L568.3 82.8L567.6 84.1ZM557.2 78.1L553.7 76.1L554.4 74.8L557.9 76.8L557.2 78.1ZM546.8 72.1L543.3 70.1L544 68.8L547.5 70.8L546.8 72.1ZM536.4 66.1L532.9 64.1L533.6 62.8L537.1 64.8L536.4 66.1ZM526 60.2L522.5 58.2L523.2 56.9L526.7 58.9L526 60.2ZM515.6 54.2L512.1 52.2L512.8 50.9L516.3 52.9L515.6 54.2ZM505.2 48.2L501.7 46.2L502.4 44.9L505.9 46.9L505.2 48.2ZM494.8 42.2L491.3 40.2L492 38.9L495.5 40.9L494.8 42.2ZM484.4 36.2L480.9 34.2L481.6 32.9L485.1 34.9L484.4 36.2Z" fill="#FAD0C9"/>
<path opacity="0.55" d="M315.3 435.9L311.8 433.9L312.5 432.6L316 434.6L315.3 435.9ZM304.9 429.9L301.4 427.9L302.1 426.6L305.6 428.6L304.9 429.9ZM294.5 423.9L291 421.9L291.7 420.6L295.2 422.6L294.5 423.9ZM284.1 417.9L280.6 415.9L281.3 414.6L284.8 416.6L284.1 417.9ZM273.7 411.9L270.2 409.9L270.9 408.6L274.4 410.6L273.7 411.9ZM263.3 405.9L259.8 403.9L260.5 402.6L264 404.6L263.3 405.9ZM252.9 400L249.4 398L250.1 396.7L253.6 398.7L252.9 400ZM242.5 394L239 392L239.7 390.7L243.2 392.7L242.5 394ZM232.1 388L228.6 386L229.3 384.7L232.8 386.7L232.1 388ZM221.7 382L218.2 380L218.9 378.7L222.4 380.7L221.7 382ZM211.3 376L207.8 374L208.5 372.7L212 374.7L211.3 376Z" fill="#FAD0C9"/>
<path opacity="0.55" d="M132.4 317.7L128.9 315.7L129.6 314.4L133.1 316.4L132.4 317.7ZM122 311.7L118.5 309.7L119.2 308.4L122.7 310.4L122 311.7ZM111.6 305.7L108.1 303.7L108.8 302.4L112.3 304.4L111.6 305.7ZM101.2 299.8L97.6999 297.8L98.3999 296.5L101.9 298.5L101.2 299.8ZM90.7999 293.8L87.2999 291.8L87.9999 290.5L91.4999 292.5L90.7999 293.8ZM80.3999 287.8L76.8999 285.8L77.5999 284.5L81.0999 286.5L80.3999 287.8ZM69.9999 281.8L66.4999 279.8L67.1999 278.5L70.6999 280.5L69.9999 281.8Z" fill="#FAD0C9"/>
<path opacity="0.55" d="M672.5 498.8L669 496.8L669.8 495.5L673.3 497.5L672.5 498.8ZM662.1 492.8L658.6 490.8L659.4 489.5L662.9 491.5L662.1 492.8ZM651.8 486.8L648.3 484.8L649.1 483.5L652.6 485.5L651.8 486.8ZM641.4 480.8L639.1 479.4L639.9 478.1L642.2 479.5L641.4 480.8Z" fill="#FAD0C9"/>
<path opacity="0.55" d="M1019.5 374.5L1018.7 373.2L1022.2 371.2L1023 372.5L1019.5 374.5ZM1029.9 368.5L1029.1 367.2L1032.6 365.2L1033.4 366.5L1029.9 368.5ZM1040.3 362.5L1039.5 361.2L1043 359.2L1043.8 360.5L1040.3 362.5ZM1050.7 356.5L1050 355.2L1052.8 353.6L1053.5 354.9L1050.7 356.5Z" fill="#FAD0C9"/>
<path opacity="0.55" d="M897 633.7L896.2 632.4L899.7 630.4L900.5 631.7L897 633.7ZM907.4 627.7L906.6 626.4L910.1 624.4L910.9 625.7L907.4 627.7ZM917.8 621.7L917 620.4L920.5 618.4L921.3 619.7L917.8 621.7ZM928.2 615.7L927.4 614.4L930.9 612.4L931.7 613.7L928.2 615.7ZM938.6 609.8L937.8 608.5L941.3 606.5L942.1 607.8L938.6 609.8ZM949 603.8L948.2 602.5L951.7 600.5L952.5 601.8L949 603.8ZM959.4 597.8L958.6 596.5L962.1 594.5L962.9 595.8L959.4 597.8ZM969.7 591.8L968.9 590.5L972.4 588.5L973.2 589.8L969.7 591.8ZM980.1 585.8L979.3 584.5L982.8 582.5L983.6 583.8L980.1 585.8ZM990.5 579.8L989.7 578.5L989.8 578.4L990.5 579.8Z" fill="#FAD0C9"/>
<path opacity="0.55" d="M1482.6 327.5L1481.8 326.2L1485.3 324.2L1486.1 325.5L1482.6 327.5ZM1493 321.5L1492.2 320.2L1495.7 318.2L1496.5 319.5L1493 321.5ZM1503.4 315.5L1502.6 314.2L1506.1 312.2L1506.9 313.5L1503.4 315.5ZM1513.8 309.5L1513 308.2L1515.8 306.6L1516.6 307.9L1513.8 309.5Z" fill="#FAD0C9"/>
<path opacity="0.55" d="M1397.4 444.2L1396.6 442.9L1400.1 440.9L1400.9 442.2L1397.4 444.2ZM1407.8 438.2L1407 436.9L1410.5 434.9L1411.3 436.2L1407.8 438.2ZM1418.1 432.2L1417.3 430.9L1420.8 428.9L1421.6 430.2L1418.1 432.2ZM1428.5 426.2L1427.7 424.9L1431.2 422.9L1432 424.2L1428.5 426.2Z" fill="#FAD0C9"/>
<path opacity="0.55" d="M1238.4 545.7L1237.6 544.4L1241.1 542.4L1241.9 543.7L1238.4 545.7ZM1248.8 539.7L1248 538.4L1251.5 536.4L1252.3 537.7L1248.8 539.7ZM1259.2 533.7L1258.4 532.4L1261.9 530.4L1262.7 531.7L1259.2 533.7ZM1269.6 527.7L1268.8 526.4L1272.3 524.4L1273.1 525.7L1269.6 527.7ZM1280 521.7L1279.2 520.4L1282.7 518.4L1283.5 519.7L1280 521.7ZM1290.4 515.6L1289.6 514.3L1293.1 512.3L1293.9 513.6L1290.4 515.6Z" fill="#FAD0C9"/>
<path opacity="0.55" d="M1176.1 582.4L1175.3 581.1L1178.8 579.1L1179.6 580.4L1176.1 582.4ZM1186.5 576.4L1185.7 575.1L1189.2 573.1L1190 574.4L1186.5 576.4Z" fill="#FAD0C9"/>
<path opacity="0.55" d="M773 303.2L772.3 301.9L775.8 299.9L776.5 301.2L773 303.2ZM783.4 297.2L782.7 295.9L786.2 293.9L786.9 295.2L783.4 297.2ZM793.8 291.2L793.1 289.9L796.6 287.9L797.3 289.2L793.8 291.2ZM804.2 285.2L803.5 283.9L806.3 282.3L807.1 283.6L804.2 285.2Z" fill="#FAD0C9"/>
<path opacity="0.55" d="M888.4 147.4L887.7 146.1L891.2 144.1L891.9 145.4L888.4 147.4ZM898.8 141.4L898 140.1L901.5 138.1L902.3 139.4L898.8 141.4ZM909.2 135.4L908.4 134.1L911.9 132.1L912.7 133.4L909.2 135.4ZM919.6 129.4L918.9 128.1L922.4 126.1L923.1 127.4L919.6 129.4ZM930 123.4L929.2 122.1L932.7 120.1L933.5 121.4L930 123.4ZM940.4 117.4L939.6 116.1L943.1 114.1L943.9 115.4L940.4 117.4ZM950.8 111.4L950 110.1L953.5 108.1L954.3 109.4L950.8 111.4ZM961.2 105.4L960.4 104.1L963.9 102.1L964.7 103.4L961.2 105.4ZM971.6 99.4L970.9 98.1L974.4 96.1L975.1 97.4L971.6 99.4ZM982 93.5L981.2 92.2L984.7 90.2L985.5 91.5L982 93.5ZM992.4 87.5L991.6 86.2L995.1 84.2L995.9 85.5L992.4 87.5ZM1002.8 81.5L1002.1 80.2L1005.6 78.2L1006.3 79.5L1002.8 81.5Z" fill="#FAD0C9"/>
<path opacity="0.55" d="M380.3 435L379.6 433.7L383.1 431.7L383.8 433L380.3 435ZM390.7 429L390 427.7L393.5 425.7L394.2 427L390.7 429ZM401.1 423L400.4 421.7L403.9 419.7L404.6 421L401.1 423ZM411.5 417L410.8 415.7L414.3 413.7L415 415L411.5 417ZM421.9 411.1L421.2 409.8L424.7 407.8L425.4 409.1L421.9 411.1Z" fill="#FAD0C9"/>
<path opacity="0.55" d="M151.4 563.6L150.7 562.3L154.2 560.3L154.9 561.6L151.4 563.6ZM161.8 557.6L161.1 556.3L164.6 554.3L165.3 555.6L161.8 557.6ZM172.2 551.6L171.5 550.3L175 548.3L175.7 549.6L172.2 551.6ZM182.6 545.6L181.9 544.3L185.4 542.3L186.1 543.6L182.6 545.6ZM193 539.6L192.3 538.3L195.8 536.3L196.5 537.6L193 539.6ZM203.4 533.6L202.7 532.3L206.2 530.3L206.9 531.6L203.4 533.6ZM213.8 527.6L213.1 526.3L216.6 524.3L217.3 525.6L213.8 527.6ZM224.2 521.6L223.5 520.3L227 518.3L227.7 519.6L224.2 521.6ZM234.6 515.7L233.9 514.4L237.4 512.4L238.1 513.7L234.6 515.7ZM245 509.7L244.3 508.4L247.8 506.4L248.5 507.7L245 509.7ZM255.4 503.7L254.7 502.4L258.2 500.4L258.9 501.7L255.4 503.7ZM265.8 497.7L265.1 496.4L268.6 494.4L269.3 495.7L265.8 497.7ZM276.1 491.7L275.4 490.4L278.9 488.4L279.6 489.7L276.1 491.7ZM286.5 485.7L285.8 484.4L289.3 482.4L290 483.7L286.5 485.7ZM296.9 479.7L296.2 478.4L296.7 478.1L297.4 479.4L296.9 479.7Z" fill="#FAD0C9"/>
<path opacity="0.55" d="M100.8 406.3L99.9999 405L103.5 403L104.2 404.3L100.8 406.3ZM111.2 400.3L110.5 399L114 397L114.7 398.3L111.2 400.3ZM121.5 394.3L120.8 393L124.3 391L125 392.3L121.5 394.3ZM131.9 388.3L131.2 387L134.7 385L135.4 386.3L131.9 388.3ZM142.3 382.3L141.6 381L145.1 379L145.8 380.3L142.3 382.3Z" fill="#FAD0C9"/>
<path opacity="0.55" d="M426.7 567.1L425.9 565.8L429.3 563.8L430.1 565.1L426.7 567.1ZM437 561L436.2 559.7L439.6 557.7L440.4 559L437 561ZM447.3 554.8L446.5 553.5L449.9 551.5L450.7 552.8L447.3 554.8ZM457.6 548.7L456.8 547.4L460.2 545.4L461 546.7L457.6 548.7ZM467.9 542.5L467.1 541.2L470.5 539.2L471.3 540.5L467.9 542.5ZM478.2 536.4L477.4 535.1L480.8 533.1L481.6 534.4L478.2 536.4ZM488.6 530.3L487.8 529L491.2 527L492 528.3L488.6 530.3ZM498.9 524.1L498.1 522.8L501.5 520.8L502.3 522.1L498.9 524.1ZM509.2 518L508.4 516.7L511.8 514.7L512.6 516L509.2 518ZM519.5 511.9L518.7 510.6L522.1 508.6L522.9 509.9L519.5 511.9ZM529.8 505.7L529 504.4L532.4 502.4L533.2 503.7L529.8 505.7ZM540.1 499.6L539.3 498.3L542.7 496.3L543.5 497.6L540.1 499.6ZM550.4 493.5L549.6 492.2L553 490.2L553.8 491.5L550.4 493.5ZM560.7 487.3L560 486L562.2 484.7L563 486L560.7 487.3Z" fill="#FAD0C9"/>
<path opacity="0.55" d="M475.5 472.6L474.8 471.3L478.3 469.3L479 470.6L475.5 472.6ZM485.9 466.6L485.2 465.3L488.7 463.3L489.4 464.6L485.9 466.6ZM496.3 460.6L495.6 459.3L499.1 457.3L499.8 458.6L496.3 460.6ZM506.7 454.6L506 453.3L508.8 451.7L509.5 453L506.7 454.6Z" fill="#FAD0C9"/>
<path opacity="0.55" d="M781.1 82.2L780.4 80.9L783.9 78.9L784.6 80.2L781.1 82.2ZM791.5 76.2L790.8 74.9L794.3 72.9L795 74.2L791.5 76.2ZM801.9 70.2L801.2 68.9L804.7 66.9L805.5 68.2L801.9 70.2ZM812.3 64.2L811.5 62.9L815 60.9L815.8 62.2L812.3 64.2ZM822.7 58.2L821.9 56.9L825.4 54.9L826.2 56.2L822.7 58.2ZM833.1 52.2L832.3 50.9L835.8 48.9L836.6 50.2L833.1 52.2ZM843.4 46.2L842.6 44.9L846.1 42.9L846.9 44.2L843.4 46.2ZM853.8 40.2L853 38.9L856.5 36.9L857.3 38.2L853.8 40.2ZM864.2 34.2L863.4 32.9L866.9 30.9L867.7 32.2L864.2 34.2ZM874.6 28.2L873.8 26.9L877.3 24.9L878.1 26.2L874.6 28.2ZM885 22.2L884.2 20.9L887.7 18.9L888.5 20.2L885 22.2Z" fill="#FAD0C9"/>
<path opacity="0.55" d="M498.5 139L497.8 137.7L501.3 135.7L502 137L498.5 139ZM508.9 133L508.2 131.7L511.7 129.7L512.4 131L508.9 133ZM519.3 127L518.6 125.7L522.1 123.7L522.8 125L519.3 127ZM529.7 121L529 119.7L532.5 117.7L533.2 119L529.7 121ZM540.1 115L539.4 113.7L542.9 111.7L543.6 113L540.1 115ZM550.5 109L549.8 107.7L553.3 105.7L554 107L550.5 109ZM560.8 103L560.1 101.7L563.6 99.7L564.3 101L560.8 103Z" fill="#FAD0C9"/>
<path opacity="0.55" d="M815.7 497.3L814.9 496L818.4 494L819.2 495.3L815.7 497.3ZM826.1 491.3L825.3 490L828.8 488L829.6 489.3L826.1 491.3ZM836.5 485.3L835.7 484L839.2 482L840 483.3L836.5 485.3Z" fill="#FAD0C9"/>
<path opacity="0.55" d="M1274.5 227.3L1273.7 226L1277.2 224L1278 225.3L1274.5 227.3ZM1284.9 221.3L1284.1 220L1287.6 218L1288.4 219.3L1284.9 221.3ZM1295.3 215.3L1294.5 214L1298 212L1298.8 213.3L1295.3 215.3ZM1305.7 209.3L1304.9 208L1307.7 206.4L1308.5 207.7L1305.7 209.3Z" fill="#FAD0C9"/>
<path opacity="0.55" d="M1497.3 104.6L1496.6 103.3L1500.1 101.4L1500.8 102.7L1497.3 104.6ZM1507.9 98.9L1507.2 97.6L1510.7 95.7L1511.4 97L1507.9 98.9ZM1518.4 93.1L1517.7 91.8L1521.2 89.9L1521.9 91.2L1518.4 93.1ZM1529 87.4L1528.3 86.1L1531.8 84.2L1532.5 85.5L1529 87.4ZM1539.5 81.7L1538.8 80.4L1542.3 78.5L1543 79.8L1539.5 81.7ZM1550 75.9L1549.3 74.6L1552.8 72.7L1553.5 74L1550 75.9ZM1560.6 70.2L1559.9 68.9L1563.4 67L1564.1 68.3L1560.6 70.2ZM1571.1 64.4L1570.4 63.1L1573.9 61.2L1574.6 62.5L1571.1 64.4ZM1581.6 58.7L1580.9 57.4L1584.4 55.5L1585.1 56.8L1581.6 58.7ZM1592.2 53L1591.5 51.7L1595 49.8L1595.7 51.1L1592.2 53ZM1602.7 47.2L1602 45.9L1604.6 44.5L1605.3 45.8L1602.7 47.2Z" fill="#FAD0C9"/>
<path opacity="0.55" d="M1560.5 274.9L1559.8 273.6L1563.3 271.7L1564 273L1560.5 274.9ZM1571 269.2L1570.3 267.9L1573.8 266L1574.5 267.3L1571 269.2ZM1581.5 263.5L1580.8 262.2L1584.3 260.3L1585 261.6L1581.5 263.5ZM1592.1 257.7L1591.4 256.4L1594.9 254.5L1595.6 255.8L1592.1 257.7ZM1602.6 252L1601.9 250.7L1604.1 249.5L1604.8 250.8L1602.6 252Z" fill="#FAD0C9"/>
<path opacity="0.55" d="M1383.9 320.4L1380.4 318.4L1381.2 317.1L1384.7 319.1L1383.9 320.4ZM1373.5 314.4L1370 312.4L1370.8 311.1L1374.3 313.1L1373.5 314.4ZM1363.2 308.4L1359.7 306.4L1360.5 305.1L1364 307.1L1363.2 308.4ZM1352.8 302.4L1350.5 301L1351.3 299.7L1353.6 301.1L1352.8 302.4Z" fill="#FAD0C9"/>
<path opacity="0.55" d="M1517.3 283L1513.8 281L1514.6 279.7L1518.1 281.7L1517.3 283ZM1506.9 277L1503.4 275L1504.2 273.7L1507.7 275.7L1506.9 277ZM1496.5 271L1493 269L1493.8 267.7L1497.3 269.7L1496.5 271ZM1486.1 265L1482.6 263L1483.4 261.7L1486.9 263.7L1486.1 265ZM1475.7 258.9L1472.2 256.9L1473 255.6L1476.5 257.6L1475.7 258.9ZM1465.4 252.9L1461.9 250.9L1462.7 249.6L1466.2 251.6L1465.4 252.9ZM1455 246.9L1451.5 244.9L1452.3 243.6L1455.8 245.6L1455 246.9ZM1444.6 240.9L1441.1 238.9L1441.9 237.6L1445.4 239.6L1444.6 240.9ZM1434.2 234.9L1430.7 232.9L1431.5 231.6L1435 233.6L1434.2 234.9ZM1423.8 228.9L1420.3 226.9L1421.1 225.6L1424.6 227.6L1423.8 228.9ZM1413.4 222.9L1409.9 220.9L1410.7 219.6L1414.2 221.6L1413.4 222.9ZM1403.1 216.8L1400.1 215.1L1400.9 213.8L1403.9 215.5L1403.1 216.8Z" fill="#FAD0C9"/>
<path opacity="0.55" fill-rule="evenodd" clip-rule="evenodd" d="M1069.1 72.8C1062.7 76.5 1054.5 78.7 1045.4 79.2H1044.7L1044.9 78.5C1046.3 72.8 1044.7 67.6 1040.2 63.5L1038.9 62.3L1040.7 62.7C1047 64.1 1054.2 63.2 1058.9 60.4C1062 58.6 1063.8 56.2 1063.8 53.7C1063.8 51.2 1062 48.7 1058.9 46.9C1052.2 43 1041.2 43 1034.5 46.9C1032 48.4 1030.3 50.2 1029.8 52.3C1029.4 53.9 1029.7 55.5 1030.6 56.9L1031.4 58.1L1030 57.6C1022.8 55 1013.6 54 1003.4 54.8H1002.8L1002.9 54.2C1003.7 49 1007.7 44 1014.1 40.3C1029.2 31.6 1053.8 31.6 1069 40.4C1076.5 44.7 1080.6 50.5 1080.6 56.6C1080.6 62.8 1076.5 68.5 1069.1 72.8ZM1032.2 53.6C1032.2 51.3 1033.7 49.1 1036.5 47.5C1042 44.3 1051.1 44.3 1056.7 47.5C1059.5 49.1 1061.1 51.3 1061.1 53.6C1061.1 55.9 1059.6 58.1 1056.8 59.7C1054 61.3 1050.4 62.1 1046.8 62.1C1043.1 62.1 1039.5 61.3 1036.7 59.7C1033.8 58.2 1032.2 56 1032.2 53.6ZM1042.2 78.9L1042.1 79.3H1041.5C1031.2 79.3 1021.5 77 1014.2 72.7C1006.7 68.4 1002.6 62.6 1002.6 56.5V56H1003.1C1015.5 55 1026.4 56.7 1033.6 60.9C1041 65.2 1044.1 71.6 1042.2 78.9ZM1083.1 56.8C1083.1 50.4 1078.8 44.5 1071 39.9C1062.8 35.2 1052 32.8 1041.3 32.8C1030.6 32.8 1020 35.1 1011.9 39.8C1004.2 44.3 999.9 50.2 999.9 56.5C999.9 62.9 1004.2 68.8 1012 73.4C1028.3 82.8 1054.8 82.9 1071.1 73.5C1078.9 69 1083.1 63.1 1083.1 56.8Z" fill="#FAD0C9"/>
<path opacity="0.55" fill-rule="evenodd" clip-rule="evenodd" d="M1331.7 48.6L1324.2 52.9L1316 48.2C1311.7 45.7 1304.8 45.7 1300.5 48.2L1282.3 58.7L1273.7 53.7C1276.6 51.6 1276.1 48.5 1272.3 46.8C1268.5 45.1 1263.2 45.5 1260.3 47.6C1257.4 49.7 1257.9 52.8 1261.7 54.5C1264.7 55.8 1268.9 55.9 1272 54.6L1280.7 59.6L1262.5 70.1C1258.2 72.6 1258.1 76.6 1262.5 79.1L1270.7 83.8L1263.5 88L1281.6 98.4L1288.8 94.2L1304.7 103.4L1358.4 72.4L1342.5 63.2L1350 58.9L1331.7 48.6ZM1262.7 53.2C1260.3 51.8 1260.3 49.6 1262.7 48.2C1265.1 46.8 1268.9 46.8 1271.3 48.2C1273.7 49.6 1273.7 51.8 1271.3 53.2C1268.9 54.6 1265.1 54.6 1262.7 53.2ZM1281.4 96.5L1266.8 88.1L1272.3 84.9L1286.9 93.3L1281.4 96.5ZM1317.5 94L1304.6 86.5L1315.9 80L1328.8 87.5L1317.5 94ZM1330.5 86.5L1317.6 79L1328.9 72.5L1341.8 80L1330.5 86.5ZM1354.8 72.5L1343.5 79L1328.9 70.6L1301.2 86.6L1315.8 95L1304.5 101.5L1264.1 78.1C1260.7 76.2 1260.8 73.1 1264.1 71.1L1302.2 49.1C1305.6 47.2 1310.9 47.1 1314.3 49.1L1354.8 72.5ZM1346.4 59L1340.6 62.3L1326 53.9L1331.8 50.6L1346.4 59Z" fill="#FAD0C9"/>
<path opacity="0.55" fill-rule="evenodd" clip-rule="evenodd" d="M1283.3 72.1C1279.9 74 1279.9 77.1 1283.3 79.1C1286.7 81 1292 81 1295.4 79.1C1298.8 77.2 1298.8 74.1 1295.4 72.1C1292 70.1 1286.6 70.1 1283.3 72.1ZM1293.6 78C1291.2 79.4 1287.4 79.4 1285 78C1282.6 76.6 1282.6 74.4 1285 73C1287.4 71.6 1291.2 71.6 1293.6 73C1296 74.4 1296 76.6 1293.6 78Z" fill="#FAD0C9"/>
<path opacity="0.55" fill-rule="evenodd" clip-rule="evenodd" d="M1304.1 60.1C1300.7 62 1300.7 65.1 1304.1 67.1C1307.5 69 1312.8 69 1316.2 67.1C1319.6 65.2 1319.6 62.1 1316.2 60.1C1312.8 58.1 1307.4 58.1 1304.1 60.1ZM1314.4 66C1312 67.4 1308.2 67.4 1305.8 66C1303.4 64.6 1303.4 62.4 1305.8 61C1308.2 59.6 1312 59.6 1314.4 61C1316.8 62.4 1316.8 64.6 1314.4 66Z" fill="#FAD0C9"/>
<path opacity="0.55" fill-rule="evenodd" clip-rule="evenodd" d="M1042.9 537.1L1035.4 541.4L1027.2 536.7C1022.9 534.2 1016 534.2 1011.7 536.7L993.5 547.2L984.9 542.2C987.8 540.1 987.3 537 983.5 535.3C979.7 533.6 974.4 534 971.5 536.1C968.6 538.2 969.1 541.3 972.9 543C975.9 544.3 980.1 544.4 983.2 543.1L991.9 548.1L973.7 558.6C969.4 561.1 969.3 565.1 973.7 567.6L981.9 572.3L974.7 576.5L992.8 586.9L1000 582.7L1015.9 591.9L1069.6 560.9L1053.7 551.7L1061.2 547.4L1042.9 537.1ZM973.9 541.8C971.5 540.4 971.5 538.2 973.9 536.8C976.3 535.4 980.1 535.4 982.5 536.8C984.9 538.2 984.9 540.4 982.5 541.8C980.1 543.1 976.3 543.1 973.9 541.8ZM992.6 585.1L978 576.7L983.5 573.5L998.1 581.9L992.6 585.1ZM1028.7 582.6L1015.8 575.1L1027.1 568.6L1040 576.1L1028.7 582.6ZM1041.7 575.1L1028.8 567.6L1040.1 561.1L1053 568.6L1041.7 575.1ZM1066 561.1L1054.7 567.6L1040.1 559.2L1012.4 575.2L1027 583.6L1015.7 590.1L975.3 566.7C971.9 564.8 972 561.7 975.3 559.7L1013.4 537.7C1016.8 535.8 1022.1 535.7 1025.5 537.7L1066 561.1ZM1057.6 547.6L1051.8 550.9L1037.2 542.5L1043 539.2L1057.6 547.6Z" fill="#FAD0C9"/>
<path opacity="0.55" fill-rule="evenodd" clip-rule="evenodd" d="M994.5 560.7C991.1 562.6 991.1 565.7 994.5 567.7C997.9 569.7 1003.2 569.6 1006.6 567.7C1010 565.7 1010 562.7 1006.6 560.7C1003.2 558.7 997.8 558.7 994.5 560.7ZM1004.8 566.6C1002.4 568 998.6 568 996.2 566.6C993.8 565.2 993.8 563 996.2 561.6C998.6 560.2 1002.4 560.2 1004.8 561.6C1007.2 563 1007.2 565.2 1004.8 566.6Z" fill="#FAD0C9"/>
<path opacity="0.55" fill-rule="evenodd" clip-rule="evenodd" d="M1015.3 548.7C1011.9 550.6 1011.9 553.7 1015.3 555.7C1018.7 557.6 1024 557.6 1027.4 555.7C1030.8 553.7 1030.8 550.7 1027.4 548.7C1024 546.7 1018.6 546.7 1015.3 548.7ZM1025.6 554.6C1023.2 556 1019.4 556 1017 554.6C1014.6 553.2 1014.6 551 1017 549.6C1019.4 548.2 1023.2 548.2 1025.6 549.6C1028 551 1028 553.2 1025.6 554.6Z" fill="#FAD0C9"/>
<path opacity="0.55" fill-rule="evenodd" clip-rule="evenodd" d="M346.5 479.1C335.1 485.7 315.1 484.8 301.9 477.2C288.7 469.6 287.2 458 298.6 451.4L328.8 434C340.2 427.4 360.2 428.3 373.4 435.9C386.6 443.5 388.1 455.1 376.7 461.7L346.5 479.1ZM375.2 434.9C360.6 426.5 338.6 425.4 326.2 432.6L296 450C283.6 457.2 285.4 469.8 300 478.3C314.6 486.7 336.6 487.8 349 480.6L379.2 463.2C391.7 456 389.9 443.3 375.2 434.9Z" fill="#FAD0C9"/>
<path opacity="0.55" fill-rule="evenodd" clip-rule="evenodd" d="M361.2 443C360.5 442.6 359.5 442.5 359 442.8L350.4 447.8C349.9 448.1 350.1 448.7 350.8 449C351.5 449.4 352.5 449.5 353 449.2L361.6 444.2C362.1 443.9 361.9 443.4 361.2 443Z" fill="#FAD0C9"/>
<path opacity="0.55" fill-rule="evenodd" clip-rule="evenodd" d="M463.3 499.2C453 505.2 436.2 505.2 425.9 499.3C415.6 493.4 415.7 483.7 426 477.7C436.3 471.7 453.1 471.7 463.4 477.6C473.7 483.5 473.6 493.2 463.3 499.2ZM465 476.6C453.8 470.1 435.6 470.2 424.3 476.7C413 483.2 413 493.7 424.2 500.2C435.4 506.7 453.6 506.6 464.9 500.1C476.2 493.6 476.2 483.1 465 476.6Z" fill="#FAD0C9"/>
<path opacity="0.55" fill-rule="evenodd" clip-rule="evenodd" d="M469.8 502.9C455.9 511 433.2 511 419.4 503C405.5 495 405.6 481.9 419.6 473.9C433.5 465.8 456.2 465.8 470 473.8C483.8 481.8 483.7 494.8 469.8 502.9ZM471.6 472.8C456.8 464.3 432.7 464.3 417.9 472.9C403 481.5 403 495.4 417.7 503.9C432.5 512.4 456.6 512.4 471.4 503.8C486.3 495.3 486.3 481.4 471.6 472.8Z" fill="#FAD0C9"/>
<path opacity="0.55" fill-rule="evenodd" clip-rule="evenodd" d="M133 589.3L103.6 588L103.8 586.3L129.7 587.4L121.5 541.9L124.5 541.7L133 589.3Z" fill="#FAD0C9"/>
<path opacity="0.55" fill-rule="evenodd" clip-rule="evenodd" d="M180.2 583.4L122.6 616.6L65.4999 583.6L104.9 560.8L107 562.1L69.6999 583.6L122.6 614.1L176 583.4L145.2 565.7L147.4 564.4L180.2 583.4Z" fill="#FAD0C9"/>
<path opacity="0.55" fill-rule="evenodd" clip-rule="evenodd" d="M1233.4 588.3C1237.6 590.8 1243.4 592.1 1249.4 592.1C1255.4 592.1 1261.1 590.7 1265.3 588.3C1269.5 585.9 1271.9 582.6 1271.9 579.1C1271.9 575.6 1269.5 572.3 1265.2 569.9C1260.9 567.5 1255.2 566.1 1249.2 566.1C1243.2 566.1 1237.5 567.5 1233.3 569.9C1229.1 572.3 1226.8 575.7 1226.8 579.1C1226.8 582.5 1229.1 585.8 1233.4 588.3ZM1263.1 571.1C1268.7 574.3 1270.4 579.2 1267.4 583.4C1264.4 587.6 1257.3 590.4 1249.4 590.3C1241.5 590.3 1234.3 587.5 1231.3 583.3C1228.3 579.1 1229.9 574.2 1235.5 571C1243 566.7 1255.4 566.7 1263.1 571.1Z" fill="#FAD0C9"/>
<path opacity="0.55" fill-rule="evenodd" clip-rule="evenodd" d="M1174.7 561.8L1228.1 592.6C1236.1 597.2 1247.8 599 1258.6 597.4C1269.5 595.7 1278 590.8 1280.9 584.5C1283.8 578.2 1280.6 571.5 1272.6 566.9L1219.2 536.1C1211.2 531.5 1199.5 529.7 1188.7 531.3C1177.8 533 1169.3 537.9 1166.4 544.2C1163.5 550.4 1166.7 557.1 1174.7 561.8ZM1217.1 537.3L1270.5 568.1C1277.7 572.3 1280.6 578.4 1278 584.1C1275.4 589.8 1267.7 594.2 1257.8 595.7C1247.9 597.2 1237.4 595.6 1230.2 591.4L1176.8 560.6C1169.6 556.4 1166.7 550.3 1169.3 544.6C1171.9 538.9 1179.6 534.5 1189.5 533C1199.3 531.4 1209.9 533.1 1217.1 537.3Z" fill="#FAD0C9"/>
<path opacity="0.55" fill-rule="evenodd" clip-rule="evenodd" d="M1126.9 598.9C1131.1 601.4 1136.9 602.7 1142.9 602.7C1148.9 602.7 1154.6 601.3 1158.8 598.9C1163 596.5 1165.4 593.2 1165.4 589.7C1165.4 586.2 1163 582.9 1158.7 580.5C1154.4 578.1 1148.7 576.7 1142.7 576.7C1136.7 576.7 1131 578.1 1126.8 580.5C1122.6 582.9 1120.3 586.3 1120.3 589.7C1120.3 593.1 1122.7 596.4 1126.9 598.9ZM1156.6 581.7C1162.2 584.9 1163.9 589.8 1160.9 594C1157.9 598.2 1150.8 601 1142.9 600.9C1135 600.9 1127.8 598.1 1124.8 593.9C1121.8 589.7 1123.4 584.8 1129 581.6C1136.6 577.3 1148.9 577.3 1156.6 581.7Z" fill="#FAD0C9"/>
<path opacity="0.55" fill-rule="evenodd" clip-rule="evenodd" d="M1119.4 601.9L1172.8 632.7C1180.8 637.3 1192.5 639.1 1203.3 637.5C1214.2 635.8 1222.7 630.9 1225.6 624.6C1228.5 618.3 1225.3 611.6 1217.3 607L1163.9 576.2C1155.9 571.6 1144.2 569.8 1133.3 571.4C1122.4 573.1 1113.9 578 1111 584.3C1108.2 590.6 1111.4 597.3 1119.4 601.9ZM1161.8 577.4L1215.2 608.2C1222.4 612.4 1225.3 618.5 1222.7 624.2C1220.1 629.9 1212.4 634.3 1202.5 635.8C1192.6 637.3 1182.1 635.7 1174.9 631.5L1121.5 600.7C1114.3 596.5 1111.4 590.4 1114 584.7C1116.6 579 1124.3 574.6 1134.2 573.1C1144 571.6 1154.6 573.2 1161.8 577.4Z" fill="#FAD0C9"/>
<path opacity="0.55" fill-rule="evenodd" clip-rule="evenodd" d="M133.4 327.8L134.9 328.6L170.5 308L238.2 347.2L170.9 386.1L135.1 365.4L133.6 366.3L170.9 387.8L241.4 347.2L170.5 306.2L133.4 327.8Z" fill="#FAD0C9"/>
<path opacity="0.55" fill-rule="evenodd" clip-rule="evenodd" d="M158.4 347L157.9 346.7L157.4 346.4L137.3 334.8L135.7 335.7L154.3 346.4H152.7L102.2 346.3V347.6H154.3L135.8 358.3L137.4 359.2L157.4 347.6L158.4 347Z" fill="#FAD0C9"/>
<path opacity="0.55" fill-rule="evenodd" clip-rule="evenodd" d="M923.8 559.4C928 561.8 927.9 565.7 923.8 568.1L793 643.6C788.8 646 782 646 777.9 643.6L607.7 545.3C603.5 542.9 603.6 539 607.7 536.6L738.5 461.1C742.7 458.7 749.5 458.7 753.6 461.1L923.8 559.4ZM755.2 460.1C750.1 457.2 741.8 457.2 736.7 460.1L605.9 535.6C600.6 538.7 600.6 543.3 605.8 546.3L776.2 644.7C781.4 647.7 789.2 647.6 794.5 644.6L925.3 569.1C930.5 566.1 930.5 561.4 925.4 558.4L755.2 460.1Z" fill="#FAD0C9"/>
<path opacity="0.55" fill-rule="evenodd" clip-rule="evenodd" d="M899.4 558.9L777 629.6C775.8 630.3 774.2 630.3 773 629.6L631.8 548.1C630.6 547.4 630.6 546.5 631.8 545.8L754.2 475.1C755.4 474.4 757 474.4 758.2 475.1L899.4 556.6C900.7 557.3 900.7 558.2 899.4 558.9ZM901.3 555.7L759.9 474.1C757.8 473.1 754.6 473.1 752.7 474.2L630.3 544.9C628.2 546.1 628.2 548 630.3 549.2L771.5 630.7C773.5 631.9 776.9 631.9 778.9 630.7L901.3 560C903.4 558.8 903.4 556.9 901.3 555.7Z" fill="#FAD0C9"/>
<path opacity="0.55" fill-rule="evenodd" clip-rule="evenodd" d="M684.5 505.5C685.4 505 685.7 504.2 684.5 503.5C684 503.2 683.3 503 682.7 503.1C682.1 503.1 681.5 503.3 681.1 503.5C680.2 504 679.9 504.8 681.1 505.5C682.2 506.2 683.6 506 684.5 505.5Z" fill="#FAD0C9"/>
<path opacity="0.55" fill-rule="evenodd" clip-rule="evenodd" d="M852.2 598.9C850.2 597.7 847.8 598.1 846.3 598.9C844.9 599.7 844.3 601.1 846.3 602.3C848.3 603.5 850.7 603.1 852.2 602.3C853.6 601.5 854.2 600.1 852.2 598.9Z" fill="#FAD0C9"/>
<path opacity="0.55" d="M391.8 639.8C390.2 639.8 388.6 639.4 387.3 638.7L306.6 592.1C305.2 591.3 304.5 590.2 304.5 588.9C304.5 587.6 305.3 586.6 306.6 585.7L369.7 549.3C372.2 547.8 376.2 547.8 378.7 549.3L459.4 595.9C460.8 596.7 461.6 597.8 461.5 599.1C461.5 600.3 460.7 601.4 459.4 602.3L396.3 638.7C395 639.5 393.4 639.8 391.8 639.8ZM374.2 550.3C372.9 550.3 371.7 550.6 370.7 551.1L307.6 587.5C306.9 587.9 306.5 588.5 306.5 588.9C306.5 589.3 306.9 589.9 307.7 590.3L388.4 636.9C390.3 638 393.5 638 395.4 636.9L458.5 600.5C459.2 600.1 459.6 599.5 459.6 599.1C459.6 598.6 459.2 598.1 458.4 597.7L377.7 551.1C376.7 550.6 375.5 550.3 374.2 550.3Z" fill="#FAD0C9"/>
<path opacity="0.55" d="M418.701 591.18L419.703 589.449L440.132 601.265L439.13 602.997L418.701 591.18Z" fill="#FAD0C9"/>
<path opacity="0.55" d="M391.403 575.423L392.405 573.692L415.166 586.869L414.164 588.6L391.403 575.423Z" fill="#FAD0C9"/>
<path opacity="0.55" d="M368.355 562.035L369.356 560.303L388.061 571.105L387.06 572.837L368.355 562.035Z" fill="#FAD0C9"/>
<path opacity="0.55" d="M389.261 562.082L400.171 555.779L401.171 557.511L390.262 563.814L389.261 562.082Z" fill="#FAD0C9"/>
<path opacity="0.55" d="M410.561 574.382L421.471 568.079L422.471 569.811L411.562 576.114L410.561 574.382Z" fill="#FAD0C9"/>
<path opacity="0.55" d="M433.161 587.382L444.071 581.079L445.072 582.811L434.162 589.114L433.161 587.382Z" fill="#FAD0C9"/>
<path opacity="0.55" d="M374.9 588.9L365.4 583.5L374.8 578L384.3 583.4L374.9 588.9ZM369.4 583.4L374.9 586.6L380.3 583.5L374.8 580.3L369.4 583.4Z" fill="#FAD0C9"/>
<path opacity="0.55" d="M388.2 596.6L378.7 591.2L388.1 585.7L397.6 591.1L388.2 596.6ZM382.7 591.1L388.2 594.3L393.6 591.2L388.1 588L382.7 591.1Z" fill="#FAD0C9"/>
<path opacity="0.55" d="M401.5 604.3L392 598.9L401.4 593.4L410.9 598.8L401.5 604.3ZM396 598.8L401.5 602L406.9 598.9L401.4 595.7L396 598.8Z" fill="#FAD0C9"/>
<path opacity="0.55" d="M414.8 612L405.3 606.4L414.7 601.1L424.2 606.5L414.8 612ZM409.3 606.5L414.8 609.7L420.2 606.6L414.7 603.4L409.3 606.5Z" fill="#FAD0C9"/>
<path opacity="0.55" d="M348.4 588.9L338.9 583.5L348.3 578L357.8 583.4L348.4 588.9ZM342.9 583.4L348.4 586.6L353.8 583.5L348.3 580.3L342.9 583.4Z" fill="#FAD0C9"/>
<path opacity="0.55" d="M361.7 596.6L352.2 591L361.6 585.5L371.1 591.1L361.7 596.6ZM356.2 591.1L361.7 594.3L367.1 591.2L361.6 588L356.2 591.1Z" fill="#FAD0C9"/>
<path opacity="0.55" d="M375 604.2L365.5 598.8L374.9 593.3L384.4 598.7L375 604.2ZM369.5 598.7L375 601.9L380.4 598.8L374.9 595.6L369.5 598.7Z" fill="#FAD0C9"/>
<path opacity="0.55" d="M388.3 611.9L378.8 606.5L388.2 601L397.7 606.4L388.3 611.9ZM382.8 606.4L388.3 609.6L393.7 606.5L388.2 603.3L382.8 606.4Z" fill="#FAD0C9"/>
<path opacity="0.55" d="M401.6 619.6L392.1 614.2L401.5 608.7L411 614.1L401.6 619.6ZM396.1 614.1L401.6 617.3L407 614.2L401.5 611L396.1 614.1Z" fill="#FAD0C9"/>
<path opacity="0.55" d="M335.1 596.5L325.7 591L335.1 585.5L344.6 591L335.1 596.5ZM329.7 591L335.1 594.1L340.6 591L335.1 587.9L329.7 591Z" fill="#FAD0C9"/>
<path opacity="0.55" d="M348.4 604.2L339 598.7L348.4 593.2L357.9 598.7L348.4 604.2ZM343 598.7L348.4 601.8L353.9 598.7L348.4 595.6L343 598.7Z" fill="#FAD0C9"/>
<path opacity="0.55" d="M361.7 611.9L352.3 606.4L361.7 600.9L371.2 606.4L361.7 611.9ZM356.3 606.4L361.7 609.5L367.2 606.4L361.7 603.3L356.3 606.4Z" fill="#FAD0C9"/>
<path opacity="0.55" d="M375 619.6L365.6 614L375 608.6L384.5 614.2L375 619.6ZM369.6 614.1L375 617.3L380.5 614.1L375 610.9L369.6 614.1Z" fill="#FAD0C9"/>
<path opacity="0.55" fill-rule="evenodd" clip-rule="evenodd" d="M768.4 105.1L743.3 90.6L768.3 76.2L793.4 90.7L768.4 105.1ZM745.6 118.2L720.5 132.8L695.4 118.3L720.5 103.8L745.6 118.2ZM751.7 138.5L740.4 145C740.3 145.1 740.3 145.1 740.2 145.1C740.2 145.1 740.2 145.2 740.4 145.2L753.3 152.6L732.4 164.6L720 157.5C719.8 157.4 719.5 157.3 719.2 157.3C718.9 157.3 718.7 157.4 718.5 157.5L718.4 157.6L706.1 164.7L686.5 153.4L699.2 146C699.3 145.9 699.3 145.9 699.4 145.9C699.4 145.9 699.4 145.8 699.2 145.8L686.3 138.4L707.3 126.3L719.7 133.4C720.1 133.6 720.8 133.6 721.2 133.4L732 127.2L751.7 138.5ZM767.2 130.7L792.4 145.2L767.3 159.8L742.1 145.3L767.2 130.7ZM744.4 173L719.6 187.3L694.4 172.8L719.4 158.4L744.4 173ZM672.8 160.3L647.7 145.8L672.7 131.4L697.8 145.9L672.8 160.3ZM639.9 126.5L652.6 119.1C652.7 119 652.8 119 652.8 118.9L652.7 118.8L639.8 111.3L660.8 99.2L673.2 106.3C673.6 106.5 674.3 106.5 674.7 106.3L685.5 100.1L705.1 111.4L693.8 117.9C693.7 118 693.7 118 693.6 118C693.6 118 693.6 118.1 693.8 118.1L706.6 125.5L685.7 137.5L673.4 130.4C673.2 130.3 672.9 130.2 672.6 130.2C672.3 130.2 672.1 130.3 671.9 130.4L671.8 130.5L659.5 137.6L639.9 126.5ZM625.9 133.4L600.8 118.8L625.9 104.3L651.1 118.8L625.9 133.4ZM593.2 99.5L605.9 92.1C606 92 606 92 606.1 92C606.1 92 606.1 91.9 605.9 91.9L593 84.4L614 72.3L626.4 79.4C626.8 79.6 627.5 79.6 627.9 79.4L638.7 73.2L658.3 84.5L647 91C646.9 91.1 646.9 91.1 646.8 91.1C646.8 91.1 646.8 91.2 647 91.2L659.9 98.6L639 110.8L626.6 103.7C626.4 103.6 626.1 103.5 625.8 103.5C625.5 103.5 625.3 103.6 625.1 103.7L625 103.8L612.7 110.9L593.2 99.5ZM579.3 106.3L554.2 91.8L579.2 77.4L604.4 91.9L579.3 106.3ZM602 64.2L627 49.8L652.2 64.3L627 78.8L602 64.2ZM673.7 76.7L698.9 91.2L673.8 105.8L648.6 91.3L673.7 76.7ZM696.7 200.5L671.7 214.9L646.5 200.4L671.7 185.9L696.7 200.5ZM603.1 146.5L578.1 160.9L552.9 146.4L578.1 131.9L603.1 146.5ZM649.8 36.6L674.8 22.1L700 36.7L675 51.2L649.8 36.6ZM795 90.6L768.8 75.5C768.4 75.3 767.7 75.3 767.3 75.5L741.5 90.4C741.4 90.5 741.4 90.5 741.3 90.5C741.3 90.5 741.3 90.6 741.5 90.6L754.3 98L733.4 110L721.1 102.9C720.7 102.7 720 102.7 719.6 102.9L705.8 110.8L686.2 99.5L700.5 91.3C700.6 91.2 700.7 91.2 700.7 91.2C700.7 91.2 700.7 91.1 700.5 91.1L674.3 76C673.9 75.8 673.2 75.8 672.8 76L659 83.9L639.4 72.6L653.7 64.4C653.8 64.3 653.9 64.3 653.9 64.3C653.9 64.3 653.9 64.2 653.7 64.2L641 56.7L661.9 44.7L674.3 51.8C674.7 52 675.4 52 675.8 51.8L701.7 36.8V36.7C701.7 36.7 701.7 36.6 701.5 36.6L675.3 21.5C674.9 21.3 674.2 21.3 673.8 21.5L648 36.5C647.9 36.6 647.9 36.6 647.8 36.6C647.8 36.6 647.8 36.7 648 36.7L660.8 44.1L639.9 56.1L627.6 49C627.2 48.8 626.5 48.8 626.1 49L600.1 64C600 64.1 599.9 64.1 599.9 64.1C599.9 64.1 599.9 64.2 600.1 64.2L612.9 71.6L592 83.6L579.7 76.5C579.3 76.3 578.6 76.3 578.2 76.5L552.3 91.5C552.2 91.6 552.2 91.6 552.1 91.6C552.1 91.6 552.1 91.7 552.3 91.7L578.5 106.8C578.9 107 579.6 107 580 106.8L592.2 99.7L611.8 111L599.1 118.4C599 118.5 599 118.5 598.9 118.5C598.9 118.5 598.9 118.6 599.1 118.6L612 126L591.1 138L578.7 130.9C578.3 130.7 577.6 130.7 577.2 130.9L551.1 146C551 146.1 550.9 146.1 550.9 146.1C550.9 146.1 550.9 146.2 551.1 146.2L577.3 161.3C577.7 161.5 578.4 161.5 578.8 161.3L604.9 146.2C605 146.1 605 146.1 605.1 146.1C605.1 146.1 605.1 146 604.9 146L592 138.6L612.9 126.6L625.3 133.7C625.5 133.8 625.8 133.9 626.1 133.9C626.3 133.9 626.6 133.8 626.8 133.7L639.1 126.6L658.7 137.9L646 145.3C645.9 145.4 645.8 145.4 645.8 145.4L645.9 145.5L672.1 160.6C672.5 160.8 673.2 160.8 673.6 160.6L685.8 153.5L705.4 164.8L692.7 172.2C692.6 172.3 692.6 172.3 692.5 172.3C692.5 172.3 692.5 172.4 692.7 172.4L705.6 179.8L684.7 191.8L672.3 184.7C672.1 184.6 671.8 184.5 671.5 184.5C671.2 184.5 671 184.6 670.8 184.7L644.7 199.8C644.6 199.9 644.6 199.9 644.5 199.9C644.5 199.9 644.5 200 644.7 200L670.8 215.1C671.2 215.3 671.9 215.3 672.3 215.1L698.4 200C698.5 199.9 698.5 199.9 698.6 199.9C698.6 199.9 698.6 199.8 698.4 199.8L685.6 192.4L706.5 180.4L718.8 187.5C719.2 187.7 719.9 187.7 720.3 187.5L746.1 172.6C746.2 172.5 746.2 172.5 746.3 172.5C746.3 172.5 746.3 172.4 746.1 172.4L733.3 165L754.3 152.9L766.6 160C767 160.2 767.7 160.2 768.1 160L794.1 145C794.2 144.9 794.3 144.9 794.3 144.9C794.3 144.9 794.3 144.8 794.1 144.8L768 130C767.6 129.8 766.9 129.8 766.5 130L752.7 137.9L733.1 126.6L747.4 118.4C747.5 118.3 747.6 118.3 747.6 118.3C747.6 118.3 747.6 118.2 747.4 118.2L734.5 110.8L755.4 98.8L767.8 105.9C768.2 106.1 768.9 106.1 769.3 105.9L795.2 90.9V90.8L795 90.6Z" fill="#FAD0C9"/>
<path opacity="0.55" fill-rule="evenodd" clip-rule="evenodd" d="M31.7999 265.8L23.9999 270.3L31.5999 274.7L39.2999 270.3L31.7999 265.8ZM36.8999 270.2L31.7999 273.2L26.6999 270.3L31.7999 267.3L36.8999 270.2Z" fill="#FAD0C9"/>
<path opacity="0.55" fill-rule="evenodd" clip-rule="evenodd" d="M70.2 267.2L75.3 270.1L68.9 273.8L76.5 278.2L84.2 273.8L77.8 270.1L84.2 266.4L71.5 259.1L76.6 256.2L89.3 263.6L97 259.2L76.6 247.3L70.3 250.9L63.9 247.2L57.5 250.9L51.0999 247.2L44.7 250.9L39.5999 248L46 244.3L38.4 239.9L30.7 244.3L37.0999 248L30.7 251.7L37.0999 255.4L25.6 262L19.2 258.3L12.8 262L6.39995 258.3L-1.30005 262.7L6.29995 267.1L12.7 263.4L17.7999 266.3L11.4 270L17.7999 273.7L11.4 277.4L17.7999 281.1L11.4 284.8L31.7999 296.6L39.5 292.2L26.7 284.8L31.7999 281.8L44.5 289.2L50.9 285.5L57.2999 289.2L65 284.8L57.2999 280.3L50.9 284L45.7999 281.1L70.2 267.2ZM81.6 273.8L76.5 276.8L71.4 273.9L76.5 270.9L81.6 273.8ZM33.2999 244.4L38.4 241.4L43.5 244.3L38.4 247.3L33.2999 244.4ZM6.29995 265.8L1.19995 262.9L6.29995 259.9L11.4 262.8L6.29995 265.8ZM57.4 282L62.5 284.9L57.4 287.9L52.2999 285L57.4 282ZM44.5999 287.9L31.9 280.5L24.1 285L36.7999 292.4L31.7 295.4L13.9 285.1L20.2999 281.4L13.9 277.7L20.2999 274L13.9 270.3L20.2999 266.6L13.9 262.9L19 259.9L25.4 263.6L39.5 255.4L33.0999 251.7L38.2 248.7L44.5999 252.4L51 248.7L57.4 252.4L63.7999 248.7L70.2 252.4L76.6 248.7L94.4 259L89.3 262L76.6 254.6L68.8 259.1L81.5 266.5L76.4 269.5L70 265.8L43.2 281.3L49.5999 285L44.5999 287.9Z" fill="#FAD0C9"/>
<path opacity="0.55" fill-rule="evenodd" clip-rule="evenodd" d="M50.9999 254.7L43.2999 259.1L50.8999 263.5L58.5999 259.1L50.9999 254.7ZM56.1999 259.1L51.0999 262.1L45.9999 259.2L51.0999 256.2L56.1999 259.1Z" fill="#FAD0C9"/>
<path opacity="0.55" d="M496.3 141.5C496.4 141.2 496.3 140.9 496.2 140.6C495.9 140 494.9 139.6 493.6 139.5L467.4 138.3L461.9 135.1C459.3 133.6 455.3 133.6 452.8 135.1L441.1 141.9C440 142.5 439.4 143.4 439.4 144.4C439.4 145.4 440 146.3 441.2 147L446.8 150.2V150.3L448.9 165.4C449 165.8 449.3 166.1 449.7 166.4C450 166.6 450.4 166.7 450.8 166.8C452 167 453.2 166.9 454 166.4L495.5 142.4C496 142.1 496.3 141.8 496.3 141.5ZM493.7 141.3L452.1 165.4H451.8V165.3L449.7 149.9C449.7 149.8 449.5 149.6 449.3 149.4L443.4 146C442.7 145.6 442.3 145 442.3 144.4C442.3 143.8 442.7 143.3 443.4 142.8L455 136C456.4 135.2 458.7 135.2 460.1 136L466 139.4C466.2 139.5 466.4 139.6 466.6 139.6C466.7 139.6 466.8 139.6 466.9 139.7L493.5 140.9C493.7 140.9 493.7 141 493.7 141.1V141.3Z" fill="#FAD0C9"/>
<path opacity="0.55" d="M469.9 161.9C469.5 161.9 469.1 162 468.8 162.1C468.5 162.3 468.3 162.5 468.3 162.6C468.2 162.8 468.3 162.9 468.6 163.1C468.9 163.3 469.2 163.4 469.6 163.4C475.4 163.8 481.4 162.6 485.4 160.3C489.5 157.9 491.4 154.5 490.6 151.2C490.6 151 490.4 150.9 490.2 150.7C489.9 150.5 489.5 150.5 489.1 150.5C488.8 150.6 488.4 150.7 488.2 150.9C488 151.1 488 151.3 488 151.5C488.7 154.4 487 157.3 483.5 159.4C479.8 161.4 474.7 162.4 469.9 161.9Z" fill="#FAD0C9"/>
<path opacity="0.55" d="M502.1 149C501.9 148.6 501.2 148.3 500.4 148.4C500 148.5 499.6 148.6 499.5 148.8C499.3 149 499.3 149.2 499.3 149.4C501.4 154.9 498.6 160.5 491.8 164.5C485.1 168.4 475.4 170 465.9 168.8H465.6C465.3 168.8 465.1 168.9 464.8 168.9C464.5 169 464.3 169.1 464.2 169.4C464.1 169.5 464.2 169.8 464.5 169.9C464.8 170.1 465.1 170.2 465.5 170.2C475.9 171.5 486.5 169.7 494 165.4C501.4 161.1 504.5 154.9 502.1 149Z" fill="#FAD0C9"/>
<path opacity="0.55" d="M1002.1 128.5V324.8L1223.1 197.2V0.899994L1002.1 128.5ZM1135.9 127L1130.2 137.2C1129.8 137.1 1129.4 137.2 1128.9 137.5L1127.5 126.3L1135.9 127ZM1134.2 169.5L1124 184.4L1118.2 170.3C1119 169.4 1119.7 168.4 1120.3 167.3L1133.9 167.2C1133.8 167.5 1133.8 167.8 1133.8 168.1C1133.8 168.7 1133.9 169.2 1134.2 169.5ZM1120.9 166.3C1121.8 164.4 1122.4 162.4 1122.4 160.6V160L1131.7 151.8L1135.4 164.8C1135 165.2 1134.7 165.7 1134.4 166.3H1120.9ZM1120.4 156.2L1127.4 143.6C1127.8 143.7 1128.3 143.6 1128.8 143.3C1128.9 143.2 1129 143.2 1129.1 143.1L1131.3 151L1122.1 159.1C1121.9 157.8 1121.3 156.8 1120.4 156.2ZM1132.4 151.1L1137.5 146.5C1137.8 147 1138.3 147.3 1138.9 147.2L1136.4 163.8H1136.3C1136.2 163.9 1136.1 163.9 1136 164L1132.4 151.1ZM1137.3 145.5V145.8L1132.2 150.4L1130 142.5C1130.2 142.2 1130.4 142 1130.6 141.7L1137.7 144C1137.4 144.4 1137.3 145 1137.3 145.5ZM1115.7 125.3L1126.6 126.2L1128.1 138C1127.5 138.6 1127 139.3 1126.7 140.1L1115.7 141.6V125.3ZM1115.7 142.7L1126.4 141.2V141.7L1115.8 149.5L1115.7 142.7ZM1115.7 150.6L1126.4 142.7C1126.5 143 1126.6 143.2 1126.8 143.4L1119.8 156C1118.7 155.6 1117.3 155.7 1115.7 156.5V150.6ZM1115.7 172.4C1116.3 172 1116.9 171.6 1117.4 171.1L1123.3 185.4L1117 194.6C1116.6 194.4 1116.2 194.4 1115.7 194.6V172.4ZM1109.6 132.4L1106.8 140.4C1106.6 140.5 1106.3 140.5 1106.1 140.7C1106.1 140.7 1106 140.7 1106 140.8L1104.9 138.2L1109.6 132.4ZM1108.7 171.2L1101.3 177.7L1094.2 168C1094.3 167.9 1094.4 167.7 1094.4 167.6L1108.4 167.5C1108.3 167.9 1108.3 168.3 1108.3 168.7C1108.3 169.6 1108.4 170.5 1108.7 171.2ZM1100.5 178.4L1092.2 185.8C1091.9 185.2 1091.3 185 1090.6 185.1L1092.2 169.8C1092.3 169.8 1092.3 169.8 1092.4 169.7C1092.8 169.5 1093.1 169.2 1093.5 168.8L1100.5 178.4ZM1092.5 186.9V186.6L1101 179L1104.4 183.6L1100 191.4L1092.1 188.5C1092.3 188 1092.5 187.4 1092.5 186.9ZM1104.8 184.2L1113.7 196.4V196.5L1100.6 191.7L1104.8 184.2ZM1101.8 178.3L1109.1 171.9C1109.4 172.4 1109.8 172.9 1110.3 173.2L1105 182.7L1101.8 178.3ZM1108.5 166.4L1094.8 166.5C1094.8 166.3 1094.9 166.1 1094.9 166L1110.5 154.4L1112.4 159C1110.5 161 1109.1 163.8 1108.5 166.4ZM1094.9 165C1094.8 164.5 1094.7 164.2 1094.4 164L1104.6 146.7C1105 146.8 1105.5 146.7 1106 146.4C1106.3 146.2 1106.6 146 1106.9 145.7L1110.2 153.7L1094.9 165ZM1104.2 139L1105.2 141.3C1104.7 141.8 1104.2 142.5 1103.9 143.3L1100.3 143.8L1104.2 139ZM1085.6 162.1L1099.4 144.9L1103.6 144.3C1103.6 144.5 1103.5 144.7 1103.5 144.9C1103.5 145.5 1103.7 146 1104 146.3L1093.8 163.6C1093.4 163.5 1092.9 163.6 1092.4 163.9C1091.5 164.4 1090.7 165.4 1090.3 166.4H1085.6V162.1ZM1085.6 167.6H1090C1089.9 167.9 1089.9 168.1 1089.9 168.4C1089.9 168.9 1090 169.4 1090.3 169.7L1085.6 177.6V167.6ZM1085.6 187.8V178.9L1090.8 170.1C1091 170.2 1091.2 170.2 1091.5 170.2L1089.9 185.6C1088.5 186.4 1087.5 188.3 1087.5 189.9V190.2L1085.7 191.8L1085.6 187.8ZM1085.6 201.4V192.6L1087.6 190.8C1088 191.6 1088.9 191.8 1089.9 191.2C1090.5 190.8 1091.1 190.2 1091.5 189.5L1099.3 192.4L1093.9 202.1L1085.6 201.4ZM1114.9 203.9L1094.7 202.2L1100 192.6L1113.1 197.4C1112.9 198 1112.8 198.5 1112.8 199C1112.8 200.4 1113.7 201.1 1114.9 200.6V203.9ZM1114.9 195.1C1114.7 195.2 1114.6 195.4 1114.4 195.5L1105.3 183.1L1110.7 173.3C1111.8 173.7 1113.2 173.6 1114.8 172.8L1114.9 195.1ZM1114.9 156.8C1114.3 157.2 1113.7 157.6 1113.2 158.1L1111.4 153.7L1114.9 151.1V156.8ZM1114.9 150.2L1111.1 153L1107.7 144.8C1107.9 144.5 1108.1 144.1 1108.3 143.7L1114.9 142.8V150.2ZM1114.9 141.8L1108.6 142.7C1108.6 142.5 1108.7 142.3 1108.7 142.1C1108.7 141.1 1108.3 140.5 1107.6 140.4L1110.9 130.9L1114.9 125.9V141.8ZM1115.7 203.5V200.3C1116.9 199.4 1117.8 197.7 1117.8 196.2C1117.8 195.7 1117.7 195.3 1117.5 195L1123.6 186.1L1125.7 191.1L1115.7 203.5ZM1126.4 190.3L1124.3 185.2L1134.7 169.9C1135.1 170.1 1135.7 170 1136.3 169.7C1137.1 169.2 1137.9 168.3 1138.3 167.3H1144.9L1126.4 190.3ZM1145 166.2H1138.7C1138.8 165.9 1138.8 165.6 1138.8 165.3C1138.8 164.8 1138.7 164.5 1138.5 164.2L1144.9 154.8V166.2H1145ZM1145 153.6L1138.1 163.7C1137.8 163.5 1137.5 163.5 1137.2 163.6L1139.7 147H1139.8C1141.2 146.2 1142.3 144.3 1142.3 142.7V142.4L1145 140V153.6ZM1145 138.9L1142.1 141.5C1141.7 140.7 1140.8 140.5 1139.8 141.1C1139.1 141.5 1138.6 142.1 1138.1 142.8L1131 140.5C1131.2 140 1131.3 139.4 1131.3 138.9C1131.3 138.2 1131.1 137.8 1130.8 137.5L1136.6 127.1L1144.9 127.8L1145 138.9Z" fill="#FAD0C9"/>
</svg>
