<svg fill="none" height="1024" viewBox="0 0 2681 1024" width="2681" xmlns="http://www.w3.org/2000/svg" xmlns:xlink="http://www.w3.org/1999/xlink"><clipPath id="a"><path d="m0 0h1024v1024h-1024z"/></clipPath><g clip-path="url(#a)" stroke="#fff" stroke-linecap="round" stroke-linejoin="round"><path d="m182.051 559.996c-2.253-10.995-3.957-22.222-5.08-33.657-17.54-178.493 113.004-339.749 291.578-360.175 178.574-20.427 337.555 107.712 355.095 286.205 17.539 178.493-113.005 339.749-291.579 360.176-8.91 1.019-17.771 1.668-26.568 1.96" stroke-width="21.5"/><path d="m544.78 417.544c58.904 13.674 129.235 43.517 133.322 113.665-.602 63.162-54.158 116.807-110.038 139.127 55.605-22.048 109.639-75.844 110.281-139.045-4.071-70.009-74.056-101.048-133.565-113.747" stroke-width="13.54"/><path d="m446.917 344.691c-.063-8.845 1.43-17.462 4.273-25.52 6.253-17.726 19.038-32.749 36.155-41.559 5.644-2.905 11.758-5.135 18.264-6.564 18.433-4.048 40.177-2.242 58.062 5.225 9.76 4.074 25.2 18.639 31.496 26.053" stroke-width="29.17"/><path d="m586.818 291.835c3.652 3.342 6.691 7.903 8.656 12.861" stroke-width="27.71"/><path d="m480.562 392.526c62.225 37.095 177.878 33.091 219.358 91.753" stroke-width="29.81"/><path d="m447.152 346.364c2.001 19.359 14.827 34.06 33.729 46.225" stroke-width="29.17"/><g stroke-width="36.77"><path clip-rule="evenodd" d="m505 483.646v401.232z" fill-rule="evenodd"/><path d="m340.773 551.392c26.737-44.049 90.904-73.803 163.933-71.865"/><path d="m426.897 711.87c-60.156-18.967-101.299-66.905-97.581-120.669.977-14.121 4.97-27.513 11.457-39.809"/><path d="m562.483 714.521c-8.784 1.892-17.795 3.438-26.987 4.604-39.504 5.013-76.501 2.276-107.119-6.476"/></g><path d="m634.777 442.39c37.656 14.742 65.804 35.891 78.786 60.728" stroke-width="33.98"/><path d="m714.702 505.254c18.528 31.786 21.051 68.895 4.463 103.838" stroke-width="35.35"/><path d="m720.497 606.17c-18.687 48.128-79.526 90.682-157.724 108.465" stroke-width="36.77"/><path d="m505.167 890.337c-4.969.711-9.996 1.103-15.041 1.148-27.695.247-49.929-10.018-62.155-26.249" stroke-width="25.26"/><path d="m597.5 296c6.484 5.319-5.67 2.772-7.208 10.477-.284 1.427 5.821 14.108 5.943 15.435 3.397-2.081 9.019-7.822 9.81-12.184 1.101-6.072-3.918-11.044-8.545-13.728" stroke-width="9.71"/></g><path d="m1117.48 635.94c-12.67 0-25.33-1.773-38-5.32-12.41-3.547-23.18-8.487-32.3-14.82-1.01-.507-1.77-1.393-2.28-2.66-.25-1.267-.13-2.533.38-3.8l8.74-17.1c1.27-2.28 3.04-3.42 5.32-3.42 1.27 0 2.28.253 3.04.76 19.51 11.653 38 17.48 55.48 17.48 16.21 0 29.51-4.053 39.9-12.16 10.39-8.36 15.58-19.507 15.58-33.44 0-9.12-2.28-16.593-6.84-22.42s-10.26-10.513-17.1-14.06-16.34-7.727-28.5-12.54c-15.96-6.08-28.75-11.653-38.38-16.72-9.63-5.32-17.99-12.92-25.08-22.8s-10.64-22.673-10.64-38.38 3.67-29.007 11.02-39.9c7.6-11.147 17.61-19.38 30.02-24.7s26.09-7.98 41.04-7.98c12.16 0 23.94 1.773 35.34 5.32 11.65 3.293 21.91 7.853 30.78 13.68 1.01.507 1.65 1.52 1.9 3.04.51 1.267.38 2.533-.38 3.8l-8.36 15.58c-.76 1.52-1.9 2.533-3.42 3.04s-3.04.253-4.56-.76c-16.97-10.133-33.95-15.2-50.92-15.2-15.45 0-27.87 3.8-37.24 11.4-9.12 7.6-13.68 17.987-13.68 31.16 0 9.12 2.28 16.72 6.84 22.8 4.56 5.827 10.13 10.513 16.72 14.06 6.84 3.547 16.47 7.727 28.88 12.54 2.28 1.013 10.77 4.307 25.46 9.88 14.95 5.573 26.73 14.06 35.34 25.46 8.87 11.4 13.3 25.08 13.3 41.04 0 15.707-3.8 29.387-11.4 41.04-7.35 11.653-17.61 20.647-30.78 26.98-13.17 6.08-28.25 9.12-45.22 9.12zm148.3-4.94c-1.52 0-2.92-.38-4.18-1.14-1.02-1.013-1.52-2.28-1.52-3.8v-278.16c0-1.52.5-2.787 1.52-3.8 1.01-1.013 2.28-1.52 3.8-1.52h19c1.52 0 2.78.507 3.8 1.52 1.01 1.013 1.52 2.28 1.52 3.8v151.62h15.58l74.86-80.18c2.02-2.28 4.18-3.42 6.46-3.42h24.7c1.52 0 2.66.507 3.42 1.52 1.01.76 1.52 1.773 1.52 3.04 0 1.52-.51 2.787-1.52 3.8l-84.36 88.16 88.92 110.96c.76 1.013 1.14 2.027 1.14 3.04 0 1.267-.38 2.407-1.14 3.42-.76.76-1.9 1.14-3.42 1.14h-24.7c-2.28 0-4.44-1.14-6.46-3.42l-79.42-99.94h-15.58v98.42c0 1.52-.64 2.787-1.9 3.8-1.02.76-2.28 1.14-3.8 1.14zm238.93 73.34c-2.28 0-4.05-.76-5.32-2.28-1.26-1.52-1.52-3.42-.76-5.7l22.04-63.08-75.62-209c-.25-.507-.38-1.393-.38-2.66 0-1.52.51-2.787 1.52-3.8 1.27-1.267 2.79-1.9 4.56-1.9h17.48c1.52 0 2.92.507 4.18 1.52 1.52.76 2.54 1.9 3.04 3.42l59.66 170.24 59.28-170.24c.51-1.52 1.4-2.66 2.66-3.42 1.52-1.013 3.04-1.52 4.56-1.52h16.72c2.28 0 3.93.887 4.94 2.66 1.27 1.52 1.52 3.42.76 5.7l-97.28 275.12c-.5 1.52-1.52 2.66-3.04 3.42-1.26 1.013-2.66 1.52-4.18 1.52zm236.53-73.34c-14.95 0-28.76-3.673-41.42-11.02-12.67-7.347-22.68-17.353-30.02-30.02-7.35-12.92-11.02-26.853-11.02-41.8v-54.34c0-14.947 3.67-28.753 11.02-41.42 7.34-12.92 17.35-23.053 30.02-30.4 12.66-7.347 26.47-11.02 41.42-11.02 14.94 0 28.75 3.673 41.42 11.02 12.66 7.347 22.67 17.48 30.02 30.4 7.34 12.667 11.02 26.473 11.02 41.42v25.84c0 3.8-1.4 7.093-4.18 9.88-2.54 2.533-5.7 3.8-9.5 3.8h-121.6v16.72c0 9.627 2.28 18.493 6.84 26.6 4.81 8.107 11.27 14.567 19.38 19.38 8.1 4.56 16.97 6.84 26.6 6.84h55.1c1.52 0 2.78.507 3.8 1.52 1.01 1.013 1.52 2.28 1.52 3.8v17.48c0 1.52-.51 2.787-1.52 3.8-1.02 1.013-2.28 1.52-3.8 1.52zm52.82-125.02v-14.06c0-9.627-2.41-18.493-7.22-26.6-4.56-8.107-10.9-14.44-19-19-8.11-4.813-16.98-7.22-26.6-7.22-9.63 0-18.5 2.407-26.6 7.22-8.11 4.56-14.57 10.893-19.38 19-4.56 8.107-6.84 16.973-6.84 26.6v14.06zm91.44 125.02c-1.52 0-2.91-.38-4.18-1.14-1.01-1.013-1.52-2.28-1.52-3.8v-253.84c0-1.52.51-2.787 1.52-3.8s2.28-1.52 3.8-1.52h20.52c1.52 0 2.79.507 3.8 1.52s1.52 2.28 1.52 3.8v113.24h11.02l91.96-115.14c2.03-2.28 4.31-3.42 6.84-3.42h23.94c1.77 0 3.04.507 3.8 1.52 1.01.76 1.52 1.9 1.52 3.42s-.51 2.787-1.52 3.8l-98.42 121.98 98.04 123.88c1.01 1.013 1.52 2.28 1.52 3.8 0 1.773-.63 3.167-1.9 4.18-1.01 1.013-2.28 1.52-3.8 1.52h-23.94c-2.28 0-4.43-1.14-6.46-3.42l-90.06-113.62h-12.54v112.1c0 1.52-.63 2.787-1.9 3.8-1.01.76-2.28 1.14-3.8 1.14zm238.15-244.72c-1.52 0-2.78-.507-3.8-1.52-1.01-1.013-1.52-2.28-1.52-3.8v-33.06c0-1.52.51-2.787 1.52-3.8 1.02-1.013 2.28-1.52 3.8-1.52h18.24c1.52 0 2.79.507 3.8 1.52 1.02 1.013 1.52 2.28 1.52 3.8v33.06c0 1.52-.5 2.787-1.52 3.8-1.01 1.013-2.28 1.52-3.8 1.52zm7.98 244.72c-3.8 0-7.09-1.267-9.88-3.8-2.53-2.787-3.8-6.08-3.8-9.88v-173.28h-39.52c-1.52 0-2.78-.507-3.8-1.52-1.01-1.013-1.52-2.28-1.52-3.8v-17.48c0-1.52.51-2.787 1.52-3.8 1.02-1.013 2.28-1.52 3.8-1.52h55.48c3.8 0 6.97 1.393 9.5 4.18 2.79 2.533 4.18 5.7 4.18 9.5v173.28h39.14c1.52 0 2.79.507 3.8 1.52 1.02 1.013 1.52 2.28 1.52 3.8v17.48c0 1.52-.5 2.787-1.52 3.8-1.01 1.013-2.28 1.52-3.8 1.52zm150.88 0c-1.52 0-3.04-.38-4.56-1.14-1.27-1.013-2.15-2.28-2.66-3.8l-67.64-201.78c-.25-.507-.38-1.393-.38-2.66 0-1.52.51-2.787 1.52-3.8 1.27-1.267 2.79-1.9 4.56-1.9h16.72c1.52 0 2.91.507 4.18 1.52 1.52.76 2.53 1.9 3.04 3.42l56.24 173.28 50.92-173.28c1.01-3.293 3.42-4.94 7.22-4.94h18.62c4.05 0 6.46 1.647 7.22 4.94l50.92 173.28 56.24-173.28c.51-1.52 1.39-2.66 2.66-3.42 1.52-1.013 3.04-1.52 4.56-1.52h17.1c2.28 0 3.93.887 4.94 2.66 1.27 1.52 1.52 3.42.76 5.7l-67.64 201.78c-.51 1.52-1.52 2.787-3.04 3.8-1.27.76-2.66 1.14-4.18 1.14h-21.66c-1.52 0-3.04-.38-4.56-1.14-1.27-1.013-2.15-2.28-2.66-3.8l-50.16-164.92-49.4 164.92c-.51 1.52-1.52 2.787-3.04 3.8-1.27.76-2.66 1.14-4.18 1.14zm316.88-244.72c-1.52 0-2.78-.507-3.8-1.52-1.01-1.013-1.52-2.28-1.52-3.8v-33.06c0-1.52.51-2.787 1.52-3.8 1.02-1.013 2.28-1.52 3.8-1.52h18.24c1.52 0 2.79.507 3.8 1.52 1.02 1.013 1.52 2.28 1.52 3.8v33.06c0 1.52-.5 2.787-1.52 3.8-1.01 1.013-2.28 1.52-3.8 1.52zm7.98 244.72c-3.8 0-7.09-1.267-9.88-3.8-2.53-2.787-3.8-6.08-3.8-9.88v-173.28h-39.52c-1.52 0-2.78-.507-3.8-1.52-1.01-1.013-1.52-2.28-1.52-3.8v-17.48c0-1.52.51-2.787 1.52-3.8 1.02-1.013 2.28-1.52 3.8-1.52h55.48c3.8 0 6.97 1.393 9.5 4.18 2.79 2.533 4.18 5.7 4.18 9.5v173.28h39.14c1.52 0 2.79.507 3.8 1.52 1.02 1.013 1.52 2.28 1.52 3.8v17.48c0 1.52-.5 2.787-1.52 3.8-1.01 1.013-2.28 1.52-3.8 1.52z" fill="#fff"/></svg>