<svg width="2706" height="1024" viewBox="0 0 2706 1024" fill="none" xmlns="http://www.w3.org/2000/svg">
<path d="M1041.48 634.94C1028.81 634.94 1016.15 633.167 1003.48 629.62C991.067 626.073 980.3 621.133 971.18 614.8C970.167 614.293 969.407 613.407 968.9 612.14C968.647 610.873 968.773 609.607 969.28 608.34L978.02 591.24C979.287 588.96 981.06 587.82 983.34 587.82C984.607 587.82 985.62 588.073 986.38 588.58C1005.89 600.233 1024.38 606.06 1041.86 606.06C1058.07 606.06 1071.37 602.007 1081.76 593.9C1092.15 585.54 1097.34 574.393 1097.34 560.46C1097.34 551.34 1095.06 543.867 1090.5 538.04C1085.94 532.213 1080.24 527.527 1073.4 523.98C1066.56 520.433 1057.06 516.253 1044.9 511.44C1028.94 505.36 1016.15 499.787 1006.52 494.72C996.893 489.4 988.533 481.8 981.44 471.92C974.347 462.04 970.8 449.247 970.8 433.54C970.8 417.833 974.473 404.533 981.82 393.64C989.42 382.493 999.427 374.26 1011.84 368.94C1024.25 363.62 1037.93 360.96 1052.88 360.96C1065.04 360.96 1076.82 362.733 1088.22 366.28C1099.87 369.573 1110.13 374.133 1119 379.96C1120.01 380.467 1120.65 381.48 1120.9 383C1121.41 384.267 1121.28 385.533 1120.52 386.8L1112.16 402.38C1111.4 403.9 1110.26 404.913 1108.74 405.42C1107.22 405.927 1105.7 405.673 1104.18 404.66C1087.21 394.527 1070.23 389.46 1053.26 389.46C1037.81 389.46 1025.39 393.26 1016.02 400.86C1006.9 408.46 1002.34 418.847 1002.34 432.02C1002.34 441.14 1004.62 448.74 1009.18 454.82C1013.74 460.647 1019.31 465.333 1025.9 468.88C1032.74 472.427 1042.37 476.607 1054.78 481.42C1057.06 482.433 1065.55 485.727 1080.24 491.3C1095.19 496.873 1106.97 505.36 1115.58 516.76C1124.45 528.16 1128.88 541.84 1128.88 557.8C1128.88 573.507 1125.08 587.187 1117.48 598.84C1110.13 610.493 1099.87 619.487 1086.7 625.82C1073.53 631.9 1058.45 634.94 1041.48 634.94ZM1189.78 630C1188.26 630 1186.86 629.62 1185.6 628.86C1184.58 627.847 1184.08 626.58 1184.08 625.06V346.9C1184.08 345.38 1184.58 344.113 1185.6 343.1C1186.61 342.087 1187.88 341.58 1189.4 341.58H1208.4C1209.92 341.58 1211.18 342.087 1212.2 343.1C1213.21 344.113 1213.72 345.38 1213.72 346.9V498.52H1229.3L1304.16 418.34C1306.18 416.06 1308.34 414.92 1310.62 414.92H1335.32C1336.84 414.92 1337.98 415.427 1338.74 416.44C1339.75 417.2 1340.26 418.213 1340.26 419.48C1340.26 421 1339.75 422.267 1338.74 423.28L1254.38 511.44L1343.3 622.4C1344.06 623.413 1344.44 624.427 1344.44 625.44C1344.44 626.707 1344.06 627.847 1343.3 628.86C1342.54 629.62 1341.4 630 1339.88 630H1315.18C1312.9 630 1310.74 628.86 1308.72 626.58L1229.3 526.64H1213.72V625.06C1213.72 626.58 1213.08 627.847 1211.82 628.86C1210.8 629.62 1209.54 630 1208.02 630H1189.78ZM1428.71 703.34C1426.43 703.34 1424.66 702.58 1423.39 701.06C1422.13 699.54 1421.87 697.64 1422.63 695.36L1444.67 632.28L1369.05 423.28C1368.8 422.773 1368.67 421.887 1368.67 420.62C1368.67 419.1 1369.18 417.833 1370.19 416.82C1371.46 415.553 1372.98 414.92 1374.75 414.92H1392.23C1393.75 414.92 1395.15 415.427 1396.41 416.44C1397.93 417.2 1398.95 418.34 1399.45 419.86L1459.11 590.1L1518.39 419.86C1518.9 418.34 1519.79 417.2 1521.05 416.44C1522.57 415.427 1524.09 414.92 1525.61 414.92H1542.33C1544.61 414.92 1546.26 415.807 1547.27 417.58C1548.54 419.1 1548.79 421 1548.03 423.28L1450.75 698.4C1450.25 699.92 1449.23 701.06 1447.71 701.82C1446.45 702.833 1445.05 703.34 1443.53 703.34H1428.71ZM1665.24 630C1650.29 630 1636.48 626.327 1623.82 618.98C1611.15 611.633 1601.14 601.627 1593.8 588.96C1586.45 576.04 1582.78 562.107 1582.78 547.16V492.82C1582.78 477.873 1586.45 464.067 1593.8 451.4C1601.14 438.48 1611.15 428.347 1623.82 421C1636.48 413.653 1650.29 409.98 1665.24 409.98C1680.18 409.98 1693.99 413.653 1706.66 421C1719.32 428.347 1729.33 438.48 1736.68 451.4C1744.02 464.067 1747.7 477.873 1747.7 492.82V518.66C1747.7 522.46 1746.3 525.753 1743.52 528.54C1740.98 531.073 1737.82 532.34 1734.02 532.34H1612.42V549.06C1612.42 558.687 1614.7 567.553 1619.26 575.66C1624.07 583.767 1630.53 590.227 1638.64 595.04C1646.74 599.6 1655.61 601.88 1665.24 601.88H1720.34C1721.86 601.88 1723.12 602.387 1724.14 603.4C1725.15 604.413 1725.66 605.68 1725.66 607.2V624.68C1725.66 626.2 1725.15 627.467 1724.14 628.48C1723.12 629.493 1721.86 630 1720.34 630H1665.24ZM1718.06 504.98V490.92C1718.06 481.293 1715.65 472.427 1710.84 464.32C1706.28 456.213 1699.94 449.88 1691.84 445.32C1683.73 440.507 1674.86 438.1 1665.24 438.1C1655.61 438.1 1646.74 440.507 1638.64 445.32C1630.53 449.88 1624.07 456.213 1619.26 464.32C1614.7 472.427 1612.42 481.293 1612.42 490.92V504.98H1718.06ZM1820.52 547.92C1813.68 547.92 1807.85 545.64 1803.04 541.08C1798.48 536.267 1796.2 530.567 1796.2 523.98C1796.2 517.393 1798.48 511.82 1803.04 507.26C1807.85 502.447 1813.68 500.04 1820.52 500.04C1827.11 500.04 1832.68 502.447 1837.24 507.26C1841.8 511.82 1844.08 517.393 1844.08 523.98C1844.08 530.567 1841.8 536.267 1837.24 541.08C1832.68 545.64 1827.11 547.92 1820.52 547.92ZM1910.44 630C1908.92 630 1907.53 629.62 1906.26 628.86C1905.25 627.847 1904.74 626.58 1904.74 625.06V371.22C1904.74 369.7 1905.25 368.433 1906.26 367.42C1907.27 366.407 1908.54 365.9 1910.06 365.9H1930.58C1932.1 365.9 1933.37 366.407 1934.38 367.42C1935.39 368.433 1935.9 369.7 1935.9 371.22V484.46H1946.92L2038.88 369.32C2040.91 367.04 2043.19 365.9 2045.72 365.9H2069.66C2071.43 365.9 2072.7 366.407 2073.46 367.42C2074.47 368.18 2074.98 369.32 2074.98 370.84C2074.98 372.36 2074.47 373.627 2073.46 374.64L1975.04 496.62L2073.08 620.5C2074.09 621.513 2074.6 622.78 2074.6 624.3C2074.6 626.073 2073.97 627.467 2072.7 628.48C2071.69 629.493 2070.42 630 2068.9 630H2044.96C2042.68 630 2040.53 628.86 2038.5 626.58L1948.44 512.96H1935.9V625.06C1935.9 626.58 1935.27 627.847 1934 628.86C1932.99 629.62 1931.72 630 1930.2 630H1910.44ZM2148.59 385.28C2147.07 385.28 2145.8 384.773 2144.79 383.76C2143.78 382.747 2143.27 381.48 2143.27 379.96V346.9C2143.27 345.38 2143.78 344.113 2144.79 343.1C2145.8 342.087 2147.07 341.58 2148.59 341.58H2166.83C2168.35 341.58 2169.62 342.087 2170.63 343.1C2171.64 344.113 2172.15 345.38 2172.15 346.9V379.96C2172.15 381.48 2171.64 382.747 2170.63 383.76C2169.62 384.773 2168.35 385.28 2166.83 385.28H2148.59ZM2156.57 630C2152.77 630 2149.48 628.733 2146.69 626.2C2144.16 623.413 2142.89 620.12 2142.89 616.32V443.04H2103.37C2101.85 443.04 2100.58 442.533 2099.57 441.52C2098.56 440.507 2098.05 439.24 2098.05 437.72V420.24C2098.05 418.72 2098.56 417.453 2099.57 416.44C2100.58 415.427 2101.85 414.92 2103.37 414.92H2158.85C2162.65 414.92 2165.82 416.313 2168.35 419.1C2171.14 421.633 2172.53 424.8 2172.53 428.6V601.88H2211.67C2213.19 601.88 2214.46 602.387 2215.47 603.4C2216.48 604.413 2216.99 605.68 2216.99 607.2V624.68C2216.99 626.2 2216.48 627.467 2215.47 628.48C2214.46 629.493 2213.19 630 2211.67 630H2156.57ZM2307.45 630C2305.93 630 2304.41 629.62 2302.89 628.86C2301.62 627.847 2300.73 626.58 2300.23 625.06L2232.59 423.28C2232.33 422.773 2232.21 421.887 2232.21 420.62C2232.21 419.1 2232.71 417.833 2233.73 416.82C2234.99 415.553 2236.51 414.92 2238.29 414.92H2255.01C2256.53 414.92 2257.92 415.427 2259.19 416.44C2260.71 417.2 2261.72 418.34 2262.23 419.86L2318.47 593.14L2369.39 419.86C2370.4 416.567 2372.81 414.92 2376.61 414.92H2395.23C2399.28 414.92 2401.69 416.567 2402.45 419.86L2453.37 593.14L2509.61 419.86C2510.11 418.34 2511 417.2 2512.27 416.44C2513.79 415.427 2515.31 414.92 2516.83 414.92H2533.93C2536.21 414.92 2537.85 415.807 2538.87 417.58C2540.13 419.1 2540.39 421 2539.63 423.28L2471.99 625.06C2471.48 626.58 2470.47 627.847 2468.95 628.86C2467.68 629.62 2466.29 630 2464.77 630H2443.11C2441.59 630 2440.07 629.62 2438.55 628.86C2437.28 627.847 2436.39 626.58 2435.89 625.06L2385.73 460.14L2336.33 625.06C2335.82 626.58 2334.81 627.847 2333.29 628.86C2332.02 629.62 2330.63 630 2329.11 630H2307.45ZM2624.33 385.28C2622.81 385.28 2621.54 384.773 2620.53 383.76C2619.52 382.747 2619.01 381.48 2619.01 379.96V346.9C2619.01 345.38 2619.52 344.113 2620.53 343.1C2621.54 342.087 2622.81 341.58 2624.33 341.58H2642.57C2644.09 341.58 2645.36 342.087 2646.37 343.1C2647.38 344.113 2647.89 345.38 2647.89 346.9V379.96C2647.89 381.48 2647.38 382.747 2646.37 383.76C2645.36 384.773 2644.09 385.28 2642.57 385.28H2624.33ZM2632.31 630C2628.51 630 2625.22 628.733 2622.43 626.2C2619.9 623.413 2618.63 620.12 2618.63 616.32V443.04H2579.11C2577.59 443.04 2576.32 442.533 2575.31 441.52C2574.3 440.507 2573.79 439.24 2573.79 437.72V420.24C2573.79 418.72 2574.3 417.453 2575.31 416.44C2576.32 415.427 2577.59 414.92 2579.11 414.92H2634.59C2638.39 414.92 2641.56 416.313 2644.09 419.1C2646.88 421.633 2648.27 424.8 2648.27 428.6V601.88H2687.41C2688.93 601.88 2690.2 602.387 2691.21 603.4C2692.22 604.413 2692.73 605.68 2692.73 607.2V624.68C2692.73 626.2 2692.22 627.467 2691.21 628.48C2690.2 629.493 2688.93 630 2687.41 630H2632.31Z" fill="white"/>
<path d="M244.844 447.123C266.003 336.531 353.38 249.388 473.902 235.993C620.074 219.746 750.209 321.663 764.566 463.63C778.923 605.597 672.066 733.855 525.893 750.101C518.6 750.912 511.347 751.428 504.145 751.66" stroke="white" stroke-width="25" stroke-linecap="round" stroke-linejoin="round"/>
<path d="M459.876 385.48C459.829 378.7 460.946 372.096 463.073 365.92C467.753 352.333 477.32 340.819 490.13 334.066C494.353 331.84 498.928 330.131 503.797 329.036C517.591 325.933 533.863 327.317 547.247 333.04C554.551 336.163 560.994 340.578 565.705 346.26" stroke="white" stroke-width="29.17" stroke-linecap="round" stroke-linejoin="round"/>
<path d="M485.067 422.143C531.864 450.574 618.844 447.506 650.04 492.467" stroke="white" stroke-width="30" stroke-linecap="round" stroke-linejoin="bevel"/>
<path d="M460.052 386.761C461.55 401.599 471.153 412.867 485.306 422.191" stroke="white" stroke-width="29.17" stroke-linecap="round" stroke-linejoin="round"/>
<path fill-rule="evenodd" clip-rule="evenodd" d="M485.789 491.982L486.194 824.128L485.789 799.509V491.982Z" fill="white" stroke="white" stroke-width="36.77" stroke-linecap="round" stroke-linejoin="round"/>
<path d="M362.137 542.042C383.27 508.281 431.55 487.34 489.274 488.825" stroke="white" stroke-width="30" stroke-linecap="round" stroke-linejoin="round"/>
<path d="M428.036 666.906C380.693 652.369 349.199 616.868 352.107 574.947C352.871 563.936 355.994 553.494 361.067 543.907" stroke="white" stroke-width="30" stroke-linecap="round" stroke-linejoin="round"/>
<path d="M546.38 668.938C538.705 670.388 530.831 671.572 522.8 672.466C488.282 676.308 455.955 674.211 429.201 667.503" stroke="white" stroke-width="30" stroke-linecap="round" stroke-linejoin="round"/>
<path opacity="0.990385" d="M485.435 829.615C480.658 830.174 479.233 830.469 474.383 830.504C463.841 830.581 454.123 829.362 445.499 827.069C432.343 823.57 421.733 817.572 414.633 809.862" stroke="white" stroke-width="25.26" stroke-linecap="round" stroke-linejoin="round"/>
<path d="M650.458 492.904C664.888 510.475 673.115 530.737 673.115 552.31C673.115 619.524 593.254 674.012 494.741 674.012" stroke="white" stroke-width="30" stroke-linecap="round" stroke-linejoin="round"/>
<path fill-rule="evenodd" clip-rule="evenodd" d="M548.914 453.614C584.765 463.805 627.028 483.419 626.736 522.246C623.828 557.012 588.579 584.146 553.151 593.919C588.398 584.283 623.948 557.088 626.884 522.302C627.179 483.553 585.178 463.295 548.914 453.614Z" stroke="white" stroke-width="13.54" stroke-linecap="round" stroke-linejoin="round"/>
</svg>
