<svg version="1.1" id="Layer_1" xmlns="http://www.w3.org/2000/svg" x="0" y="0" viewBox="0 0 283.5 283.5" xml:space="preserve"><style>.st0{fill:#fff}</style><path class="st0" d="M141.4 271c-.6 0-1.1-.1-1.7-.2v11.5l1.8 1 1.6-.9v-11.6c-.6.1-1.2.2-1.7.2zM139.7 250.3v-80.1c-6.5-.4-12.4-2.8-17-6.8l-22.6 23.9 37.5 63.5c.7-.2 1.4-.4 2.1-.5zM238.9 192.7c0 1.1-.2 2.1-.5 3.1l26.1 13v-41.1l-26.6 20.6c.6 1.2 1 2.7 1 4.4zM233.3 122.1l-21.2 5.8 15.2 54.5c.4 0 .7-.1 1.1-.1h.3l10.5-54.7c-2.6-1-4.7-3-5.9-5.5zM170.4 139.2c0 .7.1 1.4.1 2 0 6.7-2.3 12.8-6 17.7l55.6 27.6c1-1.4 2.4-2.6 4-3.3l-15.2-54.5-38.5 10.5zM211.2 124.6l21.3-5.8c0-.4-.1-.7-.1-1.1 0-1.8.5-3.5 1.3-5l-29.2-23.1c-.8.7-1.6 1.3-2.6 1.7l9.3 33.3zM203.3 73.3l23.6-24.9L192 28.3l5.8 43.3c2 0 3.9.6 5.5 1.7zM113.3 133.5c2.3-8.4 8.3-15.3 16.1-18.8l-7.8-20.4-64.8 9.1c-.1.6-.3 1.2-.5 1.7l57 28.4zM188.5 76.7c1.3-2.2 3.4-3.9 5.9-4.7l-6.1-45.9L143.1 0v59.2l45.4 17.5zM205.7 75.6c1.3 1.8 2.2 3.9 2.2 6.3 0 1.8-.5 3.5-1.3 5l29.2 23.1c1.9-1.7 4.3-2.7 7-2.7 4.2 0 7.8 2.5 9.5 6.1l12.2-3.3V70L230 50.1l-24.3 25.5zM253.2 117.8c0 5.8-4.7 10.4-10.4 10.4h-.3L232 182.9c1.5.5 2.8 1.4 3.8 2.5l28.5-22.1v-49.6l-11.3 3.1c.2.3.2.6.2 1zM143.1 170.2v80.1c2.1.3 3.9 1.3 5.4 2.6l26-20.1-24.4-63.8c-2.2.7-4.6 1.1-7 1.2zM97.6 189.9l-17.2 18.2 54.1 44.6c.1 0 .1-.1.2-.1l-37.1-62.7zM187 81.7c0-.6.1-1.3.2-1.9l-44.2-17v25.1l44-6.2zM198.6 92.3c-.4 0-.7.1-1.1.1-2.2 0-4.2-.7-5.8-1.8l-29.1 30.7c3.7 4 6.3 8.9 7.4 14.5l38-10.3-9.4-33.2zM81.9 163.2l-35.3 9.6c0 .4.1.7.1 1.1 0 1.9-.6 3.7-1.4 5.2L77.8 206l18-19.1-13.9-23.7zM218.5 189.6l-56.3-28c-2.5 2.6-5.5 4.7-8.9 6.2l24 62.9 42.2-32.7c-.9-1.6-1.5-3.4-1.5-5.3 0-1.1.2-2.1.5-3.1zM113.6 45.7c0 .7-.1 1.4-.2 2.1l26.3 10.1V.1L123 9.7l-13.7 27.5c2.6 2 4.3 5 4.3 8.5zM109.8 53.7l14.1 36.9 15.8-2.2V61.5L112.2 51c-.7 1-1.4 2-2.4 2.7zM120.4 91.1l-13.6-35.6c-1.1.4-2.4.7-3.7.7-2.2 0-4.3-.7-6-1.9l-42.4 41c1.1 1.4 1.8 3 2.1 4.8l63.6-9zM103.2 35.3c1.1 0 2.1.2 3 .5l11.4-23-19.2 11.1 4.4 11.4h.4zM45.7 169.5l34.4-9.3-29-49.1c-1.4.6-2.8 1-4.4 1-.2 0-.4-.1-.6-.1l-6.8 51.8c2.8 1 5.1 3 6.4 5.7zM143.1 112.2c6.5.4 12.4 2.8 17 6.8l29.1-30.8c-.7-.9-1.3-2-1.6-3.2l-44.5 6.3v20.9zM120.2 161.1c-2-2.1-3.6-4.4-4.9-7l-30.1 8.2 13 22.1 22-23.3zM36.2 101.7c0-.9.2-1.8.4-2.6L18.3 90v35.9l19.4-18.8c-.9-1.6-1.5-3.4-1.5-5.4zM114 151c-1.1-3.1-1.7-6.3-1.7-9.7 0-1.5.1-2.9.4-4.3l-57.8-28.8c-.3.4-.6.7-.9 1.1l29.6 50.1L114 151zM43 181.7c-1.8 1.6-4.2 2.6-6.8 2.6-4.2 0-7.8-2.5-9.5-6.1l-8.4 2.3v31.8l34.6 20 22.6-23.8L43 181.7zM99.4 36l-4-10.4-16 9.2 14.8 5.7c1.2-2.1 3-3.6 5.2-4.5zM25.8 173.8c0-5.6 4.5-10.2 10.1-10.4l6.8-52.1c-1-.4-1.9-1-2.7-1.7l-21.7 21v46.3l7.6-2.1c-.1-.3-.1-.6-.1-1zM150.5 255.6c.8 1.5 1.3 3.1 1.3 4.9 0 5.2-3.8 9.5-8.7 10.3v11.6l41.2-23.9-8.6-22.5-25.2 19.6zM132.6 113.5c2.3-.7 4.6-1.1 7.1-1.3V91.8l-14.6 2.1 7.5 19.6zM46.6 91.3c2.1 0 4.1.6 5.7 1.7l42.5-41.1c-1.3-1.7-2.1-3.8-2.1-6.2 0-.7.1-1.4.2-2.1L75.7 37 18.3 70v16.2L37.9 96c1.9-2.9 5.1-4.7 8.7-4.7zM228.4 203.1c-2.6 0-4.9-1-6.7-2.5L178.5 234l8.7 22.9 77-44.5-27.4-13.6c-1.8 2.6-4.9 4.3-8.4 4.3zM130.9 260.6c0-1.9.6-3.7 1.4-5.2L78 210.6 55.9 234l83.7 48.4v-11.5c-4.9-.9-8.7-5.1-8.7-10.3z"/></svg>