<svg version="1.1" id="Layer_1" xmlns="http://www.w3.org/2000/svg" x="0" y="0" viewBox="0 0 643 643" xml:space="preserve"><style>.st1{opacity:.2318;fill:#17171e;enable-background:new}</style><path fill-rule="evenodd" clip-rule="evenodd" fill="#4a4a4a" d="M0 0h643v643H0z"/><path class="st1" d="M321 428.4c-.5 0-.9-.1-1.4-.1v9.4l1.5.8 1.3-.8v-9.5c-.5.1-.9.2-1.4.2zM319.6 411.4v-65.7c-5.3-.3-10.2-2.3-14-5.5l-18.5 19.6 30.8 52.1c.5-.2 1.1-.4 1.7-.5zM401 364.1c0 .9-.2 1.7-.4 2.5l21.4 10.6v-33.8l-21.8 16.9c.5 1.2.8 2.5.8 3.8zM396.5 306.2l-17.4 4.7 12.5 44.7c.3 0 .6-.1.9-.1h.2l8.6-44.9c-2.2-.7-3.9-2.3-4.8-4.4zM344.8 320.2c0 .6.1 1.1.1 1.7 0 5.5-1.9 10.5-4.9 14.5l45.6 22.7c.9-1.2 2-2.1 3.3-2.7l-12.5-44.7-31.6 8.5zM378.3 308.3l17.5-4.7c0-.3-.1-.6-.1-.9 0-1.5.4-2.9 1.1-4.1l-24-19c-.6.6-1.4 1.1-2.1 1.4l7.6 27.3zM371.8 266.1l19.3-20.4-28.6-16.5 4.7 35.5c1.8 0 3.3.5 4.6 1.4zM298 315.5c1.9-6.9 6.8-12.5 13.2-15.4l-6.4-16.7-53.2 7.5c-.1.5-.2.9-.4 1.4l46.8 23.2zM359.7 268.9c1.1-1.8 2.8-3.2 4.9-3.8l-5-37.6-37.2-21.5v48.6l37.3 14.3zM373.8 268.1c1.1 1.4 1.8 3.2 1.8 5.2 0 1.5-.4 2.9-1.1 4.1l24 19c1.5-1.4 3.5-2.3 5.7-2.3 3.5 0 6.4 2.1 7.8 5l10-2.7v-32.9l-28.3-16.4-19.9 21zM412.8 302.6c0 4.7-3.8 8.6-8.6 8.6h-.2l-8.6 44.9c1.2.4 2.3 1.1 3.2 2L422 340v-40.7l-9.3 2.5c0 .3.1.6.1.8zM322.4 345.7v65.7c1.7.3 3.2 1 4.4 2.2l21.4-16.5-20-52.4c-1.9.5-3.8.9-5.8 1zM285.1 361.8l-14.1 15 44.4 36.6.1-.1-30.4-51.5zM358.5 273c0-.5.1-1 .2-1.5l-36.3-13.9v20.6l36.1-5.2zM368 281.7c-.3 0-.6.1-.9.1-1.8 0-3.4-.5-4.8-1.5l-23.9 25.2c3.1 3.2 5.2 7.3 6.1 11.9l31.2-8.5-7.7-27.2zM272.2 339.9l-29 7.9c0 .3.1.6.1.9 0 1.6-.5 3-1.2 4.3l26.8 22.1 14.8-15.7-11.5-19.5zM384.3 361.6l-46.2-23c-2.1 2.1-4.5 3.8-7.3 5.1l19.7 51.6 34.7-26.8c-.8-1.3-1.2-2.8-1.2-4.4-.1-.9.1-1.7.3-2.5zM298.2 243.5c0 .6-.1 1.2-.2 1.7l21.5 8.3v-47.4l-13.7 7.9-11.2 22.6c2.2 1.5 3.6 4 3.6 6.9zM295.1 250.1l11.5 30.3 13-1.8v-22l-22.6-8.7c-.5.8-1.1 1.5-1.9 2.2zM303.8 280.7l-11.1-29.2c-.9.4-1.9.6-3 .6-1.8 0-3.5-.6-4.9-1.6L250 284.2c.9 1.1 1.5 2.4 1.7 3.9l52.1-7.4zM289.7 234.9c.9 0 1.7.2 2.5.4l9.4-18.9-15.8 9.1 3.6 9.4c.1.1.2 0 .3 0zM242.5 345.1l28.2-7.7-23.8-40.3c-1.1.5-2.3.8-3.6.8-.2 0-.3 0-.5-.1l-5.6 42.5c2.3.9 4.3 2.6 5.3 4.8zM322.4 298.1c5.3.3 10.2 2.3 14 5.5l23.9-25.2c-.6-.8-1-1.7-1.3-2.6l-36.5 5.2v17.1zM303.6 338.2c-1.6-1.7-3-3.6-4-5.8l-24.7 6.7 10.7 18.1 18-19zM234.7 289.4c0-.8.1-1.5.3-2.2l-15-7.5v29.5l16-15.4c-.8-1.2-1.3-2.7-1.3-4.4zM298.5 329.9c-.9-2.5-1.4-5.2-1.4-8 0-1.2.1-2.4.3-3.5L250 294.7c-.2.3-.5.6-.8.9l24.3 41.1 25-6.8zM240.3 355.1c-1.5 1.3-3.5 2.1-5.6 2.1-3.5 0-6.4-2.1-7.8-5l-6.9 1.9v26.1l28.4 16.4 18.5-19.6-26.6-21.9zM286.6 235.5l-3.3-8.6-13.1 7.6 12.1 4.7c1-1.7 2.5-3 4.3-3.7zM226.1 348.6c0-4.6 3.7-8.4 8.3-8.5l5.6-42.7c-.8-.3-1.6-.8-2.2-1.4L220 313.2v38l6.2-1.7c0-.3-.1-.6-.1-.9z"/><path class="st1" d="M328.5 415.8c.7 1.2 1.1 2.6 1.1 4 0 4.3-3.1 7.8-7.2 8.4v9.5l33.9-19.6-7-18.4-20.8 16.1zM313.8 299.1c1.8-.6 3.8-.9 5.8-1v-16.8l-12 1.7 6.2 16.1zM243.3 280.9c1.7 0 3.3.5 4.7 1.4l34.9-33.7c-1-1.4-1.7-3.2-1.7-5.1 0-.6.1-1.2.2-1.7l-14.2-5.4-47.2 27.1v13.3l16.1 8c1.5-2.4 4.2-3.9 7.2-3.9zM392.5 372.7c-2.1 0-4-.8-5.5-2.1L351.5 398l7.2 18.8 63.2-36.5-22.5-11.2c-1.6 2.1-4.1 3.6-6.9 3.6zM312.4 419.8c0-1.6.5-3 1.2-4.3l-44.5-36.7-18.2 19.2 68.7 39.7v-9.4c-4.1-.7-7.2-4.2-7.2-8.5z"/></svg>