<svg fill="none" height="105" width="107" xmlns="http://www.w3.org/2000/svg"><g stroke="#fff" stroke-width="2"><path d="M23.136 54.604L86.09 83.16 60.245 20.675"/><path d="M19.24 52.817c-.938-.973-1.427-2.368-1.405-4.176.023-1.814.565-3.981 1.618-6.372 2.105-4.778 6.176-10.273 11.743-15.31 5.567-5.036 11.504-8.597 16.569-10.305 2.533-.855 4.802-1.23 6.672-1.129 1.864.101 3.267.67 4.205 1.642.937.972 1.426 2.367 1.404 4.175-.023 1.814-.564 3.981-1.618 6.372-2.105 4.778-6.176 10.273-11.743 15.31-5.567 5.037-11.504 8.597-16.568 10.306-2.534.854-4.803 1.23-6.673 1.128-1.863-.1-3.267-.669-4.204-1.641z"/></g></svg>