<svg fill="none" height="66" width="66" xmlns="http://www.w3.org/2000/svg"><g stroke="#fff"><path d="M1.236.69h50.801v50.8h-50.8z" stroke-width="2" transform="rotate(-15.783 55.246 7.464) skewX(.128)"/><g fill="#fff" stroke-width=".2"><path d="M32.4 35.106a1.815 1.815 0 0 0 1.246-2.245l-.918-3.172a.547.547 0 0 0-1.05.301l.918 3.172a.726.726 0 0 1-.499.898.544.544 0 0 0-.373.673l.096-.027-.096.027c.083.29.386.456.676.373zm-5.012-3.554l.353 1.22a.643.643 0 0 0 1.233-.354l-.353-1.22a.642.642 0 0 0-1.233.354zm9.722-.8a.64.64 0 0 0 .44-.792l-.353-1.22a.643.643 0 0 0-1.234.354l.353 1.22c.098.34.454.535.794.437zm-6.183 6.823a.544.544 0 1 0-.438.997 6.194 6.194 0 0 0 4.192.276 6.17 6.17 0 0 0 3.402-2.454.543.543 0 0 0-.145-.756.547.547 0 0 0-.759.144 5.103 5.103 0 0 1-6.252 1.793zm-12.783-7.46a.547.547 0 0 0 1.05-.302l-.617-2.132a3.587 3.587 0 0 1 2.463-4.436l2.141-.614a.544.544 0 1 0-.302-1.046l-2.141.614c-2.486.713-3.927 3.307-3.21 5.784zm29.805 5.273a.547.547 0 0 0-1.05.301l.617 2.132a3.587 3.587 0 0 1-2.463 4.437l-2.141.614a.544.544 0 1 0 .302 1.046l2.14-.614c2.487-.713 3.928-3.308 3.212-5.784zm-17.177 11.53a.547.547 0 0 0-.676-.372l-2.14.614a3.606 3.606 0 0 1-4.456-2.453l-.617-2.132a.547.547 0 0 0-1.05.301l.617 2.132c.716 2.477 3.322 3.911 5.808 3.198l2.14-.614a.544.544 0 0 0 .374-.673zm7.062-29.622l-2.14.614a.544.544 0 1 0 .302 1.046l2.14-.614a3.606 3.606 0 0 1 4.456 2.453l.617 2.132a.547.547 0 0 0 1.05-.301l-.617-2.132c-.716-2.477-3.322-3.91-5.808-3.198z"/></g></g></svg>