<svg fill="none" height="71" width="77" xmlns="http://www.w3.org/2000/svg"><g stroke="#fff" stroke-width="2"><path d="M30.7 48.807c-7-4.007-12.207-9.506-14.99-15.109-2.787-5.61-3.102-11.21-.571-15.594 2.53-4.384 7.55-6.93 13.82-7.355 6.264-.424 13.656 1.29 20.656 5.297 7.001 4.008 12.208 9.506 14.991 15.11 2.788 5.61 3.102 11.21.572 15.594-2.531 4.383-7.55 6.93-13.822 7.355-6.263.424-13.654-1.29-20.655-5.298z"/><path d="M26.82 54.848c-7.002-4.008-12.208-9.506-14.992-15.11-2.787-5.61-3.102-11.21-.57-15.594 2.53-4.383 7.549-6.93 13.82-7.355 6.264-.424 13.655 1.29 20.656 5.298 7 4.008 12.207 9.506 14.99 15.109 2.788 5.61 3.103 11.211.572 15.594-2.53 4.384-7.55 6.931-13.821 7.356-6.264.424-13.655-1.29-20.656-5.298z"/></g></svg>