<svg fill="none" height="56" width="45" xmlns="http://www.w3.org/2000/svg"><path clip-rule="evenodd" d="M18.47 1C11.237 1 5.373 6.865 5.373 14.099v10.378h26.194V14.098C31.567 6.864 25.703 1 18.47 1zm0 4.696a8.396 8.396 0 0 0-8.396 8.395v10.385h16.792V14.091a8.396 8.396 0 0 0-8.396-8.395z" fill="#fbfbfb" fill-rule="evenodd"/><path d="M5.373 24.476h-1v1h1zm26.194 0v1h1v-1zm-21.492 0h-1v1h1zm16.79 0v1h1v-1zM6.374 14.098C6.373 7.417 11.79 2 18.47 2V0C10.685 0 4.373 6.312 4.373 14.098zm0 10.378V14.098h-2v10.378zm25.194-1H5.373v2h26.194zm-1-9.378v10.378h2V14.098zM18.47 2c6.681 0 12.097 5.416 12.097 12.097h2C32.567 6.312 26.256 0 18.47 0zm-7.395 12.09a7.396 7.396 0 0 1 7.395-7.395v-2a9.396 9.396 0 0 0-9.396 9.395zm0 10.385V14.091h-2v10.385zm15.79-1h-16.79v2h16.79zm-1-9.385v10.385h2V14.091zM18.47 6.696a7.396 7.396 0 0 1 7.396 7.395h2a9.396 9.396 0 0 0-9.396-9.395z" fill="#2d2d2d"/><path d="M1 22.793h34.94v32.208H1z" fill="#fbfbfb" stroke="#2d2d2d" stroke-width="2"/><path clip-rule="evenodd" d="M21.45 40.194a5.448 5.448 0 0 0-2.562-10.262 5.453 5.453 0 0 0-5.455 5.45 5.447 5.447 0 0 0 2.737 4.726l-.723 7.138h6.717z" fill="#2d2d2d" fill-rule="evenodd"/><ellipse cx="36.84" cy="22.741" fill="#2d2d2d" rx="8.16" ry="8.143"/><path d="M32.869 22.691l2.553 2.548 4.703-4.694" stroke="#fbfbfb" stroke-width="2"/></svg>