<svg fill="none" height="138" width="122" xmlns="http://www.w3.org/2000/svg"><g stroke="#2d2d2d"><path d="M16.839 1.598l97.563 9.24-9.24 97.564L7.6 99.162z" fill="#fff" stroke-width="2"/><path d="M1 17h120v120H1z" fill="#fff" stroke-width="2"/><g fill="#2d2d2d" stroke-width=".2"><path d="M58.07 81.68a4.06 4.06 0 0 0 4.055-4.055v-7.618a1.125 1.125 0 1 0-2.25 0v7.618c0 .995-.81 1.804-1.805 1.804-.621 0-1.125.504-1.125 1.126h.1-.1c0 .621.503 1.125 1.125 1.125zM49.4 70.743v2.93a1.345 1.345 0 0 0 2.69 0v-2.93a1.345 1.345 0 0 0-2.69 0zm21.854 4.276c.743 0 1.345-.603 1.345-1.345v-2.93a1.345 1.345 0 0 0-2.69 0v2.93c0 .742.603 1.345 1.345 1.345zM53.156 86.45a1.126 1.126 0 0 0-1.438 1.73 14.05 14.05 0 0 0 8.999 3.251c3.195 0 6.392-1.083 8.999-3.25a1.126 1.126 0 0 0-1.44-1.73 11.83 11.83 0 0 1-15.12 0zM29.901 61.676a1.126 1.126 0 0 0 2.25 0v-5.12c0-4.634 3.77-8.404 8.404-8.404h5.12a1.125 1.125 0 1 0 0-2.25h-5.12c-5.875 0-10.654 4.779-10.654 10.654zm62.2 30.649a1.126 1.126 0 0 0-2.252 0v5.12c0 4.634-3.77 8.404-8.404 8.404h-5.12a1.125 1.125 0 0 0 0 2.25h5.12c5.876 0 10.655-4.779 10.655-10.655zm-45.3 14.65v-.001c0-.621-.504-1.125-1.125-1.125h-5.12c-4.634 0-8.404-3.77-8.404-8.404v-5.12a1.125 1.125 0 1 0-2.251 0v5.12c0 5.875 4.78 10.655 10.655 10.655h5.12c.622 0 1.125-.504 1.125-1.125zM81.445 45.9h-5.12a1.125 1.125 0 1 0 0 2.25h5.12c4.634 0 8.404 3.771 8.404 8.405v5.12a1.125 1.125 0 1 0 2.25 0v-5.12C92.1 50.68 87.32 45.9 81.446 45.9z"/></g></g></svg>