<svg width="81" height="82" fill="none" xmlns="http://www.w3.org/2000/svg"><path d="M43.734 54.187C31.367 47.04 16.668 38.261 6.204 31.114L52.18 18.598l12.99 47.715a1375.77 1375.77 0 0 1-21.435-12.126z" stroke="#fff" stroke-width="2"/><circle cx="48.592" cy="28.617" r="2" transform="rotate(74.771 48.592 28.617)" fill="#fff"/><circle cx="24.356" cy="34.488" r="2" transform="rotate(74.771 24.356 34.488)" fill="#fff"/><circle cx="36.974" cy="31.052" r="2" transform="rotate(74.771 36.974 31.052)" fill="#fff"/><circle cx="51.027" cy="41.236" r="2" transform="rotate(74.771 51.027 41.236)" fill="#fff"/><circle cx="39.409" cy="44.671" r="2" transform="rotate(74.771 39.41 44.67)" fill="#fff"/><circle cx="54.462" cy="53.854" r="2" transform="rotate(74.771 54.462 53.854)" fill="#fff"/><path d="M76.553 52.621L62.814 2.156 14.277 15.369" stroke="#fff" stroke-width="2"/><path d="M62.814 2.156L52.528 17.988" stroke="#fff" stroke-width="1.5"/><path d="M76.617 52.225L66.33 68.057M14.569 15.169L4.283 31.002" stroke="#fff" stroke-width="2"/></svg>