<svg fill="none" height="56" width="68" xmlns="http://www.w3.org/2000/svg"><path clip-rule="evenodd" d="M1.885 33.942l-.07-.053.003-.004.008-.011.034-.044.127-.165c.113-.144.279-.353.496-.62a57.723 57.723 0 0 1 1.896-2.197 66.821 66.821 0 0 1 6.964-6.661c5.867-4.833 14.052-9.735 23.153-9.735s17.286 4.902 23.154 9.735a66.836 66.836 0 0 1 6.964 6.66 57.724 57.724 0 0 1 1.895 2.199 36.919 36.919 0 0 1 .624.784l.033.043.008.012.003.003v.001l-.07.053.075.055-.003.004-.009.012-.033.044a38.29 38.29 0 0 1-.623.807 58.996 58.996 0 0 1-1.895 2.262 67.727 67.727 0 0 1-6.963 6.856c-5.867 4.974-14.053 10.023-23.16 10.023s-17.293-5.049-23.16-10.023a67.717 67.717 0 0 1-6.963-6.856 58.982 58.982 0 0 1-1.895-2.262 38.384 38.384 0 0 1-.623-.807l-.033-.044L1.813 34l-.002-.003v-.001l.074-.055z" fill="#fff" fill-rule="evenodd"/><g stroke="#2d2d2d" stroke-linecap="round" stroke-width="2"><path d="M34.256 9.65V1"/><path d="M1-1h8.648" transform="rotate(-107.546 17.627 -4.147) skewX(-.096)"/><path d="M1-1h8.648" transform="matrix(.30147 -.95348 -.95398 -.29988 41.337 11.41)"/><path d="M1-1h6.365" transform="rotate(-52.145 40.395 -43.18) skewX(.161)"/><path d="M1-1h6.365" transform="matrix(-.61366 -.78957 -.7913 .61144 18.533 14.452)"/></g><ellipse cx="34.496" cy="30.425" fill="#2d2d2d" rx="11.402" ry="11.409"/><path d="M23.801 16.495c-4.416 3.354-7.161 8.847-6.855 14.91.486 9.628 8.48 17.049 17.856 16.575 9.375-.473 16.581-8.662 16.095-18.29-.306-6.063-3.59-11.25-8.322-14.143" stroke="#2d2d2d" stroke-linecap="round" stroke-width="2"/><path d="M34.257 26.242c0 1.759-1.425 3.184-3.181 3.184S27.895 28 27.895 26.242c0-1.759 1.425-3.183 3.18-3.183s3.182 1.425 3.182 3.183z" fill="#fff" stroke="#2d2d2d" stroke-width="2"/><path clip-rule="evenodd" d="M1.286 33.841l-.28-.207.002-.001.002-.004.01-.013.034-.046.132-.173c.116-.15.286-.369.509-.645a59.62 59.62 0 0 1 1.936-2.279 68.662 68.662 0 0 1 7.107-6.9c5.978-4.997 14.376-10.12 23.758-10.12 9.383 0 17.781 5.123 23.758 10.12a68.665 68.665 0 0 1 7.108 6.9 59.62 59.62 0 0 1 1.936 2.28 38.679 38.679 0 0 1 .64.817l.035.046.01.013.002.004c.001 0 .001.001-.279.208l.29.208v.001l-.003.004-.01.013-.034.048-.132.18c-.116.155-.286.382-.508.668a61.297 61.297 0 0 1-1.935 2.366 69.918 69.918 0 0 1-7.105 7.163c-5.974 5.186-14.377 10.513-23.773 10.513-9.395 0-17.798-5.327-23.772-10.513a69.913 69.913 0 0 1-7.105-7.163 61.307 61.307 0 0 1-1.936-2.366 39.581 39.581 0 0 1-.64-.848l-.034-.048-.01-.013-.002-.004v-.001l.29-.208zm64.342.026a58.363 58.363 0 0 0-1.76-2.063 66.659 66.659 0 0 0-6.896-6.696c-5.85-4.89-13.795-9.655-22.476-9.655-8.68 0-16.625 4.764-22.475 9.655a66.659 66.659 0 0 0-6.897 6.696 58.395 58.395 0 0 0-1.76 2.063 60.042 60.042 0 0 0 1.772 2.159 67.928 67.928 0 0 0 6.9 6.956c5.852 5.082 13.793 10.023 22.46 10.023 8.668 0 16.608-4.942 22.461-10.023a67.924 67.924 0 0 0 6.9-6.956 59.997 59.997 0 0 0 1.77-2.159z" fill="#2d2d2d" fill-rule="evenodd"/></svg>