<svg fill="none" height="56" width="53" xmlns="http://www.w3.org/2000/svg"><path clip-rule="evenodd" d="M30.885 16.129c0 2.917-.816 5.642-2.23 7.953L51 51.682c-.916.618-2.84 1.947-3.206 2.318l-10.077-2.783-.458-7.42-5.497-.463.458-6.029-7.328-1.391-4.145-5.456a14.756 14.756 0 0 1-4.805.8C7.69 31.257 1 24.483 1 16.127 1 7.774 7.69 1 15.942 1c8.253 0 14.943 6.773 14.943 15.129zM15.942 22.62c3.542 0 6.413-2.907 6.413-6.492s-2.871-6.493-6.413-6.493c-3.541 0-6.412 2.907-6.412 6.493s2.87 6.492 6.412 6.492z" fill="#fff" fill-rule="evenodd"/><path d="M28.656 24.082l-.853-.522-.369.602.445.549zM51 51.682l.56.828.904-.61-.687-.848zM47.794 54l-.266.964.565.156.412-.417zm-10.077-2.782l-.998.061.044.712.688.19zm-.458-7.42l.998-.062-.053-.862-.861-.073zm-5.497-.464l-.997-.076-.075.989.988.083zm.458-6.029l.997.076.068-.892-.878-.166zm-7.328-1.391l-.797.605.233.305.377.072zm-4.145-5.456l.796-.605-.437-.575-.684.235zm8.762-5.855a16.197 16.197 0 0 0 2.376-8.474h-2c0 2.729-.763 5.273-2.082 7.431zm22.268 26.45l-22.344-27.6-1.554 1.258 22.344 27.6zm-3.272 3.65l.009-.008.026-.024.092-.077c.076-.063.175-.14.292-.229.235-.178.53-.391.846-.617a95.97 95.97 0 0 1 1.79-1.238l-1.12-1.658c-.462.313-1.18.805-1.829 1.267-.324.23-.637.457-.894.652-.238.18-.485.374-.635.526zM37.451 52.18l10.077 2.783.532-1.928-10.077-2.782zm-1.19-8.322l.458 7.42 1.996-.123-.458-7.42zm-4.583.471l5.497.464.168-1.993-5.497-.464zm-.455-7.1l-.458 6.028 1.994.151.458-6.028zm-6.518-.334l7.329 1.391.373-1.965-7.329-1.39zm-4.754-5.833l4.144 5.456 1.593-1.21-4.145-5.456zm-4.009 1.194c1.793 0 3.519-.3 5.13-.853l-.65-1.891c-1.405.482-2.911.744-4.48.744zM0 16.13c0 8.896 7.126 16.128 15.942 16.128v-2C8.254 30.257 2 23.943 2 16.13zM15.942 0C7.126 0 0 7.233 0 16.129h2C2 8.314 8.254 2 15.942 2zm15.943 16.129C31.885 7.233 24.759 0 15.942 0v2c7.689 0 13.943 6.314 13.943 14.129zm-10.53 0c0 3.045-2.435 5.492-5.412 5.492v2c4.105 0 7.412-3.366 7.412-7.492zm-5.412-5.493c2.977 0 5.412 2.448 5.412 5.493h2c0-4.127-3.307-7.493-7.412-7.493zM10.53 16.13c0-3.045 2.435-5.493 5.413-5.493v-2c-4.106 0-7.413 3.366-7.413 7.493zm5.413 5.492c-2.978 0-5.413-2.447-5.413-5.492h-2c0 4.126 3.307 7.492 7.413 7.492z" fill="#2d2d2d"/></svg>