<svg fill="none" height="55" width="56" xmlns="http://www.w3.org/2000/svg"><g fill="#2d2d2d"><path d="M7.686 8.023C2.748 12.988.073 19.417.18 26.373v2.444l-.004.043a.91.91 0 0 0 .904 1.004h.11c.427 0 .92-.39 1.01-1.028v-2.553C2.088 19.89 4.486 13.935 9.05 9.444c4.792-4.713 11.285-7.17 18.208-7.06 8.409.113 16.361 4.247 21.25 11.067.301.413.946.578 1.509.245.409-.301.557-.91.23-1.442C44.978 4.968 36.378.528 27.24.423h-.013c-7.523-.212-14.388 2.533-19.54 7.6z"/><path d="M22.56 10.07c-.488.127-.879.702-.76 1.258.124.46.707.868 1.303.742 1.364-.334 2.857-.562 4.255-.562h.018c9.53.226 17.402 7.685 17.521 16.818a84.575 84.575 0 0 1-.668 13.03c-.053.5.345 1.023.951 1.107h.064c.522 0 .956-.387 1.016-.858.547-4.415.766-8.83.657-13.246v-.011C46.81 18.152 38.017 9.76 27.35 9.546h-.324c-1.471 0-2.957.207-4.467.524zm31.527 11.225c-.247-.156-.507-.2-.712-.149l-.01.003-.01.002c-.66.144-.97.663-.858 1.157l.001.006c.336 1.539.565 3.099.57 4.778.11.805.11 1.702 0 2.59.025.503.514.942 1.01.942.587 0 1.01-.433 1.01-.98v-.048l.005-.048a9.547 9.547 0 0 0 0-2.416l-.006-.047v-.048c0-1.67-.211-3.457-.534-5.154a1.073 1.073 0 0 0-.466-.588z"/><path d="M27.695 18.779c-3.042.107-5.492 1.03-7.425 2.932-1.847 1.818-2.857 4.222-2.756 6.707v.015a72.63 72.63 0 0 1-1.561 16.356l-.002.01c-.134.592.29 1.098.679 1.146l.035.004.034.008c.604.132 1.071-.175 1.197-.729a72.182 72.182 0 0 0 1.639-16.764v-.015c0-2.031.73-3.97 2.213-5.428 2.211-2.175 5.127-2.28 5.94-2.28H27.71c4.47.118 8.02 3.686 8.024 7.917.11 5.57-.222 11.041-1.222 16.521-.04.398.265.918.886 1.086h.131c.595 0 .964-.345 1.016-.75l.002-.012.001-.012a107.697 107.697 0 0 0 1.316-16.818c-.106-5.324-4.608-9.782-10.168-9.894z"/><path d="M28.364 28.46c-.225-.187-.491-.262-.693-.237l-.046.005h-.046c-.445 0-.897.4-.9.976.111 8.002-1.003 15.89-3.116 23.551l-.112.44-.004.012c-.057.198-.044.532.1.793.116.207.332.411.83.411.477 0 .813-.25.929-.649l.01-.038.22-.539c2.182-7.849 3.272-15.8 3.163-24.075v-.01c0-.222-.114-.456-.335-.64zM12.367 16.34C9.72 19.572 8.245 23.63 8.35 27.777c.111 4.397-.334 8.784-1.112 12.944-.05.546.306 1.04.79 1.198h.227c.55 0 .967-.415 1.018-.763l.001-.01.002-.011c.767-4.418 1.202-8.82 1.094-13.32v-.019c0-3.746 1.156-7.287 3.594-10.256l.025-.03.03-.029c.285-.281.32-.85-.179-1.271-.441-.372-1.071-.327-1.474.128z"/></g></svg>