<svg fill="none" height="55" width="55" xmlns="http://www.w3.org/2000/svg"><path clip-rule="evenodd" d="M25.14.058C17.082.843 9.556 5.185 4.965 11.697c-5.874 8.332-6.597 19.51-1.85 28.578 2.11 4.031 5.343 7.624 9.131 10.151 2.93 1.954 6.366 3.386 9.775 4.074 3.378.68 7.703.666 11.154-.038C43.352 52.385 51.659 44.45 54.218 34.36c.333-1.311.656-3.198.743-4.345l-1.709-.203c-.569 5.889-3.066 11.323-7.148 15.553-2.027 2.1-4.548 3.95-7.118 5.222-.81.4-1.623.781-1.807.845l-.335.117.32-.4c.178-.22 1.535-1.85 3.017-3.622s2.814-3.465 2.961-3.76c.294-.591.481-1.655.484-2.753l.002-.71 1.317-.579c1.08-.474 1.424-.684 1.917-1.17.697-.685 1.006-1.42.996-2.363-.016-1.476-.854-2.3-2.486-2.45l-.822-.074-1.08-2.057c-1.322-2.522-1.537-2.833-2.324-3.358-.972-.649-1.368-.71-4.666-.71-3.143 0-3.656.077-4.33.641-.704.59-1.132.81-1.57.809-.493-.001-.73-.123-3.337-1.718l-1.669-1.02-.002-1.424-.003-1.423H27.807l.556.707c.592.753 1.02 1.012 1.67 1.012.417 0 .891-.204 1.134-.488.084-.099.928-1.613 1.875-3.365l1.721-3.185 1.289-.053c1.11-.047 1.335-.087 1.625-.294.542-.386.684-.905.684-2.493v-1.386l.318-.07c.702-.154 1.187-.8 1.187-1.58 0-.824-.223-1.033-3.092-2.924-2.996-1.972-4.193-2.677-5.067-2.98-.689-.24-7.516-.36-7.516-.36l.073 1.665s3.116.001 3.73.003c1.263.005 2.787.194 3.348.415.722.284 1.713.883 4.36 2.635l2.23 1.477-.446.236c-.727.384-.845.727-.845 2.458v1.479H35.53c-.955 0-1.178.035-1.583.249-.443.234-.547.39-1.745 2.605-.7 1.296-1.49 2.754-1.754 3.241l-.48.885-.452-.552c-.81-.99-.832-.998-2.707-1.037-1.498-.031-1.689-.014-2.087.19-.765.39-.872.751-.87 2.929.002 2.533-.162 2.295 2.876 4.168 1.317.812 2.608 1.537 2.87 1.61 1.123.314 2.354.013 3.316-.809.626-.536 1.19-.615 4.036-.563 2.664.049 2.886.094 3.523.72.186.183.784 1.19 1.33 2.238 1.655 3.179 1.72 3.25 2.973 3.25.841 0 1.192.132 1.334.504.084.222.07.4-.059.737-.228.598-.497.827-1.51 1.29-2.681 1.225-2.539 1.063-2.633 3.001-.052 1.072-.119 1.51-.288 1.88-.171.377-6.207 7.788-7.664 9.411-.235.262-.446.361-.983.463-.376.072-.769.155-.872.185-.173.05-.189-.06-.189-1.299V50.26l.807-2.313.806-2.313v-1.847c-.001-2.539.012-2.52-2.266-3.362-2.013-.743-2.218-.87-2.61-1.6-.214-.398-.23-.592-.237-2.685-.004-1.345-.055-2.396-.126-2.6-.444-1.292-1.437-2.45-2.606-3.04-.336-.169-1.913-.8-3.505-1.4s-2.904-1.102-2.917-1.115-.32-1.373-.682-3.024c-.394-1.795-.752-3.17-.89-3.416-.391-.704-.61-.764-2.92-.803l-2.044-.035-1.044-2.344-1.044-2.343.38-.876c.907-2.092.665-3.553-.868-5.236l-.701-.77.78-.715a31.25 31.25 0 0 1 1.762-1.466l.982-.75 1.664.704 1.664.704h7.968L24.19 5.95l-3.853-.054-3.852-.053-.837-.366-.836-.365.46-.275c.253-.151 1.017-.525 1.696-.83a25.672 25.672 0 0 1 19.296-.75c1.343.483 3.798 1.687 4.986 2.447l.901.576.022 1.07c.02.908.084 1.26.424 2.307.431 1.326.421 1.16.215 3.505-.18 2.04 1.376 4.217 3.439 4.812.618.179 4.613 1.074 5.288 1.185l.441.073.29.933c.461 1.487 1.026 4.578 1.031 5.639 0 .106-.05 4.009-.05 4.009l1.71.203s.08-4.073.008-4.921c-.309-3.655-1.617-7.946-3.337-10.95-1.402-2.45-2.706-4.15-4.72-6.154-4.38-4.362-9.936-7.096-15.94-7.844C29.836.004 26.247-.05 25.14.058zm19.82 8.469c1.511 1.318 3.456 3.696 4.658 5.695.623 1.035 1.343 2.394 1.532 2.893l.092.24-1.146-.251c-2.131-.468-3.51-.817-3.803-.964-.604-.304-1.438-1.248-1.64-1.857-.176-.528-.181-.68-.056-1.625.18-1.362.101-2.144-.368-3.647-.211-.68-.385-1.278-.385-1.33 0-.111.147 0 1.116.846zM9.42 11.78c.207.27.28.521.321 1.085.049.676.02.804-.355 1.636-.677 1.498-.68 1.475.646 4.451.631 1.417 1.218 2.683 1.303 2.816.363.562.587.615 2.829.673l2.096.053.668 3.023c.367 1.662.746 3.172.84 3.356s.293.412.438.508c.146.095 1.645.695 3.331 1.334 3.295 1.247 3.819 1.5 4.34 2.092.782.891.816 1.042.821 3.6.004 2.15.021 2.353.25 2.923.521 1.302 1.283 1.863 3.7 2.727l1.156.412v2.836l-.77 2.132-.769 2.131-.046 1.79-.045 1.789-.36.067c-.707.133-4.189.069-5.481-.1-5.81-.761-11.027-3.348-15.157-7.516-3.878-3.913-6.34-8.852-7.216-14.477-.265-1.707-.267-5.473-.003-7.176.738-4.755 2.568-8.931 5.544-12.648l.708-.884.471.508c.26.279.593.666.74.859z" fill="#fff" fill-rule="evenodd"/></svg>