<svg fill="none" height="99" width="96" xmlns="http://www.w3.org/2000/svg"><g stroke="#fff" stroke-width="2"><path d="M64.48 61.023C58.423 69.67 50.632 75.826 42.975 78.82c-7.664 2.996-15.074 2.787-20.562-1.056-5.488-3.843-8.217-10.736-8.022-18.963.195-8.218 3.317-17.644 9.373-26.29s13.847-14.804 21.503-17.797c7.665-2.995 15.075-2.787 20.563 1.056 5.488 3.844 8.216 10.736 8.021 18.963-.195 8.218-3.317 17.644-9.373 26.291z"/><path d="M72.474 66.444C66.418 75.09 58.627 81.246 50.97 84.239c-7.664 2.996-15.074 2.788-20.562-1.056-5.488-3.843-8.217-10.735-8.022-18.962.195-8.219 3.317-17.644 9.373-26.291 6.056-8.647 13.847-14.804 21.503-17.796 7.665-2.996 15.075-2.788 20.563 1.056 5.488 3.843 8.216 10.735 8.021 18.962-.195 8.219-3.317 17.645-9.373 26.291z"/></g></svg>