<svg fill="none" height="66" width="49" xmlns="http://www.w3.org/2000/svg"><clipPath id="a"><path d="M0 0h49v65.732H0z"/></clipPath><mask id="b" fill="#fff"><path clip-rule="evenodd" d="M2.294 18.463c1.28-5.245 6.57-8.46 11.816-7.18l14.248 3.475c5.246 1.28 8.461 6.57 7.181 11.817-1.28 5.246-6.57 8.46-11.816 7.18l-2.925-.713-8.111 33.244-3.522-.86-.031-.007-6.674-1.628a2.645 2.645 0 1 1 1.254-5.139l2.352.574.236-.969-.749-.182a2.346 2.346 0 0 1 1.112-4.558l.75.183 5.508-22.58-3.448-.84C4.23 29 1.014 23.71 2.294 18.463zm24.508 2.511L12.683 17.53a3.404 3.404 0 0 0-1.613 6.613l14.119 3.445a3.404 3.404 0 1 0 1.613-6.614z" fill-rule="evenodd"/></mask><mask id="c" fill="#fff"><path clip-rule="evenodd" d="M45.093 30.714a9.37 9.37 0 1 0-6.94 1.756l3.636 18.91a7.147 7.147 0 0 0 5.67-8.369zM40.89 22a1.578 1.578 0 1 1-3.1.596 1.578 1.578 0 0 1 3.1-.596z" fill-rule="evenodd"/></mask><g clip-path="url(#a)"><path d="M38.967 17.944c-.378-.045-.759-.08-1.117-.084-.675-.008-1.431.085-1.983.566-.523.455-.657 1.202-.698 1.832-.038.59-.001 1.267.033 1.894l.013.237c.038.723.059 1.352-.016 1.828-.078.5-.218.586-.284.608a12.413 12.413 0 0 1-3.943.639c-6.862 0-12.425-5.563-12.425-12.426C18.547 6.176 24.11.613 30.972.613c6.862 0 12.425 5.563 12.425 12.425 0 1.577-.293 3.084-.828 4.47z" stroke="#2d2d2d" stroke-width="1.222"/><path clip-rule="evenodd" d="M2.294 18.463c1.28-5.245 6.57-8.46 11.816-7.18l14.248 3.475c5.246 1.28 8.461 6.57 7.181 11.817-1.28 5.246-6.57 8.46-11.816 7.18l-2.925-.713-8.111 33.244-3.522-.86-.031-.007-6.674-1.628a2.645 2.645 0 1 1 1.254-5.139l2.352.574.236-.969-.749-.182a2.346 2.346 0 0 1 1.112-4.558l.75.183 5.508-22.58-3.448-.84C4.23 29 1.014 23.71 2.294 18.463zm24.508 2.511L12.683 17.53a3.404 3.404 0 0 0-1.613 6.613l14.119 3.445a3.404 3.404 0 1 0 1.613-6.614z" fill="#fff" fill-rule="evenodd"/><path d="M23.723 33.756l-.386 1.583zm-2.925-.714l.386-1.583-1.583-.386-.386 1.583zm-8.111 33.244l-.386 1.583 1.583.386.386-1.583zm-3.522-.86l.386-1.583-.01-.002zm-.031-.007l-.386 1.583.009.002zM2.46 63.791l-.386 1.583zm1.254-5.139l-.386 1.583zm2.352.574L5.68 60.81l1.583.386.386-1.583zm.236-.969l1.583.386.387-1.583-1.584-.386zm.363-4.74L6.28 55.1zm.75.183l-.387 1.583 1.583.386.386-1.583zm5.508-22.58l1.583.387.386-1.583-1.583-.386zm-3.448-.84l-.386 1.583zm1.595-6.137l.386-1.583zm14.119 3.445l-.387 1.583zM14.496 9.7C8.376 8.206 2.204 11.957.711 18.077l3.166.773a8.148 8.148 0 0 1 9.847-5.985zm14.248 3.476L14.496 9.7l-.772 3.166 14.248 3.477zm8.378 13.786c1.494-6.12-2.257-12.292-8.378-13.786l-.772 3.167a8.148 8.148 0 0 1 5.984 9.846zm-13.785 8.378c6.12 1.493 12.292-2.258 13.785-8.378l-3.166-.773a8.148 8.148 0 0 1-9.847 5.985zm-2.925-.714l2.925.714.772-3.166-2.925-.714zm-1.197-1.97L11.104 65.9l3.166.773 8.11-33.244zm-6.142 32.048l-3.522-.86-.773 3.166 3.523.86zm-3.531-.862l-.03-.007-.755 3.17.03.008zm-.022-.005l-6.673-1.628-.773 3.166 6.674 1.628zm-6.673-1.628A1.015 1.015 0 0 1 2.1 60.98l-3.166-.773a4.274 4.274 0 0 0 3.14 5.166zM2.1 60.98a1.015 1.015 0 0 1 1.227-.746L4.1 57.07a4.274 4.274 0 0 0-5.165 3.14zm1.227-.746l2.352.574.772-3.166-2.352-.574zm4.321-.623l.236-.969-3.166-.772-.236.969zm-.96-2.938l-.75-.183-.772 3.167.749.182zm-.75-.183a.716.716 0 0 1-.525-.865l-3.167-.772a3.975 3.975 0 0 0 2.92 4.804zm-.525-.865a.716.716 0 0 1 .865-.526l.772-3.166a3.975 3.975 0 0 0-4.804 2.92zm.865-.526l.749.183.772-3.166-.749-.183zm2.718-1.014l5.509-22.579-3.166-.772L5.83 53.314zm.092-22.223l3.448.841.772-3.166-3.448-.841zM.71 18.077c-1.493 6.12 2.258 12.293 8.378 13.786l.772-3.166a8.148 8.148 0 0 1-5.984-9.847zm11.586 1.036l14.119 3.445.772-3.167-14.118-3.444zm-2.144 1.303a1.774 1.774 0 0 1 2.144-1.303l.773-3.166a5.033 5.033 0 0 0-6.083 3.697zm1.303 2.144a1.774 1.774 0 0 1-1.303-2.144l-3.166-.772a5.033 5.033 0 0 0 3.697 6.082zm14.119 3.445L11.456 22.56l-.772 3.166 14.118 3.445zm2.144-1.303a1.774 1.774 0 0 1-2.144 1.303l-.773 3.166a5.033 5.033 0 0 0 6.083-3.697zm-1.303-2.144a1.774 1.774 0 0 1 1.303 2.144l3.166.772a5.033 5.033 0 0 0-3.697-6.083z" fill="#2d2d2d" mask="url(#b)"/><path clip-rule="evenodd" d="M45.093 30.714a9.37 9.37 0 1 0-6.94 1.756l3.636 18.91a7.147 7.147 0 0 0 5.67-8.369zM40.89 22a1.578 1.578 0 1 1-3.1.596 1.578 1.578 0 0 1 3.1-.596z" fill="#fff" fill-rule="evenodd"/><path d="M45.093 30.714l-.974-1.306-.82.61.194 1.004zm-6.94 1.757l1.6-.308-.219-1.139-1.147-.166zm3.636 18.908l-1.6.308.308 1.6 1.6-.307zm5.67-8.368l1.6-.308zm-1.392-10.99A11 11 0 0 0 50.3 21.118l-3.2.615a7.74 7.74 0 0 1-2.98 7.675zM50.3 21.118c-1.148-5.966-6.914-9.871-12.88-8.724l.616 3.2a7.74 7.74 0 0 1 9.063 6.14zm-12.88-8.724c-5.965 1.147-9.87 6.913-8.723 12.879l3.2-.616a7.74 7.74 0 0 1 6.14-9.063zm-8.723 12.879c.909 4.727 4.716 8.157 9.222 8.81l.468-3.225a7.744 7.744 0 0 1-6.49-6.2zM43.39 51.072l-3.637-18.91-3.2.616 3.636 18.91zm2.468-7.753a5.517 5.517 0 0 1-4.376 6.46l.615 3.2a8.777 8.777 0 0 0 6.961-10.276zm-2.365-12.297l2.365 12.297 3.2-.616-2.365-12.296zm-3.548-5.575a3.208 3.208 0 0 0 2.545-3.756l-3.2.615a.058.058 0 0 1 .007-.038.059.059 0 0 1 .032-.022zm-3.756-2.544a3.208 3.208 0 0 0 3.756 2.544l-.615-3.2a.059.059 0 0 1 .038.008.057.057 0 0 1 .021.033zm2.544-3.757a3.208 3.208 0 0 0-2.544 3.757l3.2-.616a.058.058 0 0 1-.007.038.058.058 0 0 1-.033.022zm3.757 2.545a3.208 3.208 0 0 0-3.757-2.545l.616 3.2a.057.057 0 0 1-.038-.007.058.058 0 0 1-.022-.033z" fill="#2d2d2d" mask="url(#c)"/></g></svg>