<svg width="131" height="130" fill="none" xmlns="http://www.w3.org/2000/svg"><path d="M92.081 65.807c-20.743 20.561-46.112 44.979-65.546 61.378V29.33h101.642l-1.258 1.296a2727.633 2727.633 0 0 1-34.838 35.18z" fill="#fff"/><path d="M92.081 65.807c-20.743 20.561-46.112 44.979-65.546 61.378V29.33h101.642l-1.258 1.296a2727.633 2727.633 0 0 1-34.838 35.18z" fill="url(#paint0_linear_432_3122)"/><path d="M92.081 65.807c-20.743 20.561-46.112 44.979-65.546 61.378V29.33h101.642l-1.258 1.296a2727.633 2727.633 0 0 1-34.838 35.18z" stroke="#2D2D2D" stroke-width="2"/><circle cx="39.535" cy="42.33" r="3" fill="#2D2D2D"/><circle cx="39.535" cy="94.33" r="3" fill="#2D2D2D"/><circle cx="39.535" cy="68.33" r="3" fill="#2D2D2D"/><circle cx="65.535" cy="42.33" r="3" fill="#2D2D2D"/><circle cx="65.535" cy="68.33" r="3" fill="#2D2D2D"/><circle cx="91.535" cy="42.33" r="3" fill="#2D2D2D"/><path d="M105.521 1.33H1.535v100.012m0-100.012l25 28M104.794 1l25 28M1.304 100.678l25 28" stroke="#2D2D2D" stroke-width="2"/><defs><linearGradient id="paint0_linear_432_3122" x1="78.035" y1="28.33" x2="78.035" y2="129.33" gradientUnits="userSpaceOnUse"><stop stop-color="#bfe9ff"/><stop offset="1" stop-color="#ff6e7f"/></linearGradient></defs></svg>