<svg width="68" height="56" fill="none" xmlns="http://www.w3.org/2000/svg"><path fill-rule="evenodd" clip-rule="evenodd" d="M1.885 33.941l-.07-.053.003-.004.008-.011.034-.043.127-.166c.113-.143.279-.353.496-.619a57.79 57.79 0 0 1 1.896-2.198 66.822 66.822 0 0 1 6.964-6.66c5.867-4.834 14.052-9.735 23.153-9.735 9.101 0 17.286 4.901 23.154 9.734a66.836 66.836 0 0 1 6.964 6.661 57.792 57.792 0 0 1 1.895 2.198 36.508 36.508 0 0 1 .624.785l.033.043.008.011.003.003v.001l-.07.053.075.055v.001l-.003.003-.009.012-.032.045c-.03.038-.072.096-.128.17-.113.147-.279.363-.496.637a58.907 58.907 0 0 1-1.895 2.262 67.737 67.737 0 0 1-6.963 6.856c-5.867 4.974-14.053 10.022-23.16 10.022s-17.293-5.048-23.16-10.022a67.727 67.727 0 0 1-6.963-6.856 58.893 58.893 0 0 1-1.895-2.262 37.963 37.963 0 0 1-.623-.807l-.033-.045L1.813 34l-.002-.003s-.001-.001.074-.056z" fill="#fff"/><path stroke="#2D2D2D" stroke-width="2" stroke-linecap="round" d="M34.256 9.648L34.256 1"/><path transform="rotate(-107.546 17.627 -4.147) skewX(-.096)" stroke="#2D2D2D" stroke-width="2" stroke-linecap="round" d="M1 -1L9.648 -1"/><path transform="matrix(.30147 -.95348 -.95398 -.29988 41.337 11.41)" stroke="#2D2D2D" stroke-width="2" stroke-linecap="round" d="M1 -1L9.648 -1"/><path transform="rotate(-52.145 40.395 -43.18) skewX(.161)" stroke="#2D2D2D" stroke-width="2" stroke-linecap="round" d="M1 -1L7.365 -1"/><path transform="matrix(-.61366 -.78957 -.7913 .61144 18.533 14.452)" stroke="#2D2D2D" stroke-width="2" stroke-linecap="round" d="M1 -1L7.365 -1"/><ellipse cx="34.496" cy="30.425" rx="11.402" ry="11.409" fill="#2D2D2D"/><path d="M41.857 31.186a7.364 7.364 0 0 1-7.361 7.366 7.364 7.364 0 0 1-7.362-7.366 7.364 7.364 0 0 1 7.362-7.367 7.364 7.364 0 0 1 7.361 7.367z" fill="#fff"/><path d="M41.857 31.186a7.364 7.364 0 0 1-7.361 7.366 7.364 7.364 0 0 1-7.362-7.366 7.364 7.364 0 0 1 7.362-7.367 7.364 7.364 0 0 1 7.361 7.367z" fill="url(#paint0_linear_750_3399)"/><path d="M41.857 31.186a7.364 7.364 0 0 1-7.361 7.366 7.364 7.364 0 0 1-7.362-7.366 7.364 7.364 0 0 1 7.362-7.367 7.364 7.364 0 0 1 7.361 7.367z" stroke="#2D2D2D" stroke-width="2"/><path d="M23.801 16.494c-4.416 3.355-7.161 8.847-6.855 14.91.486 9.628 8.48 17.05 17.856 16.576 9.375-.474 16.581-8.662 16.095-18.29-.306-6.064-3.59-11.252-8.322-14.144" stroke="#2D2D2D" stroke-width="2" stroke-linecap="round"/><path d="M34.257 26.241a3.182 3.182 0 0 1-3.181 3.184 3.182 3.182 0 0 1-3.181-3.184 3.182 3.182 0 0 1 3.18-3.183 3.182 3.182 0 0 1 3.182 3.183z" fill="#fff" stroke="#2D2D2D" stroke-width="2"/><path fill-rule="evenodd" clip-rule="evenodd" d="M1.286 33.84l-.28-.207.002-.001.002-.004.01-.013.034-.046.132-.173c.116-.15.286-.368.509-.645a59.543 59.543 0 0 1 1.936-2.278 68.662 68.662 0 0 1 7.107-6.9c5.977-4.998 14.376-10.121 23.758-10.121 9.383 0 17.781 5.123 23.758 10.12a68.665 68.665 0 0 1 7.108 6.9c.839.941 1.491 1.727 1.936 2.28a38.679 38.679 0 0 1 .64.817l.035.046.01.013.002.004c.001.001.001.001-.279.209l.29.207v.001l-.003.004-.01.013-.034.048-.132.18c-.115.156-.286.382-.508.669a61.297 61.297 0 0 1-1.935 2.365 69.939 69.939 0 0 1-7.105 7.163c-5.974 5.187-14.377 10.513-23.773 10.513-9.395 0-17.798-5.326-23.772-10.513a69.934 69.934 0 0 1-7.105-7.163 61.307 61.307 0 0 1-1.936-2.366 39.92 39.92 0 0 1-.64-.848l-.034-.048-.01-.013-.002-.004c-.001-.001-.001-.001.29-.208zm64.342.027a58.363 58.363 0 0 0-1.76-2.063 66.659 66.659 0 0 0-6.896-6.697c-5.85-4.89-13.795-9.655-22.476-9.655-8.68 0-16.625 4.764-22.475 9.655a66.659 66.659 0 0 0-6.897 6.697 58.395 58.395 0 0 0-1.76 2.063 60.132 60.132 0 0 0 1.772 2.158 67.928 67.928 0 0 0 6.9 6.956c5.852 5.082 13.792 10.023 22.46 10.023 8.668 0 16.608-4.941 22.461-10.023a67.924 67.924 0 0 0 6.9-6.956 60.086 60.086 0 0 0 1.77-2.158z" fill="#2D2D2D"/><defs><linearGradient id="paint0_linear_750_3399" x1="34.496" y1="22.819" x2="34.496" y2="39.552" gradientUnits="userSpaceOnUse"><stop stop-color="#ff6e7f"/><stop offset="1" stop-color="#bfe9ff"/></linearGradient></defs></svg>