<svg width="229" height="237" fill="none" xmlns="http://www.w3.org/2000/svg"><g clip-path="url(#clip0_505_5088)"><mask id="a" fill="#fff"><path fill-rule="evenodd" clip-rule="evenodd" d="M207.756 207.023c32.917-29.543 22.016-96.07-24.513-148.937C136.714 5.219 72.11-14.044 38.626 14.855h-.003l-.302.265-.073.064-.074.065-16.816 14.8 8.556-5.506c-22.659 32.608-9.79 91.894 32.471 139.912 42.261 48.017 99.433 68.312 134.655 49.979l-6.549 7.788 17.265-15.196v-.003z"/></mask><path fill-rule="evenodd" clip-rule="evenodd" d="M207.756 207.023c32.917-29.543 22.016-96.07-24.513-148.937C136.714 5.219 72.11-14.044 38.626 14.855h-.003l-.302.265-.073.064-.074.065-16.816 14.8 8.556-5.506c-22.659 32.608-9.79 91.894 32.471 139.912 42.261 48.017 99.433 68.312 134.655 49.979l-6.549 7.788 17.265-15.196v-.003z" fill="#F5F5F5"/><path d="M207.756 207.023l-1.336-1.489-.667.599.003.895 2-.005zM38.626 14.855l-.26 1.983.889.116.678-.585-1.307-1.514zm-.003 0l.26-1.984-.9-.117-.681.599 1.321 1.501zm-.302.265l1.319 1.504.002-.003-1.321-1.501zm-.147.129l1.322 1.501.003-.002-1.325-1.499zm-16.816 14.8l-1.322-1.5 2.404 3.183-1.082-1.682zm8.556-5.506l1.642 1.14-2.725-2.822 1.083 1.681zM197.04 214.433l1.531 1.287-2.454-3.061.923 1.774zm-6.549 7.788l-1.531-1.288 2.852 2.789-1.321-1.501zm17.265-15.196l1.321 1.501.682-.599-.003-.908-2 .006zM181.742 59.407c23.055 26.196 37.219 55.709 41.576 82.218 4.362 26.541-1.128 49.756-16.898 63.909l2.672 2.977c17.147-15.389 22.664-40.209 18.173-67.535-4.496-27.357-19.047-57.54-42.52-84.211l-3.003 2.642zM39.932 16.37C55.975 2.524 79.7.027 105.472 7.725c25.74 7.689 53.215 25.486 76.271 51.682l3.003-2.642c-23.474-26.671-51.565-44.938-78.13-52.873-26.533-7.925-51.853-5.605-69.296 9.449l2.614 3.028zm-1.568.468h.003l.518-3.966h-.003l-.518 3.966zm1.278-.216l.302-.265-2.642-3.003-.302.266 2.642 3.002zm-.073.065l.07-.062-2.637-3.008-.076.067 2.643 3.003zm-.07.062l.07-.062-2.643-3.003-.076.067 2.649 2.998zM22.679 31.55l16.817-14.8-2.643-3.003-16.817 14.8 2.643 3.003zm6.152-8.69l-8.556 5.507 2.165 3.364 8.556-5.508-2.165-3.363zm35.055 140.272c-20.937-23.789-34.546-50.32-40.131-74.857-5.593-24.57-3.099-46.906 7.801-62.592L28.271 23.4c-11.759 16.923-14.159 40.534-8.416 65.763 5.75 25.264 19.705 52.384 41.029 76.612l3.002-2.643zm132.231 49.527c-16.944 8.819-39.416 8.456-63.077-.212-23.628-8.656-48.216-25.525-69.153-49.315l-3.003 2.643c21.323 24.228 46.452 41.515 70.78 50.428 24.296 8.901 48.021 9.518 66.3.004l-1.847-3.548zm-.607.487l-6.55 7.787 3.061 2.575 6.55-7.788-3.061-2.574zm-3.698 10.576l17.265-15.196-2.642-3.002-17.266 15.195 2.643 3.003zm17.944-16.703v-.003l-4 .011v.004l4-.012z" fill="#2D2D2D" mask="url(#a)"/><path d="M165.978 73.281c23.247 26.415 37.528 56.221 41.862 83.02 4.336 26.815-1.298 50.461-17.635 64.839-16.337 14.379-40.507 16.963-66.554 9.256-26.032-7.702-53.782-25.653-77.03-52.067-23.248-26.414-37.528-56.22-41.862-83.02C.423 68.496 6.056 44.85 22.393 30.47c16.338-14.378 40.508-16.963 66.555-9.256 26.032 7.702 53.782 25.653 77.03 52.067z" fill="url(#paint0_linear_505_5088)" stroke="#2D2D2D" stroke-width="2"/></g><defs><linearGradient id="paint0_linear_505_5088" x1="21.733" y1="29.719" x2="190.866" y2="221.891" gradientUnits="userSpaceOnUse"><stop stop-color="#bfe9ff"/><stop offset="1" stop-color="#ff6e7f"/></linearGradient><clipPath id="clip0_505_5088"><path fill="#fff" d="M0 0H229V237H0z"/></clipPath></defs></svg>