<svg width="53" height="56" fill="none" xmlns="http://www.w3.org/2000/svg"><path fill-rule="evenodd" clip-rule="evenodd" d="M31 16c0 2.946-.85 5.694-2.317 8.012L51 51.652c-.925.626-2.869 1.972-3.239 2.348l-10.179-2.818-.463-7.515-5.552-.47.463-6.106-7.403-1.41-4.08-5.383A14.991 14.991 0 0 1 16 31C7.716 31 1 24.284 1 16 1 7.716 7.716 1 16 1c8.284 0 15 6.716 15 15zm-14.5 7a6.5 6.5 0 1 0 0-13 6.5 6.5 0 0 0 0 13z" fill="#fff"/><path d="M28.683 24.012l-.845-.535-.383.606.45.558.778-.629zM51 51.652l.56.828.902-.61-.684-.847-.778.628zM47.761 54l-.267.964.567.157.413-.42L47.76 54zm-10.179-2.818l-.998.061.044.712.687.19.267-.963zm-.463-7.515l.998-.062-.053-.862-.86-.073-.085.997zm-5.552-.47l-.997-.076-.075.989.988.083.084-.996zm.463-6.106l.997.075.067-.89-.877-.168-.187.983zm-7.403-1.41l-.797.605.232.306.378.072.187-.982zm-4.08-5.383l.798-.604-.427-.563-.673.214.302.953zm8.981-5.75A15.93 15.93 0 0 0 32 16h-2a13.93 13.93 0 0 1-2.162 7.477l1.69 1.07zm22.25 26.475L29.461 23.384l-1.556 1.256 22.317 27.64 1.556-1.257zm-3.304 3.679l.009-.009a10.5 10.5 0 0 1 .415-.334c.237-.18.535-.397.855-.625.64-.456 1.35-.944 1.807-1.254l-1.12-1.657c-.468.317-1.192.815-1.848 1.282-.328.234-.643.464-.904.661-.24.183-.488.379-.64.532l1.426 1.404zm-11.159-2.556l10.18 2.818.533-1.928-10.18-2.818-.533 1.927zm-1.194-8.418l.463 7.515 1.996-.123-.462-7.515-1.997.123zm-4.638.465l5.552.47.169-1.993-5.553-.47-.168 1.993zm-.45-7.178l-.463 6.106 1.994.151.463-6.106-1.994-.15zm-6.593-.35l7.403 1.408.374-1.965-7.403-1.409-.374 1.965zm-4.69-5.763l4.08 5.384 1.594-1.208-4.08-5.384-1.594 1.208zM16 32c1.69 0 3.32-.262 4.85-.749l-.605-1.906A13.99 13.99 0 0 1 16 30v2zM0 16c0 8.837 7.163 16 16 16v-2C8.268 30 2 23.732 2 16H0zM16 0C7.163 0 0 7.163 0 16h2C2 8.268 8.268 2 16 2V0zm16 16c0-8.837-7.163-16-16-16v2c7.732 0 14 6.268 14 14h2zm-10 .5a5.5 5.5 0 0 1-5.5 5.5v2a7.5 7.5 0 0 0 7.5-7.5h-2zM16.5 11a5.5 5.5 0 0 1 5.5 5.5h2A7.5 7.5 0 0 0 16.5 9v2zM11 16.5a5.5 5.5 0 0 1 5.5-5.5V9A7.5 7.5 0 0 0 9 16.5h2zm5.5 5.5a5.5 5.5 0 0 1-5.5-5.5H9a7.5 7.5 0 0 0 7.5 7.5v-2z" fill="#2D2D2D"/><circle cx="16.5" cy="16.5" r="5.5" fill="url(#paint0_linear_906_1197)"/><defs><linearGradient id="paint0_linear_906_1197" x1="11" y1="11" x2="23.066" y2="12.331" gradientUnits="userSpaceOnUse"><stop stop-color="#bfe9ff"/><stop offset="1" stop-color="#ff6e7f"/></linearGradient></defs></svg>