<svg width="43" height="42" fill="none" xmlns="http://www.w3.org/2000/svg"><path d="M1.596 2.528l17.033 35.88 20.727-22.565L1.596 2.528z" fill="#F5F5F5" stroke="#2D2D2D"/><path d="M40.628 16.211c.599.547.946 1.376 1.012 2.474.067 1.102-.154 2.44-.66 3.934-1.008 2.987-3.12 6.506-6.11 9.827-2.991 3.321-6.262 5.781-9.116 7.084-1.427.651-2.728 1.003-3.823 1.044-1.092.04-1.945-.227-2.544-.774-.598-.546-.946-1.375-1.012-2.474-.066-1.101.155-2.44.66-3.934 1.009-2.987 3.12-6.505 6.111-9.826 2.99-3.322 6.262-5.781 9.115-7.084 1.428-.652 2.728-1.003 3.823-1.044 1.092-.041 1.945.226 2.544.773z" fill="#fff"/><path d="M40.628 16.211c.599.547.946 1.376 1.012 2.474.067 1.102-.154 2.44-.66 3.934-1.008 2.987-3.12 6.506-6.11 9.827-2.991 3.321-6.262 5.781-9.116 7.084-1.427.651-2.728 1.003-3.823 1.044-1.092.04-1.945-.227-2.544-.774-.598-.546-.946-1.375-1.012-2.474-.066-1.101.155-2.44.66-3.934 1.009-2.987 3.12-6.505 6.111-9.826 2.99-3.322 6.262-5.781 9.115-7.084 1.428-.652 2.728-1.003 3.823-1.044 1.092-.041 1.945.226 2.544.773z" fill="url(#paint0_linear_904_1302)"/><path d="M40.628 16.211c.599.547.946 1.376 1.012 2.474.067 1.102-.154 2.44-.66 3.934-1.008 2.987-3.12 6.506-6.11 9.827-2.991 3.321-6.262 5.781-9.116 7.084-1.427.651-2.728 1.003-3.823 1.044-1.092.04-1.945-.227-2.544-.774-.598-.546-.946-1.375-1.012-2.474-.066-1.101.155-2.44.66-3.934 1.009-2.987 3.12-6.505 6.111-9.826 2.99-3.322 6.262-5.781 9.115-7.084 1.428-.652 2.728-1.003 3.823-1.044 1.092-.041 1.945.226 2.544.773z" stroke="#2D2D2D"/><defs><linearGradient id="paint0_linear_904_1302" x1="24.777" y1="23.228" x2="35.306" y2="32.709" gradientUnits="userSpaceOnUse"><stop stop-color="#bfe9ff"/><stop offset="1" stop-color="#ff6e7f"/></linearGradient></defs></svg>