<svg width="55" height="54" fill="none" xmlns="http://www.w3.org/2000/svg"><path d="M7.618 7.541C2.725 12.46.074 18.83.18 25.721v2.422l-.004.042a.902.902 0 0 0 .895.995h.11c.423 0 .912-.386 1-1.018v-2.53C2.071 19.298 4.447 13.4 8.97 8.95c4.748-4.67 11.182-7.105 18.042-6.995 8.332.111 16.212 4.207 21.056 10.964.299.41.938.573 1.496.243.405-.299.551-.902.228-1.43C44.57 4.516 36.049.117 26.992.013h-.012c-7.454-.21-14.257 2.51-19.362 7.53z" fill="url(#paint0_linear_1264_1798)"/><path d="M22.356 9.57c-.483.125-.87.695-.752 1.245.122.457.7.86 1.29.736 1.352-.331 2.832-.557 4.216-.557H27.128c9.444.224 17.245 7.614 17.362 16.662a83.77 83.77 0 0 1-.661 12.91c-.053.494.341 1.013.942 1.097h.064c.517 0 .946-.384 1.006-.85.542-4.375.76-8.75.65-13.124v-.01C46.388 17.575 37.672 9.261 27.104 9.05h-.32c-1.459 0-2.931.204-4.427.519z" fill="url(#paint1_linear_1264_1798)"/><path d="M53.597 20.69c-.245-.154-.503-.197-.706-.147l-.01.003-.009.002c-.655.143-.961.657-.85 1.146v.006c.333 1.524.56 3.07.565 4.733.11.799.108 1.687 0 2.567.025.498.51.933 1 .933.582 0 1-.429 1-.971v-.048l.007-.047a9.454 9.454 0 0 0 0-2.393l-.006-.047v-.048c0-1.654-.21-3.425-.529-5.106a1.063 1.063 0 0 0-.462-.582z" fill="url(#paint2_linear_1264_1798)"/><path d="M27.445 18.198c-3.015.105-5.442 1.02-7.358 2.905-1.83 1.8-2.83 4.182-2.73 6.644v.016a71.949 71.949 0 0 1-1.548 16.204l-.002.01c-.132.586.288 1.088.673 1.135l.035.004.034.008c.598.13 1.061-.174 1.186-.722a71.496 71.496 0 0 0 1.623-16.61v-.014c0-2.012.725-3.933 2.194-5.377 2.191-2.155 5.08-2.26 5.887-2.26h.02c4.428.118 7.946 3.653 7.95 7.845.11 5.517-.22 10.939-1.21 16.367-.04.395.263.91.878 1.076h.13c.589 0 .955-.341 1.006-.743l.002-.012.002-.012A106.696 106.696 0 0 0 37.52 28c-.105-5.275-4.566-9.692-10.076-9.802z" fill="url(#paint3_linear_1264_1798)"/><path d="M28.108 27.79c-.224-.186-.487-.26-.687-.236l-.046.006h-.046c-.44 0-.888.395-.89.967.109 7.928-.995 15.742-3.09 23.332l-.11.436-.003.012c-.058.196-.044.527.1.785.113.206.327.408.82.408.473 0 .806-.247.921-.643l.011-.037.217-.535c2.163-7.776 3.242-15.654 3.134-23.851v-.01c0-.221-.113-.453-.331-.634z" fill="url(#paint4_linear_1264_1798)"/><path d="M12.256 15.78c-2.623 3.204-4.084 7.224-3.98 11.333.11 4.356-.33 8.703-1.1 12.825-.05.54.302 1.03.782 1.187h.224c.545 0 .96-.412 1.01-.757v-.01l.002-.01c.76-4.377 1.192-8.738 1.084-13.197v-.019c0-3.711 1.146-7.219 3.561-10.16l.026-.031.028-.028c.283-.279.318-.843-.176-1.26-.437-.368-1.062-.323-1.461.127z" fill="url(#paint5_linear_1264_1798)"/><defs><linearGradient id="paint0_linear_1264_1798" x1="27.42" x2="27.42" y2="53.5" gradientUnits="userSpaceOnUse"><stop stop-color="#bfe9ff"/><stop offset="1" stop-color="#ff6e7f"/></linearGradient><linearGradient id="paint1_linear_1264_1798" x1="27.42" x2="27.42" y2="53.5" gradientUnits="userSpaceOnUse"><stop stop-color="#bfe9ff"/><stop offset="1" stop-color="#ff6e7f"/></linearGradient><linearGradient id="paint2_linear_1264_1798" x1="27.42" x2="27.42" y2="53.5" gradientUnits="userSpaceOnUse"><stop stop-color="#bfe9ff"/><stop offset="1" stop-color="#ff6e7f"/></linearGradient><linearGradient id="paint3_linear_1264_1798" x1="27.42" x2="27.42" y2="53.5" gradientUnits="userSpaceOnUse"><stop stop-color="#bfe9ff"/><stop offset="1" stop-color="#ff6e7f"/></linearGradient><linearGradient id="paint4_linear_1264_1798" x1="27.42" x2="27.42" y2="53.5" gradientUnits="userSpaceOnUse"><stop stop-color="#bfe9ff"/><stop offset="1" stop-color="#ff6e7f"/></linearGradient><linearGradient id="paint5_linear_1264_1798" x1="27.42" x2="27.42" y2="53.5" gradientUnits="userSpaceOnUse"><stop stop-color="#bfe9ff"/><stop offset="1" stop-color="#ff6e7f"/></linearGradient></defs></svg>