<svg width="45" height="56" fill="none" xmlns="http://www.w3.org/2000/svg"><path fill-rule="evenodd" clip-rule="evenodd" d="M18.47 1C11.237 1 5.373 6.864 5.373 14.097v10.379h26.194V14.097C31.567 6.864 25.704 1 18.47 1zm0 4.695a8.396 8.396 0 0 0-8.395 8.396v10.385h16.79V14.09a8.396 8.396 0 0 0-8.395-8.396z" fill="#FBFBFB"/><path d="M5.373 24.476h-1v1h1v-1zm26.194 0v1h1v-1h-1zm-21.492 0h-1v1h1v-1zm16.79 0v1h1v-1h-1zM6.374 14.097C6.373 7.417 11.79 2 18.47 2V0C10.685 0 4.373 6.311 4.373 14.097h2zm0 10.379V14.097h-2v10.379h2zm25.194-1H5.373v2h26.194v-2zm-1-9.379v10.379h2V14.097h-2zM18.47 2c6.681 0 12.097 5.416 12.097 12.097h2C32.567 6.311 26.256 0 18.47 0v2zm-7.395 12.09a7.396 7.396 0 0 1 7.395-7.395v-2a9.396 9.396 0 0 0-9.395 9.396h2zm0 10.386V14.09h-2v10.385h2zm15.79-1h-16.79v2h16.79v-2zm-1-9.385v10.385h2V14.09h-2zM18.47 6.695a7.396 7.396 0 0 1 7.396 7.396h2a9.396 9.396 0 0 0-9.396-9.396v2z" fill="#2D2D2D"/><path fill="#FBFBFB" stroke="#2D2D2D" stroke-width="2" d="M1 22.793H35.941V55H1z"/><path fill-rule="evenodd" clip-rule="evenodd" d="M21.45 40.194A5.448 5.448 0 0 0 18.89 29.93a5.453 5.453 0 0 0-5.456 5.45 5.446 5.446 0 0 0 2.737 4.726l-.722 7.138h6.716l-.714-7.051z" fill="#2D2D2D"/><ellipse cx="36.84" cy="22.74" rx="8.16" ry="8.143" fill="url(#paint0_linear_750_3429)"/><path d="M32.869 22.69l2.553 2.548 4.703-4.693" stroke="#FBFBFB" stroke-width="2"/><defs><linearGradient id="paint0_linear_750_3429" x1="28.68" y1="14.597" x2="46.581" y2="16.575" gradientUnits="userSpaceOnUse"><stop stop-color="#ff6e7f"/><stop offset="1" stop-color="#bfe9ff"/></linearGradient></defs></svg>