<svg width="86" height="109" fill="none" xmlns="http://www.w3.org/2000/svg"><g clip-path="url(#clip0_505_5095)"><path d="M3.115 2.177l13.478 97.76L82.615 62.8 3.115 2.177z" fill="#F5F5F5" stroke="#2D2D2D" stroke-width="2"/><path d="M82.885 63.732c.99 1.722 1.175 3.892.525 6.44-.652 2.554-2.13 5.42-4.357 8.42-4.453 5.996-11.785 12.369-20.958 17.65-9.172 5.28-18.366 8.421-25.787 9.262-3.713.42-6.933.259-9.469-.46-2.53-.717-4.314-1.966-5.305-3.688-.992-1.722-1.176-3.893-.526-6.44.652-2.555 2.13-5.42 4.357-8.42 4.453-5.996 11.786-12.369 20.958-17.65 9.173-5.28 18.366-8.422 25.787-9.262 3.713-.42 6.933-.26 9.469.46 2.53.716 4.314 1.966 5.306 3.688z" fill="#fff"/><path d="M82.885 63.732c.99 1.722 1.175 3.892.525 6.44-.652 2.554-2.13 5.42-4.357 8.42-4.453 5.996-11.785 12.369-20.958 17.65-9.172 5.28-18.366 8.421-25.787 9.262-3.713.42-6.933.259-9.469-.46-2.53-.717-4.314-1.966-5.305-3.688-.992-1.722-1.176-3.893-.526-6.44.652-2.555 2.13-5.42 4.357-8.42 4.453-5.996 11.786-12.369 20.958-17.65 9.173-5.28 18.366-8.422 25.787-9.262 3.713-.42 6.933-.26 9.469.46 2.53.716 4.314 1.966 5.306 3.688z" fill="url(#paint0_linear_505_5095)"/><path d="M82.885 63.732c.99 1.722 1.175 3.892.525 6.44-.652 2.554-2.13 5.42-4.357 8.42-4.453 5.996-11.785 12.369-20.958 17.65-9.172 5.28-18.366 8.421-25.787 9.262-3.713.42-6.933.259-9.469-.46-2.53-.717-4.314-1.966-5.305-3.688-.992-1.722-1.176-3.893-.526-6.44.652-2.555 2.13-5.42 4.357-8.42 4.453-5.996 11.786-12.369 20.958-17.65 9.173-5.28 18.366-8.422 25.787-9.262 3.713-.42 6.933-.26 9.469.46 2.53.716 4.314 1.966 5.306 3.688z" stroke="#2D2D2D" stroke-width="2"/></g><defs><linearGradient id="paint0_linear_505_5095" x1="41.824" y1="67.98" x2="58.594" y2="97.108" gradientUnits="userSpaceOnUse"><stop stop-color="#bfe9ff"/><stop offset="1" stop-color="#ff6e7f"/></linearGradient><clipPath id="clip0_505_5095"><path fill="#fff" d="M0 0H86V109H0z"/></clipPath></defs></svg>