<svg width="34" height="34" fill="none" xmlns="http://www.w3.org/2000/svg"><path d="M10.344 14.452a1449.54 1449.54 0 0 1-4.955-7.084c-.284-.434-.426-.8-.426-1.099 0-.269.097-.5.292-.695a.94.94 0 0 1 .717-.313c.389 0 1.054.32 1.995.963l6.322 4.26c.822-4.409 1.345-7.166 1.57-8.272C16.081 1.09 16.522.53 17.18.53c.418 0 .747.217.986.65.24.434.86 3.535 1.861 9.304 4.454-2.99 6.875-4.603 7.263-4.842.404-.254.77-.381 1.099-.381a1 1 0 0 1 .695.29.85.85 0 0 1 .313.673c0 .39-.35 1.077-1.053 2.063l-4.327 6.165c5.32 1.06 8.272 1.659 8.855 1.793.583.135.875.486.875 1.054 0 .314-.105.56-.314.74-.21.179-1.226.448-3.05.807l-6.366 1.3c3.02 4.244 4.67 6.59 4.955 7.039.284.433.425.807.425 1.12 0 .27-.09.502-.268.696a.94.94 0 0 1-.695.269c-.464 0-1.181-.329-2.152-.986l-6.255-4.193c-.867 4.843-1.405 7.705-1.614 8.586C18.22 33.56 17.809 34 17.18 34a1.15 1.15 0 0 1-.807-.336c-.24-.224-.493-1.069-.762-2.534l-1.323-7.039c-4.32 2.915-6.695 4.506-7.129 4.775-.418.27-.814.404-1.188.404-.254 0-.486-.09-.695-.27a.916.916 0 0 1-.314-.694c0-.389.366-1.091 1.099-2.107l4.282-6.053c-5.754-1.15-8.818-1.801-9.192-1.95-.358-.15-.538-.471-.538-.964 0-.3.082-.531.247-.695.18-.165.755-.344 1.726-.538l7.757-1.547z" fill="#bfe9ff"/></svg>